<?xml version="1.0"?><!DOCTYPE svg PUBLIC "-//W3C//DTD util.SVG 1.0//EN" "http://www.w3.org/TR/2001/REC-util.SVG-20010904/DTD/svg10.dtd"><svg xmlns="http://www.w3.org/2000/svg" height="1600" width="1600" text-rendering="auto" shape-rendering="auto"><rect x="0" y="0" width="100" height="100" style=";stroke:rgb(0,0,0);fill:rgb(255,255,0)" /><rect x="100" y="0" width="100" height="100" style=";stroke:rgb(0,0,0);fill:rgb(255,255,255)" /><rect x="200" y="0" width="100" height="100" style=";stroke:rgb(0,0,0);fill:rgb(255,255,255)" /><rect x="300" y="0" width="100" height="100" style=";stroke:rgb(0,0,0);fill:rgb(128,128,128)" /><rect x="400" y="0" width="100" height="100" style=";stroke:rgb(0,0,0);fill:rgb(128,128,128)" /><rect x="500" y="0" width="100" height="100" style=";stroke:rgb(0,0,0);fill:rgb(128,128,128)" /><rect x="600" y="0" width="100" height="100" style=";stroke:rgb(0,0,0);fill:rgb(128,128,128)" /><rect x="700" y="0" width="100" height="100" style=";stroke:rgb(0,0,0);fill:rgb(255,255,255)" /><rect x="800" y="0" width="100" height="100" style=";stroke:rgb(0,0,0);fill:rgb(255,255,255)" /><rect x="900" y="0" width="100" height="100" style=";stroke:rgb(0,0,0);fill:rgb(128,128,128)" /><rect x="1000" y="0" width="100" height="100" style=";stroke:rgb(0,0,0);fill:rgb(255,255,255)" /><rect x="1100" y="0" width="100" height="100" style=";stroke:rgb(0,0,0);fill:rgb(255,255,255)" /><rect x="1200" y="0" width="100" height="100" style=";stroke:rgb(0,0,0);fill:rgb(128,128,128)" /><rect x="1300" y="0" width="100" height="100" style=";stroke:rgb(0,0,0);fill:rgb(255,255,0)" /><rect x="1400" y="0" width="100" height="100" style=";stroke:rgb(0,0,0);fill:rgb(255,255,255)" /><rect x="1500" y="0" width="100" height="100" style=";stroke:rgb(0,0,0);fill:rgb(128,128,128)" /><rect x="0" y="100" width="100" height="100" style=";stroke:rgb(0,0,0);fill:rgb(255,255,255)" /><rect x="100" y="100" width="100" height="100" style=";stroke:rgb(0,0,0);fill:rgb(128,128,128)" /><rect x="200" y="100" width="100" height="100" style=";stroke:rgb(0,0,0);fill:rgb(255,255,255)" /><rect x="300" y="100" width="100" height="100" style=";stroke:rgb(0,0,0);fill:rgb(128,128,128)" /><rect x="400" y="100" width="100" height="100" style=";stroke:rgb(0,0,0);fill:rgb(128,128,128)" /><rect x="500" y="100" width="100" height="100" style=";stroke:rgb(0,0,0);fill:rgb(128,128,128)" /><rect x="600" y="100" width="100" height="100" style=";stroke:rgb(0,0,0);fill:rgb(255,255,255)" /><rect x="700" y="100" width="100" height="100" style=";stroke:rgb(0,0,0);fill:rgb(255,255,255)" /><rect x="800" y="100" width="100" height="100" style=";stroke:rgb(0,0,0);fill:rgb(255,255,255)" /><rect x="900" y="100" width="100" height="100" style=";stroke:rgb(0,0,0);fill:rgb(128,128,128)" /><rect x="1000" y="100" width="100" height="100" style=";stroke:rgb(0,0,0);fill:rgb(255,255,255)" /><rect x="1100" y="100" width="100" height="100" style=";stroke:rgb(0,0,0);fill:rgb(128,128,128)" /><rect x="1200" y="100" width="100" height="100" style=";stroke:rgb(0,0,0);fill:rgb(255,255,255)" /><rect x="1300" y="100" width="100" height="100" style=";stroke:rgb(0,0,0);fill:rgb(128,128,128)" /><rect x="1400" y="100" width="100" height="100" style=";stroke:rgb(0,0,0);fill:rgb(255,255,255)" /><rect x="1500" y="100" width="100" height="100" style=";stroke:rgb(0,0,0);fill:rgb(128,128,128)" /><rect x="0" y="200" width="100" height="100" style=";stroke:rgb(0,0,0);fill:rgb(255,255,255)" /><rect x="100" y="200" width="100" height="100" style=";stroke:rgb(0,0,0);fill:rgb(128,128,128)" /><rect x="200" y="200" width="100" height="100" style=";stroke:rgb(0,0,0);fill:rgb(255,255,255)" /><rect x="300" y="200" width="100" height="100" style=";stroke:rgb(0,0,0);fill:rgb(255,255,255)" /><rect x="400" y="200" width="100" height="100" style=";stroke:rgb(0,0,0);fill:rgb(255,255,255)" /><rect x="500" y="200" width="100" height="100" style=";stroke:rgb(0,0,0);fill:rgb(128,128,128)" /><rect x="600" y="200" width="100" height="100" style=";stroke:rgb(0,0,0);fill:rgb(128,128,128)" /><rect x="700" y="200" width="100" height="100" style=";stroke:rgb(0,0,0);fill:rgb(128,128,128)" /><rect x="800" y="200" width="100" height="100" style=";stroke:rgb(0,0,0);fill:rgb(255,255,255)" /><rect x="900" y="200" width="100" height="100" style=";stroke:rgb(0,0,0);fill:rgb(128,128,128)" /><rect x="1000" y="200" width="100" height="100" style=";stroke:rgb(0,0,0);fill:rgb(128,128,128)" /><rect x="1100" y="200" width="100" height="100" style=";stroke:rgb(0,0,0);fill:rgb(128,128,128)" /><rect x="1200" y="200" width="100" height="100" style=";stroke:rgb(0,0,0);fill:rgb(128,128,128)" /><rect x="1300" y="200" width="100" height="100" style=";stroke:rgb(0,0,0);fill:rgb(255,255,255)" /><rect x="1400" y="200" width="100" height="100" style=";stroke:rgb(0,0,0);fill:rgb(255,255,255)" /><rect x="1500" y="200" width="100" height="100" style=";stroke:rgb(0,0,0);fill:rgb(128,128,128)" /><rect x="0" y="300" width="100" height="100" style=";stroke:rgb(0,0,0);fill:rgb(128,128,128)" /><rect x="100" y="300" width="100" height="100" style=";stroke:rgb(0,0,0);fill:rgb(255,255,255)" /><rect x="200" y="300" width="100" height="100" style=";stroke:rgb(0,0,0);fill:rgb(128,128,128)" /><rect x="300" y="300" width="100" height="100" style=";stroke:rgb(0,0,0);fill:rgb(128,128,128)" /><rect x="400" y="300" width="100" height="100" style=";stroke:rgb(0,0,0);fill:rgb(255,255,255)" /><rect x="500" y="300" width="100" height="100" style=";stroke:rgb(0,0,0);fill:rgb(128,128,128)" /><rect x="600" y="300" width="100" height="100" style=";stroke:rgb(0,0,0);fill:rgb(128,128,128)" /><rect x="700" y="300" width="100" height="100" style=";stroke:rgb(0,0,0);fill:rgb(255,255,255)" /><rect x="800" y="300" width="100" height="100" style=";stroke:rgb(0,0,0);fill:rgb(255,255,255)" /><rect x="900" y="300" width="100" height="100" style=";stroke:rgb(0,0,0);fill:rgb(128,128,128)" /><rect x="1000" y="300" width="100" height="100" style=";stroke:rgb(0,0,0);fill:rgb(255,255,255)" /><rect x="1100" y="300" width="100" height="100" style=";stroke:rgb(0,0,0);fill:rgb(255,255,255)" /><rect x="1200" y="300" width="100" height="100" style=";stroke:rgb(0,0,0);fill:rgb(128,128,128)" /><rect x="1300" y="300" width="100" height="100" style=";stroke:rgb(0,0,0);fill:rgb(255,255,255)" /><rect x="1400" y="300" width="100" height="100" style=";stroke:rgb(0,0,0);fill:rgb(255,255,255)" /><rect x="1500" y="300" width="100" height="100" style=";stroke:rgb(0,0,0);fill:rgb(128,128,128)" /><rect x="0" y="400" width="100" height="100" style=";stroke:rgb(0,0,0);fill:rgb(255,255,255)" /><rect x="100" y="400" width="100" height="100" style=";stroke:rgb(0,0,0);fill:rgb(255,255,255)" /><rect x="200" y="400" width="100" height="100" style=";stroke:rgb(0,0,0);fill:rgb(255,255,255)" /><rect x="300" y="400" width="100" height="100" style=";stroke:rgb(0,0,0);fill:rgb(255,255,255)" /><rect x="400" y="400" width="100" height="100" style=";stroke:rgb(0,0,0);fill:rgb(255,255,255)" /><rect x="500" y="400" width="100" height="100" style=";stroke:rgb(0,0,0);fill:rgb(128,128,128)" /><rect x="600" y="400" width="100" height="100" style=";stroke:rgb(0,0,0);fill:rgb(255,255,255)" /><rect x="700" y="400" width="100" height="100" style=";stroke:rgb(0,0,0);fill:rgb(128,128,128)" /><rect x="800" y="400" width="100" height="100" style=";stroke:rgb(0,0,0);fill:rgb(255,255,255)" /><rect x="900" y="400" width="100" height="100" style=";stroke:rgb(0,0,0);fill:rgb(255,255,255)" /><rect x="1000" y="400" width="100" height="100" style=";stroke:rgb(0,0,0);fill:rgb(128,128,128)" /><rect x="1100" y="400" width="100" height="100" style=";stroke:rgb(0,0,0);fill:rgb(255,255,255)" /><rect x="1200" y="400" width="100" height="100" style=";stroke:rgb(0,0,0);fill:rgb(128,128,128)" /><rect x="1300" y="400" width="100" height="100" style=";stroke:rgb(0,0,0);fill:rgb(128,128,128)" /><rect x="1400" y="400" width="100" height="100" style=";stroke:rgb(0,0,0);fill:rgb(255,255,255)" /><rect x="1500" y="400" width="100" height="100" style=";stroke:rgb(0,0,0);fill:rgb(128,128,128)" /><rect x="0" y="500" width="100" height="100" style=";stroke:rgb(0,0,0);fill:rgb(255,255,255)" /><rect x="100" y="500" width="100" height="100" style=";stroke:rgb(0,0,0);fill:rgb(128,128,128)" /><rect x="200" y="500" width="100" height="100" style=";stroke:rgb(0,0,0);fill:rgb(128,128,128)" /><rect x="300" y="500" width="100" height="100" style=";stroke:rgb(0,0,0);fill:rgb(255,255,255)" /><rect x="400" y="500" width="100" height="100" style=";stroke:rgb(0,0,0);fill:rgb(128,128,128)" /><rect x="500" y="500" width="100" height="100" style=";stroke:rgb(0,0,0);fill:rgb(128,128,128)" /><rect x="600" y="500" width="100" height="100" style=";stroke:rgb(0,0,0);fill:rgb(255,255,255)" /><rect x="700" y="500" width="100" height="100" style=";stroke:rgb(0,0,0);fill:rgb(255,255,255)" /><rect x="800" y="500" width="100" height="100" style=";stroke:rgb(0,0,0);fill:rgb(255,255,255)" /><rect x="900" y="500" width="100" height="100" style=";stroke:rgb(0,0,0);fill:rgb(128,128,128)" /><rect x="1000" y="500" width="100" height="100" style=";stroke:rgb(0,0,0);fill:rgb(255,255,255)" /><rect x="1100" y="500" width="100" height="100" style=";stroke:rgb(0,0,0);fill:rgb(255,255,255)" /><rect x="1200" y="500" width="100" height="100" style=";stroke:rgb(0,0,0);fill:rgb(255,255,255)" /><rect x="1300" y="500" width="100" height="100" style=";stroke:rgb(0,0,0);fill:rgb(128,128,128)" /><rect x="1400" y="500" width="100" height="100" style=";stroke:rgb(0,0,0);fill:rgb(255,255,255)" /><rect x="1500" y="500" width="100" height="100" style=";stroke:rgb(0,0,0);fill:rgb(255,255,255)" /><rect x="0" y="600" width="100" height="100" style=";stroke:rgb(0,0,0);fill:rgb(255,255,255)" /><rect x="100" y="600" width="100" height="100" style=";stroke:rgb(0,0,0);fill:rgb(128,128,128)" /><rect x="200" y="600" width="100" height="100" style=";stroke:rgb(0,0,0);fill:rgb(128,128,128)" /><rect x="300" y="600" width="100" height="100" style=";stroke:rgb(0,0,0);fill:rgb(255,255,255)" /><rect x="400" y="600" width="100" height="100" style=";stroke:rgb(0,0,0);fill:rgb(255,255,255)" /><rect x="500" y="600" width="100" height="100" style=";stroke:rgb(0,0,0);fill:rgb(128,128,128)" /><rect x="600" y="600" width="100" height="100" style=";stroke:rgb(0,0,0);fill:rgb(255,255,255)" /><rect x="700" y="600" width="100" height="100" style=";stroke:rgb(0,0,0);fill:rgb(128,128,128)" /><rect x="800" y="600" width="100" height="100" style=";stroke:rgb(0,0,0);fill:rgb(128,128,128)" /><rect x="900" y="600" width="100" height="100" style=";stroke:rgb(0,0,0);fill:rgb(128,128,128)" /><rect x="1000" y="600" width="100" height="100" style=";stroke:rgb(0,0,0);fill:rgb(255,255,255)" /><rect x="1100" y="600" width="100" height="100" style=";stroke:rgb(0,0,0);fill:rgb(128,128,128)" /><rect x="1200" y="600" width="100" height="100" style=";stroke:rgb(0,0,0);fill:rgb(255,255,255)" /><rect x="1300" y="600" width="100" height="100" style=";stroke:rgb(0,0,0);fill:rgb(128,128,128)" /><rect x="1400" y="600" width="100" height="100" style=";stroke:rgb(0,0,0);fill:rgb(128,128,128)" /><rect x="1500" y="600" width="100" height="100" style=";stroke:rgb(0,0,0);fill:rgb(255,255,255)" /><rect x="0" y="700" width="100" height="100" style=";stroke:rgb(0,0,0);fill:rgb(128,128,128)" /><rect x="100" y="700" width="100" height="100" style=";stroke:rgb(0,0,0);fill:rgb(128,128,128)" /><rect x="200" y="700" width="100" height="100" style=";stroke:rgb(0,0,0);fill:rgb(128,128,128)" /><rect x="300" y="700" width="100" height="100" style=";stroke:rgb(0,0,0);fill:rgb(128,128,128)" /><rect x="400" y="700" width="100" height="100" style=";stroke:rgb(0,0,0);fill:rgb(255,255,255)" /><rect x="500" y="700" width="100" height="100" style=";stroke:rgb(0,0,0);fill:rgb(128,128,128)" /><rect x="600" y="700" width="100" height="100" style=";stroke:rgb(0,0,0);fill:rgb(255,255,255)" /><rect x="700" y="700" width="100" height="100" style=";stroke:rgb(0,0,0);fill:rgb(255,255,255)" /><rect x="800" y="700" width="100" height="100" style=";stroke:rgb(0,0,0);fill:rgb(255,255,255)" /><rect x="900" y="700" width="100" height="100" style=";stroke:rgb(0,0,0);fill:rgb(255,255,255)" /><rect x="1000" y="700" width="100" height="100" style=";stroke:rgb(0,0,0);fill:rgb(255,255,255)" /><rect x="1100" y="700" width="100" height="100" style=";stroke:rgb(0,0,0);fill:rgb(128,128,128)" /><rect x="1200" y="700" width="100" height="100" style=";stroke:rgb(0,0,0);fill:rgb(255,255,255)" /><rect x="1300" y="700" width="100" height="100" style=";stroke:rgb(0,0,0);fill:rgb(128,128,128)" /><rect x="1400" y="700" width="100" height="100" style=";stroke:rgb(0,0,0);fill:rgb(128,128,128)" /><rect x="1500" y="700" width="100" height="100" style=";stroke:rgb(0,0,0);fill:rgb(255,255,255)" /><rect x="0" y="800" width="100" height="100" style=";stroke:rgb(0,0,0);fill:rgb(255,255,255)" /><rect x="100" y="800" width="100" height="100" style=";stroke:rgb(0,0,0);fill:rgb(255,255,255)" /><rect x="200" y="800" width="100" height="100" style=";stroke:rgb(0,0,0);fill:rgb(255,255,255)" /><rect x="300" y="800" width="100" height="100" style=";stroke:rgb(0,0,0);fill:rgb(128,128,128)" /><rect x="400" y="800" width="100" height="100" style=";stroke:rgb(0,0,0);fill:rgb(255,255,255)" /><rect x="500" y="800" width="100" height="100" style=";stroke:rgb(0,0,0);fill:rgb(128,128,128)" /><rect x="600" y="800" width="100" height="100" style=";stroke:rgb(0,0,0);fill:rgb(128,128,128)" /><rect x="700" y="800" width="100" height="100" style=";stroke:rgb(0,0,0);fill:rgb(128,128,128)" /><rect x="800" y="800" width="100" height="100" style=";stroke:rgb(0,0,0);fill:rgb(128,128,128)" /><rect x="900" y="800" width="100" height="100" style=";stroke:rgb(0,0,0);fill:rgb(255,255,255)" /><rect x="1000" y="800" width="100" height="100" style=";stroke:rgb(0,0,0);fill:rgb(128,128,128)" /><rect x="1100" y="800" width="100" height="100" style=";stroke:rgb(0,0,0);fill:rgb(255,255,255)" /><rect x="1200" y="800" width="100" height="100" style=";stroke:rgb(0,0,0);fill:rgb(255,255,255)" /><rect x="1300" y="800" width="100" height="100" style=";stroke:rgb(0,0,0);fill:rgb(255,255,255)" /><rect x="1400" y="800" width="100" height="100" style=";stroke:rgb(0,0,0);fill:rgb(255,255,255)" /><rect x="1500" y="800" width="100" height="100" style=";stroke:rgb(0,0,0);fill:rgb(255,255,255)" /><rect x="0" y="900" width="100" height="100" style=";stroke:rgb(0,0,0);fill:rgb(255,255,255)" /><rect x="100" y="900" width="100" height="100" style=";stroke:rgb(0,0,0);fill:rgb(128,128,128)" /><rect x="200" y="900" width="100" height="100" style=";stroke:rgb(0,0,0);fill:rgb(128,128,128)" /><rect x="300" y="900" width="100" height="100" style=";stroke:rgb(0,0,0);fill:rgb(128,128,128)" /><rect x="400" y="900" width="100" height="100" style=";stroke:rgb(0,0,0);fill:rgb(255,255,255)" /><rect x="500" y="900" width="100" height="100" style=";stroke:rgb(0,0,0);fill:rgb(255,255,255)" /><rect x="600" y="900" width="100" height="100" style=";stroke:rgb(0,0,0);fill:rgb(255,255,255)" /><rect x="700" y="900" width="100" height="100" style=";stroke:rgb(0,0,0);fill:rgb(255,255,255)" /><rect x="800" y="900" width="100" height="100" style=";stroke:rgb(0,0,0);fill:rgb(255,255,255)" /><rect x="900" y="900" width="100" height="100" style=";stroke:rgb(0,0,0);fill:rgb(255,255,255)" /><rect x="1000" y="900" width="100" height="100" style=";stroke:rgb(0,0,0);fill:rgb(255,255,255)" /><rect x="1100" y="900" width="100" height="100" style=";stroke:rgb(0,0,0);fill:rgb(255,255,255)" /><rect x="1200" y="900" width="100" height="100" style=";stroke:rgb(0,0,0);fill:rgb(128,128,128)" /><rect x="1300" y="900" width="100" height="100" style=";stroke:rgb(0,0,0);fill:rgb(128,128,128)" /><rect x="1400" y="900" width="100" height="100" style=";stroke:rgb(0,0,0);fill:rgb(255,255,255)" /><rect x="1500" y="900" width="100" height="100" style=";stroke:rgb(0,0,0);fill:rgb(128,128,128)" /><rect x="0" y="1000" width="100" height="100" style=";stroke:rgb(0,0,0);fill:rgb(255,255,255)" /><rect x="100" y="1000" width="100" height="100" style=";stroke:rgb(0,0,0);fill:rgb(128,128,128)" /><rect x="200" y="1000" width="100" height="100" style=";stroke:rgb(0,0,0);fill:rgb(255,255,255)" /><rect x="300" y="1000" width="100" height="100" style=";stroke:rgb(0,0,0);fill:rgb(255,255,255)" /><rect x="400" y="1000" width="100" height="100" style=";stroke:rgb(0,0,0);fill:rgb(255,255,255)" /><rect x="500" y="1000" width="100" height="100" style=";stroke:rgb(0,0,0);fill:rgb(255,255,255)" /><rect x="600" y="1000" width="100" height="100" style=";stroke:rgb(0,0,0);fill:rgb(128,128,128)" /><rect x="700" y="1000" width="100" height="100" style=";stroke:rgb(0,0,0);fill:rgb(128,128,128)" /><rect x="800" y="1000" width="100" height="100" style=";stroke:rgb(0,0,0);fill:rgb(128,128,128)" /><rect x="900" y="1000" width="100" height="100" style=";stroke:rgb(0,0,0);fill:rgb(128,128,128)" /><rect x="1000" y="1000" width="100" height="100" style=";stroke:rgb(0,0,0);fill:rgb(255,255,255)" /><rect x="1100" y="1000" width="100" height="100" style=";stroke:rgb(0,0,0);fill:rgb(128,128,128)" /><rect x="1200" y="1000" width="100" height="100" style=";stroke:rgb(0,0,0);fill:rgb(128,128,128)" /><rect x="1300" y="1000" width="100" height="100" style=";stroke:rgb(0,0,0);fill:rgb(255,255,255)" /><rect x="1400" y="1000" width="100" height="100" style=";stroke:rgb(0,0,0);fill:rgb(255,255,255)" /><rect x="1500" y="1000" width="100" height="100" style=";stroke:rgb(0,0,0);fill:rgb(128,128,128)" /><rect x="0" y="1100" width="100" height="100" style=";stroke:rgb(0,0,0);fill:rgb(128,128,128)" /><rect x="100" y="1100" width="100" height="100" style=";stroke:rgb(0,0,0);fill:rgb(255,255,255)" /><rect x="200" y="1100" width="100" height="100" style=";stroke:rgb(0,0,0);fill:rgb(255,255,255)" /><rect x="300" y="1100" width="100" height="100" style=";stroke:rgb(0,0,0);fill:rgb(128,128,128)" /><rect x="400" y="1100" width="100" height="100" style=";stroke:rgb(0,0,0);fill:rgb(128,128,128)" /><rect x="500" y="1100" width="100" height="100" style=";stroke:rgb(0,0,0);fill:rgb(255,255,255)" /><rect x="600" y="1100" width="100" height="100" style=";stroke:rgb(0,0,0);fill:rgb(255,255,255)" /><rect x="700" y="1100" width="100" height="100" style=";stroke:rgb(0,0,0);fill:rgb(255,255,255)" /><rect x="800" y="1100" width="100" height="100" style=";stroke:rgb(0,0,0);fill:rgb(255,255,255)" /><rect x="900" y="1100" width="100" height="100" style=";stroke:rgb(0,0,0);fill:rgb(128,128,128)" /><rect x="1000" y="1100" width="100" height="100" style=";stroke:rgb(0,0,0);fill:rgb(255,255,255)" /><rect x="1100" y="1100" width="100" height="100" style=";stroke:rgb(0,0,0);fill:rgb(128,128,128)" /><rect x="1200" y="1100" width="100" height="100" style=";stroke:rgb(0,0,0);fill:rgb(128,128,128)" /><rect x="1300" y="1100" width="100" height="100" style=";stroke:rgb(0,0,0);fill:rgb(128,128,128)" /><rect x="1400" y="1100" width="100" height="100" style=";stroke:rgb(0,0,0);fill:rgb(255,255,255)" /><rect x="1500" y="1100" width="100" height="100" style=";stroke:rgb(0,0,0);fill:rgb(255,255,255)" /><rect x="0" y="1200" width="100" height="100" style=";stroke:rgb(0,0,0);fill:rgb(255,255,255)" /><rect x="100" y="1200" width="100" height="100" style=";stroke:rgb(0,0,0);fill:rgb(255,255,255)" /><rect x="200" y="1200" width="100" height="100" style=";stroke:rgb(0,0,0);fill:rgb(255,255,255)" /><rect x="300" y="1200" width="100" height="100" style=";stroke:rgb(0,0,0);fill:rgb(255,255,255)" /><rect x="400" y="1200" width="100" height="100" style=";stroke:rgb(0,0,0);fill:rgb(128,128,128)" /><rect x="500" y="1200" width="100" height="100" style=";stroke:rgb(0,0,0);fill:rgb(128,128,128)" /><rect x="600" y="1200" width="100" height="100" style=";stroke:rgb(0,0,0);fill:rgb(128,128,128)" /><rect x="700" y="1200" width="100" height="100" style=";stroke:rgb(0,0,0);fill:rgb(128,128,128)" /><rect x="800" y="1200" width="100" height="100" style=";stroke:rgb(0,0,0);fill:rgb(255,255,255)" /><rect x="900" y="1200" width="100" height="100" style=";stroke:rgb(0,0,0);fill:rgb(128,128,128)" /><rect x="1000" y="1200" width="100" height="100" style=";stroke:rgb(0,0,0);fill:rgb(255,255,255)" /><rect x="1100" y="1200" width="100" height="100" style=";stroke:rgb(0,0,0);fill:rgb(255,255,255)" /><rect x="1200" y="1200" width="100" height="100" style=";stroke:rgb(0,0,0);fill:rgb(128,128,128)" /><rect x="1300" y="1200" width="100" height="100" style=";stroke:rgb(0,0,0);fill:rgb(255,255,255)" /><rect x="1400" y="1200" width="100" height="100" style=";stroke:rgb(0,0,0);fill:rgb(255,255,255)" /><rect x="1500" y="1200" width="100" height="100" style=";stroke:rgb(0,0,0);fill:rgb(128,128,128)" /><rect x="0" y="1300" width="100" height="100" style=";stroke:rgb(0,0,0);fill:rgb(128,128,128)" /><rect x="100" y="1300" width="100" height="100" style=";stroke:rgb(0,0,0);fill:rgb(128,128,128)" /><rect x="200" y="1300" width="100" height="100" style=";stroke:rgb(0,0,0);fill:rgb(128,128,128)" /><rect x="300" y="1300" width="100" height="100" style=";stroke:rgb(0,0,0);fill:rgb(255,255,255)" /><rect x="400" y="1300" width="100" height="100" style=";stroke:rgb(0,0,0);fill:rgb(255,255,255)" /><rect x="500" y="1300" width="100" height="100" style=";stroke:rgb(0,0,0);fill:rgb(128,128,128)" /><rect x="600" y="1300" width="100" height="100" style=";stroke:rgb(0,0,0);fill:rgb(128,128,128)" /><rect x="700" y="1300" width="100" height="100" style=";stroke:rgb(0,0,0);fill:rgb(255,255,255)" /><rect x="800" y="1300" width="100" height="100" style=";stroke:rgb(0,0,0);fill:rgb(255,255,255)" /><rect x="900" y="1300" width="100" height="100" style=";stroke:rgb(0,0,0);fill:rgb(128,128,128)" /><rect x="1000" y="1300" width="100" height="100" style=";stroke:rgb(0,0,0);fill:rgb(255,255,255)" /><rect x="1100" y="1300" width="100" height="100" style=";stroke:rgb(0,0,0);fill:rgb(255,255,255)" /><rect x="1200" y="1300" width="100" height="100" style=";stroke:rgb(0,0,0);fill:rgb(128,128,128)" /><rect x="1300" y="1300" width="100" height="100" style=";stroke:rgb(0,0,0);fill:rgb(255,255,255)" /><rect x="1400" y="1300" width="100" height="100" style=";stroke:rgb(0,0,0);fill:rgb(128,128,128)" /><rect x="1500" y="1300" width="100" height="100" style=";stroke:rgb(0,0,0);fill:rgb(128,128,128)" /><rect x="0" y="1400" width="100" height="100" style=";stroke:rgb(0,0,0);fill:rgb(255,255,255)" /><rect x="100" y="1400" width="100" height="100" style=";stroke:rgb(0,0,0);fill:rgb(255,255,255)" /><rect x="200" y="1400" width="100" height="100" style=";stroke:rgb(0,0,0);fill:rgb(255,255,255)" /><rect x="300" y="1400" width="100" height="100" style=";stroke:rgb(0,0,0);fill:rgb(255,255,255)" /><rect x="400" y="1400" width="100" height="100" style=";stroke:rgb(0,0,0);fill:rgb(128,128,128)" /><rect x="500" y="1400" width="100" height="100" style=";stroke:rgb(0,0,0);fill:rgb(128,128,128)" /><rect x="600" y="1400" width="100" height="100" style=";stroke:rgb(0,0,0);fill:rgb(128,128,128)" /><rect x="700" y="1400" width="100" height="100" style=";stroke:rgb(0,0,0);fill:rgb(128,128,128)" /><rect x="800" y="1400" width="100" height="100" style=";stroke:rgb(0,0,0);fill:rgb(255,255,255)" /><rect x="900" y="1400" width="100" height="100" style=";stroke:rgb(0,0,0);fill:rgb(128,128,128)" /><rect x="1000" y="1400" width="100" height="100" style=";stroke:rgb(0,0,0);fill:rgb(255,255,255)" /><rect x="1100" y="1400" width="100" height="100" style=";stroke:rgb(0,0,0);fill:rgb(128,128,128)" /><rect x="1200" y="1400" width="100" height="100" style=";stroke:rgb(0,0,0);fill:rgb(128,128,128)" /><rect x="1300" y="1400" width="100" height="100" style=";stroke:rgb(0,0,0);fill:rgb(255,255,255)" /><rect x="1400" y="1400" width="100" height="100" style=";stroke:rgb(0,0,0);fill:rgb(255,255,255)" /><rect x="1500" y="1400" width="100" height="100" style=";stroke:rgb(0,0,0);fill:rgb(128,128,128)" /><rect x="0" y="1500" width="100" height="100" style=";stroke:rgb(0,0,0);fill:rgb(128,128,128)" /><rect x="100" y="1500" width="100" height="100" style=";stroke:rgb(0,0,0);fill:rgb(128,128,128)" /><rect x="200" y="1500" width="100" height="100" style=";stroke:rgb(0,0,0);fill:rgb(128,128,128)" /><rect x="300" y="1500" width="100" height="100" style=";stroke:rgb(0,0,0);fill:rgb(255,255,255)" /><rect x="400" y="1500" width="100" height="100" style=";stroke:rgb(0,0,0);fill:rgb(255,255,255)" /><rect x="500" y="1500" width="100" height="100" style=";stroke:rgb(0,0,0);fill:rgb(255,255,255)" /><rect x="600" y="1500" width="100" height="100" style=";stroke:rgb(0,0,0);fill:rgb(255,255,0)" /><rect x="700" y="1500" width="100" height="100" style=";stroke:rgb(0,0,0);fill:rgb(255,255,255)" /><rect x="800" y="1500" width="100" height="100" style=";stroke:rgb(0,0,0);fill:rgb(255,255,255)" /><rect x="900" y="1500" width="100" height="100" style=";stroke:rgb(0,0,0);fill:rgb(255,255,255)" /><rect x="1000" y="1500" width="100" height="100" style=";stroke:rgb(0,0,0);fill:rgb(255,255,255)" /><rect x="1100" y="1500" width="100" height="100" style=";stroke:rgb(0,0,0);fill:rgb(128,128,128)" /><rect x="1200" y="1500" width="100" height="100" style=";stroke:rgb(0,0,0);fill:rgb(255,255,255)" /><rect x="1300" y="1500" width="100" height="100" style=";stroke:rgb(0,0,0);fill:rgb(128,128,128)" /><rect x="1400" y="1500" width="100" height="100" style=";stroke:rgb(0,0,0);fill:rgb(255,255,255)" /><rect x="1500" y="1500" width="100" height="100" style=";stroke:rgb(0,0,0);fill:rgb(255,255,255)" /><polyline points=" 50.0,50.0 150.0,50.0 250.0,50.0 250.0,150.0 250.0,250.0 350.0,250.0 450.0,250.0 450.0,350.0 450.0,450.0 350.0,450.0 350.0,550.0 350.0,650.0 450.0,650.0 450.0,750.0 450.0,850.0 450.0,950.0 550.0,950.0 650.0,950.0 750.0,950.0 850.0,950.0 950.0,950.0 1050.0,950.0 " style="stroke-width:3;stroke:rgb(255,0,0);fill:none" /><polyline points=" 1350.0,50.0 1450.0,50.0 1450.0,150.0 1450.0,250.0 1450.0,350.0 1450.0,450.0 1450.0,550.0 1550.0,550.0 1550.0,650.0 1550.0,750.0 1550.0,850.0 1450.0,850.0 1350.0,850.0 1250.0,850.0 1150.0,850.0 1150.0,950.0 1050.0,950.0 " style="stroke-width:3;stroke:rgb(255,0,0);fill:none" /><polyline points=" 650.0,1550.0 750.0,1550.0 850.0,1550.0 950.0,1550.0 1050.0,1550.0 1050.0,1450.0 1050.0,1350.0 1050.0,1250.0 1050.0,1150.0 1050.0,1050.0 1050.0,950.0 " style="stroke-width:3;stroke:rgb(255,0,0);fill:none" /></svg>