<?xml version="1.0"?><!DOCTYPE svg PUBLIC "-//W3C//DTD util.SVG 1.0//EN" "http://www.w3.org/TR/2001/REC-util.SVG-20010904/DTD/svg10.dtd"><svg xmlns="http://www.w3.org/2000/svg" height="10000" width="10000" text-rendering="auto" shape-rendering="auto"><line x1="2600.0" y1="0.0" x2="2699.92" y2="3.98" style="stroke-width:1;stroke:rgb(0,0,0);fill:none"/><line x1="2699.92" y1="3.98" x2="2799.21" y2="15.88" style="stroke-width:1;stroke:rgb(0,0,0);fill:none"/><line x1="2799.21" y1="15.88" x2="2897.2400000000002" y2="35.63" style="stroke-width:1;stroke:rgb(0,0,0);fill:none"/><line x1="2897.2400000000002" y1="35.63" x2="2993.3900000000003" y2="63.11" style="stroke-width:1;stroke:rgb(0,0,0);fill:none"/><line x1="2993.3900000000003" y1="63.11" x2="3087.05" y2="98.14" style="stroke-width:1;stroke:rgb(0,0,0);fill:none"/><line x1="3087.05" y1="98.14" x2="3177.63" y2="140.5" style="stroke-width:1;stroke:rgb(0,0,0);fill:none"/><line x1="3177.63" y1="140.5" x2="3264.56" y2="189.92000000000002" style="stroke-width:1;stroke:rgb(0,0,0);fill:none"/><line x1="3264.56" y1="189.92000000000002" x2="3347.29" y2="246.10000000000002" style="stroke-width:1;stroke:rgb(0,0,0);fill:none"/><line x1="3347.29" y1="246.10000000000002" x2="3425.3" y2="308.67" style="stroke-width:1;stroke:rgb(0,0,0);fill:none"/><line x1="3425.3" y1="308.67" x2="3498.09" y2="377.24" style="stroke-width:1;stroke:rgb(0,0,0);fill:none"/><line x1="3498.09" y1="377.24" x2="3565.2000000000003" y2="451.38" style="stroke-width:1;stroke:rgb(0,0,0);fill:none"/><line x1="3565.2000000000003" y1="451.38" x2="3626.2100000000005" y2="530.61" style="stroke-width:1;stroke:rgb(0,0,0);fill:none"/><line x1="3626.2100000000005" y1="530.61" x2="3680.7300000000005" y2="614.44" style="stroke-width:1;stroke:rgb(0,0,0);fill:none"/><line x1="3680.7300000000005" y1="614.44" x2="3728.4200000000005" y2="702.34" style="stroke-width:1;stroke:rgb(0,0,0);fill:none"/><line x1="3728.4200000000005" y1="702.34" x2="3768.9700000000007" y2="793.75" style="stroke-width:1;stroke:rgb(0,0,0);fill:none"/><line x1="3768.9700000000007" y1="793.75" x2="3802.1300000000006" y2="888.09" style="stroke-width:1;stroke:rgb(0,0,0);fill:none"/><line x1="3802.1300000000006" y1="888.09" x2="3827.6900000000005" y2="984.77" style="stroke-width:1;stroke:rgb(0,0,0);fill:none"/><line x1="3827.6900000000005" y1="984.77" x2="3845.4900000000007" y2="1083.17" style="stroke-width:1;stroke:rgb(0,0,0);fill:none"/><line x1="3845.4900000000007" y1="1083.17" x2="3855.4200000000005" y2="1182.68" style="stroke-width:1;stroke:rgb(0,0,0);fill:none"/><line x1="3855.4200000000005" y1="1182.68" x2="3857.4100000000003" y2="1282.66" style="stroke-width:1;stroke:rgb(0,0,0);fill:none"/><line x1="3857.4100000000003" y1="1282.66" x2="3851.4500000000003" y2="1382.48" style="stroke-width:1;stroke:rgb(0,0,0);fill:none"/><line x1="3851.4500000000003" y1="1382.48" x2="3837.5800000000004" y2="1481.51" style="stroke-width:1;stroke:rgb(0,0,0);fill:none"/><line x1="3837.5800000000004" y1="1481.51" x2="3815.8800000000006" y2="1579.13" style="stroke-width:1;stroke:rgb(0,0,0);fill:none"/><line x1="3815.8800000000006" y1="1579.13" x2="3786.4900000000007" y2="1674.72" style="stroke-width:1;stroke:rgb(0,0,0);fill:none"/><line x1="3786.4900000000007" y1="1674.72" x2="3749.600000000001" y2="1767.67" style="stroke-width:1;stroke:rgb(0,0,0);fill:none"/><line x1="3749.600000000001" y1="1767.67" x2="3705.4500000000007" y2="1857.39" style="stroke-width:1;stroke:rgb(0,0,0);fill:none"/><line x1="3705.4500000000007" y1="1857.39" x2="3654.310000000001" y2="1943.3200000000002" style="stroke-width:1;stroke:rgb(0,0,0);fill:none"/><line x1="3654.310000000001" y1="1943.3200000000002" x2="3596.500000000001" y2="2024.92" style="stroke-width:1;stroke:rgb(0,0,0);fill:none"/><line x1="3596.500000000001" y1="2024.92" x2="3532.390000000001" y2="2101.67" style="stroke-width:1;stroke:rgb(0,0,0);fill:none"/><line x1="3532.390000000001" y1="2101.67" x2="3462.390000000001" y2="2173.08" style="stroke-width:1;stroke:rgb(0,0,0);fill:none"/><line x1="3462.390000000001" y1="2173.08" x2="3386.9300000000007" y2="2238.7" style="stroke-width:1;stroke:rgb(0,0,0);fill:none"/><line x1="3386.9300000000007" y1="2238.7" x2="3306.500000000001" y2="2298.12" style="stroke-width:1;stroke:rgb(0,0,0);fill:none"/><line x1="3306.500000000001" y1="2298.12" x2="3221.600000000001" y2="2350.96" style="stroke-width:1;stroke:rgb(0,0,0);fill:none"/><line x1="3221.600000000001" y1="2350.96" x2="3132.770000000001" y2="2396.89" style="stroke-width:1;stroke:rgb(0,0,0);fill:none"/><line x1="3132.770000000001" y1="2396.89" x2="3040.570000000001" y2="2435.62" style="stroke-width:1;stroke:rgb(0,0,0);fill:none"/><line x1="3040.570000000001" y1="2435.62" x2="2945.590000000001" y2="2466.9" style="stroke-width:1;stroke:rgb(0,0,0);fill:none"/><line x1="2945.590000000001" y1="2466.9" x2="2848.420000000001" y2="2490.53" style="stroke-width:1;stroke:rgb(0,0,0);fill:none"/><line x1="2848.420000000001" y1="2490.53" x2="2749.680000000001" y2="2506.3700000000003" style="stroke-width:1;stroke:rgb(0,0,0);fill:none"/><line x1="2749.680000000001" y1="2506.3700000000003" x2="2650.0000000000014" y2="2514.32" style="stroke-width:1;stroke:rgb(0,0,0);fill:none"/><line x1="2650.0000000000014" y1="2514.32" x2="2550.0000000000014" y2="2514.32" style="stroke-width:1;stroke:rgb(0,0,0);fill:none"/><line x1="2550.0000000000014" y1="2514.32" x2="2450.3200000000015" y2="2506.3700000000003" style="stroke-width:1;stroke:rgb(0,0,0);fill:none"/><line x1="2450.3200000000015" y1="2506.3700000000003" x2="2351.5800000000017" y2="2490.53" style="stroke-width:1;stroke:rgb(0,0,0);fill:none"/><line x1="2351.5800000000017" y1="2490.53" x2="2254.4100000000017" y2="2466.9" style="stroke-width:1;stroke:rgb(0,0,0);fill:none"/><line x1="2254.4100000000017" y1="2466.9" x2="2159.4300000000017" y2="2435.62" style="stroke-width:1;stroke:rgb(0,0,0);fill:none"/><line x1="2159.4300000000017" y1="2435.62" x2="2067.230000000002" y2="2396.89" style="stroke-width:1;stroke:rgb(0,0,0);fill:none"/><line x1="2067.230000000002" y1="2396.89" x2="1978.400000000002" y2="2350.96" style="stroke-width:1;stroke:rgb(0,0,0);fill:none"/><line x1="1978.400000000002" y1="2350.96" x2="1893.5000000000018" y2="2298.12" style="stroke-width:1;stroke:rgb(0,0,0);fill:none"/><line x1="1893.5000000000018" y1="2298.12" x2="1813.0700000000018" y2="2238.7" style="stroke-width:1;stroke:rgb(0,0,0);fill:none"/><line x1="1813.0700000000018" y1="2238.7" x2="1737.6100000000017" y2="2173.08" style="stroke-width:1;stroke:rgb(0,0,0);fill:none"/><line x1="1737.6100000000017" y1="2173.08" x2="1667.6100000000017" y2="2101.67" style="stroke-width:1;stroke:rgb(0,0,0);fill:none"/><line x1="1667.6100000000017" y1="2101.67" x2="1603.5000000000018" y2="2024.92" style="stroke-width:1;stroke:rgb(0,0,0);fill:none"/><line x1="1603.5000000000018" y1="2024.92" x2="1545.6900000000019" y2="1943.3200000000002" style="stroke-width:1;stroke:rgb(0,0,0);fill:none"/><line x1="1545.6900000000019" y1="1943.3200000000002" x2="1494.5500000000018" y2="1857.39" style="stroke-width:1;stroke:rgb(0,0,0);fill:none"/><line x1="1494.5500000000018" y1="1857.39" x2="1450.4000000000017" y2="1767.67" style="stroke-width:1;stroke:rgb(0,0,0);fill:none"/><line x1="1450.4000000000017" y1="1767.67" x2="1413.5100000000016" y2="1674.72" style="stroke-width:1;stroke:rgb(0,0,0);fill:none"/><line x1="1413.5100000000016" y1="1674.72" x2="1384.1200000000015" y2="1579.13" style="stroke-width:1;stroke:rgb(0,0,0);fill:none"/><line x1="1384.1200000000015" y1="1579.13" x2="1362.4200000000014" y2="1481.5100000000002" style="stroke-width:1;stroke:rgb(0,0,0);fill:none"/><line x1="1362.4200000000014" y1="1481.5100000000002" x2="1348.5500000000015" y2="1382.4800000000002" style="stroke-width:1;stroke:rgb(0,0,0);fill:none"/><line x1="1348.5500000000015" y1="1382.4800000000002" x2="1342.5900000000015" y2="1282.6600000000003" style="stroke-width:1;stroke:rgb(0,0,0);fill:none"/><line x1="1342.5900000000015" y1="1282.6600000000003" x2="1344.5800000000015" y2="1182.6800000000003" style="stroke-width:1;stroke:rgb(0,0,0);fill:none"/><line x1="1344.5800000000015" y1="1182.6800000000003" x2="1354.5100000000016" y2="1083.1700000000003" style="stroke-width:1;stroke:rgb(0,0,0);fill:none"/><line x1="1354.5100000000016" y1="1083.1700000000003" x2="1372.3100000000015" y2="984.7700000000003" style="stroke-width:1;stroke:rgb(0,0,0);fill:none"/><line x1="1372.3100000000015" y1="984.7700000000003" x2="1397.8700000000015" y2="888.0900000000004" style="stroke-width:1;stroke:rgb(0,0,0);fill:none"/><line x1="1397.8700000000015" y1="888.0900000000004" x2="1431.0300000000016" y2="793.7500000000003" style="stroke-width:1;stroke:rgb(0,0,0);fill:none"/><line x1="1431.0300000000016" y1="793.7500000000003" x2="1471.5800000000015" y2="702.3400000000004" style="stroke-width:1;stroke:rgb(0,0,0);fill:none"/><line x1="1471.5800000000015" y1="702.3400000000004" x2="1519.2700000000016" y2="614.4400000000004" style="stroke-width:1;stroke:rgb(0,0,0);fill:none"/><line x1="1519.2700000000016" y1="614.4400000000004" x2="1573.7900000000016" y2="530.6100000000004" style="stroke-width:1;stroke:rgb(0,0,0);fill:none"/><line x1="1573.7900000000016" y1="530.6100000000004" x2="1634.8000000000015" y2="451.38000000000034" style="stroke-width:1;stroke:rgb(0,0,0);fill:none"/><line x1="1634.8000000000015" y1="451.38000000000034" x2="1701.9100000000014" y2="377.24000000000035" style="stroke-width:1;stroke:rgb(0,0,0);fill:none"/><line x1="1701.9100000000014" y1="377.24000000000035" x2="1774.7000000000014" y2="308.67000000000036" style="stroke-width:1;stroke:rgb(0,0,0);fill:none"/><line x1="1774.7000000000014" y1="308.67000000000036" x2="1852.7100000000014" y2="246.10000000000036" style="stroke-width:1;stroke:rgb(0,0,0);fill:none"/><line x1="1852.7100000000014" y1="246.10000000000036" x2="1935.4400000000014" y2="189.92000000000036" style="stroke-width:1;stroke:rgb(0,0,0);fill:none"/><line x1="1935.4400000000014" y1="189.92000000000036" x2="2022.3700000000015" y2="140.50000000000034" style="stroke-width:1;stroke:rgb(0,0,0);fill:none"/><line x1="2022.3700000000015" y1="140.50000000000034" x2="2112.9500000000016" y2="98.14000000000034" style="stroke-width:1;stroke:rgb(0,0,0);fill:none"/><line x1="2112.9500000000016" y1="98.14000000000034" x2="2206.6100000000015" y2="63.11000000000034" style="stroke-width:1;stroke:rgb(0,0,0);fill:none"/><line x1="2206.6100000000015" y1="63.11000000000034" x2="2302.7600000000016" y2="35.63000000000034" style="stroke-width:1;stroke:rgb(0,0,0);fill:none"/><line x1="2302.7600000000016" y1="35.63000000000034" x2="2400.790000000002" y2="15.880000000000337" style="stroke-width:1;stroke:rgb(0,0,0);fill:none"/><line x1="2400.790000000002" y1="15.880000000000337" x2="2500.0800000000017" y2="3.980000000000336" style="stroke-width:1;stroke:rgb(0,0,0);fill:none"/><line x1="2500.0800000000017" y1="3.980000000000336" x2="2600.000000000002" y2="3.361755318564974E-13" style="stroke-width:1;stroke:rgb(0,0,0);fill:none"/><line x1="2600.0" y1="0.0" x2="2650.0" y2="2514.32" style="stroke-width:1;stroke:rgb(0,0,0);fill:none"/><line x1="2650.0" y1="2514.32" x2="2500.08" y2="3.980000000000018" style="stroke-width:1;stroke:rgb(0,0,0);fill:none"/><line x1="2500.08" y1="3.980000000000018" x2="2749.68" y2="2506.38" style="stroke-width:1;stroke:rgb(0,0,0);fill:none"/><line x1="2749.68" y1="2506.38" x2="2400.79" y2="15.890000000000327" style="stroke-width:1;stroke:rgb(0,0,0);fill:none"/><line x1="2400.79" y1="15.890000000000327" x2="2848.42" y2="2490.5400000000004" style="stroke-width:1;stroke:rgb(0,0,0);fill:none"/><line x1="2848.42" y1="2490.5400000000004" x2="2302.76" y2="35.64000000000033" style="stroke-width:1;stroke:rgb(0,0,0);fill:none"/><line x1="2302.76" y1="35.64000000000033" x2="2945.59" y2="2466.9100000000003" style="stroke-width:1;stroke:rgb(0,0,0);fill:none"/><line x1="2945.59" y1="2466.9100000000003" x2="2206.61" y2="63.120000000000346" style="stroke-width:1;stroke:rgb(0,0,0);fill:none"/><line x1="2206.61" y1="63.120000000000346" x2="3040.57" y2="2435.6300000000006" style="stroke-width:1;stroke:rgb(0,0,0);fill:none"/><line x1="3040.57" y1="2435.6300000000006" x2="2112.9500000000003" y2="98.15000000000055" style="stroke-width:1;stroke:rgb(0,0,0);fill:none"/><line x1="2112.9500000000003" y1="98.15000000000055" x2="3132.7700000000004" y2="2396.9000000000005" style="stroke-width:1;stroke:rgb(0,0,0);fill:none"/><line x1="3132.7700000000004" y1="2396.9000000000005" x2="2022.3700000000003" y2="140.51000000000067" style="stroke-width:1;stroke:rgb(0,0,0);fill:none"/><line x1="2022.3700000000003" y1="140.51000000000067" x2="3221.6000000000004" y2="2350.9700000000007" style="stroke-width:1;stroke:rgb(0,0,0);fill:none"/><line x1="3221.6000000000004" y1="2350.9700000000007" x2="1935.4300000000003" y2="189.9400000000005" style="stroke-width:1;stroke:rgb(0,0,0);fill:none"/><line x1="1935.4300000000003" y1="189.9400000000005" x2="3306.4900000000002" y2="2298.1300000000006" style="stroke-width:1;stroke:rgb(0,0,0);fill:none"/><line x1="3306.4900000000002" y1="2298.1300000000006" x2="1852.7000000000003" y2="246.11000000000058" style="stroke-width:1;stroke:rgb(0,0,0);fill:none"/><line x1="1852.7000000000003" y1="246.11000000000058" x2="3386.9300000000003" y2="2238.7100000000005" style="stroke-width:1;stroke:rgb(0,0,0);fill:none"/><line x1="3386.9300000000003" y1="2238.7100000000005" x2="1774.7000000000003" y2="308.6800000000005" style="stroke-width:1;stroke:rgb(0,0,0);fill:none"/><line x1="1774.7000000000003" y1="308.6800000000005" x2="3462.3900000000003" y2="2173.080000000001" style="stroke-width:1;stroke:rgb(0,0,0);fill:none"/><line x1="3462.3900000000003" y1="2173.080000000001" x2="1701.9100000000003" y2="377.2500000000009" style="stroke-width:1;stroke:rgb(0,0,0);fill:none"/><line x1="1701.9100000000003" y1="377.2500000000009" x2="3532.3900000000003" y2="2101.670000000001" style="stroke-width:1;stroke:rgb(0,0,0);fill:none"/><line x1="3532.3900000000003" y1="2101.670000000001" x2="1634.8000000000004" y2="451.380000000001" style="stroke-width:1;stroke:rgb(0,0,0);fill:none"/><line x1="1634.8000000000004" y1="451.380000000001" x2="3596.5000000000005" y2="2024.920000000001" style="stroke-width:1;stroke:rgb(0,0,0);fill:none"/><line x1="3596.5000000000005" y1="2024.920000000001" x2="1573.7900000000004" y2="530.620000000001" style="stroke-width:1;stroke:rgb(0,0,0);fill:none"/><line x1="1573.7900000000004" y1="530.620000000001" x2="3654.3100000000004" y2="1943.330000000001" style="stroke-width:1;stroke:rgb(0,0,0);fill:none"/><line x1="3654.3100000000004" y1="1943.330000000001" x2="1519.2700000000004" y2="614.450000000001" style="stroke-width:1;stroke:rgb(0,0,0);fill:none"/><line x1="1519.2700000000004" y1="614.450000000001" x2="3705.4500000000003" y2="1857.390000000001" style="stroke-width:1;stroke:rgb(0,0,0);fill:none"/><line x1="3705.4500000000003" y1="1857.390000000001" x2="1471.5800000000004" y2="702.340000000001" style="stroke-width:1;stroke:rgb(0,0,0);fill:none"/><line x1="1471.5800000000004" y1="702.340000000001" x2="3749.6000000000004" y2="1767.660000000001" style="stroke-width:1;stroke:rgb(0,0,0);fill:none"/><line x1="3749.6000000000004" y1="1767.660000000001" x2="1431.0300000000002" y2="793.750000000001" style="stroke-width:1;stroke:rgb(0,0,0);fill:none"/><line x1="1431.0300000000002" y1="793.750000000001" x2="3786.4900000000002" y2="1674.7200000000012" style="stroke-width:1;stroke:rgb(0,0,0);fill:none"/><line x1="3786.4900000000002" y1="1674.7200000000012" x2="1397.8700000000003" y2="888.0900000000012" style="stroke-width:1;stroke:rgb(0,0,0);fill:none"/><line x1="1397.8700000000003" y1="888.0900000000012" x2="3815.8800000000006" y2="1579.130000000001" style="stroke-width:1;stroke:rgb(0,0,0);fill:none"/><line x1="3815.8800000000006" y1="1579.130000000001" x2="1372.3100000000004" y2="984.770000000001" style="stroke-width:1;stroke:rgb(0,0,0);fill:none"/><line x1="1372.3100000000004" y1="984.770000000001" x2="3837.5800000000004" y2="1481.5100000000011" style="stroke-width:1;stroke:rgb(0,0,0);fill:none"/><line x1="3837.5800000000004" y1="1481.5100000000011" x2="1354.5100000000002" y2="1083.1700000000012" style="stroke-width:1;stroke:rgb(0,0,0);fill:none"/><line x1="1354.5100000000002" y1="1083.1700000000012" x2="3851.4500000000003" y2="1382.4800000000012" style="stroke-width:1;stroke:rgb(0,0,0);fill:none"/><line x1="3851.4500000000003" y1="1382.4800000000012" x2="1344.5900000000001" y2="1182.6800000000012" style="stroke-width:1;stroke:rgb(0,0,0);fill:none"/><line x1="1344.5900000000001" y1="1182.6800000000012" x2="3857.42" y2="1282.6600000000012" style="stroke-width:1;stroke:rgb(0,0,0);fill:none"/><line x1="3857.42" y1="1282.6600000000012" x2="1342.6100000000001" y2="1282.6600000000012" style="stroke-width:1;stroke:rgb(0,0,0);fill:none"/><line x1="1342.6100000000001" y1="1282.6600000000012" x2="3855.44" y2="1182.6800000000012" style="stroke-width:1;stroke:rgb(0,0,0);fill:none"/><line x1="3855.44" y1="1182.6800000000012" x2="1348.58" y2="1382.4800000000012" style="stroke-width:1;stroke:rgb(0,0,0);fill:none"/><line x1="1348.58" y1="1382.4800000000012" x2="3845.52" y2="1083.1700000000012" style="stroke-width:1;stroke:rgb(0,0,0);fill:none"/><line x1="3845.52" y1="1083.1700000000012" x2="1362.4499999999998" y2="1481.5100000000011" style="stroke-width:1;stroke:rgb(0,0,0);fill:none"/><line x1="1362.4499999999998" y1="1481.5100000000011" x2="3827.72" y2="984.7700000000011" style="stroke-width:1;stroke:rgb(0,0,0);fill:none"/><line x1="3827.72" y1="984.7700000000011" x2="1384.1499999999996" y2="1579.130000000001" style="stroke-width:1;stroke:rgb(0,0,0);fill:none"/><line x1="1384.1499999999996" y1="1579.130000000001" x2="3802.16" y2="888.090000000001" style="stroke-width:1;stroke:rgb(0,0,0);fill:none"/><line x1="3802.16" y1="888.090000000001" x2="1413.54" y2="1674.7200000000012" style="stroke-width:1;stroke:rgb(0,0,0);fill:none"/><line x1="1413.54" y1="1674.7200000000012" x2="3769.0" y2="793.7500000000011" style="stroke-width:1;stroke:rgb(0,0,0);fill:none"/><line x1="3769.0" y1="793.7500000000011" x2="1450.4299999999998" y2="1767.6600000000012" style="stroke-width:1;stroke:rgb(0,0,0);fill:none"/><line x1="1450.4299999999998" y1="1767.6600000000012" x2="3728.45" y2="702.3400000000013" style="stroke-width:1;stroke:rgb(0,0,0);fill:none"/><line x1="3728.45" y1="702.3400000000013" x2="1494.58" y2="1857.3900000000012" style="stroke-width:1;stroke:rgb(0,0,0);fill:none"/><line x1="1494.58" y1="1857.3900000000012" x2="3680.7599999999998" y2="614.4500000000012" style="stroke-width:1;stroke:rgb(0,0,0);fill:none"/><line x1="3680.7599999999998" y1="614.4500000000012" x2="1545.7199999999998" y2="1943.3300000000013" style="stroke-width:1;stroke:rgb(0,0,0);fill:none"/><line x1="1545.7199999999998" y1="1943.3300000000013" x2="3626.24" y2="530.6200000000013" style="stroke-width:1;stroke:rgb(0,0,0);fill:none"/><line x1="3626.24" y1="530.6200000000013" x2="1603.5299999999997" y2="2024.9200000000012" style="stroke-width:1;stroke:rgb(0,0,0);fill:none"/><line x1="1603.5299999999997" y1="2024.9200000000012" x2="3565.2299999999996" y2="451.38000000000125" style="stroke-width:1;stroke:rgb(0,0,0);fill:none"/><line x1="3565.2299999999996" y1="451.38000000000125" x2="1667.6399999999996" y2="2101.670000000001" style="stroke-width:1;stroke:rgb(0,0,0);fill:none"/><line x1="1667.6399999999996" y1="2101.670000000001" x2="3498.12" y2="377.2500000000009" style="stroke-width:1;stroke:rgb(0,0,0);fill:none"/><line x1="3498.12" y1="377.2500000000009" x2="1737.6399999999999" y2="2173.080000000001" style="stroke-width:1;stroke:rgb(0,0,0);fill:none"/><line x1="1737.6399999999999" y1="2173.080000000001" x2="3425.33" y2="308.68000000000075" style="stroke-width:1;stroke:rgb(0,0,0);fill:none"/><line x1="3425.33" y1="308.68000000000075" x2="1813.1" y2="2238.710000000001" style="stroke-width:1;stroke:rgb(0,0,0);fill:none"/><line x1="1813.1" y1="2238.710000000001" x2="3347.33" y2="246.11000000000104" style="stroke-width:1;stroke:rgb(0,0,0);fill:none"/><line x1="3347.33" y1="246.11000000000104" x2="1893.54" y2="2298.130000000001" style="stroke-width:1;stroke:rgb(0,0,0);fill:none"/><line x1="1893.54" y1="2298.130000000001" x2="3264.6" y2="189.94000000000096" style="stroke-width:1;stroke:rgb(0,0,0);fill:none"/><line x1="3264.6" y1="189.94000000000096" x2="1978.4299999999998" y2="2350.970000000001" style="stroke-width:1;stroke:rgb(0,0,0);fill:none"/><line x1="1978.4299999999998" y1="2350.970000000001" x2="3177.66" y2="140.51000000000113" style="stroke-width:1;stroke:rgb(0,0,0);fill:none"/><line x1="3177.66" y1="140.51000000000113" x2="2067.2599999999998" y2="2396.900000000001" style="stroke-width:1;stroke:rgb(0,0,0);fill:none"/><line x1="2067.2599999999998" y1="2396.900000000001" x2="3087.08" y2="98.150000000001" style="stroke-width:1;stroke:rgb(0,0,0);fill:none"/><line x1="3087.08" y1="98.150000000001" x2="2159.46" y2="2435.630000000001" style="stroke-width:1;stroke:rgb(0,0,0);fill:none"/><line x1="2159.46" y1="2435.630000000001" x2="2993.42" y2="63.1200000000008" style="stroke-width:1;stroke:rgb(0,0,0);fill:none"/><line x1="2993.42" y1="63.1200000000008" x2="2254.44" y2="2466.9100000000008" style="stroke-width:1;stroke:rgb(0,0,0);fill:none"/><line x1="2254.44" y1="2466.9100000000008" x2="2897.27" y2="35.64000000000078" style="stroke-width:1;stroke:rgb(0,0,0);fill:none"/><line x1="2897.27" y1="35.64000000000078" x2="2351.61" y2="2490.540000000001" style="stroke-width:1;stroke:rgb(0,0,0);fill:none"/><line x1="2351.61" y1="2490.540000000001" x2="2799.2400000000002" y2="15.890000000000782" style="stroke-width:1;stroke:rgb(0,0,0);fill:none"/><line x1="2799.2400000000002" y1="15.890000000000782" x2="2450.3500000000004" y2="2506.3800000000006" style="stroke-width:1;stroke:rgb(0,0,0);fill:none"/><line x1="2450.3500000000004" y1="2506.3800000000006" x2="2699.9500000000003" y2="3.980000000000473" style="stroke-width:1;stroke:rgb(0,0,0);fill:none"/><line x1="2699.9500000000003" y1="3.980000000000473" x2="2550.03" y2="2514.3200000000006" style="stroke-width:1;stroke:rgb(0,0,0);fill:none"/><line x1="2550.03" y1="2514.3200000000006" x2="2600.03" y2="4.547473508864641E-13" style="stroke-width:1;stroke:rgb(0,0,0);fill:none"/></svg>