<?xml version="1.0"?><!DOCTYPE svg PUBLIC "-//W3C//DTD util.SVG 1.0//EN" "http://www.w3.org/TR/2001/REC-util.SVG-20010904/DTD/svg10.dtd"><svg xmlns="http://www.w3.org/2000/svg" height="800" width="800" text-rendering="auto" shape-rendering="auto"><line x1="213.3974596215561" y1="59.999999999999986" x2="300.0" y2="10.0" style="stroke-width:1;stroke:rgb(0,0,0);fill:none"/><line x1="300.0" y1="10.0" x2="400.0" y2="10.0" style="stroke-width:1;stroke:rgb(0,0,0);fill:none"/><line x1="400.0" y1="10.0" x2="486.6025403784439" y2="59.99999999999999" style="stroke-width:1;stroke:rgb(0,0,0);fill:none"/><line x1="486.6025403784439" y1="59.99999999999999" x2="536.6025403784439" y2="146.60254037844385" style="stroke-width:1;stroke:rgb(0,0,0);fill:none"/><line x1="536.6025403784439" y1="146.60254037844385" x2="536.6025403784439" y2="246.60254037844385" style="stroke-width:1;stroke:rgb(0,0,0);fill:none"/><line x1="536.6025403784439" y1="246.60254037844385" x2="486.6025403784439" y2="333.2050807568877" style="stroke-width:1;stroke:rgb(0,0,0);fill:none"/><line x1="486.6025403784439" y1="333.2050807568877" x2="400.0" y2="383.2050807568877" style="stroke-width:1;stroke:rgb(0,0,0);fill:none"/><line x1="400.0" y1="383.2050807568877" x2="300.0" y2="383.2050807568877" style="stroke-width:1;stroke:rgb(0,0,0);fill:none"/><line x1="300.0" y1="383.2050807568877" x2="213.39745962155612" y2="333.2050807568877" style="stroke-width:1;stroke:rgb(0,0,0);fill:none"/><line x1="213.39745962155612" y1="333.2050807568877" x2="163.3974596215561" y2="246.60254037844385" style="stroke-width:1;stroke:rgb(0,0,0);fill:none"/><line x1="163.3974596215561" y1="246.60254037844385" x2="163.3974596215561" y2="146.60254037844385" style="stroke-width:1;stroke:rgb(0,0,0);fill:none"/><line x1="163.3974596215561" y1="146.60254037844385" x2="213.3974596215561" y2="59.999999999999986" style="stroke-width:1;stroke:rgb(0,0,0);fill:none"/><line x1="313.3974596215561" y1="59.999999999999986" x2="400.0" y2="10.0" style="stroke-width:1;stroke:rgb(0,0,0);fill:none"/><line x1="400.0" y1="10.0" x2="500.0" y2="10.0" style="stroke-width:1;stroke:rgb(0,0,0);fill:none"/><line x1="500.0" y1="10.0" x2="586.6025403784439" y2="59.99999999999999" style="stroke-width:1;stroke:rgb(0,0,0);fill:none"/><line x1="586.6025403784439" y1="59.99999999999999" x2="636.6025403784439" y2="146.60254037844385" style="stroke-width:1;stroke:rgb(0,0,0);fill:none"/><line x1="636.6025403784439" y1="146.60254037844385" x2="636.6025403784439" y2="246.60254037844385" style="stroke-width:1;stroke:rgb(0,0,0);fill:none"/><line x1="636.6025403784439" y1="246.60254037844385" x2="586.6025403784439" y2="333.2050807568877" style="stroke-width:1;stroke:rgb(0,0,0);fill:none"/><line x1="586.6025403784439" y1="333.2050807568877" x2="500.0" y2="383.2050807568877" style="stroke-width:1;stroke:rgb(0,0,0);fill:none"/><line x1="500.0" y1="383.2050807568877" x2="400.0" y2="383.2050807568877" style="stroke-width:1;stroke:rgb(0,0,0);fill:none"/><line x1="400.0" y1="383.2050807568877" x2="313.3974596215561" y2="333.2050807568877" style="stroke-width:1;stroke:rgb(0,0,0);fill:none"/><line x1="313.3974596215561" y1="333.2050807568877" x2="263.3974596215561" y2="246.60254037844385" style="stroke-width:1;stroke:rgb(0,0,0);fill:none"/><line x1="263.3974596215561" y1="246.60254037844385" x2="263.3974596215561" y2="146.60254037844385" style="stroke-width:1;stroke:rgb(0,0,0);fill:none"/><line x1="263.3974596215561" y1="146.60254037844385" x2="313.3974596215561" y2="59.999999999999986" style="stroke-width:1;stroke:rgb(0,0,0);fill:none"/><line x1="400.0" y1="109.99999999999999" x2="486.6025403784439" y2="59.99999999999999" style="stroke-width:1;stroke:rgb(0,0,0);fill:none"/><line x1="486.6025403784439" y1="59.99999999999999" x2="586.6025403784439" y2="59.99999999999999" style="stroke-width:1;stroke:rgb(0,0,0);fill:none"/><line x1="586.6025403784439" y1="59.99999999999999" x2="673.2050807568878" y2="109.99999999999999" style="stroke-width:1;stroke:rgb(0,0,0);fill:none"/><line x1="673.2050807568878" y1="109.99999999999999" x2="723.2050807568878" y2="196.60254037844385" style="stroke-width:1;stroke:rgb(0,0,0);fill:none"/><line x1="723.2050807568878" y1="196.60254037844385" x2="723.2050807568878" y2="296.60254037844385" style="stroke-width:1;stroke:rgb(0,0,0);fill:none"/><line x1="723.2050807568878" y1="296.60254037844385" x2="673.2050807568878" y2="383.2050807568877" style="stroke-width:1;stroke:rgb(0,0,0);fill:none"/><line x1="673.2050807568878" y1="383.2050807568877" x2="586.6025403784439" y2="433.2050807568877" style="stroke-width:1;stroke:rgb(0,0,0);fill:none"/><line x1="586.6025403784439" y1="433.2050807568877" x2="486.6025403784439" y2="433.2050807568877" style="stroke-width:1;stroke:rgb(0,0,0);fill:none"/><line x1="486.6025403784439" y1="433.2050807568877" x2="400.0" y2="383.2050807568877" style="stroke-width:1;stroke:rgb(0,0,0);fill:none"/><line x1="400.0" y1="383.2050807568877" x2="350.0" y2="296.60254037844385" style="stroke-width:1;stroke:rgb(0,0,0);fill:none"/><line x1="350.0" y1="296.60254037844385" x2="350.0" y2="196.60254037844385" style="stroke-width:1;stroke:rgb(0,0,0);fill:none"/><line x1="350.0" y1="196.60254037844385" x2="400.0" y2="109.99999999999999" style="stroke-width:1;stroke:rgb(0,0,0);fill:none"/><line x1="450.0" y1="196.6025403784438" x2="536.6025403784439" y2="146.60254037844385" style="stroke-width:1;stroke:rgb(0,0,0);fill:none"/><line x1="536.6025403784439" y1="146.60254037844385" x2="636.6025403784439" y2="146.60254037844385" style="stroke-width:1;stroke:rgb(0,0,0);fill:none"/><line x1="636.6025403784439" y1="146.60254037844385" x2="723.2050807568878" y2="196.60254037844385" style="stroke-width:1;stroke:rgb(0,0,0);fill:none"/><line x1="723.2050807568878" y1="196.60254037844385" x2="773.2050807568878" y2="283.2050807568877" style="stroke-width:1;stroke:rgb(0,0,0);fill:none"/><line x1="773.2050807568878" y1="283.2050807568877" x2="773.2050807568878" y2="383.2050807568877" style="stroke-width:1;stroke:rgb(0,0,0);fill:none"/><line x1="773.2050807568878" y1="383.2050807568877" x2="723.2050807568878" y2="469.80762113533154" style="stroke-width:1;stroke:rgb(0,0,0);fill:none"/><line x1="723.2050807568878" y1="469.80762113533154" x2="636.6025403784439" y2="519.8076211353315" style="stroke-width:1;stroke:rgb(0,0,0);fill:none"/><line x1="636.6025403784439" y1="519.8076211353315" x2="536.6025403784439" y2="519.8076211353315" style="stroke-width:1;stroke:rgb(0,0,0);fill:none"/><line x1="536.6025403784439" y1="519.8076211353315" x2="450.0" y2="469.8076211353315" style="stroke-width:1;stroke:rgb(0,0,0);fill:none"/><line x1="450.0" y1="469.8076211353315" x2="400.0" y2="383.20508075688764" style="stroke-width:1;stroke:rgb(0,0,0);fill:none"/><line x1="400.0" y1="383.20508075688764" x2="400.0" y2="283.20508075688764" style="stroke-width:1;stroke:rgb(0,0,0);fill:none"/><line x1="400.0" y1="283.20508075688764" x2="450.0" y2="196.6025403784438" style="stroke-width:1;stroke:rgb(0,0,0);fill:none"/><line x1="450.0" y1="296.6025403784439" x2="536.6025403784439" y2="246.60254037844385" style="stroke-width:1;stroke:rgb(0,0,0);fill:none"/><line x1="536.6025403784439" y1="246.60254037844385" x2="636.6025403784439" y2="246.60254037844385" style="stroke-width:1;stroke:rgb(0,0,0);fill:none"/><line x1="636.6025403784439" y1="246.60254037844385" x2="723.2050807568878" y2="296.60254037844385" style="stroke-width:1;stroke:rgb(0,0,0);fill:none"/><line x1="723.2050807568878" y1="296.60254037844385" x2="773.2050807568878" y2="383.2050807568877" style="stroke-width:1;stroke:rgb(0,0,0);fill:none"/><line x1="773.2050807568878" y1="383.2050807568877" x2="773.2050807568878" y2="483.2050807568877" style="stroke-width:1;stroke:rgb(0,0,0);fill:none"/><line x1="773.2050807568878" y1="483.2050807568877" x2="723.2050807568878" y2="569.8076211353316" style="stroke-width:1;stroke:rgb(0,0,0);fill:none"/><line x1="723.2050807568878" y1="569.8076211353316" x2="636.6025403784439" y2="619.8076211353316" style="stroke-width:1;stroke:rgb(0,0,0);fill:none"/><line x1="636.6025403784439" y1="619.8076211353316" x2="536.6025403784439" y2="619.8076211353316" style="stroke-width:1;stroke:rgb(0,0,0);fill:none"/><line x1="536.6025403784439" y1="619.8076211353316" x2="450.0" y2="569.8076211353316" style="stroke-width:1;stroke:rgb(0,0,0);fill:none"/><line x1="450.0" y1="569.8076211353316" x2="400.0" y2="483.20508075688775" style="stroke-width:1;stroke:rgb(0,0,0);fill:none"/><line x1="400.0" y1="483.20508075688775" x2="400.0" y2="383.20508075688775" style="stroke-width:1;stroke:rgb(0,0,0);fill:none"/><line x1="400.0" y1="383.20508075688775" x2="450.0" y2="296.6025403784439" style="stroke-width:1;stroke:rgb(0,0,0);fill:none"/><line x1="400.0" y1="383.20508075688775" x2="486.6025403784439" y2="333.2050807568877" style="stroke-width:1;stroke:rgb(0,0,0);fill:none"/><line x1="486.6025403784439" y1="333.2050807568877" x2="586.6025403784439" y2="333.2050807568877" style="stroke-width:1;stroke:rgb(0,0,0);fill:none"/><line x1="586.6025403784439" y1="333.2050807568877" x2="673.2050807568878" y2="383.2050807568877" style="stroke-width:1;stroke:rgb(0,0,0);fill:none"/><line x1="673.2050807568878" y1="383.2050807568877" x2="723.2050807568878" y2="469.80762113533154" style="stroke-width:1;stroke:rgb(0,0,0);fill:none"/><line x1="723.2050807568878" y1="469.80762113533154" x2="723.2050807568878" y2="569.8076211353316" style="stroke-width:1;stroke:rgb(0,0,0);fill:none"/><line x1="723.2050807568878" y1="569.8076211353316" x2="673.2050807568878" y2="656.4101615137755" style="stroke-width:1;stroke:rgb(0,0,0);fill:none"/><line x1="673.2050807568878" y1="656.4101615137755" x2="586.6025403784439" y2="706.4101615137755" style="stroke-width:1;stroke:rgb(0,0,0);fill:none"/><line x1="586.6025403784439" y1="706.4101615137755" x2="486.6025403784439" y2="706.4101615137755" style="stroke-width:1;stroke:rgb(0,0,0);fill:none"/><line x1="486.6025403784439" y1="706.4101615137755" x2="400.0" y2="656.4101615137755" style="stroke-width:1;stroke:rgb(0,0,0);fill:none"/><line x1="400.0" y1="656.4101615137755" x2="350.0" y2="569.8076211353316" style="stroke-width:1;stroke:rgb(0,0,0);fill:none"/><line x1="350.0" y1="569.8076211353316" x2="350.0" y2="469.8076211353316" style="stroke-width:1;stroke:rgb(0,0,0);fill:none"/><line x1="350.0" y1="469.8076211353316" x2="400.0" y2="383.20508075688775" style="stroke-width:1;stroke:rgb(0,0,0);fill:none"/><line x1="313.3974596215561" y1="433.20508075688775" x2="400.0" y2="383.2050807568877" style="stroke-width:1;stroke:rgb(0,0,0);fill:none"/><line x1="400.0" y1="383.2050807568877" x2="500.0" y2="383.2050807568877" style="stroke-width:1;stroke:rgb(0,0,0);fill:none"/><line x1="500.0" y1="383.2050807568877" x2="586.6025403784439" y2="433.2050807568877" style="stroke-width:1;stroke:rgb(0,0,0);fill:none"/><line x1="586.6025403784439" y1="433.2050807568877" x2="636.6025403784439" y2="519.8076211353316" style="stroke-width:1;stroke:rgb(0,0,0);fill:none"/><line x1="636.6025403784439" y1="519.8076211353316" x2="636.6025403784439" y2="619.8076211353316" style="stroke-width:1;stroke:rgb(0,0,0);fill:none"/><line x1="636.6025403784439" y1="619.8076211353316" x2="586.6025403784439" y2="706.4101615137755" style="stroke-width:1;stroke:rgb(0,0,0);fill:none"/><line x1="586.6025403784439" y1="706.4101615137755" x2="500.0" y2="756.4101615137755" style="stroke-width:1;stroke:rgb(0,0,0);fill:none"/><line x1="500.0" y1="756.4101615137755" x2="400.0" y2="756.4101615137755" style="stroke-width:1;stroke:rgb(0,0,0);fill:none"/><line x1="400.0" y1="756.4101615137755" x2="313.3974596215561" y2="706.4101615137755" style="stroke-width:1;stroke:rgb(0,0,0);fill:none"/><line x1="313.3974596215561" y1="706.4101615137755" x2="263.3974596215561" y2="619.8076211353316" style="stroke-width:1;stroke:rgb(0,0,0);fill:none"/><line x1="263.3974596215561" y1="619.8076211353316" x2="263.3974596215561" y2="519.8076211353316" style="stroke-width:1;stroke:rgb(0,0,0);fill:none"/><line x1="263.3974596215561" y1="519.8076211353316" x2="313.3974596215561" y2="433.20508075688775" style="stroke-width:1;stroke:rgb(0,0,0);fill:none"/><line x1="213.3974596215561" y1="433.20508075688775" x2="300.0" y2="383.2050807568877" style="stroke-width:1;stroke:rgb(0,0,0);fill:none"/><line x1="300.0" y1="383.2050807568877" x2="400.0" y2="383.2050807568877" style="stroke-width:1;stroke:rgb(0,0,0);fill:none"/><line x1="400.0" y1="383.2050807568877" x2="486.6025403784439" y2="433.2050807568877" style="stroke-width:1;stroke:rgb(0,0,0);fill:none"/><line x1="486.6025403784439" y1="433.2050807568877" x2="536.6025403784439" y2="519.8076211353316" style="stroke-width:1;stroke:rgb(0,0,0);fill:none"/><line x1="536.6025403784439" y1="519.8076211353316" x2="536.6025403784439" y2="619.8076211353316" style="stroke-width:1;stroke:rgb(0,0,0);fill:none"/><line x1="536.6025403784439" y1="619.8076211353316" x2="486.6025403784439" y2="706.4101615137755" style="stroke-width:1;stroke:rgb(0,0,0);fill:none"/><line x1="486.6025403784439" y1="706.4101615137755" x2="400.0" y2="756.4101615137755" style="stroke-width:1;stroke:rgb(0,0,0);fill:none"/><line x1="400.0" y1="756.4101615137755" x2="300.0" y2="756.4101615137755" style="stroke-width:1;stroke:rgb(0,0,0);fill:none"/><line x1="300.0" y1="756.4101615137755" x2="213.39745962155612" y2="706.4101615137755" style="stroke-width:1;stroke:rgb(0,0,0);fill:none"/><line x1="213.39745962155612" y1="706.4101615137755" x2="163.3974596215561" y2="619.8076211353316" style="stroke-width:1;stroke:rgb(0,0,0);fill:none"/><line x1="163.3974596215561" y1="619.8076211353316" x2="163.3974596215561" y2="519.8076211353316" style="stroke-width:1;stroke:rgb(0,0,0);fill:none"/><line x1="163.3974596215561" y1="519.8076211353316" x2="213.3974596215561" y2="433.20508075688775" style="stroke-width:1;stroke:rgb(0,0,0);fill:none"/><line x1="126.79491924311222" y1="383.20508075688775" x2="213.39745962155612" y2="333.2050807568877" style="stroke-width:1;stroke:rgb(0,0,0);fill:none"/><line x1="213.39745962155612" y1="333.2050807568877" x2="313.3974596215561" y2="333.2050807568877" style="stroke-width:1;stroke:rgb(0,0,0);fill:none"/><line x1="313.3974596215561" y1="333.2050807568877" x2="400.0" y2="383.2050807568877" style="stroke-width:1;stroke:rgb(0,0,0);fill:none"/><line x1="400.0" y1="383.2050807568877" x2="450.0" y2="469.80762113533154" style="stroke-width:1;stroke:rgb(0,0,0);fill:none"/><line x1="450.0" y1="469.80762113533154" x2="450.0" y2="569.8076211353316" style="stroke-width:1;stroke:rgb(0,0,0);fill:none"/><line x1="450.0" y1="569.8076211353316" x2="400.0" y2="656.4101615137755" style="stroke-width:1;stroke:rgb(0,0,0);fill:none"/><line x1="400.0" y1="656.4101615137755" x2="313.3974596215561" y2="706.4101615137755" style="stroke-width:1;stroke:rgb(0,0,0);fill:none"/><line x1="313.3974596215561" y1="706.4101615137755" x2="213.3974596215561" y2="706.4101615137755" style="stroke-width:1;stroke:rgb(0,0,0);fill:none"/><line x1="213.3974596215561" y1="706.4101615137755" x2="126.79491924311222" y2="656.4101615137755" style="stroke-width:1;stroke:rgb(0,0,0);fill:none"/><line x1="126.79491924311222" y1="656.4101615137755" x2="76.7949192431122" y2="569.8076211353316" style="stroke-width:1;stroke:rgb(0,0,0);fill:none"/><line x1="76.7949192431122" y1="569.8076211353316" x2="76.7949192431122" y2="469.8076211353316" style="stroke-width:1;stroke:rgb(0,0,0);fill:none"/><line x1="76.7949192431122" y1="469.8076211353316" x2="126.79491924311222" y2="383.20508075688775" style="stroke-width:1;stroke:rgb(0,0,0);fill:none"/><line x1="76.79491924311222" y1="296.6025403784439" x2="163.3974596215561" y2="246.60254037844385" style="stroke-width:1;stroke:rgb(0,0,0);fill:none"/><line x1="163.3974596215561" y1="246.60254037844385" x2="263.3974596215561" y2="246.60254037844385" style="stroke-width:1;stroke:rgb(0,0,0);fill:none"/><line x1="263.3974596215561" y1="246.60254037844385" x2="350.0" y2="296.60254037844385" style="stroke-width:1;stroke:rgb(0,0,0);fill:none"/><line x1="350.0" y1="296.60254037844385" x2="400.0" y2="383.2050807568877" style="stroke-width:1;stroke:rgb(0,0,0);fill:none"/><line x1="400.0" y1="383.2050807568877" x2="400.0" y2="483.2050807568877" style="stroke-width:1;stroke:rgb(0,0,0);fill:none"/><line x1="400.0" y1="483.2050807568877" x2="350.0" y2="569.8076211353316" style="stroke-width:1;stroke:rgb(0,0,0);fill:none"/><line x1="350.0" y1="569.8076211353316" x2="263.3974596215561" y2="619.8076211353316" style="stroke-width:1;stroke:rgb(0,0,0);fill:none"/><line x1="263.3974596215561" y1="619.8076211353316" x2="163.3974596215561" y2="619.8076211353316" style="stroke-width:1;stroke:rgb(0,0,0);fill:none"/><line x1="163.3974596215561" y1="619.8076211353316" x2="76.79491924311222" y2="569.8076211353316" style="stroke-width:1;stroke:rgb(0,0,0);fill:none"/><line x1="76.79491924311222" y1="569.8076211353316" x2="26.794919243112204" y2="483.20508075688775" style="stroke-width:1;stroke:rgb(0,0,0);fill:none"/><line x1="26.794919243112204" y1="483.20508075688775" x2="26.79491924311221" y2="383.20508075688775" style="stroke-width:1;stroke:rgb(0,0,0);fill:none"/><line x1="26.79491924311221" y1="383.20508075688775" x2="76.79491924311222" y2="296.6025403784439" style="stroke-width:1;stroke:rgb(0,0,0);fill:none"/><line x1="76.79491924311222" y1="196.6025403784438" x2="163.3974596215561" y2="146.60254037844385" style="stroke-width:1;stroke:rgb(0,0,0);fill:none"/><line x1="163.3974596215561" y1="146.60254037844385" x2="263.3974596215561" y2="146.60254037844385" style="stroke-width:1;stroke:rgb(0,0,0);fill:none"/><line x1="263.3974596215561" y1="146.60254037844385" x2="350.0" y2="196.60254037844385" style="stroke-width:1;stroke:rgb(0,0,0);fill:none"/><line x1="350.0" y1="196.60254037844385" x2="400.0" y2="283.2050807568877" style="stroke-width:1;stroke:rgb(0,0,0);fill:none"/><line x1="400.0" y1="283.2050807568877" x2="400.0" y2="383.2050807568877" style="stroke-width:1;stroke:rgb(0,0,0);fill:none"/><line x1="400.0" y1="383.2050807568877" x2="350.0" y2="469.80762113533154" style="stroke-width:1;stroke:rgb(0,0,0);fill:none"/><line x1="350.0" y1="469.80762113533154" x2="263.3974596215561" y2="519.8076211353315" style="stroke-width:1;stroke:rgb(0,0,0);fill:none"/><line x1="263.3974596215561" y1="519.8076211353315" x2="163.3974596215561" y2="519.8076211353315" style="stroke-width:1;stroke:rgb(0,0,0);fill:none"/><line x1="163.3974596215561" y1="519.8076211353315" x2="76.79491924311222" y2="469.8076211353315" style="stroke-width:1;stroke:rgb(0,0,0);fill:none"/><line x1="76.79491924311222" y1="469.8076211353315" x2="26.794919243112204" y2="383.20508075688764" style="stroke-width:1;stroke:rgb(0,0,0);fill:none"/><line x1="26.794919243112204" y1="383.20508075688764" x2="26.79491924311221" y2="283.20508075688764" style="stroke-width:1;stroke:rgb(0,0,0);fill:none"/><line x1="26.79491924311221" y1="283.20508075688764" x2="76.79491924311222" y2="196.6025403784438" style="stroke-width:1;stroke:rgb(0,0,0);fill:none"/><line x1="126.79491924311222" y1="109.99999999999999" x2="213.3974596215561" y2="59.999999999999986" style="stroke-width:1;stroke:rgb(0,0,0);fill:none"/><line x1="213.3974596215561" y1="59.999999999999986" x2="313.3974596215561" y2="59.999999999999986" style="stroke-width:1;stroke:rgb(0,0,0);fill:none"/><line x1="313.3974596215561" y1="59.999999999999986" x2="400.0" y2="109.99999999999997" style="stroke-width:1;stroke:rgb(0,0,0);fill:none"/><line x1="400.0" y1="109.99999999999997" x2="450.0" y2="196.60254037844385" style="stroke-width:1;stroke:rgb(0,0,0);fill:none"/><line x1="450.0" y1="196.60254037844385" x2="450.0" y2="296.60254037844385" style="stroke-width:1;stroke:rgb(0,0,0);fill:none"/><line x1="450.0" y1="296.60254037844385" x2="400.0" y2="383.2050807568877" style="stroke-width:1;stroke:rgb(0,0,0);fill:none"/><line x1="400.0" y1="383.2050807568877" x2="313.3974596215561" y2="433.2050807568877" style="stroke-width:1;stroke:rgb(0,0,0);fill:none"/><line x1="313.3974596215561" y1="433.2050807568877" x2="213.3974596215561" y2="433.2050807568877" style="stroke-width:1;stroke:rgb(0,0,0);fill:none"/><line x1="213.3974596215561" y1="433.2050807568877" x2="126.79491924311222" y2="383.2050807568877" style="stroke-width:1;stroke:rgb(0,0,0);fill:none"/><line x1="126.79491924311222" y1="383.2050807568877" x2="76.7949192431122" y2="296.60254037844385" style="stroke-width:1;stroke:rgb(0,0,0);fill:none"/><line x1="76.7949192431122" y1="296.60254037844385" x2="76.7949192431122" y2="196.60254037844385" style="stroke-width:1;stroke:rgb(0,0,0);fill:none"/><line x1="76.7949192431122" y1="196.60254037844385" x2="126.79491924311222" y2="109.99999999999999" style="stroke-width:1;stroke:rgb(0,0,0);fill:none"/></svg>