<?xml version="1.0"?><!DOCTYPE svg PUBLIC "-//W3C//DTD util.SVG 1.0//EN" "http://www.w3.org/TR/2001/REC-util.SVG-20010904/DTD/svg10.dtd"><svg xmlns="http://www.w3.org/2000/svg" height="400" width="400" text-rendering="auto" shape-rendering="auto"><line x1="50.0" y1="100.0" x2="83.33" y2="100.0" style="stroke-width:1;stroke:rgb(0,0,0);fill:none"/><line x1="83.33" y1="100.0" x2="100.0" y2="71.13" style="stroke-width:1;stroke:rgb(0,0,0);fill:none"/><line x1="100.0" y1="71.13" x2="116.67" y2="100.0" style="stroke-width:1;stroke:rgb(0,0,0);fill:none"/><line x1="116.67" y1="100.0" x2="150.0" y2="100.0" style="stroke-width:1;stroke:rgb(0,0,0);fill:none"/><line x1="150.0" y1="100.0" x2="166.67000000000002" y2="71.13" style="stroke-width:1;stroke:rgb(0,0,0);fill:none"/><line x1="166.67000000000002" y1="71.13" x2="150.0" y2="42.25999999999999" style="stroke-width:1;stroke:rgb(0,0,0);fill:none"/><line x1="150.0" y1="42.25999999999999" x2="183.32999999999998" y2="42.25999999999999" style="stroke-width:1;stroke:rgb(0,0,0);fill:none"/><line x1="183.32999999999998" y1="42.25999999999999" x2="200.0" y2="13.38999999999999" style="stroke-width:1;stroke:rgb(0,0,0);fill:none"/><line x1="200.0" y1="13.38999999999999" x2="216.67000000000002" y2="42.25999999999999" style="stroke-width:1;stroke:rgb(0,0,0);fill:none"/><line x1="216.67000000000002" y1="42.25999999999999" x2="250.0" y2="42.25999999999999" style="stroke-width:1;stroke:rgb(0,0,0);fill:none"/><line x1="250.0" y1="42.25999999999999" x2="233.32999999999998" y2="71.13" style="stroke-width:1;stroke:rgb(0,0,0);fill:none"/><line x1="233.32999999999998" y1="71.13" x2="250.0" y2="100.0" style="stroke-width:1;stroke:rgb(0,0,0);fill:none"/><line x1="250.0" y1="100.0" x2="283.33" y2="100.0" style="stroke-width:1;stroke:rgb(0,0,0);fill:none"/><line x1="283.33" y1="100.0" x2="300.0" y2="71.13" style="stroke-width:1;stroke:rgb(0,0,0);fill:none"/><line x1="300.0" y1="71.13" x2="316.67" y2="100.0" style="stroke-width:1;stroke:rgb(0,0,0);fill:none"/><line x1="316.67" y1="100.0" x2="350.0" y2="100.0" style="stroke-width:1;stroke:rgb(0,0,0);fill:none"/><line x1="350.0" y1="100.0" x2="333.33" y2="128.87" style="stroke-width:1;stroke:rgb(0,0,0);fill:none"/><line x1="333.33" y1="128.87" x2="350.0" y2="157.74" style="stroke-width:1;stroke:rgb(0,0,0);fill:none"/><line x1="350.0" y1="157.74" x2="316.67" y2="157.74" style="stroke-width:1;stroke:rgb(0,0,0);fill:none"/><line x1="316.67" y1="157.74" x2="300.0" y2="186.61" style="stroke-width:1;stroke:rgb(0,0,0);fill:none"/><line x1="300.0" y1="186.61" x2="316.67" y2="215.48000000000002" style="stroke-width:1;stroke:rgb(0,0,0);fill:none"/><line x1="316.67" y1="215.48000000000002" x2="350.0" y2="215.48000000000002" style="stroke-width:1;stroke:rgb(0,0,0);fill:none"/><line x1="350.0" y1="215.48000000000002" x2="333.33" y2="244.35000000000002" style="stroke-width:1;stroke:rgb(0,0,0);fill:none"/><line x1="333.33" y1="244.35000000000002" x2="350.0" y2="273.22" style="stroke-width:1;stroke:rgb(0,0,0);fill:none"/><line x1="350.0" y1="273.22" x2="316.67" y2="273.22" style="stroke-width:1;stroke:rgb(0,0,0);fill:none"/><line x1="316.67" y1="273.22" x2="300.0" y2="302.09000000000003" style="stroke-width:1;stroke:rgb(0,0,0);fill:none"/><line x1="300.0" y1="302.09000000000003" x2="283.33" y2="273.22" style="stroke-width:1;stroke:rgb(0,0,0);fill:none"/><line x1="283.33" y1="273.22" x2="250.0" y2="273.22" style="stroke-width:1;stroke:rgb(0,0,0);fill:none"/><line x1="250.0" y1="273.22" x2="233.32999999999998" y2="302.09000000000003" style="stroke-width:1;stroke:rgb(0,0,0);fill:none"/><line x1="233.32999999999998" y1="302.09000000000003" x2="250.0" y2="330.96000000000004" style="stroke-width:1;stroke:rgb(0,0,0);fill:none"/><line x1="250.0" y1="330.96000000000004" x2="216.67000000000002" y2="330.96000000000004" style="stroke-width:1;stroke:rgb(0,0,0);fill:none"/><line x1="216.67000000000002" y1="330.96000000000004" x2="200.0" y2="359.83000000000004" style="stroke-width:1;stroke:rgb(0,0,0);fill:none"/><line x1="200.0" y1="359.83000000000004" x2="183.32999999999998" y2="330.96000000000004" style="stroke-width:1;stroke:rgb(0,0,0);fill:none"/><line x1="183.32999999999998" y1="330.96000000000004" x2="150.0" y2="330.96000000000004" style="stroke-width:1;stroke:rgb(0,0,0);fill:none"/><line x1="150.0" y1="330.96000000000004" x2="166.67000000000002" y2="302.09000000000003" style="stroke-width:1;stroke:rgb(0,0,0);fill:none"/><line x1="166.67000000000002" y1="302.09000000000003" x2="150.0" y2="273.22" style="stroke-width:1;stroke:rgb(0,0,0);fill:none"/><line x1="150.0" y1="273.22" x2="116.67" y2="273.22" style="stroke-width:1;stroke:rgb(0,0,0);fill:none"/><line x1="116.67" y1="273.22" x2="100.0" y2="302.09000000000003" style="stroke-width:1;stroke:rgb(0,0,0);fill:none"/><line x1="100.0" y1="302.09000000000003" x2="83.33" y2="273.22" style="stroke-width:1;stroke:rgb(0,0,0);fill:none"/><line x1="83.33" y1="273.22" x2="50.0" y2="273.22" style="stroke-width:1;stroke:rgb(0,0,0);fill:none"/><line x1="50.0" y1="273.22" x2="66.67" y2="244.35000000000002" style="stroke-width:1;stroke:rgb(0,0,0);fill:none"/><line x1="66.67" y1="244.35000000000002" x2="50.0" y2="215.48000000000002" style="stroke-width:1;stroke:rgb(0,0,0);fill:none"/><line x1="50.0" y1="215.48000000000002" x2="83.33" y2="215.48000000000002" style="stroke-width:1;stroke:rgb(0,0,0);fill:none"/><line x1="83.33" y1="215.48000000000002" x2="100.0" y2="186.61" style="stroke-width:1;stroke:rgb(0,0,0);fill:none"/><line x1="100.0" y1="186.61" x2="83.33" y2="157.74" style="stroke-width:1;stroke:rgb(0,0,0);fill:none"/><line x1="83.33" y1="157.74" x2="50.0" y2="157.74" style="stroke-width:1;stroke:rgb(0,0,0);fill:none"/><line x1="50.0" y1="157.74" x2="66.67" y2="128.87" style="stroke-width:1;stroke:rgb(0,0,0);fill:none"/><line x1="66.67" y1="128.87" x2="50.0" y2="100.0" style="stroke-width:1;stroke:rgb(0,0,0);fill:none"/></svg>