<?xml version="1.0"?><!DOCTYPE svg PUBLIC "-//W3C//DTD util.SVG 1.0//EN" "http://www.w3.org/TR/2001/REC-util.SVG-20010904/DTD/svg10.dtd"><svg xmlns="http://www.w3.org/2000/svg" height="5000" width="5000" text-rendering="auto" shape-rendering="auto"><line x1="500.0" y1="500.0" x2="511.11" y2="500.0" style="stroke-width:1;stroke:rgb(0,0,0);fill:none"/><line x1="511.11" y1="500.0" x2="516.67" y2="490.38" style="stroke-width:1;stroke:rgb(0,0,0);fill:none"/><line x1="516.67" y1="490.38" x2="522.2299999999999" y2="500.0" style="stroke-width:1;stroke:rgb(0,0,0);fill:none"/><line x1="522.2299999999999" y1="500.0" x2="533.3399999999999" y2="500.0" style="stroke-width:1;stroke:rgb(0,0,0);fill:none"/><line x1="533.3399999999999" y1="500.0" x2="538.8999999999999" y2="490.38" style="stroke-width:1;stroke:rgb(0,0,0);fill:none"/><line x1="538.8999999999999" y1="490.38" x2="533.3399999999999" y2="480.76" style="stroke-width:1;stroke:rgb(0,0,0);fill:none"/><line x1="533.3399999999999" y1="480.76" x2="544.4499999999999" y2="480.76" style="stroke-width:1;stroke:rgb(0,0,0);fill:none"/><line x1="544.4499999999999" y1="480.76" x2="550.0099999999999" y2="471.14" style="stroke-width:1;stroke:rgb(0,0,0);fill:none"/><line x1="550.0099999999999" y1="471.14" x2="555.5699999999998" y2="480.76" style="stroke-width:1;stroke:rgb(0,0,0);fill:none"/><line x1="555.5699999999998" y1="480.76" x2="566.6799999999998" y2="480.76" style="stroke-width:1;stroke:rgb(0,0,0);fill:none"/><line x1="566.6799999999998" y1="480.76" x2="561.1199999999999" y2="490.38" style="stroke-width:1;stroke:rgb(0,0,0);fill:none"/><line x1="561.1199999999999" y1="490.38" x2="566.6799999999998" y2="500.0" style="stroke-width:1;stroke:rgb(0,0,0);fill:none"/><line x1="566.6799999999998" y1="500.0" x2="577.7899999999998" y2="500.0" style="stroke-width:1;stroke:rgb(0,0,0);fill:none"/><line x1="577.7899999999998" y1="500.0" x2="583.3499999999998" y2="490.38" style="stroke-width:1;stroke:rgb(0,0,0);fill:none"/><line x1="583.3499999999998" y1="490.38" x2="588.9099999999997" y2="500.0" style="stroke-width:1;stroke:rgb(0,0,0);fill:none"/><line x1="588.9099999999997" y1="500.0" x2="600.0199999999998" y2="500.0" style="stroke-width:1;stroke:rgb(0,0,0);fill:none"/><line x1="600.0199999999998" y1="500.0" x2="605.5799999999997" y2="490.38" style="stroke-width:1;stroke:rgb(0,0,0);fill:none"/><line x1="605.5799999999997" y1="490.38" x2="600.0199999999998" y2="480.76" style="stroke-width:1;stroke:rgb(0,0,0);fill:none"/><line x1="600.0199999999998" y1="480.76" x2="611.1299999999998" y2="480.76" style="stroke-width:1;stroke:rgb(0,0,0);fill:none"/><line x1="611.1299999999998" y1="480.76" x2="616.6899999999997" y2="471.14" style="stroke-width:1;stroke:rgb(0,0,0);fill:none"/><line x1="616.6899999999997" y1="471.14" x2="611.1299999999998" y2="461.52" style="stroke-width:1;stroke:rgb(0,0,0);fill:none"/><line x1="611.1299999999998" y1="461.52" x2="600.0199999999998" y2="461.52" style="stroke-width:1;stroke:rgb(0,0,0);fill:none"/><line x1="600.0199999999998" y1="461.52" x2="605.5799999999997" y2="451.9" style="stroke-width:1;stroke:rgb(0,0,0);fill:none"/><line x1="605.5799999999997" y1="451.9" x2="600.0199999999998" y2="442.28" style="stroke-width:1;stroke:rgb(0,0,0);fill:none"/><line x1="600.0199999999998" y1="442.28" x2="611.1299999999998" y2="442.28" style="stroke-width:1;stroke:rgb(0,0,0);fill:none"/><line x1="611.1299999999998" y1="442.28" x2="616.6899999999997" y2="432.65999999999997" style="stroke-width:1;stroke:rgb(0,0,0);fill:none"/><line x1="616.6899999999997" y1="432.65999999999997" x2="622.2499999999997" y2="442.28" style="stroke-width:1;stroke:rgb(0,0,0);fill:none"/><line x1="622.2499999999997" y1="442.28" x2="633.3599999999997" y2="442.28" style="stroke-width:1;stroke:rgb(0,0,0);fill:none"/><line x1="633.3599999999997" y1="442.28" x2="638.9199999999996" y2="432.65999999999997" style="stroke-width:1;stroke:rgb(0,0,0);fill:none"/><line x1="638.9199999999996" y1="432.65999999999997" x2="633.3599999999997" y2="423.03999999999996" style="stroke-width:1;stroke:rgb(0,0,0);fill:none"/><line x1="633.3599999999997" y1="423.03999999999996" x2="644.4699999999997" y2="423.03999999999996" style="stroke-width:1;stroke:rgb(0,0,0);fill:none"/><line x1="644.4699999999997" y1="423.03999999999996" x2="650.0299999999996" y2="413.41999999999996" style="stroke-width:1;stroke:rgb(0,0,0);fill:none"/><line x1="650.0299999999996" y1="413.41999999999996" x2="655.5899999999996" y2="423.03999999999996" style="stroke-width:1;stroke:rgb(0,0,0);fill:none"/><line x1="655.5899999999996" y1="423.03999999999996" x2="666.6999999999996" y2="423.03999999999996" style="stroke-width:1;stroke:rgb(0,0,0);fill:none"/><line x1="666.6999999999996" y1="423.03999999999996" x2="661.1399999999996" y2="432.65999999999997" style="stroke-width:1;stroke:rgb(0,0,0);fill:none"/><line x1="661.1399999999996" y1="432.65999999999997" x2="666.6999999999996" y2="442.28" style="stroke-width:1;stroke:rgb(0,0,0);fill:none"/><line x1="666.6999999999996" y1="442.28" x2="677.8099999999996" y2="442.28" style="stroke-width:1;stroke:rgb(0,0,0);fill:none"/><line x1="677.8099999999996" y1="442.28" x2="683.3699999999995" y2="432.65999999999997" style="stroke-width:1;stroke:rgb(0,0,0);fill:none"/><line x1="683.3699999999995" y1="432.65999999999997" x2="688.9299999999995" y2="442.28" style="stroke-width:1;stroke:rgb(0,0,0);fill:none"/><line x1="688.9299999999995" y1="442.28" x2="700.0399999999995" y2="442.28" style="stroke-width:1;stroke:rgb(0,0,0);fill:none"/><line x1="700.0399999999995" y1="442.28" x2="694.4799999999996" y2="451.9" style="stroke-width:1;stroke:rgb(0,0,0);fill:none"/><line x1="694.4799999999996" y1="451.9" x2="700.0399999999995" y2="461.52" style="stroke-width:1;stroke:rgb(0,0,0);fill:none"/><line x1="700.0399999999995" y1="461.52" x2="688.9299999999995" y2="461.52" style="stroke-width:1;stroke:rgb(0,0,0);fill:none"/><line x1="688.9299999999995" y1="461.52" x2="683.3699999999995" y2="471.14" style="stroke-width:1;stroke:rgb(0,0,0);fill:none"/><line x1="683.3699999999995" y1="471.14" x2="688.9299999999995" y2="480.76" style="stroke-width:1;stroke:rgb(0,0,0);fill:none"/><line x1="688.9299999999995" y1="480.76" x2="700.0399999999995" y2="480.76" style="stroke-width:1;stroke:rgb(0,0,0);fill:none"/><line x1="700.0399999999995" y1="480.76" x2="694.4799999999996" y2="490.38" style="stroke-width:1;stroke:rgb(0,0,0);fill:none"/><line x1="694.4799999999996" y1="490.38" x2="700.0399999999995" y2="500.0" style="stroke-width:1;stroke:rgb(0,0,0);fill:none"/><line x1="700.0399999999995" y1="500.0" x2="711.1499999999995" y2="500.0" style="stroke-width:1;stroke:rgb(0,0,0);fill:none"/><line x1="711.1499999999995" y1="500.0" x2="716.7099999999995" y2="490.38" style="stroke-width:1;stroke:rgb(0,0,0);fill:none"/><line x1="716.7099999999995" y1="490.38" x2="722.2699999999994" y2="500.0" style="stroke-width:1;stroke:rgb(0,0,0);fill:none"/><line x1="722.2699999999994" y1="500.0" x2="733.3799999999994" y2="500.0" style="stroke-width:1;stroke:rgb(0,0,0);fill:none"/><line x1="733.3799999999994" y1="500.0" x2="738.9399999999994" y2="490.38" style="stroke-width:1;stroke:rgb(0,0,0);fill:none"/><line x1="738.9399999999994" y1="490.38" x2="733.3799999999994" y2="480.76" style="stroke-width:1;stroke:rgb(0,0,0);fill:none"/><line x1="733.3799999999994" y1="480.76" x2="744.4899999999994" y2="480.76" style="stroke-width:1;stroke:rgb(0,0,0);fill:none"/><line x1="744.4899999999994" y1="480.76" x2="750.0499999999994" y2="471.14" style="stroke-width:1;stroke:rgb(0,0,0);fill:none"/><line x1="750.0499999999994" y1="471.14" x2="755.6099999999993" y2="480.76" style="stroke-width:1;stroke:rgb(0,0,0);fill:none"/><line x1="755.6099999999993" y1="480.76" x2="766.7199999999993" y2="480.76" style="stroke-width:1;stroke:rgb(0,0,0);fill:none"/><line x1="766.7199999999993" y1="480.76" x2="761.1599999999994" y2="490.38" style="stroke-width:1;stroke:rgb(0,0,0);fill:none"/><line x1="761.1599999999994" y1="490.38" x2="766.7199999999993" y2="500.0" style="stroke-width:1;stroke:rgb(0,0,0);fill:none"/><line x1="766.7199999999993" y1="500.0" x2="777.8299999999994" y2="500.0" style="stroke-width:1;stroke:rgb(0,0,0);fill:none"/><line x1="777.8299999999994" y1="500.0" x2="783.3899999999993" y2="490.38" style="stroke-width:1;stroke:rgb(0,0,0);fill:none"/><line x1="783.3899999999993" y1="490.38" x2="788.9499999999992" y2="500.0" style="stroke-width:1;stroke:rgb(0,0,0);fill:none"/><line x1="788.9499999999992" y1="500.0" x2="800.0599999999993" y2="500.0" style="stroke-width:1;stroke:rgb(0,0,0);fill:none"/><line x1="800.0599999999993" y1="500.0" x2="794.4999999999993" y2="509.62" style="stroke-width:1;stroke:rgb(0,0,0);fill:none"/><line x1="794.4999999999993" y1="509.62" x2="800.0599999999993" y2="519.24" style="stroke-width:1;stroke:rgb(0,0,0);fill:none"/><line x1="800.0599999999993" y1="519.24" x2="788.9499999999992" y2="519.24" style="stroke-width:1;stroke:rgb(0,0,0);fill:none"/><line x1="788.9499999999992" y1="519.24" x2="783.3899999999993" y2="528.86" style="stroke-width:1;stroke:rgb(0,0,0);fill:none"/><line x1="783.3899999999993" y1="528.86" x2="788.9499999999992" y2="538.48" style="stroke-width:1;stroke:rgb(0,0,0);fill:none"/><line x1="788.9499999999992" y1="538.48" x2="800.0599999999993" y2="538.48" style="stroke-width:1;stroke:rgb(0,0,0);fill:none"/><line x1="800.0599999999993" y1="538.48" x2="794.4999999999993" y2="548.1" style="stroke-width:1;stroke:rgb(0,0,0);fill:none"/><line x1="794.4999999999993" y1="548.1" x2="800.0599999999993" y2="557.72" style="stroke-width:1;stroke:rgb(0,0,0);fill:none"/><line x1="800.0599999999993" y1="557.72" x2="788.9499999999992" y2="557.72" style="stroke-width:1;stroke:rgb(0,0,0);fill:none"/><line x1="788.9499999999992" y1="557.72" x2="783.3899999999993" y2="567.34" style="stroke-width:1;stroke:rgb(0,0,0);fill:none"/><line x1="783.3899999999993" y1="567.34" x2="777.8299999999994" y2="557.72" style="stroke-width:1;stroke:rgb(0,0,0);fill:none"/><line x1="777.8299999999994" y1="557.72" x2="766.7199999999993" y2="557.72" style="stroke-width:1;stroke:rgb(0,0,0);fill:none"/><line x1="766.7199999999993" y1="557.72" x2="761.1599999999994" y2="567.34" style="stroke-width:1;stroke:rgb(0,0,0);fill:none"/><line x1="761.1599999999994" y1="567.34" x2="766.7199999999993" y2="576.96" style="stroke-width:1;stroke:rgb(0,0,0);fill:none"/><line x1="766.7199999999993" y1="576.96" x2="755.6099999999993" y2="576.96" style="stroke-width:1;stroke:rgb(0,0,0);fill:none"/><line x1="755.6099999999993" y1="576.96" x2="750.0499999999994" y2="586.58" style="stroke-width:1;stroke:rgb(0,0,0);fill:none"/><line x1="750.0499999999994" y1="586.58" x2="755.6099999999993" y2="596.2" style="stroke-width:1;stroke:rgb(0,0,0);fill:none"/><line x1="755.6099999999993" y1="596.2" x2="766.7199999999993" y2="596.2" style="stroke-width:1;stroke:rgb(0,0,0);fill:none"/><line x1="766.7199999999993" y1="596.2" x2="761.1599999999994" y2="605.82" style="stroke-width:1;stroke:rgb(0,0,0);fill:none"/><line x1="761.1599999999994" y1="605.82" x2="766.7199999999993" y2="615.44" style="stroke-width:1;stroke:rgb(0,0,0);fill:none"/><line x1="766.7199999999993" y1="615.44" x2="777.8299999999994" y2="615.44" style="stroke-width:1;stroke:rgb(0,0,0);fill:none"/><line x1="777.8299999999994" y1="615.44" x2="783.3899999999993" y2="605.82" style="stroke-width:1;stroke:rgb(0,0,0);fill:none"/><line x1="783.3899999999993" y1="605.82" x2="788.9499999999992" y2="615.44" style="stroke-width:1;stroke:rgb(0,0,0);fill:none"/><line x1="788.9499999999992" y1="615.44" x2="800.0599999999993" y2="615.44" style="stroke-width:1;stroke:rgb(0,0,0);fill:none"/><line x1="800.0599999999993" y1="615.44" x2="794.4999999999993" y2="625.0600000000001" style="stroke-width:1;stroke:rgb(0,0,0);fill:none"/><line x1="794.4999999999993" y1="625.0600000000001" x2="800.0599999999993" y2="634.6800000000001" style="stroke-width:1;stroke:rgb(0,0,0);fill:none"/><line x1="800.0599999999993" y1="634.6800000000001" x2="788.9499999999992" y2="634.6800000000001" style="stroke-width:1;stroke:rgb(0,0,0);fill:none"/><line x1="788.9499999999992" y1="634.6800000000001" x2="783.3899999999993" y2="644.3000000000001" style="stroke-width:1;stroke:rgb(0,0,0);fill:none"/><line x1="783.3899999999993" y1="644.3000000000001" x2="788.9499999999992" y2="653.9200000000001" style="stroke-width:1;stroke:rgb(0,0,0);fill:none"/><line x1="788.9499999999992" y1="653.9200000000001" x2="800.0599999999993" y2="653.9200000000001" style="stroke-width:1;stroke:rgb(0,0,0);fill:none"/><line x1="800.0599999999993" y1="653.9200000000001" x2="794.4999999999993" y2="663.5400000000001" style="stroke-width:1;stroke:rgb(0,0,0);fill:none"/><line x1="794.4999999999993" y1="663.5400000000001" x2="800.0599999999993" y2="673.1600000000001" style="stroke-width:1;stroke:rgb(0,0,0);fill:none"/><line x1="800.0599999999993" y1="673.1600000000001" x2="788.9499999999992" y2="673.1600000000001" style="stroke-width:1;stroke:rgb(0,0,0);fill:none"/><line x1="788.9499999999992" y1="673.1600000000001" x2="783.3899999999993" y2="682.7800000000001" style="stroke-width:1;stroke:rgb(0,0,0);fill:none"/><line x1="783.3899999999993" y1="682.7800000000001" x2="777.8299999999994" y2="673.1600000000001" style="stroke-width:1;stroke:rgb(0,0,0);fill:none"/><line x1="777.8299999999994" y1="673.1600000000001" x2="766.7199999999993" y2="673.1600000000001" style="stroke-width:1;stroke:rgb(0,0,0);fill:none"/><line x1="766.7199999999993" y1="673.1600000000001" x2="761.1599999999994" y2="682.7800000000001" style="stroke-width:1;stroke:rgb(0,0,0);fill:none"/><line x1="761.1599999999994" y1="682.7800000000001" x2="766.7199999999993" y2="692.4000000000001" style="stroke-width:1;stroke:rgb(0,0,0);fill:none"/><line x1="766.7199999999993" y1="692.4000000000001" x2="755.6099999999993" y2="692.4000000000001" style="stroke-width:1;stroke:rgb(0,0,0);fill:none"/><line x1="755.6099999999993" y1="692.4000000000001" x2="750.0499999999994" y2="702.0200000000001" style="stroke-width:1;stroke:rgb(0,0,0);fill:none"/><line x1="750.0499999999994" y1="702.0200000000001" x2="744.4899999999994" y2="692.4000000000001" style="stroke-width:1;stroke:rgb(0,0,0);fill:none"/><line x1="744.4899999999994" y1="692.4000000000001" x2="733.3799999999994" y2="692.4000000000001" style="stroke-width:1;stroke:rgb(0,0,0);fill:none"/><line x1="733.3799999999994" y1="692.4000000000001" x2="738.9399999999994" y2="682.7800000000001" style="stroke-width:1;stroke:rgb(0,0,0);fill:none"/><line x1="738.9399999999994" y1="682.7800000000001" x2="733.3799999999994" y2="673.1600000000001" style="stroke-width:1;stroke:rgb(0,0,0);fill:none"/><line x1="733.3799999999994" y1="673.1600000000001" x2="722.2699999999994" y2="673.1600000000001" style="stroke-width:1;stroke:rgb(0,0,0);fill:none"/><line x1="722.2699999999994" y1="673.1600000000001" x2="716.7099999999995" y2="682.7800000000001" style="stroke-width:1;stroke:rgb(0,0,0);fill:none"/><line x1="716.7099999999995" y1="682.7800000000001" x2="711.1499999999995" y2="673.1600000000001" style="stroke-width:1;stroke:rgb(0,0,0);fill:none"/><line x1="711.1499999999995" y1="673.1600000000001" x2="700.0399999999995" y2="673.1600000000001" style="stroke-width:1;stroke:rgb(0,0,0);fill:none"/><line x1="700.0399999999995" y1="673.1600000000001" x2="694.4799999999996" y2="682.7800000000001" style="stroke-width:1;stroke:rgb(0,0,0);fill:none"/><line x1="694.4799999999996" y1="682.7800000000001" x2="700.0399999999995" y2="692.4000000000001" style="stroke-width:1;stroke:rgb(0,0,0);fill:none"/><line x1="700.0399999999995" y1="692.4000000000001" x2="688.9299999999995" y2="692.4000000000001" style="stroke-width:1;stroke:rgb(0,0,0);fill:none"/><line x1="688.9299999999995" y1="692.4000000000001" x2="683.3699999999995" y2="702.0200000000001" style="stroke-width:1;stroke:rgb(0,0,0);fill:none"/><line x1="683.3699999999995" y1="702.0200000000001" x2="688.9299999999995" y2="711.6400000000001" style="stroke-width:1;stroke:rgb(0,0,0);fill:none"/><line x1="688.9299999999995" y1="711.6400000000001" x2="700.0399999999995" y2="711.6400000000001" style="stroke-width:1;stroke:rgb(0,0,0);fill:none"/><line x1="700.0399999999995" y1="711.6400000000001" x2="694.4799999999996" y2="721.2600000000001" style="stroke-width:1;stroke:rgb(0,0,0);fill:none"/><line x1="694.4799999999996" y1="721.2600000000001" x2="700.0399999999995" y2="730.8800000000001" style="stroke-width:1;stroke:rgb(0,0,0);fill:none"/><line x1="700.0399999999995" y1="730.8800000000001" x2="688.9299999999995" y2="730.8800000000001" style="stroke-width:1;stroke:rgb(0,0,0);fill:none"/><line x1="688.9299999999995" y1="730.8800000000001" x2="683.3699999999995" y2="740.5000000000001" style="stroke-width:1;stroke:rgb(0,0,0);fill:none"/><line x1="683.3699999999995" y1="740.5000000000001" x2="677.8099999999996" y2="730.8800000000001" style="stroke-width:1;stroke:rgb(0,0,0);fill:none"/><line x1="677.8099999999996" y1="730.8800000000001" x2="666.6999999999996" y2="730.8800000000001" style="stroke-width:1;stroke:rgb(0,0,0);fill:none"/><line x1="666.6999999999996" y1="730.8800000000001" x2="661.1399999999996" y2="740.5000000000001" style="stroke-width:1;stroke:rgb(0,0,0);fill:none"/><line x1="661.1399999999996" y1="740.5000000000001" x2="666.6999999999996" y2="750.1200000000001" style="stroke-width:1;stroke:rgb(0,0,0);fill:none"/><line x1="666.6999999999996" y1="750.1200000000001" x2="655.5899999999996" y2="750.1200000000001" style="stroke-width:1;stroke:rgb(0,0,0);fill:none"/><line x1="655.5899999999996" y1="750.1200000000001" x2="650.0299999999996" y2="759.7400000000001" style="stroke-width:1;stroke:rgb(0,0,0);fill:none"/><line x1="650.0299999999996" y1="759.7400000000001" x2="644.4699999999997" y2="750.1200000000001" style="stroke-width:1;stroke:rgb(0,0,0);fill:none"/><line x1="644.4699999999997" y1="750.1200000000001" x2="633.3599999999997" y2="750.1200000000001" style="stroke-width:1;stroke:rgb(0,0,0);fill:none"/><line x1="633.3599999999997" y1="750.1200000000001" x2="638.9199999999996" y2="740.5000000000001" style="stroke-width:1;stroke:rgb(0,0,0);fill:none"/><line x1="638.9199999999996" y1="740.5000000000001" x2="633.3599999999997" y2="730.8800000000001" style="stroke-width:1;stroke:rgb(0,0,0);fill:none"/><line x1="633.3599999999997" y1="730.8800000000001" x2="622.2499999999997" y2="730.8800000000001" style="stroke-width:1;stroke:rgb(0,0,0);fill:none"/><line x1="622.2499999999997" y1="730.8800000000001" x2="616.6899999999997" y2="740.5000000000001" style="stroke-width:1;stroke:rgb(0,0,0);fill:none"/><line x1="616.6899999999997" y1="740.5000000000001" x2="611.1299999999998" y2="730.8800000000001" style="stroke-width:1;stroke:rgb(0,0,0);fill:none"/><line x1="611.1299999999998" y1="730.8800000000001" x2="600.0199999999998" y2="730.8800000000001" style="stroke-width:1;stroke:rgb(0,0,0);fill:none"/><line x1="600.0199999999998" y1="730.8800000000001" x2="605.5799999999997" y2="721.2600000000001" style="stroke-width:1;stroke:rgb(0,0,0);fill:none"/><line x1="605.5799999999997" y1="721.2600000000001" x2="600.0199999999998" y2="711.6400000000001" style="stroke-width:1;stroke:rgb(0,0,0);fill:none"/><line x1="600.0199999999998" y1="711.6400000000001" x2="611.1299999999998" y2="711.6400000000001" style="stroke-width:1;stroke:rgb(0,0,0);fill:none"/><line x1="611.1299999999998" y1="711.6400000000001" x2="616.6899999999997" y2="702.0200000000001" style="stroke-width:1;stroke:rgb(0,0,0);fill:none"/><line x1="616.6899999999997" y1="702.0200000000001" x2="611.1299999999998" y2="692.4000000000001" style="stroke-width:1;stroke:rgb(0,0,0);fill:none"/><line x1="611.1299999999998" y1="692.4000000000001" x2="600.0199999999998" y2="692.4000000000001" style="stroke-width:1;stroke:rgb(0,0,0);fill:none"/><line x1="600.0199999999998" y1="692.4000000000001" x2="605.5799999999997" y2="682.7800000000001" style="stroke-width:1;stroke:rgb(0,0,0);fill:none"/><line x1="605.5799999999997" y1="682.7800000000001" x2="600.0199999999998" y2="673.1600000000001" style="stroke-width:1;stroke:rgb(0,0,0);fill:none"/><line x1="600.0199999999998" y1="673.1600000000001" x2="588.9099999999997" y2="673.1600000000001" style="stroke-width:1;stroke:rgb(0,0,0);fill:none"/><line x1="588.9099999999997" y1="673.1600000000001" x2="583.3499999999998" y2="682.7800000000001" style="stroke-width:1;stroke:rgb(0,0,0);fill:none"/><line x1="583.3499999999998" y1="682.7800000000001" x2="577.7899999999998" y2="673.1600000000001" style="stroke-width:1;stroke:rgb(0,0,0);fill:none"/><line x1="577.7899999999998" y1="673.1600000000001" x2="566.6799999999998" y2="673.1600000000001" style="stroke-width:1;stroke:rgb(0,0,0);fill:none"/><line x1="566.6799999999998" y1="673.1600000000001" x2="561.1199999999999" y2="682.7800000000001" style="stroke-width:1;stroke:rgb(0,0,0);fill:none"/><line x1="561.1199999999999" y1="682.7800000000001" x2="566.6799999999998" y2="692.4000000000001" style="stroke-width:1;stroke:rgb(0,0,0);fill:none"/><line x1="566.6799999999998" y1="692.4000000000001" x2="555.5699999999998" y2="692.4000000000001" style="stroke-width:1;stroke:rgb(0,0,0);fill:none"/><line x1="555.5699999999998" y1="692.4000000000001" x2="550.0099999999999" y2="702.0200000000001" style="stroke-width:1;stroke:rgb(0,0,0);fill:none"/><line x1="550.0099999999999" y1="702.0200000000001" x2="544.4499999999999" y2="692.4000000000001" style="stroke-width:1;stroke:rgb(0,0,0);fill:none"/><line x1="544.4499999999999" y1="692.4000000000001" x2="533.3399999999999" y2="692.4000000000001" style="stroke-width:1;stroke:rgb(0,0,0);fill:none"/><line x1="533.3399999999999" y1="692.4000000000001" x2="538.8999999999999" y2="682.7800000000001" style="stroke-width:1;stroke:rgb(0,0,0);fill:none"/><line x1="538.8999999999999" y1="682.7800000000001" x2="533.3399999999999" y2="673.1600000000001" style="stroke-width:1;stroke:rgb(0,0,0);fill:none"/><line x1="533.3399999999999" y1="673.1600000000001" x2="522.2299999999999" y2="673.1600000000001" style="stroke-width:1;stroke:rgb(0,0,0);fill:none"/><line x1="522.2299999999999" y1="673.1600000000001" x2="516.67" y2="682.7800000000001" style="stroke-width:1;stroke:rgb(0,0,0);fill:none"/><line x1="516.67" y1="682.7800000000001" x2="511.10999999999996" y2="673.1600000000001" style="stroke-width:1;stroke:rgb(0,0,0);fill:none"/><line x1="511.10999999999996" y1="673.1600000000001" x2="499.99999999999994" y2="673.1600000000001" style="stroke-width:1;stroke:rgb(0,0,0);fill:none"/><line x1="499.99999999999994" y1="673.1600000000001" x2="505.55999999999995" y2="663.5400000000001" style="stroke-width:1;stroke:rgb(0,0,0);fill:none"/><line x1="505.55999999999995" y1="663.5400000000001" x2="499.99999999999994" y2="653.9200000000001" style="stroke-width:1;stroke:rgb(0,0,0);fill:none"/><line x1="499.99999999999994" y1="653.9200000000001" x2="511.10999999999996" y2="653.9200000000001" style="stroke-width:1;stroke:rgb(0,0,0);fill:none"/><line x1="511.10999999999996" y1="653.9200000000001" x2="516.67" y2="644.3000000000001" style="stroke-width:1;stroke:rgb(0,0,0);fill:none"/><line x1="516.67" y1="644.3000000000001" x2="511.10999999999996" y2="634.6800000000001" style="stroke-width:1;stroke:rgb(0,0,0);fill:none"/><line x1="511.10999999999996" y1="634.6800000000001" x2="499.99999999999994" y2="634.6800000000001" style="stroke-width:1;stroke:rgb(0,0,0);fill:none"/><line x1="499.99999999999994" y1="634.6800000000001" x2="505.55999999999995" y2="625.0600000000001" style="stroke-width:1;stroke:rgb(0,0,0);fill:none"/><line x1="505.55999999999995" y1="625.0600000000001" x2="499.99999999999994" y2="615.44" style="stroke-width:1;stroke:rgb(0,0,0);fill:none"/><line x1="499.99999999999994" y1="615.44" x2="511.10999999999996" y2="615.44" style="stroke-width:1;stroke:rgb(0,0,0);fill:none"/><line x1="511.10999999999996" y1="615.44" x2="516.67" y2="605.82" style="stroke-width:1;stroke:rgb(0,0,0);fill:none"/><line x1="516.67" y1="605.82" x2="522.2299999999999" y2="615.44" style="stroke-width:1;stroke:rgb(0,0,0);fill:none"/><line x1="522.2299999999999" y1="615.44" x2="533.3399999999999" y2="615.44" style="stroke-width:1;stroke:rgb(0,0,0);fill:none"/><line x1="533.3399999999999" y1="615.44" x2="538.8999999999999" y2="605.82" style="stroke-width:1;stroke:rgb(0,0,0);fill:none"/><line x1="538.8999999999999" y1="605.82" x2="533.3399999999999" y2="596.2" style="stroke-width:1;stroke:rgb(0,0,0);fill:none"/><line x1="533.3399999999999" y1="596.2" x2="544.4499999999999" y2="596.2" style="stroke-width:1;stroke:rgb(0,0,0);fill:none"/><line x1="544.4499999999999" y1="596.2" x2="550.0099999999999" y2="586.58" style="stroke-width:1;stroke:rgb(0,0,0);fill:none"/><line x1="550.0099999999999" y1="586.58" x2="544.4499999999999" y2="576.96" style="stroke-width:1;stroke:rgb(0,0,0);fill:none"/><line x1="544.4499999999999" y1="576.96" x2="533.3399999999999" y2="576.96" style="stroke-width:1;stroke:rgb(0,0,0);fill:none"/><line x1="533.3399999999999" y1="576.96" x2="538.8999999999999" y2="567.34" style="stroke-width:1;stroke:rgb(0,0,0);fill:none"/><line x1="538.8999999999999" y1="567.34" x2="533.3399999999999" y2="557.72" style="stroke-width:1;stroke:rgb(0,0,0);fill:none"/><line x1="533.3399999999999" y1="557.72" x2="522.2299999999999" y2="557.72" style="stroke-width:1;stroke:rgb(0,0,0);fill:none"/><line x1="522.2299999999999" y1="557.72" x2="516.67" y2="567.34" style="stroke-width:1;stroke:rgb(0,0,0);fill:none"/><line x1="516.67" y1="567.34" x2="511.10999999999996" y2="557.72" style="stroke-width:1;stroke:rgb(0,0,0);fill:none"/><line x1="511.10999999999996" y1="557.72" x2="499.99999999999994" y2="557.72" style="stroke-width:1;stroke:rgb(0,0,0);fill:none"/><line x1="499.99999999999994" y1="557.72" x2="505.55999999999995" y2="548.1" style="stroke-width:1;stroke:rgb(0,0,0);fill:none"/><line x1="505.55999999999995" y1="548.1" x2="499.99999999999994" y2="538.48" style="stroke-width:1;stroke:rgb(0,0,0);fill:none"/><line x1="499.99999999999994" y1="538.48" x2="511.10999999999996" y2="538.48" style="stroke-width:1;stroke:rgb(0,0,0);fill:none"/><line x1="511.10999999999996" y1="538.48" x2="516.67" y2="528.86" style="stroke-width:1;stroke:rgb(0,0,0);fill:none"/><line x1="516.67" y1="528.86" x2="511.10999999999996" y2="519.24" style="stroke-width:1;stroke:rgb(0,0,0);fill:none"/><line x1="511.10999999999996" y1="519.24" x2="499.99999999999994" y2="519.24" style="stroke-width:1;stroke:rgb(0,0,0);fill:none"/><line x1="499.99999999999994" y1="519.24" x2="505.55999999999995" y2="509.62" style="stroke-width:1;stroke:rgb(0,0,0);fill:none"/><line x1="505.55999999999995" y1="509.62" x2="499.99999999999994" y2="500.0" style="stroke-width:1;stroke:rgb(0,0,0);fill:none"/></svg>