<?xml version="1.0"?><!DOCTYPE svg PUBLIC "-//W3C//DTD util.SVG 1.0//EN" "http://www.w3.org/TR/2001/REC-util.SVG-20010904/DTD/svg10.dtd"><svg xmlns="http://www.w3.org/2000/svg" height="400" width="400" text-rendering="auto" shape-rendering="auto"><line x1="50.0" y1="100.0" x2="61.11" y2="100.0" style="stroke-width:1;stroke:rgb(0,0,0);fill:none"/><line x1="61.11" y1="100.0" x2="66.67" y2="90.38" style="stroke-width:1;stroke:rgb(0,0,0);fill:none"/><line x1="66.67" y1="90.38" x2="72.23" y2="100.0" style="stroke-width:1;stroke:rgb(0,0,0);fill:none"/><line x1="72.23" y1="100.0" x2="83.34" y2="100.0" style="stroke-width:1;stroke:rgb(0,0,0);fill:none"/><line x1="83.34" y1="100.0" x2="88.9" y2="90.38" style="stroke-width:1;stroke:rgb(0,0,0);fill:none"/><line x1="88.9" y1="90.38" x2="83.34" y2="80.75999999999999" style="stroke-width:1;stroke:rgb(0,0,0);fill:none"/><line x1="83.34" y1="80.75999999999999" x2="94.45" y2="80.75999999999999" style="stroke-width:1;stroke:rgb(0,0,0);fill:none"/><line x1="94.45" y1="80.75999999999999" x2="100.01" y2="71.13999999999999" style="stroke-width:1;stroke:rgb(0,0,0);fill:none"/><line x1="100.01" y1="71.13999999999999" x2="105.57000000000001" y2="80.75999999999999" style="stroke-width:1;stroke:rgb(0,0,0);fill:none"/><line x1="105.57000000000001" y1="80.75999999999999" x2="116.68" y2="80.75999999999999" style="stroke-width:1;stroke:rgb(0,0,0);fill:none"/><line x1="116.68" y1="80.75999999999999" x2="111.12" y2="90.38" style="stroke-width:1;stroke:rgb(0,0,0);fill:none"/><line x1="111.12" y1="90.38" x2="116.68" y2="100.0" style="stroke-width:1;stroke:rgb(0,0,0);fill:none"/><line x1="116.68" y1="100.0" x2="127.79" y2="100.0" style="stroke-width:1;stroke:rgb(0,0,0);fill:none"/><line x1="127.79" y1="100.0" x2="133.35" y2="90.38" style="stroke-width:1;stroke:rgb(0,0,0);fill:none"/><line x1="133.35" y1="90.38" x2="138.91" y2="100.0" style="stroke-width:1;stroke:rgb(0,0,0);fill:none"/><line x1="138.91" y1="100.0" x2="150.01999999999998" y2="100.0" style="stroke-width:1;stroke:rgb(0,0,0);fill:none"/><line x1="150.01999999999998" y1="100.0" x2="144.45999999999998" y2="109.62" style="stroke-width:1;stroke:rgb(0,0,0);fill:none"/><line x1="144.45999999999998" y1="109.62" x2="150.01999999999998" y2="119.24000000000001" style="stroke-width:1;stroke:rgb(0,0,0);fill:none"/><line x1="150.01999999999998" y1="119.24000000000001" x2="138.90999999999997" y2="119.24000000000001" style="stroke-width:1;stroke:rgb(0,0,0);fill:none"/><line x1="138.90999999999997" y1="119.24000000000001" x2="133.34999999999997" y2="128.86" style="stroke-width:1;stroke:rgb(0,0,0);fill:none"/><line x1="133.34999999999997" y1="128.86" x2="138.90999999999997" y2="138.48000000000002" style="stroke-width:1;stroke:rgb(0,0,0);fill:none"/><line x1="138.90999999999997" y1="138.48000000000002" x2="150.01999999999998" y2="138.48000000000002" style="stroke-width:1;stroke:rgb(0,0,0);fill:none"/><line x1="150.01999999999998" y1="138.48000000000002" x2="144.45999999999998" y2="148.10000000000002" style="stroke-width:1;stroke:rgb(0,0,0);fill:none"/><line x1="144.45999999999998" y1="148.10000000000002" x2="150.01999999999998" y2="157.72000000000003" style="stroke-width:1;stroke:rgb(0,0,0);fill:none"/><line x1="150.01999999999998" y1="157.72000000000003" x2="138.90999999999997" y2="157.72000000000003" style="stroke-width:1;stroke:rgb(0,0,0);fill:none"/><line x1="138.90999999999997" y1="157.72000000000003" x2="133.34999999999997" y2="167.34000000000003" style="stroke-width:1;stroke:rgb(0,0,0);fill:none"/><line x1="133.34999999999997" y1="167.34000000000003" x2="127.78999999999996" y2="157.72000000000003" style="stroke-width:1;stroke:rgb(0,0,0);fill:none"/><line x1="127.78999999999996" y1="157.72000000000003" x2="116.67999999999996" y2="157.72000000000003" style="stroke-width:1;stroke:rgb(0,0,0);fill:none"/><line x1="116.67999999999996" y1="157.72000000000003" x2="111.11999999999996" y2="167.34000000000003" style="stroke-width:1;stroke:rgb(0,0,0);fill:none"/><line x1="111.11999999999996" y1="167.34000000000003" x2="116.67999999999996" y2="176.96000000000004" style="stroke-width:1;stroke:rgb(0,0,0);fill:none"/><line x1="116.67999999999996" y1="176.96000000000004" x2="105.56999999999996" y2="176.96000000000004" style="stroke-width:1;stroke:rgb(0,0,0);fill:none"/><line x1="105.56999999999996" y1="176.96000000000004" x2="100.00999999999996" y2="186.58000000000004" style="stroke-width:1;stroke:rgb(0,0,0);fill:none"/><line x1="100.00999999999996" y1="186.58000000000004" x2="94.44999999999996" y2="176.96000000000004" style="stroke-width:1;stroke:rgb(0,0,0);fill:none"/><line x1="94.44999999999996" y1="176.96000000000004" x2="83.33999999999996" y2="176.96000000000004" style="stroke-width:1;stroke:rgb(0,0,0);fill:none"/><line x1="83.33999999999996" y1="176.96000000000004" x2="88.89999999999996" y2="167.34000000000003" style="stroke-width:1;stroke:rgb(0,0,0);fill:none"/><line x1="88.89999999999996" y1="167.34000000000003" x2="83.33999999999996" y2="157.72000000000003" style="stroke-width:1;stroke:rgb(0,0,0);fill:none"/><line x1="83.33999999999996" y1="157.72000000000003" x2="72.22999999999996" y2="157.72000000000003" style="stroke-width:1;stroke:rgb(0,0,0);fill:none"/><line x1="72.22999999999996" y1="157.72000000000003" x2="66.66999999999996" y2="167.34000000000003" style="stroke-width:1;stroke:rgb(0,0,0);fill:none"/><line x1="66.66999999999996" y1="167.34000000000003" x2="61.10999999999996" y2="157.72000000000003" style="stroke-width:1;stroke:rgb(0,0,0);fill:none"/><line x1="61.10999999999996" y1="157.72000000000003" x2="49.99999999999996" y2="157.72000000000003" style="stroke-width:1;stroke:rgb(0,0,0);fill:none"/><line x1="49.99999999999996" y1="157.72000000000003" x2="55.55999999999996" y2="148.10000000000002" style="stroke-width:1;stroke:rgb(0,0,0);fill:none"/><line x1="55.55999999999996" y1="148.10000000000002" x2="49.99999999999996" y2="138.48000000000002" style="stroke-width:1;stroke:rgb(0,0,0);fill:none"/><line x1="49.99999999999996" y1="138.48000000000002" x2="61.10999999999996" y2="138.48000000000002" style="stroke-width:1;stroke:rgb(0,0,0);fill:none"/><line x1="61.10999999999996" y1="138.48000000000002" x2="66.66999999999996" y2="128.86" style="stroke-width:1;stroke:rgb(0,0,0);fill:none"/><line x1="66.66999999999996" y1="128.86" x2="61.10999999999996" y2="119.24000000000001" style="stroke-width:1;stroke:rgb(0,0,0);fill:none"/><line x1="61.10999999999996" y1="119.24000000000001" x2="49.99999999999996" y2="119.24000000000001" style="stroke-width:1;stroke:rgb(0,0,0);fill:none"/><line x1="49.99999999999996" y1="119.24000000000001" x2="55.55999999999996" y2="109.62" style="stroke-width:1;stroke:rgb(0,0,0);fill:none"/><line x1="55.55999999999996" y1="109.62" x2="49.99999999999996" y2="100.0" style="stroke-width:1;stroke:rgb(0,0,0);fill:none"/></svg>