<?xml version="1.0"?><!DOCTYPE svg PUBLIC "-//W3C//DTD util.SVG 1.0//EN" "http://www.w3.org/TR/2001/REC-util.SVG-20010904/DTD/svg10.dtd"><svg xmlns="http://www.w3.org/2000/svg" height="400" width="400" text-rendering="auto" shape-rendering="auto"><line x1="50.0" y1="100.0" x2="61.11" y2="100.0" style="stroke-width:1;stroke:rgb(0,0,0);fill:none"/><line x1="61.11" y1="100.0" x2="66.67" y2="90.38" style="stroke-width:1;stroke:rgb(0,0,0);fill:none"/><line x1="66.67" y1="90.38" x2="72.23" y2="100.0" style="stroke-width:1;stroke:rgb(0,0,0);fill:none"/><line x1="72.23" y1="100.0" x2="83.34" y2="100.0" style="stroke-width:1;stroke:rgb(0,0,0);fill:none"/><line x1="83.34" y1="100.0" x2="88.9" y2="90.38" style="stroke-width:1;stroke:rgb(0,0,0);fill:none"/><line x1="88.9" y1="90.38" x2="83.34" y2="80.75999999999999" style="stroke-width:1;stroke:rgb(0,0,0);fill:none"/><line x1="83.34" y1="80.75999999999999" x2="94.45" y2="80.75999999999999" style="stroke-width:1;stroke:rgb(0,0,0);fill:none"/><line x1="94.45" y1="80.75999999999999" x2="100.01" y2="71.13999999999999" style="stroke-width:1;stroke:rgb(0,0,0);fill:none"/><line x1="100.01" y1="71.13999999999999" x2="105.57000000000001" y2="80.75999999999999" style="stroke-width:1;stroke:rgb(0,0,0);fill:none"/><line x1="105.57000000000001" y1="80.75999999999999" x2="116.68" y2="80.75999999999999" style="stroke-width:1;stroke:rgb(0,0,0);fill:none"/><line x1="116.68" y1="80.75999999999999" x2="111.12" y2="90.38" style="stroke-width:1;stroke:rgb(0,0,0);fill:none"/><line x1="111.12" y1="90.38" x2="116.68" y2="100.0" style="stroke-width:1;stroke:rgb(0,0,0);fill:none"/><line x1="116.68" y1="100.0" x2="127.79" y2="100.0" style="stroke-width:1;stroke:rgb(0,0,0);fill:none"/><line x1="127.79" y1="100.0" x2="133.35" y2="90.38" style="stroke-width:1;stroke:rgb(0,0,0);fill:none"/><line x1="133.35" y1="90.38" x2="138.91" y2="100.0" style="stroke-width:1;stroke:rgb(0,0,0);fill:none"/><line x1="138.91" y1="100.0" x2="150.01999999999998" y2="100.0" style="stroke-width:1;stroke:rgb(0,0,0);fill:none"/><line x1="150.01999999999998" y1="100.0" x2="155.57999999999998" y2="90.38" style="stroke-width:1;stroke:rgb(0,0,0);fill:none"/><line x1="155.57999999999998" y1="90.38" x2="150.01999999999998" y2="80.75999999999999" style="stroke-width:1;stroke:rgb(0,0,0);fill:none"/><line x1="150.01999999999998" y1="80.75999999999999" x2="161.13" y2="80.75999999999999" style="stroke-width:1;stroke:rgb(0,0,0);fill:none"/><line x1="161.13" y1="80.75999999999999" x2="166.69" y2="71.13999999999999" style="stroke-width:1;stroke:rgb(0,0,0);fill:none"/><line x1="166.69" y1="71.13999999999999" x2="161.13" y2="61.51999999999999" style="stroke-width:1;stroke:rgb(0,0,0);fill:none"/><line x1="161.13" y1="61.51999999999999" x2="150.01999999999998" y2="61.51999999999999" style="stroke-width:1;stroke:rgb(0,0,0);fill:none"/><line x1="150.01999999999998" y1="61.51999999999999" x2="155.57999999999998" y2="51.89999999999999" style="stroke-width:1;stroke:rgb(0,0,0);fill:none"/><line x1="155.57999999999998" y1="51.89999999999999" x2="150.01999999999998" y2="42.279999999999994" style="stroke-width:1;stroke:rgb(0,0,0);fill:none"/><line x1="150.01999999999998" y1="42.279999999999994" x2="161.13" y2="42.279999999999994" style="stroke-width:1;stroke:rgb(0,0,0);fill:none"/><line x1="161.13" y1="42.279999999999994" x2="166.69" y2="32.66" style="stroke-width:1;stroke:rgb(0,0,0);fill:none"/><line x1="166.69" y1="32.66" x2="172.25" y2="42.279999999999994" style="stroke-width:1;stroke:rgb(0,0,0);fill:none"/><line x1="172.25" y1="42.279999999999994" x2="183.36" y2="42.279999999999994" style="stroke-width:1;stroke:rgb(0,0,0);fill:none"/><line x1="183.36" y1="42.279999999999994" x2="188.92000000000002" y2="32.66" style="stroke-width:1;stroke:rgb(0,0,0);fill:none"/><line x1="188.92000000000002" y1="32.66" x2="183.36" y2="23.04" style="stroke-width:1;stroke:rgb(0,0,0);fill:none"/><line x1="183.36" y1="23.04" x2="194.47000000000003" y2="23.04" style="stroke-width:1;stroke:rgb(0,0,0);fill:none"/><line x1="194.47000000000003" y1="23.04" x2="200.03000000000003" y2="13.42" style="stroke-width:1;stroke:rgb(0,0,0);fill:none"/><line x1="200.03000000000003" y1="13.42" x2="205.59000000000003" y2="23.04" style="stroke-width:1;stroke:rgb(0,0,0);fill:none"/><line x1="205.59000000000003" y1="23.04" x2="216.70000000000005" y2="23.04" style="stroke-width:1;stroke:rgb(0,0,0);fill:none"/><line x1="216.70000000000005" y1="23.04" x2="211.14000000000004" y2="32.66" style="stroke-width:1;stroke:rgb(0,0,0);fill:none"/><line x1="211.14000000000004" y1="32.66" x2="216.70000000000005" y2="42.279999999999994" style="stroke-width:1;stroke:rgb(0,0,0);fill:none"/><line x1="216.70000000000005" y1="42.279999999999994" x2="227.81000000000006" y2="42.279999999999994" style="stroke-width:1;stroke:rgb(0,0,0);fill:none"/><line x1="227.81000000000006" y1="42.279999999999994" x2="233.37000000000006" y2="32.66" style="stroke-width:1;stroke:rgb(0,0,0);fill:none"/><line x1="233.37000000000006" y1="32.66" x2="238.93000000000006" y2="42.279999999999994" style="stroke-width:1;stroke:rgb(0,0,0);fill:none"/><line x1="238.93000000000006" y1="42.279999999999994" x2="250.04000000000008" y2="42.279999999999994" style="stroke-width:1;stroke:rgb(0,0,0);fill:none"/><line x1="250.04000000000008" y1="42.279999999999994" x2="244.48000000000008" y2="51.89999999999999" style="stroke-width:1;stroke:rgb(0,0,0);fill:none"/><line x1="244.48000000000008" y1="51.89999999999999" x2="250.04000000000008" y2="61.51999999999999" style="stroke-width:1;stroke:rgb(0,0,0);fill:none"/><line x1="250.04000000000008" y1="61.51999999999999" x2="238.93000000000006" y2="61.51999999999999" style="stroke-width:1;stroke:rgb(0,0,0);fill:none"/><line x1="238.93000000000006" y1="61.51999999999999" x2="233.37000000000006" y2="71.13999999999999" style="stroke-width:1;stroke:rgb(0,0,0);fill:none"/><line x1="233.37000000000006" y1="71.13999999999999" x2="238.93000000000006" y2="80.75999999999999" style="stroke-width:1;stroke:rgb(0,0,0);fill:none"/><line x1="238.93000000000006" y1="80.75999999999999" x2="250.04000000000008" y2="80.75999999999999" style="stroke-width:1;stroke:rgb(0,0,0);fill:none"/><line x1="250.04000000000008" y1="80.75999999999999" x2="244.48000000000008" y2="90.38" style="stroke-width:1;stroke:rgb(0,0,0);fill:none"/><line x1="244.48000000000008" y1="90.38" x2="250.04000000000008" y2="100.0" style="stroke-width:1;stroke:rgb(0,0,0);fill:none"/><line x1="250.04000000000008" y1="100.0" x2="261.1500000000001" y2="100.0" style="stroke-width:1;stroke:rgb(0,0,0);fill:none"/><line x1="261.1500000000001" y1="100.0" x2="266.7100000000001" y2="90.38" style="stroke-width:1;stroke:rgb(0,0,0);fill:none"/><line x1="266.7100000000001" y1="90.38" x2="272.2700000000001" y2="100.0" style="stroke-width:1;stroke:rgb(0,0,0);fill:none"/><line x1="272.2700000000001" y1="100.0" x2="283.3800000000001" y2="100.0" style="stroke-width:1;stroke:rgb(0,0,0);fill:none"/><line x1="283.3800000000001" y1="100.0" x2="288.9400000000001" y2="90.38" style="stroke-width:1;stroke:rgb(0,0,0);fill:none"/><line x1="288.9400000000001" y1="90.38" x2="283.3800000000001" y2="80.75999999999999" style="stroke-width:1;stroke:rgb(0,0,0);fill:none"/><line x1="283.3800000000001" y1="80.75999999999999" x2="294.4900000000001" y2="80.75999999999999" style="stroke-width:1;stroke:rgb(0,0,0);fill:none"/><line x1="294.4900000000001" y1="80.75999999999999" x2="300.0500000000001" y2="71.13999999999999" style="stroke-width:1;stroke:rgb(0,0,0);fill:none"/><line x1="300.0500000000001" y1="71.13999999999999" x2="305.6100000000001" y2="80.75999999999999" style="stroke-width:1;stroke:rgb(0,0,0);fill:none"/><line x1="305.6100000000001" y1="80.75999999999999" x2="316.72000000000014" y2="80.75999999999999" style="stroke-width:1;stroke:rgb(0,0,0);fill:none"/><line x1="316.72000000000014" y1="80.75999999999999" x2="311.16000000000014" y2="90.38" style="stroke-width:1;stroke:rgb(0,0,0);fill:none"/><line x1="311.16000000000014" y1="90.38" x2="316.72000000000014" y2="100.0" style="stroke-width:1;stroke:rgb(0,0,0);fill:none"/><line x1="316.72000000000014" y1="100.0" x2="327.83000000000015" y2="100.0" style="stroke-width:1;stroke:rgb(0,0,0);fill:none"/><line x1="327.83000000000015" y1="100.0" x2="333.39000000000016" y2="90.38" style="stroke-width:1;stroke:rgb(0,0,0);fill:none"/><line x1="333.39000000000016" y1="90.38" x2="338.95000000000016" y2="100.0" style="stroke-width:1;stroke:rgb(0,0,0);fill:none"/><line x1="338.95000000000016" y1="100.0" x2="350.0600000000002" y2="100.0" style="stroke-width:1;stroke:rgb(0,0,0);fill:none"/><line x1="350.0600000000002" y1="100.0" x2="344.50000000000017" y2="109.62" style="stroke-width:1;stroke:rgb(0,0,0);fill:none"/><line x1="344.50000000000017" y1="109.62" x2="350.0600000000002" y2="119.24000000000001" style="stroke-width:1;stroke:rgb(0,0,0);fill:none"/><line x1="350.0600000000002" y1="119.24000000000001" x2="338.95000000000016" y2="119.24000000000001" style="stroke-width:1;stroke:rgb(0,0,0);fill:none"/><line x1="338.95000000000016" y1="119.24000000000001" x2="333.39000000000016" y2="128.86" style="stroke-width:1;stroke:rgb(0,0,0);fill:none"/><line x1="333.39000000000016" y1="128.86" x2="338.95000000000016" y2="138.48000000000002" style="stroke-width:1;stroke:rgb(0,0,0);fill:none"/><line x1="338.95000000000016" y1="138.48000000000002" x2="350.0600000000002" y2="138.48000000000002" style="stroke-width:1;stroke:rgb(0,0,0);fill:none"/><line x1="350.0600000000002" y1="138.48000000000002" x2="344.50000000000017" y2="148.10000000000002" style="stroke-width:1;stroke:rgb(0,0,0);fill:none"/><line x1="344.50000000000017" y1="148.10000000000002" x2="350.0600000000002" y2="157.72000000000003" style="stroke-width:1;stroke:rgb(0,0,0);fill:none"/><line x1="350.0600000000002" y1="157.72000000000003" x2="338.95000000000016" y2="157.72000000000003" style="stroke-width:1;stroke:rgb(0,0,0);fill:none"/><line x1="338.95000000000016" y1="157.72000000000003" x2="333.39000000000016" y2="167.34000000000003" style="stroke-width:1;stroke:rgb(0,0,0);fill:none"/><line x1="333.39000000000016" y1="167.34000000000003" x2="327.83000000000015" y2="157.72000000000003" style="stroke-width:1;stroke:rgb(0,0,0);fill:none"/><line x1="327.83000000000015" y1="157.72000000000003" x2="316.72000000000014" y2="157.72000000000003" style="stroke-width:1;stroke:rgb(0,0,0);fill:none"/><line x1="316.72000000000014" y1="157.72000000000003" x2="311.16000000000014" y2="167.34000000000003" style="stroke-width:1;stroke:rgb(0,0,0);fill:none"/><line x1="311.16000000000014" y1="167.34000000000003" x2="316.72000000000014" y2="176.96000000000004" style="stroke-width:1;stroke:rgb(0,0,0);fill:none"/><line x1="316.72000000000014" y1="176.96000000000004" x2="305.6100000000001" y2="176.96000000000004" style="stroke-width:1;stroke:rgb(0,0,0);fill:none"/><line x1="305.6100000000001" y1="176.96000000000004" x2="300.0500000000001" y2="186.58000000000004" style="stroke-width:1;stroke:rgb(0,0,0);fill:none"/><line x1="300.0500000000001" y1="186.58000000000004" x2="305.6100000000001" y2="196.20000000000005" style="stroke-width:1;stroke:rgb(0,0,0);fill:none"/><line x1="305.6100000000001" y1="196.20000000000005" x2="316.72000000000014" y2="196.20000000000005" style="stroke-width:1;stroke:rgb(0,0,0);fill:none"/><line x1="316.72000000000014" y1="196.20000000000005" x2="311.16000000000014" y2="205.82000000000005" style="stroke-width:1;stroke:rgb(0,0,0);fill:none"/><line x1="311.16000000000014" y1="205.82000000000005" x2="316.72000000000014" y2="215.44000000000005" style="stroke-width:1;stroke:rgb(0,0,0);fill:none"/><line x1="316.72000000000014" y1="215.44000000000005" x2="327.83000000000015" y2="215.44000000000005" style="stroke-width:1;stroke:rgb(0,0,0);fill:none"/><line x1="327.83000000000015" y1="215.44000000000005" x2="333.39000000000016" y2="205.82000000000005" style="stroke-width:1;stroke:rgb(0,0,0);fill:none"/><line x1="333.39000000000016" y1="205.82000000000005" x2="338.95000000000016" y2="215.44000000000005" style="stroke-width:1;stroke:rgb(0,0,0);fill:none"/><line x1="338.95000000000016" y1="215.44000000000005" x2="350.0600000000002" y2="215.44000000000005" style="stroke-width:1;stroke:rgb(0,0,0);fill:none"/><line x1="350.0600000000002" y1="215.44000000000005" x2="344.50000000000017" y2="225.06000000000006" style="stroke-width:1;stroke:rgb(0,0,0);fill:none"/><line x1="344.50000000000017" y1="225.06000000000006" x2="350.0600000000002" y2="234.68000000000006" style="stroke-width:1;stroke:rgb(0,0,0);fill:none"/><line x1="350.0600000000002" y1="234.68000000000006" x2="338.95000000000016" y2="234.68000000000006" style="stroke-width:1;stroke:rgb(0,0,0);fill:none"/><line x1="338.95000000000016" y1="234.68000000000006" x2="333.39000000000016" y2="244.30000000000007" style="stroke-width:1;stroke:rgb(0,0,0);fill:none"/><line x1="333.39000000000016" y1="244.30000000000007" x2="338.95000000000016" y2="253.92000000000007" style="stroke-width:1;stroke:rgb(0,0,0);fill:none"/><line x1="338.95000000000016" y1="253.92000000000007" x2="350.0600000000002" y2="253.92000000000007" style="stroke-width:1;stroke:rgb(0,0,0);fill:none"/><line x1="350.0600000000002" y1="253.92000000000007" x2="344.50000000000017" y2="263.5400000000001" style="stroke-width:1;stroke:rgb(0,0,0);fill:none"/><line x1="344.50000000000017" y1="263.5400000000001" x2="350.0600000000002" y2="273.1600000000001" style="stroke-width:1;stroke:rgb(0,0,0);fill:none"/><line x1="350.0600000000002" y1="273.1600000000001" x2="338.95000000000016" y2="273.1600000000001" style="stroke-width:1;stroke:rgb(0,0,0);fill:none"/><line x1="338.95000000000016" y1="273.1600000000001" x2="333.39000000000016" y2="282.7800000000001" style="stroke-width:1;stroke:rgb(0,0,0);fill:none"/><line x1="333.39000000000016" y1="282.7800000000001" x2="327.83000000000015" y2="273.1600000000001" style="stroke-width:1;stroke:rgb(0,0,0);fill:none"/><line x1="327.83000000000015" y1="273.1600000000001" x2="316.72000000000014" y2="273.1600000000001" style="stroke-width:1;stroke:rgb(0,0,0);fill:none"/><line x1="316.72000000000014" y1="273.1600000000001" x2="311.16000000000014" y2="282.7800000000001" style="stroke-width:1;stroke:rgb(0,0,0);fill:none"/><line x1="311.16000000000014" y1="282.7800000000001" x2="316.72000000000014" y2="292.4000000000001" style="stroke-width:1;stroke:rgb(0,0,0);fill:none"/><line x1="316.72000000000014" y1="292.4000000000001" x2="305.6100000000001" y2="292.4000000000001" style="stroke-width:1;stroke:rgb(0,0,0);fill:none"/><line x1="305.6100000000001" y1="292.4000000000001" x2="300.0500000000001" y2="302.0200000000001" style="stroke-width:1;stroke:rgb(0,0,0);fill:none"/><line x1="300.0500000000001" y1="302.0200000000001" x2="294.4900000000001" y2="292.4000000000001" style="stroke-width:1;stroke:rgb(0,0,0);fill:none"/><line x1="294.4900000000001" y1="292.4000000000001" x2="283.3800000000001" y2="292.4000000000001" style="stroke-width:1;stroke:rgb(0,0,0);fill:none"/><line x1="283.3800000000001" y1="292.4000000000001" x2="288.9400000000001" y2="282.7800000000001" style="stroke-width:1;stroke:rgb(0,0,0);fill:none"/><line x1="288.9400000000001" y1="282.7800000000001" x2="283.3800000000001" y2="273.1600000000001" style="stroke-width:1;stroke:rgb(0,0,0);fill:none"/><line x1="283.3800000000001" y1="273.1600000000001" x2="272.2700000000001" y2="273.1600000000001" style="stroke-width:1;stroke:rgb(0,0,0);fill:none"/><line x1="272.2700000000001" y1="273.1600000000001" x2="266.7100000000001" y2="282.7800000000001" style="stroke-width:1;stroke:rgb(0,0,0);fill:none"/><line x1="266.7100000000001" y1="282.7800000000001" x2="261.1500000000001" y2="273.1600000000001" style="stroke-width:1;stroke:rgb(0,0,0);fill:none"/><line x1="261.1500000000001" y1="273.1600000000001" x2="250.04000000000008" y2="273.1600000000001" style="stroke-width:1;stroke:rgb(0,0,0);fill:none"/><line x1="250.04000000000008" y1="273.1600000000001" x2="244.48000000000008" y2="282.7800000000001" style="stroke-width:1;stroke:rgb(0,0,0);fill:none"/><line x1="244.48000000000008" y1="282.7800000000001" x2="250.04000000000008" y2="292.4000000000001" style="stroke-width:1;stroke:rgb(0,0,0);fill:none"/><line x1="250.04000000000008" y1="292.4000000000001" x2="238.93000000000006" y2="292.4000000000001" style="stroke-width:1;stroke:rgb(0,0,0);fill:none"/><line x1="238.93000000000006" y1="292.4000000000001" x2="233.37000000000006" y2="302.0200000000001" style="stroke-width:1;stroke:rgb(0,0,0);fill:none"/><line x1="233.37000000000006" y1="302.0200000000001" x2="238.93000000000006" y2="311.6400000000001" style="stroke-width:1;stroke:rgb(0,0,0);fill:none"/><line x1="238.93000000000006" y1="311.6400000000001" x2="250.04000000000008" y2="311.6400000000001" style="stroke-width:1;stroke:rgb(0,0,0);fill:none"/><line x1="250.04000000000008" y1="311.6400000000001" x2="244.48000000000008" y2="321.2600000000001" style="stroke-width:1;stroke:rgb(0,0,0);fill:none"/><line x1="244.48000000000008" y1="321.2600000000001" x2="250.04000000000008" y2="330.8800000000001" style="stroke-width:1;stroke:rgb(0,0,0);fill:none"/><line x1="250.04000000000008" y1="330.8800000000001" x2="238.93000000000006" y2="330.8800000000001" style="stroke-width:1;stroke:rgb(0,0,0);fill:none"/><line x1="238.93000000000006" y1="330.8800000000001" x2="233.37000000000006" y2="340.5000000000001" style="stroke-width:1;stroke:rgb(0,0,0);fill:none"/><line x1="233.37000000000006" y1="340.5000000000001" x2="227.81000000000006" y2="330.8800000000001" style="stroke-width:1;stroke:rgb(0,0,0);fill:none"/><line x1="227.81000000000006" y1="330.8800000000001" x2="216.70000000000005" y2="330.8800000000001" style="stroke-width:1;stroke:rgb(0,0,0);fill:none"/><line x1="216.70000000000005" y1="330.8800000000001" x2="211.14000000000004" y2="340.5000000000001" style="stroke-width:1;stroke:rgb(0,0,0);fill:none"/><line x1="211.14000000000004" y1="340.5000000000001" x2="216.70000000000005" y2="350.1200000000001" style="stroke-width:1;stroke:rgb(0,0,0);fill:none"/><line x1="216.70000000000005" y1="350.1200000000001" x2="205.59000000000003" y2="350.1200000000001" style="stroke-width:1;stroke:rgb(0,0,0);fill:none"/><line x1="205.59000000000003" y1="350.1200000000001" x2="200.03000000000003" y2="359.7400000000001" style="stroke-width:1;stroke:rgb(0,0,0);fill:none"/><line x1="200.03000000000003" y1="359.7400000000001" x2="194.47000000000003" y2="350.1200000000001" style="stroke-width:1;stroke:rgb(0,0,0);fill:none"/><line x1="194.47000000000003" y1="350.1200000000001" x2="183.36" y2="350.1200000000001" style="stroke-width:1;stroke:rgb(0,0,0);fill:none"/><line x1="183.36" y1="350.1200000000001" x2="188.92000000000002" y2="340.5000000000001" style="stroke-width:1;stroke:rgb(0,0,0);fill:none"/><line x1="188.92000000000002" y1="340.5000000000001" x2="183.36" y2="330.8800000000001" style="stroke-width:1;stroke:rgb(0,0,0);fill:none"/><line x1="183.36" y1="330.8800000000001" x2="172.25" y2="330.8800000000001" style="stroke-width:1;stroke:rgb(0,0,0);fill:none"/><line x1="172.25" y1="330.8800000000001" x2="166.69" y2="340.5000000000001" style="stroke-width:1;stroke:rgb(0,0,0);fill:none"/><line x1="166.69" y1="340.5000000000001" x2="161.13" y2="330.8800000000001" style="stroke-width:1;stroke:rgb(0,0,0);fill:none"/><line x1="161.13" y1="330.8800000000001" x2="150.01999999999998" y2="330.8800000000001" style="stroke-width:1;stroke:rgb(0,0,0);fill:none"/><line x1="150.01999999999998" y1="330.8800000000001" x2="155.57999999999998" y2="321.2600000000001" style="stroke-width:1;stroke:rgb(0,0,0);fill:none"/><line x1="155.57999999999998" y1="321.2600000000001" x2="150.01999999999998" y2="311.6400000000001" style="stroke-width:1;stroke:rgb(0,0,0);fill:none"/><line x1="150.01999999999998" y1="311.6400000000001" x2="161.13" y2="311.6400000000001" style="stroke-width:1;stroke:rgb(0,0,0);fill:none"/><line x1="161.13" y1="311.6400000000001" x2="166.69" y2="302.0200000000001" style="stroke-width:1;stroke:rgb(0,0,0);fill:none"/><line x1="166.69" y1="302.0200000000001" x2="161.13" y2="292.4000000000001" style="stroke-width:1;stroke:rgb(0,0,0);fill:none"/><line x1="161.13" y1="292.4000000000001" x2="150.01999999999998" y2="292.4000000000001" style="stroke-width:1;stroke:rgb(0,0,0);fill:none"/><line x1="150.01999999999998" y1="292.4000000000001" x2="155.57999999999998" y2="282.7800000000001" style="stroke-width:1;stroke:rgb(0,0,0);fill:none"/><line x1="155.57999999999998" y1="282.7800000000001" x2="150.01999999999998" y2="273.1600000000001" style="stroke-width:1;stroke:rgb(0,0,0);fill:none"/><line x1="150.01999999999998" y1="273.1600000000001" x2="138.90999999999997" y2="273.1600000000001" style="stroke-width:1;stroke:rgb(0,0,0);fill:none"/><line x1="138.90999999999997" y1="273.1600000000001" x2="133.34999999999997" y2="282.7800000000001" style="stroke-width:1;stroke:rgb(0,0,0);fill:none"/><line x1="133.34999999999997" y1="282.7800000000001" x2="127.78999999999996" y2="273.1600000000001" style="stroke-width:1;stroke:rgb(0,0,0);fill:none"/><line x1="127.78999999999996" y1="273.1600000000001" x2="116.67999999999996" y2="273.1600000000001" style="stroke-width:1;stroke:rgb(0,0,0);fill:none"/><line x1="116.67999999999996" y1="273.1600000000001" x2="111.11999999999996" y2="282.7800000000001" style="stroke-width:1;stroke:rgb(0,0,0);fill:none"/><line x1="111.11999999999996" y1="282.7800000000001" x2="116.67999999999996" y2="292.4000000000001" style="stroke-width:1;stroke:rgb(0,0,0);fill:none"/><line x1="116.67999999999996" y1="292.4000000000001" x2="105.56999999999996" y2="292.4000000000001" style="stroke-width:1;stroke:rgb(0,0,0);fill:none"/><line x1="105.56999999999996" y1="292.4000000000001" x2="100.00999999999996" y2="302.0200000000001" style="stroke-width:1;stroke:rgb(0,0,0);fill:none"/><line x1="100.00999999999996" y1="302.0200000000001" x2="94.44999999999996" y2="292.4000000000001" style="stroke-width:1;stroke:rgb(0,0,0);fill:none"/><line x1="94.44999999999996" y1="292.4000000000001" x2="83.33999999999996" y2="292.4000000000001" style="stroke-width:1;stroke:rgb(0,0,0);fill:none"/><line x1="83.33999999999996" y1="292.4000000000001" x2="88.89999999999996" y2="282.7800000000001" style="stroke-width:1;stroke:rgb(0,0,0);fill:none"/><line x1="88.89999999999996" y1="282.7800000000001" x2="83.33999999999996" y2="273.1600000000001" style="stroke-width:1;stroke:rgb(0,0,0);fill:none"/><line x1="83.33999999999996" y1="273.1600000000001" x2="72.22999999999996" y2="273.1600000000001" style="stroke-width:1;stroke:rgb(0,0,0);fill:none"/><line x1="72.22999999999996" y1="273.1600000000001" x2="66.66999999999996" y2="282.7800000000001" style="stroke-width:1;stroke:rgb(0,0,0);fill:none"/><line x1="66.66999999999996" y1="282.7800000000001" x2="61.10999999999996" y2="273.1600000000001" style="stroke-width:1;stroke:rgb(0,0,0);fill:none"/><line x1="61.10999999999996" y1="273.1600000000001" x2="49.99999999999996" y2="273.1600000000001" style="stroke-width:1;stroke:rgb(0,0,0);fill:none"/><line x1="49.99999999999996" y1="273.1600000000001" x2="55.55999999999996" y2="263.5400000000001" style="stroke-width:1;stroke:rgb(0,0,0);fill:none"/><line x1="55.55999999999996" y1="263.5400000000001" x2="49.99999999999996" y2="253.92000000000007" style="stroke-width:1;stroke:rgb(0,0,0);fill:none"/><line x1="49.99999999999996" y1="253.92000000000007" x2="61.10999999999996" y2="253.92000000000007" style="stroke-width:1;stroke:rgb(0,0,0);fill:none"/><line x1="61.10999999999996" y1="253.92000000000007" x2="66.66999999999996" y2="244.30000000000007" style="stroke-width:1;stroke:rgb(0,0,0);fill:none"/><line x1="66.66999999999996" y1="244.30000000000007" x2="61.10999999999996" y2="234.68000000000006" style="stroke-width:1;stroke:rgb(0,0,0);fill:none"/><line x1="61.10999999999996" y1="234.68000000000006" x2="49.99999999999996" y2="234.68000000000006" style="stroke-width:1;stroke:rgb(0,0,0);fill:none"/><line x1="49.99999999999996" y1="234.68000000000006" x2="55.55999999999996" y2="225.06000000000006" style="stroke-width:1;stroke:rgb(0,0,0);fill:none"/><line x1="55.55999999999996" y1="225.06000000000006" x2="49.99999999999996" y2="215.44000000000005" style="stroke-width:1;stroke:rgb(0,0,0);fill:none"/><line x1="49.99999999999996" y1="215.44000000000005" x2="61.10999999999996" y2="215.44000000000005" style="stroke-width:1;stroke:rgb(0,0,0);fill:none"/><line x1="61.10999999999996" y1="215.44000000000005" x2="66.66999999999996" y2="205.82000000000005" style="stroke-width:1;stroke:rgb(0,0,0);fill:none"/><line x1="66.66999999999996" y1="205.82000000000005" x2="72.22999999999996" y2="215.44000000000005" style="stroke-width:1;stroke:rgb(0,0,0);fill:none"/><line x1="72.22999999999996" y1="215.44000000000005" x2="83.33999999999996" y2="215.44000000000005" style="stroke-width:1;stroke:rgb(0,0,0);fill:none"/><line x1="83.33999999999996" y1="215.44000000000005" x2="88.89999999999996" y2="205.82000000000005" style="stroke-width:1;stroke:rgb(0,0,0);fill:none"/><line x1="88.89999999999996" y1="205.82000000000005" x2="83.33999999999996" y2="196.20000000000005" style="stroke-width:1;stroke:rgb(0,0,0);fill:none"/><line x1="83.33999999999996" y1="196.20000000000005" x2="94.44999999999996" y2="196.20000000000005" style="stroke-width:1;stroke:rgb(0,0,0);fill:none"/><line x1="94.44999999999996" y1="196.20000000000005" x2="100.00999999999996" y2="186.58000000000004" style="stroke-width:1;stroke:rgb(0,0,0);fill:none"/><line x1="100.00999999999996" y1="186.58000000000004" x2="94.44999999999996" y2="176.96000000000004" style="stroke-width:1;stroke:rgb(0,0,0);fill:none"/><line x1="94.44999999999996" y1="176.96000000000004" x2="83.33999999999996" y2="176.96000000000004" style="stroke-width:1;stroke:rgb(0,0,0);fill:none"/><line x1="83.33999999999996" y1="176.96000000000004" x2="88.89999999999996" y2="167.34000000000003" style="stroke-width:1;stroke:rgb(0,0,0);fill:none"/><line x1="88.89999999999996" y1="167.34000000000003" x2="83.33999999999996" y2="157.72000000000003" style="stroke-width:1;stroke:rgb(0,0,0);fill:none"/><line x1="83.33999999999996" y1="157.72000000000003" x2="72.22999999999996" y2="157.72000000000003" style="stroke-width:1;stroke:rgb(0,0,0);fill:none"/><line x1="72.22999999999996" y1="157.72000000000003" x2="66.66999999999996" y2="167.34000000000003" style="stroke-width:1;stroke:rgb(0,0,0);fill:none"/><line x1="66.66999999999996" y1="167.34000000000003" x2="61.10999999999996" y2="157.72000000000003" style="stroke-width:1;stroke:rgb(0,0,0);fill:none"/><line x1="61.10999999999996" y1="157.72000000000003" x2="49.99999999999996" y2="157.72000000000003" style="stroke-width:1;stroke:rgb(0,0,0);fill:none"/><line x1="49.99999999999996" y1="157.72000000000003" x2="55.55999999999996" y2="148.10000000000002" style="stroke-width:1;stroke:rgb(0,0,0);fill:none"/><line x1="55.55999999999996" y1="148.10000000000002" x2="49.99999999999996" y2="138.48000000000002" style="stroke-width:1;stroke:rgb(0,0,0);fill:none"/><line x1="49.99999999999996" y1="138.48000000000002" x2="61.10999999999996" y2="138.48000000000002" style="stroke-width:1;stroke:rgb(0,0,0);fill:none"/><line x1="61.10999999999996" y1="138.48000000000002" x2="66.66999999999996" y2="128.86" style="stroke-width:1;stroke:rgb(0,0,0);fill:none"/><line x1="66.66999999999996" y1="128.86" x2="61.10999999999996" y2="119.24000000000001" style="stroke-width:1;stroke:rgb(0,0,0);fill:none"/><line x1="61.10999999999996" y1="119.24000000000001" x2="49.99999999999996" y2="119.24000000000001" style="stroke-width:1;stroke:rgb(0,0,0);fill:none"/><line x1="49.99999999999996" y1="119.24000000000001" x2="55.55999999999996" y2="109.62" style="stroke-width:1;stroke:rgb(0,0,0);fill:none"/><line x1="55.55999999999996" y1="109.62" x2="49.99999999999996" y2="100.0" style="stroke-width:1;stroke:rgb(0,0,0);fill:none"/></svg>