<?xml version="1.0"?><!DOCTYPE svg PUBLIC "-//W3C//DTD util.SVG 1.0//EN" "http://www.w3.org/TR/2001/REC-util.SVG-20010904/DTD/svg10.dtd"><svg xmlns="http://www.w3.org/2000/svg" height="550" width="550" text-rendering="auto" shape-rendering="auto"><line x1="430.4077298592319" y1="65.0" x2="119.59227014076811" y2="65.0" style="stroke-width:1;stroke:rgb(0,0,0);fill:none"/><line x1="65.0" y1="430.4077298592319" x2="65.0" y2="119.59227014076811" style="stroke-width:1;stroke:rgb(0,0,0);fill:none"/><line x1="492.3167331339214" y1="130.0" x2="57.68326686607864" y2="130.0" style="stroke-width:1;stroke:rgb(0,0,0);fill:none"/><line x1="130.0" y1="492.3167331339214" x2="130.0" y2="57.68326686607864" style="stroke-width:1;stroke:rgb(0,0,0);fill:none"/><line x1="523.6997436669367" y1="195.0" x2="26.300256333063345" y2="195.0" style="stroke-width:1;stroke:rgb(0,0,0);fill:none"/><line x1="195.0" y1="523.6997436669367" x2="195.0" y2="26.300256333063345" style="stroke-width:1;stroke:rgb(0,0,0);fill:none"/><line x1="535.8190225041111" y1="260.0" x2="14.180977495888897" y2="260.0" style="stroke-width:1;stroke:rgb(0,0,0);fill:none"/><line x1="260.0" y1="535.8190225041111" x2="260.0" y2="14.180977495888897" style="stroke-width:1;stroke:rgb(0,0,0);fill:none"/><line x1="531.4206748684669" y1="325.0" x2="18.579325131533096" y2="325.0" style="stroke-width:1;stroke:rgb(0,0,0);fill:none"/><line x1="325.0" y1="531.4206748684669" x2="325.0" y2="18.579325131533096" style="stroke-width:1;stroke:rgb(0,0,0);fill:none"/><line x1="509.5774125955012" y1="390.0" x2="40.42258740449881" y2="390.0" style="stroke-width:1;stroke:rgb(0,0,0);fill:none"/><line x1="390.0" y1="509.5774125955012" x2="390.0" y2="40.42258740449881" style="stroke-width:1;stroke:rgb(0,0,0);fill:none"/><line x1="464.3450883968211" y1="455.0" x2="85.6549116031789" y2="455.0" style="stroke-width:1;stroke:rgb(0,0,0);fill:none"/><line x1="455.0" y1="464.3450883968211" x2="455.0" y2="85.6549116031789" style="stroke-width:1;stroke:rgb(0,0,0);fill:none"/><line x1="365.70039966835867" y1="520.0" x2="184.29960033164133" y2="520.0" style="stroke-width:1;stroke:rgb(0,0,0);fill:none"/><line x1="520.0" y1="365.70039966835867" x2="520.0" y2="184.29960033164133" style="stroke-width:1;stroke:rgb(0,0,0);fill:none"/></svg>