<?xml version="1.0"?><!DOCTYPE svg PUBLIC "-//W3C//DTD util.SVG 1.0//EN" "http://www.w3.org/TR/2001/REC-util.SVG-20010904/DTD/svg10.dtd"><svg xmlns="http://www.w3.org/2000/svg" height="1000" width="1000" text-rendering="auto" shape-rendering="auto"><line x1="30.0" y1="30.0" x2="330.0" y2="30.0" style="stroke-width:1;stroke:rgb(0,0,0);fill:none"/><line x1="330.0" y1="30.0" x2="330.0" y2="330.0" style="stroke-width:1;stroke:rgb(0,0,0);fill:none"/><line x1="330.0" y1="330.0" x2="30.0" y2="330.0" style="stroke-width:1;stroke:rgb(0,0,0);fill:none"/><line x1="30.0" y1="330.0" x2="30.0" y2="30.0" style="stroke-width:1;stroke:rgb(0,0,0);fill:none"/><line x1="30.0" y1="30.0" x2="57.269999999999996" y2="30.0" style="stroke-width:1;stroke:rgb(0,0,0);fill:none"/><line x1="57.269999999999996" y1="30.0" x2="330.0" y2="57.269999999999996" style="stroke-width:1;stroke:rgb(0,0,0);fill:none"/><line x1="330.0" y1="57.269999999999996" x2="302.73" y2="330.0" style="stroke-width:1;stroke:rgb(0,0,0);fill:none"/><line x1="302.73" y1="330.0" x2="30.0" y2="302.73" style="stroke-width:1;stroke:rgb(0,0,0);fill:none"/><line x1="30.0" y1="302.73" x2="57.269999999999996" y2="30.0" style="stroke-width:1;stroke:rgb(0,0,0);fill:none"/><line x1="57.269999999999996" y1="30.0" x2="82.06" y2="32.48" style="stroke-width:1;stroke:rgb(0,0,0);fill:none"/><line x1="82.06" y1="32.48" x2="327.51" y2="82.07" style="stroke-width:1;stroke:rgb(0,0,0);fill:none"/><line x1="327.51" y1="82.07" x2="277.91999999999996" y2="327.52" style="stroke-width:1;stroke:rgb(0,0,0);fill:none"/><line x1="277.91999999999996" y1="327.52" x2="32.46999999999997" y2="277.92999999999995" style="stroke-width:1;stroke:rgb(0,0,0);fill:none"/><line x1="32.46999999999997" y1="277.92999999999995" x2="82.05999999999997" y2="32.47999999999996" style="stroke-width:1;stroke:rgb(0,0,0);fill:none"/><line x1="82.05999999999997" y1="32.47999999999996" x2="104.36999999999998" y2="36.98999999999996" style="stroke-width:1;stroke:rgb(0,0,0);fill:none"/><line x1="104.36999999999998" y1="36.98999999999996" x2="323.0" y2="104.37999999999997" style="stroke-width:1;stroke:rgb(0,0,0);fill:none"/><line x1="323.0" y1="104.37999999999997" x2="255.61" y2="323.01" style="stroke-width:1;stroke:rgb(0,0,0);fill:none"/><line x1="255.61" y1="323.01" x2="36.98000000000002" y2="255.62" style="stroke-width:1;stroke:rgb(0,0,0);fill:none"/><line x1="36.98000000000002" y1="255.62" x2="104.37000000000002" y2="36.99000000000001" style="stroke-width:1;stroke:rgb(0,0,0);fill:none"/><line x1="104.37000000000002" y1="36.99000000000001" x2="124.25000000000001" y2="43.12000000000001" style="stroke-width:1;stroke:rgb(0,0,0);fill:none"/><line x1="124.25000000000001" y1="43.12000000000001" x2="316.88" y2="124.26000000000002" style="stroke-width:1;stroke:rgb(0,0,0);fill:none"/><line x1="316.88" y1="124.26000000000002" x2="235.74" y2="316.89" style="stroke-width:1;stroke:rgb(0,0,0);fill:none"/><line x1="235.74" y1="316.89" x2="43.110000000000014" y2="235.75" style="stroke-width:1;stroke:rgb(0,0,0);fill:none"/><line x1="43.110000000000014" y1="235.75" x2="124.25000000000001" y2="43.120000000000005" style="stroke-width:1;stroke:rgb(0,0,0);fill:none"/><line x1="124.25000000000001" y1="43.120000000000005" x2="141.76000000000002" y2="50.50000000000001" style="stroke-width:1;stroke:rgb(0,0,0);fill:none"/><line x1="141.76000000000002" y1="50.50000000000001" x2="309.5" y2="141.78" style="stroke-width:1;stroke:rgb(0,0,0);fill:none"/><line x1="309.5" y1="141.78" x2="218.22" y2="309.52" style="stroke-width:1;stroke:rgb(0,0,0);fill:none"/><line x1="218.22" y1="309.52" x2="50.47999999999999" y2="218.23999999999998" style="stroke-width:1;stroke:rgb(0,0,0);fill:none"/><line x1="50.47999999999999" y1="218.23999999999998" x2="141.76" y2="50.49999999999997" style="stroke-width:1;stroke:rgb(0,0,0);fill:none"/><line x1="141.76" y1="50.49999999999997" x2="157.01" y2="58.79999999999997" style="stroke-width:1;stroke:rgb(0,0,0);fill:none"/><line x1="157.01" y1="58.79999999999997" x2="301.2" y2="157.02999999999997" style="stroke-width:1;stroke:rgb(0,0,0);fill:none"/><line x1="301.2" y1="157.02999999999997" x2="202.96999999999997" y2="301.21999999999997" style="stroke-width:1;stroke:rgb(0,0,0);fill:none"/><line x1="202.96999999999997" y1="301.21999999999997" x2="58.77999999999997" y2="202.98999999999995" style="stroke-width:1;stroke:rgb(0,0,0);fill:none"/><line x1="58.77999999999997" y1="202.98999999999995" x2="157.01" y2="58.799999999999955" style="stroke-width:1;stroke:rgb(0,0,0);fill:none"/><line x1="157.01" y1="58.799999999999955" x2="170.12" y2="67.72999999999996" style="stroke-width:1;stroke:rgb(0,0,0);fill:none"/><line x1="170.12" y1="67.72999999999996" x2="292.28" y2="170.13999999999996" style="stroke-width:1;stroke:rgb(0,0,0);fill:none"/><line x1="292.28" y1="170.13999999999996" x2="189.86999999999998" y2="292.29999999999995" style="stroke-width:1;stroke:rgb(0,0,0);fill:none"/><line x1="189.86999999999998" y1="292.29999999999995" x2="67.70999999999998" y2="189.88999999999996" style="stroke-width:1;stroke:rgb(0,0,0);fill:none"/><line x1="67.70999999999998" y1="189.88999999999996" x2="170.11999999999998" y2="67.72999999999996" style="stroke-width:1;stroke:rgb(0,0,0);fill:none"/><line x1="170.11999999999998" y1="67.72999999999996" x2="181.22999999999996" y2="77.03999999999996" style="stroke-width:1;stroke:rgb(0,0,0);fill:none"/><line x1="181.22999999999996" y1="77.03999999999996" x2="282.96999999999997" y2="181.23999999999995" style="stroke-width:1;stroke:rgb(0,0,0);fill:none"/><line x1="282.96999999999997" y1="181.23999999999995" x2="178.76999999999998" y2="282.97999999999996" style="stroke-width:1;stroke:rgb(0,0,0);fill:none"/><line x1="178.76999999999998" y1="282.97999999999996" x2="77.02999999999999" y2="178.77999999999997" style="stroke-width:1;stroke:rgb(0,0,0);fill:none"/><line x1="77.02999999999999" y1="178.77999999999997" x2="181.23" y2="77.03999999999998" style="stroke-width:1;stroke:rgb(0,0,0);fill:none"/><line x1="181.23" y1="77.03999999999998" x2="190.48" y2="86.50999999999998" style="stroke-width:1;stroke:rgb(0,0,0);fill:none"/><line x1="190.48" y1="86.50999999999998" x2="273.5" y2="190.48999999999998" style="stroke-width:1;stroke:rgb(0,0,0);fill:none"/><line x1="273.5" y1="190.48999999999998" x2="169.51999999999998" y2="273.51" style="stroke-width:1;stroke:rgb(0,0,0);fill:none"/><line x1="169.51999999999998" y1="273.51" x2="86.49999999999999" y2="169.52999999999997" style="stroke-width:1;stroke:rgb(0,0,0);fill:none"/><line x1="86.49999999999999" y1="169.52999999999997" x2="190.48" y2="86.50999999999998" style="stroke-width:1;stroke:rgb(0,0,0);fill:none"/><line x1="190.48" y1="86.50999999999998" x2="198.03" y2="95.95999999999998" style="stroke-width:1;stroke:rgb(0,0,0);fill:none"/><line x1="198.03" y1="95.95999999999998" x2="264.05" y2="198.02999999999997" style="stroke-width:1;stroke:rgb(0,0,0);fill:none"/><line x1="264.05" y1="198.02999999999997" x2="161.98000000000002" y2="264.04999999999995" style="stroke-width:1;stroke:rgb(0,0,0);fill:none"/><line x1="161.98000000000002" y1="264.04999999999995" x2="95.96000000000002" y2="161.97999999999996" style="stroke-width:1;stroke:rgb(0,0,0);fill:none"/><line x1="95.96000000000002" y1="161.97999999999996" x2="198.03000000000003" y2="95.95999999999997" style="stroke-width:1;stroke:rgb(0,0,0);fill:none"/><line x1="198.03000000000003" y1="95.95999999999997" x2="204.03000000000003" y2="105.23999999999997" style="stroke-width:1;stroke:rgb(0,0,0);fill:none"/><line x1="204.03000000000003" y1="105.23999999999997" x2="254.77000000000004" y2="204.03999999999996" style="stroke-width:1;stroke:rgb(0,0,0);fill:none"/><line x1="254.77000000000004" y1="204.03999999999996" x2="155.97000000000003" y2="254.77999999999997" style="stroke-width:1;stroke:rgb(0,0,0);fill:none"/><line x1="155.97000000000003" y1="254.77999999999997" x2="105.23000000000002" y2="155.97999999999996" style="stroke-width:1;stroke:rgb(0,0,0);fill:none"/><line x1="105.23000000000002" y1="155.97999999999996" x2="204.03000000000003" y2="105.23999999999995" style="stroke-width:1;stroke:rgb(0,0,0);fill:none"/><line x1="204.03000000000003" y1="105.23999999999995" x2="208.64000000000004" y2="114.21999999999996" style="stroke-width:1;stroke:rgb(0,0,0);fill:none"/><line x1="208.64000000000004" y1="114.21999999999996" x2="245.78000000000003" y2="208.64999999999998" style="stroke-width:1;stroke:rgb(0,0,0);fill:none"/><line x1="245.78000000000003" y1="208.64999999999998" x2="151.35000000000002" y2="245.78999999999996" style="stroke-width:1;stroke:rgb(0,0,0);fill:none"/><line x1="151.35000000000002" y1="245.78999999999996" x2="114.21000000000002" y2="151.35999999999996" style="stroke-width:1;stroke:rgb(0,0,0);fill:none"/><line x1="114.21000000000002" y1="151.35999999999996" x2="208.64000000000004" y2="114.21999999999996" style="stroke-width:1;stroke:rgb(0,0,0);fill:none"/><line x1="208.64000000000004" y1="114.21999999999996" x2="212.02000000000004" y2="122.79999999999995" style="stroke-width:1;stroke:rgb(0,0,0);fill:none"/><line x1="212.02000000000004" y1="122.79999999999995" x2="237.20000000000005" y2="212.01999999999995" style="stroke-width:1;stroke:rgb(0,0,0);fill:none"/><line x1="237.20000000000005" y1="212.01999999999995" x2="147.98000000000005" y2="237.19999999999996" style="stroke-width:1;stroke:rgb(0,0,0);fill:none"/><line x1="147.98000000000005" y1="237.19999999999996" x2="122.80000000000004" y2="147.97999999999996" style="stroke-width:1;stroke:rgb(0,0,0);fill:none"/><line x1="122.80000000000004" y1="147.97999999999996" x2="212.02000000000004" y2="122.79999999999995" style="stroke-width:1;stroke:rgb(0,0,0);fill:none"/><line x1="212.02000000000004" y1="122.79999999999995" x2="214.31000000000003" y2="130.90999999999997" style="stroke-width:1;stroke:rgb(0,0,0);fill:none"/><line x1="214.31000000000003" y1="130.90999999999997" x2="229.09000000000003" y2="214.30999999999997" style="stroke-width:1;stroke:rgb(0,0,0);fill:none"/><line x1="229.09000000000003" y1="214.30999999999997" x2="145.69000000000003" y2="229.08999999999997" style="stroke-width:1;stroke:rgb(0,0,0);fill:none"/><line x1="145.69000000000003" y1="229.08999999999997" x2="130.91000000000003" y2="145.68999999999997" style="stroke-width:1;stroke:rgb(0,0,0);fill:none"/><line x1="130.91000000000003" y1="145.68999999999997" x2="214.31000000000003" y2="130.90999999999997" style="stroke-width:1;stroke:rgb(0,0,0);fill:none"/><line x1="214.31000000000003" y1="130.90999999999997" x2="215.65000000000003" y2="138.48999999999998" style="stroke-width:1;stroke:rgb(0,0,0);fill:none"/><line x1="215.65000000000003" y1="138.48999999999998" x2="221.51000000000005" y2="215.64999999999998" style="stroke-width:1;stroke:rgb(0,0,0);fill:none"/><line x1="221.51000000000005" y1="215.64999999999998" x2="144.35000000000005" y2="221.51" style="stroke-width:1;stroke:rgb(0,0,0);fill:none"/><line x1="144.35000000000005" y1="221.51" x2="138.49000000000004" y2="144.35" style="stroke-width:1;stroke:rgb(0,0,0);fill:none"/><line x1="138.49000000000004" y1="144.35" x2="215.65000000000003" y2="138.48999999999998" style="stroke-width:1;stroke:rgb(0,0,0);fill:none"/><line x1="215.65000000000003" y1="138.48999999999998" x2="216.18000000000004" y2="145.49999999999997" style="stroke-width:1;stroke:rgb(0,0,0);fill:none"/><line x1="216.18000000000004" y1="145.49999999999997" x2="214.49000000000004" y2="216.17999999999998" style="stroke-width:1;stroke:rgb(0,0,0);fill:none"/><line x1="214.49000000000004" y1="216.17999999999998" x2="143.81000000000003" y2="214.48999999999998" style="stroke-width:1;stroke:rgb(0,0,0);fill:none"/><line x1="143.81000000000003" y1="214.48999999999998" x2="145.50000000000003" y2="143.80999999999997" style="stroke-width:1;stroke:rgb(0,0,0);fill:none"/><line x1="145.50000000000003" y1="143.80999999999997" x2="216.18000000000004" y2="145.49999999999997" style="stroke-width:1;stroke:rgb(0,0,0);fill:none"/><line x1="216.18000000000004" y1="145.49999999999997" x2="216.03000000000003" y2="151.92999999999998" style="stroke-width:1;stroke:rgb(0,0,0);fill:none"/><line x1="216.03000000000003" y1="151.92999999999998" x2="208.07000000000002" y2="216.02999999999997" style="stroke-width:1;stroke:rgb(0,0,0);fill:none"/><line x1="208.07000000000002" y1="216.02999999999997" x2="143.97000000000003" y2="208.06999999999996" style="stroke-width:1;stroke:rgb(0,0,0);fill:none"/><line x1="143.97000000000003" y1="208.06999999999996" x2="151.93000000000004" y2="143.96999999999997" style="stroke-width:1;stroke:rgb(0,0,0);fill:none"/><line x1="151.93000000000004" y1="143.96999999999997" x2="216.03000000000003" y2="151.92999999999998" style="stroke-width:1;stroke:rgb(0,0,0);fill:none"/><line x1="216.03000000000003" y1="151.92999999999998" x2="215.31000000000003" y2="157.76" style="stroke-width:1;stroke:rgb(0,0,0);fill:none"/><line x1="215.31000000000003" y1="157.76" x2="202.25000000000003" y2="215.31" style="stroke-width:1;stroke:rgb(0,0,0);fill:none"/><line x1="202.25000000000003" y1="215.31" x2="144.70000000000005" y2="202.25" style="stroke-width:1;stroke:rgb(0,0,0);fill:none"/><line x1="144.70000000000005" y1="202.25" x2="157.76000000000005" y2="144.7" style="stroke-width:1;stroke:rgb(0,0,0);fill:none"/><line x1="157.76000000000005" y1="144.7" x2="215.31000000000006" y2="157.76" style="stroke-width:1;stroke:rgb(0,0,0);fill:none"/><line x1="215.31000000000006" y1="157.76" x2="214.12000000000006" y2="162.98999999999998" style="stroke-width:1;stroke:rgb(0,0,0);fill:none"/><line x1="214.12000000000006" y1="162.98999999999998" x2="197.01000000000005" y2="214.11999999999998" style="stroke-width:1;stroke:rgb(0,0,0);fill:none"/><line x1="197.01000000000005" y1="214.11999999999998" x2="145.88000000000005" y2="197.01" style="stroke-width:1;stroke:rgb(0,0,0);fill:none"/><line x1="145.88000000000005" y1="197.01" x2="162.99000000000007" y2="145.88" style="stroke-width:1;stroke:rgb(0,0,0);fill:none"/><line x1="162.99000000000007" y1="145.88" x2="214.12000000000006" y2="162.99" style="stroke-width:1;stroke:rgb(0,0,0);fill:none"/><line x1="214.12000000000006" y1="162.99" x2="212.56000000000006" y2="167.64000000000001" style="stroke-width:1;stroke:rgb(0,0,0);fill:none"/><line x1="212.56000000000006" y1="167.64000000000001" x2="192.36000000000007" y2="212.57000000000002" style="stroke-width:1;stroke:rgb(0,0,0);fill:none"/><line x1="192.36000000000007" y1="212.57000000000002" x2="147.43000000000006" y2="192.37000000000003" style="stroke-width:1;stroke:rgb(0,0,0);fill:none"/><line x1="147.43000000000006" y1="192.37000000000003" x2="167.63000000000005" y2="147.44000000000003" style="stroke-width:1;stroke:rgb(0,0,0);fill:none"/><line x1="167.63000000000005" y1="147.44000000000003" x2="212.56000000000006" y2="167.64000000000001" style="stroke-width:1;stroke:rgb(0,0,0);fill:none"/><line x1="212.56000000000006" y1="167.64000000000001" x2="210.72000000000006" y2="171.72000000000003" style="stroke-width:1;stroke:rgb(0,0,0);fill:none"/><line x1="210.72000000000006" y1="171.72000000000003" x2="188.27000000000007" y2="210.72000000000003" style="stroke-width:1;stroke:rgb(0,0,0);fill:none"/><line x1="188.27000000000007" y1="210.72000000000003" x2="149.27000000000007" y2="188.27000000000004" style="stroke-width:1;stroke:rgb(0,0,0);fill:none"/><line x1="149.27000000000007" y1="188.27000000000004" x2="171.72000000000006" y2="149.27000000000004" style="stroke-width:1;stroke:rgb(0,0,0);fill:none"/><line x1="171.72000000000006" y1="149.27000000000004" x2="210.72000000000006" y2="171.72000000000003" style="stroke-width:1;stroke:rgb(0,0,0);fill:none"/><line x1="210.72000000000006" y1="171.72000000000003" x2="208.68000000000006" y2="175.27000000000004" style="stroke-width:1;stroke:rgb(0,0,0);fill:none"/><line x1="208.68000000000006" y1="175.27000000000004" x2="184.73000000000008" y2="208.69000000000005" style="stroke-width:1;stroke:rgb(0,0,0);fill:none"/><line x1="184.73000000000008" y1="208.69000000000005" x2="151.31000000000006" y2="184.74000000000007" style="stroke-width:1;stroke:rgb(0,0,0);fill:none"/><line x1="151.31000000000006" y1="184.74000000000007" x2="175.26000000000005" y2="151.32000000000005" style="stroke-width:1;stroke:rgb(0,0,0);fill:none"/><line x1="175.26000000000005" y1="151.32000000000005" x2="208.68000000000006" y2="175.27000000000004" style="stroke-width:1;stroke:rgb(0,0,0);fill:none"/><line x1="208.68000000000006" y1="175.27000000000004" x2="206.50000000000006" y2="178.31000000000003" style="stroke-width:1;stroke:rgb(0,0,0);fill:none"/><line x1="206.50000000000006" y1="178.31000000000003" x2="181.69000000000005" y2="206.51000000000002" style="stroke-width:1;stroke:rgb(0,0,0);fill:none"/><line x1="181.69000000000005" y1="206.51000000000002" x2="153.49000000000007" y2="181.70000000000002" style="stroke-width:1;stroke:rgb(0,0,0);fill:none"/><line x1="153.49000000000007" y1="181.70000000000002" x2="178.30000000000007" y2="153.50000000000003" style="stroke-width:1;stroke:rgb(0,0,0);fill:none"/><line x1="178.30000000000007" y1="153.50000000000003" x2="206.50000000000006" y2="178.31000000000003" style="stroke-width:1;stroke:rgb(0,0,0);fill:none"/><line x1="206.50000000000006" y1="178.31000000000003" x2="204.24000000000007" y2="180.87000000000003" style="stroke-width:1;stroke:rgb(0,0,0);fill:none"/><line x1="204.24000000000007" y1="180.87000000000003" x2="179.12000000000006" y2="204.25000000000003" style="stroke-width:1;stroke:rgb(0,0,0);fill:none"/><line x1="179.12000000000006" y1="204.25000000000003" x2="155.74000000000007" y2="179.13000000000002" style="stroke-width:1;stroke:rgb(0,0,0);fill:none"/><line x1="155.74000000000007" y1="179.13000000000002" x2="180.86000000000007" y2="155.75000000000003" style="stroke-width:1;stroke:rgb(0,0,0);fill:none"/><line x1="180.86000000000007" y1="155.75000000000003" x2="204.24000000000007" y2="180.87000000000003" style="stroke-width:1;stroke:rgb(0,0,0);fill:none"/><line x1="204.24000000000007" y1="180.87000000000003" x2="201.96000000000006" y2="183.00000000000003" style="stroke-width:1;stroke:rgb(0,0,0);fill:none"/><line x1="201.96000000000006" y1="183.00000000000003" x2="177.00000000000006" y2="201.97000000000003" style="stroke-width:1;stroke:rgb(0,0,0);fill:none"/><line x1="177.00000000000006" y1="201.97000000000003" x2="158.03000000000006" y2="177.01000000000002" style="stroke-width:1;stroke:rgb(0,0,0);fill:none"/><line x1="158.03000000000006" y1="177.01000000000002" x2="182.99000000000007" y2="158.04000000000002" style="stroke-width:1;stroke:rgb(0,0,0);fill:none"/><line x1="182.99000000000007" y1="158.04000000000002" x2="201.96000000000006" y2="183.00000000000003" style="stroke-width:1;stroke:rgb(0,0,0);fill:none"/><line x1="201.96000000000006" y1="183.00000000000003" x2="199.69000000000005" y2="184.72000000000003" style="stroke-width:1;stroke:rgb(0,0,0);fill:none"/><line x1="199.69000000000005" y1="184.72000000000003" x2="175.27000000000004" y2="199.70000000000002" style="stroke-width:1;stroke:rgb(0,0,0);fill:none"/><line x1="175.27000000000004" y1="199.70000000000002" x2="160.29000000000005" y2="175.28000000000003" style="stroke-width:1;stroke:rgb(0,0,0);fill:none"/><line x1="160.29000000000005" y1="175.28000000000003" x2="184.71000000000004" y2="160.30000000000004" style="stroke-width:1;stroke:rgb(0,0,0);fill:none"/><line x1="184.71000000000004" y1="160.30000000000004" x2="199.69000000000003" y2="184.72000000000003" style="stroke-width:1;stroke:rgb(0,0,0);fill:none"/><line x1="199.69000000000003" y1="184.72000000000003" x2="197.47000000000003" y2="186.08000000000004" style="stroke-width:1;stroke:rgb(0,0,0);fill:none"/><line x1="197.47000000000003" y1="186.08000000000004" x2="173.91000000000003" y2="197.48000000000005" style="stroke-width:1;stroke:rgb(0,0,0);fill:none"/><line x1="173.91000000000003" y1="197.48000000000005" x2="162.51000000000002" y2="173.92000000000004" style="stroke-width:1;stroke:rgb(0,0,0);fill:none"/><line x1="162.51000000000002" y1="173.92000000000004" x2="186.07000000000002" y2="162.52000000000004" style="stroke-width:1;stroke:rgb(0,0,0);fill:none"/><line x1="186.07000000000002" y1="162.52000000000004" x2="197.47000000000003" y2="186.08000000000004" style="stroke-width:1;stroke:rgb(0,0,0);fill:none"/><line x1="197.47000000000003" y1="186.08000000000004" x2="195.33000000000004" y2="187.12000000000003" style="stroke-width:1;stroke:rgb(0,0,0);fill:none"/><line x1="195.33000000000004" y1="187.12000000000003" x2="172.87000000000003" y2="195.34000000000003" style="stroke-width:1;stroke:rgb(0,0,0);fill:none"/><line x1="172.87000000000003" y1="195.34000000000003" x2="164.65000000000003" y2="172.88000000000002" style="stroke-width:1;stroke:rgb(0,0,0);fill:none"/><line x1="164.65000000000003" y1="172.88000000000002" x2="187.11000000000004" y2="164.66000000000003" style="stroke-width:1;stroke:rgb(0,0,0);fill:none"/><line x1="187.11000000000004" y1="164.66000000000003" x2="195.33000000000004" y2="187.12000000000003" style="stroke-width:1;stroke:rgb(0,0,0);fill:none"/><line x1="195.33000000000004" y1="187.12000000000003" x2="193.29000000000005" y2="187.87000000000003" style="stroke-width:1;stroke:rgb(0,0,0);fill:none"/><line x1="193.29000000000005" y1="187.87000000000003" x2="172.13000000000005" y2="193.30000000000004" style="stroke-width:1;stroke:rgb(0,0,0);fill:none"/><line x1="172.13000000000005" y1="193.30000000000004" x2="166.70000000000005" y2="172.14000000000004" style="stroke-width:1;stroke:rgb(0,0,0);fill:none"/><line x1="166.70000000000005" y1="172.14000000000004" x2="187.86000000000004" y2="166.71000000000004" style="stroke-width:1;stroke:rgb(0,0,0);fill:none"/><line x1="187.86000000000004" y1="166.71000000000004" x2="193.29000000000005" y2="187.87000000000003" style="stroke-width:1;stroke:rgb(0,0,0);fill:none"/><line x1="193.29000000000005" y1="187.87000000000003" x2="191.37000000000006" y2="188.36000000000004" style="stroke-width:1;stroke:rgb(0,0,0);fill:none"/><line x1="191.37000000000006" y1="188.36000000000004" x2="171.64000000000007" y2="191.37000000000003" style="stroke-width:1;stroke:rgb(0,0,0);fill:none"/><line x1="171.64000000000007" y1="191.37000000000003" x2="168.63000000000008" y2="171.64000000000004" style="stroke-width:1;stroke:rgb(0,0,0);fill:none"/><line x1="168.63000000000008" y1="171.64000000000004" x2="188.36000000000007" y2="168.63000000000005" style="stroke-width:1;stroke:rgb(0,0,0);fill:none"/><line x1="188.36000000000007" y1="168.63000000000005" x2="191.37000000000006" y2="188.36000000000004" style="stroke-width:1;stroke:rgb(0,0,0);fill:none"/><line x1="191.37000000000006" y1="188.36000000000004" x2="189.58000000000007" y2="188.63000000000005" style="stroke-width:1;stroke:rgb(0,0,0);fill:none"/><line x1="189.58000000000007" y1="188.63000000000005" x2="171.37000000000006" y2="189.58000000000004" style="stroke-width:1;stroke:rgb(0,0,0);fill:none"/><line x1="171.37000000000006" y1="189.58000000000004" x2="170.42000000000007" y2="171.37000000000003" style="stroke-width:1;stroke:rgb(0,0,0);fill:none"/><line x1="170.42000000000007" y1="171.37000000000003" x2="188.63000000000008" y2="170.42000000000004" style="stroke-width:1;stroke:rgb(0,0,0);fill:none"/><line x1="188.63000000000008" y1="170.42000000000004" x2="189.58000000000007" y2="188.63000000000005" style="stroke-width:1;stroke:rgb(0,0,0);fill:none"/><line x1="189.58000000000007" y1="188.63000000000005" x2="187.92000000000007" y2="188.72000000000006" style="stroke-width:1;stroke:rgb(0,0,0);fill:none"/><line x1="187.92000000000007" y1="188.72000000000006" x2="171.2800000000001" y2="187.92000000000004" style="stroke-width:1;stroke:rgb(0,0,0);fill:none"/><line x1="171.2800000000001" y1="187.92000000000004" x2="172.0800000000001" y2="171.28000000000003" style="stroke-width:1;stroke:rgb(0,0,0);fill:none"/><line x1="172.0800000000001" y1="171.28000000000003" x2="188.72000000000008" y2="172.08000000000004" style="stroke-width:1;stroke:rgb(0,0,0);fill:none"/><line x1="188.72000000000008" y1="172.08000000000004" x2="187.92000000000007" y2="188.72000000000003" style="stroke-width:1;stroke:rgb(0,0,0);fill:none"/><line x1="187.92000000000007" y1="188.72000000000003" x2="186.41000000000008" y2="188.65000000000003" style="stroke-width:1;stroke:rgb(0,0,0);fill:none"/><line x1="186.41000000000008" y1="188.65000000000003" x2="171.35000000000008" y2="186.41000000000003" style="stroke-width:1;stroke:rgb(0,0,0);fill:none"/><line x1="171.35000000000008" y1="186.41000000000003" x2="173.5900000000001" y2="171.35000000000002" style="stroke-width:1;stroke:rgb(0,0,0);fill:none"/><line x1="173.5900000000001" y1="171.35000000000002" x2="188.6500000000001" y2="173.59000000000003" style="stroke-width:1;stroke:rgb(0,0,0);fill:none"/><line x1="188.6500000000001" y1="173.59000000000003" x2="186.41000000000008" y2="188.65000000000003" style="stroke-width:1;stroke:rgb(0,0,0);fill:none"/><line x1="186.41000000000008" y1="188.65000000000003" x2="185.04000000000008" y2="188.45000000000005" style="stroke-width:1;stroke:rgb(0,0,0);fill:none"/><line x1="185.04000000000008" y1="188.45000000000005" x2="171.5600000000001" y2="185.05000000000004" style="stroke-width:1;stroke:rgb(0,0,0);fill:none"/><line x1="171.5600000000001" y1="185.05000000000004" x2="174.9600000000001" y2="171.57000000000005" style="stroke-width:1;stroke:rgb(0,0,0);fill:none"/><line x1="174.9600000000001" y1="171.57000000000005" x2="188.44000000000008" y2="174.97000000000006" style="stroke-width:1;stroke:rgb(0,0,0);fill:none"/><line x1="188.44000000000008" y1="174.97000000000006" x2="185.04000000000008" y2="188.45000000000005" style="stroke-width:1;stroke:rgb(0,0,0);fill:none"/><line x1="185.04000000000008" y1="188.45000000000005" x2="183.8100000000001" y2="188.14000000000004" style="stroke-width:1;stroke:rgb(0,0,0);fill:none"/><line x1="183.8100000000001" y1="188.14000000000004" x2="171.8600000000001" y2="183.82000000000005" style="stroke-width:1;stroke:rgb(0,0,0);fill:none"/><line x1="171.8600000000001" y1="183.82000000000005" x2="176.1800000000001" y2="171.87000000000006" style="stroke-width:1;stroke:rgb(0,0,0);fill:none"/><line x1="176.1800000000001" y1="171.87000000000006" x2="188.13000000000008" y2="176.19000000000005" style="stroke-width:1;stroke:rgb(0,0,0);fill:none"/><line x1="188.13000000000008" y1="176.19000000000005" x2="183.8100000000001" y2="188.14000000000004" style="stroke-width:1;stroke:rgb(0,0,0);fill:none"/><line x1="183.8100000000001" y1="188.14000000000004" x2="182.72000000000008" y2="187.75000000000006" style="stroke-width:1;stroke:rgb(0,0,0);fill:none"/><line x1="182.72000000000008" y1="187.75000000000006" x2="172.25000000000009" y2="182.74000000000007" style="stroke-width:1;stroke:rgb(0,0,0);fill:none"/><line x1="172.25000000000009" y1="182.74000000000007" x2="177.26000000000008" y2="172.27000000000007" style="stroke-width:1;stroke:rgb(0,0,0);fill:none"/><line x1="177.26000000000008" y1="172.27000000000007" x2="187.73000000000008" y2="177.28000000000006" style="stroke-width:1;stroke:rgb(0,0,0);fill:none"/><line x1="187.73000000000008" y1="177.28000000000006" x2="182.72000000000008" y2="187.75000000000006" style="stroke-width:1;stroke:rgb(0,0,0);fill:none"/><line x1="182.72000000000008" y1="187.75000000000006" x2="181.7700000000001" y2="187.29000000000005" style="stroke-width:1;stroke:rgb(0,0,0);fill:none"/><line x1="181.7700000000001" y1="187.29000000000005" x2="172.7100000000001" y2="181.78000000000006" style="stroke-width:1;stroke:rgb(0,0,0);fill:none"/><line x1="172.7100000000001" y1="181.78000000000006" x2="178.22000000000008" y2="172.72000000000006" style="stroke-width:1;stroke:rgb(0,0,0);fill:none"/><line x1="178.22000000000008" y1="172.72000000000006" x2="187.2800000000001" y2="178.23000000000005" style="stroke-width:1;stroke:rgb(0,0,0);fill:none"/><line x1="187.2800000000001" y1="178.23000000000005" x2="181.7700000000001" y2="187.29000000000005" style="stroke-width:1;stroke:rgb(0,0,0);fill:none"/><line x1="181.7700000000001" y1="187.29000000000005" x2="180.9500000000001" y2="186.79000000000005" style="stroke-width:1;stroke:rgb(0,0,0);fill:none"/><line x1="180.9500000000001" y1="186.79000000000005" x2="173.2100000000001" y2="180.96000000000004" style="stroke-width:1;stroke:rgb(0,0,0);fill:none"/><line x1="173.2100000000001" y1="180.96000000000004" x2="179.0400000000001" y2="173.22000000000003" style="stroke-width:1;stroke:rgb(0,0,0);fill:none"/><line x1="179.0400000000001" y1="173.22000000000003" x2="186.78000000000011" y2="179.05000000000004" style="stroke-width:1;stroke:rgb(0,0,0);fill:none"/><line x1="186.78000000000011" y1="179.05000000000004" x2="180.9500000000001" y2="186.79000000000005" style="stroke-width:1;stroke:rgb(0,0,0);fill:none"/><line x1="180.9500000000001" y1="186.79000000000005" x2="180.2500000000001" y2="186.26000000000005" style="stroke-width:1;stroke:rgb(0,0,0);fill:none"/><line x1="180.2500000000001" y1="186.26000000000005" x2="173.7500000000001" y2="180.25000000000006" style="stroke-width:1;stroke:rgb(0,0,0);fill:none"/><line x1="173.7500000000001" y1="180.25000000000006" x2="179.7600000000001" y2="173.75000000000006" style="stroke-width:1;stroke:rgb(0,0,0);fill:none"/><line x1="179.7600000000001" y1="173.75000000000006" x2="186.2600000000001" y2="179.76000000000005" style="stroke-width:1;stroke:rgb(0,0,0);fill:none"/><line x1="186.2600000000001" y1="179.76000000000005" x2="180.2500000000001" y2="186.26000000000005" style="stroke-width:1;stroke:rgb(0,0,0);fill:none"/><line x1="180.2500000000001" y1="186.26000000000005" x2="179.6600000000001" y2="185.71000000000004" style="stroke-width:1;stroke:rgb(0,0,0);fill:none"/></svg>