<?xml version="1.0"?><!DOCTYPE svg PUBLIC "-//W3C//DTD util.SVG 1.0//EN" "http://www.w3.org/TR/2001/REC-util.SVG-20010904/DTD/svg10.dtd"><svg xmlns="http://www.w3.org/2000/svg" height="250" width="250" text-rendering="auto" shape-rendering="auto"><line x1="30.0" y1="30.0" x2="230.0" y2="30.0" style="stroke-width:1;stroke:rgb(0,0,0);fill:none"/><line x1="230.0" y1="30.0" x2="230.0" y2="230.0" style="stroke-width:1;stroke:rgb(0,0,0);fill:none"/><line x1="230.0" y1="230.0" x2="30.0" y2="230.0" style="stroke-width:1;stroke:rgb(0,0,0);fill:none"/><line x1="30.0" y1="230.0" x2="30.0" y2="30.0" style="stroke-width:1;stroke:rgb(0,0,0);fill:none"/><line x1="30.0" y1="30.0" x2="55.0" y2="30.0" style="stroke-width:1;stroke:rgb(0,0,0);fill:none"/><line x1="55.0" y1="30.0" x2="230.0" y2="55.0" style="stroke-width:1;stroke:rgb(0,0,0);fill:none"/><line x1="230.0" y1="55.0" x2="205.0" y2="230.0" style="stroke-width:1;stroke:rgb(0,0,0);fill:none"/><line x1="205.0" y1="230.0" x2="30.0" y2="205.0" style="stroke-width:1;stroke:rgb(0,0,0);fill:none"/><line x1="30.0" y1="205.0" x2="55.0" y2="30.0" style="stroke-width:1;stroke:rgb(0,0,0);fill:none"/><line x1="55.0" y1="30.0" x2="76.88" y2="33.12" style="stroke-width:1;stroke:rgb(0,0,0);fill:none"/><line x1="76.88" y1="33.12" x2="226.88" y2="76.87" style="stroke-width:1;stroke:rgb(0,0,0);fill:none"/><line x1="226.88" y1="76.87" x2="183.13" y2="226.87" style="stroke-width:1;stroke:rgb(0,0,0);fill:none"/><line x1="183.13" y1="226.87" x2="33.129999999999995" y2="183.12" style="stroke-width:1;stroke:rgb(0,0,0);fill:none"/><line x1="33.129999999999995" y1="183.12" x2="76.88" y2="33.120000000000005" style="stroke-width:1;stroke:rgb(0,0,0);fill:none"/><line x1="76.88" y1="33.120000000000005" x2="95.63" y2="38.59" style="stroke-width:1;stroke:rgb(0,0,0);fill:none"/><line x1="95.63" y1="38.59" x2="221.41" y2="95.62" style="stroke-width:1;stroke:rgb(0,0,0);fill:none"/><line x1="221.41" y1="95.62" x2="164.38" y2="221.4" style="stroke-width:1;stroke:rgb(0,0,0);fill:none"/><line x1="164.38" y1="221.4" x2="38.599999999999994" y2="164.37" style="stroke-width:1;stroke:rgb(0,0,0);fill:none"/><line x1="38.599999999999994" y1="164.37" x2="95.63" y2="38.59" style="stroke-width:1;stroke:rgb(0,0,0);fill:none"/><line x1="95.63" y1="38.59" x2="111.35" y2="45.720000000000006" style="stroke-width:1;stroke:rgb(0,0,0);fill:none"/><line x1="124.22" y1="53.92" x2="206.07999999999998" y2="124.21000000000001" style="stroke-width:1;stroke:rgb(0,0,0);fill:none"/><line x1="206.07999999999998" y1="124.21000000000001" x2="135.78999999999996" y2="206.07" style="stroke-width:1;stroke:rgb(0,0,0);fill:none"/><line x1="135.78999999999996" y1="206.07" x2="53.929999999999964" y2="135.77999999999997" style="stroke-width:1;stroke:rgb(0,0,0);fill:none"/><line x1="53.929999999999964" y1="135.77999999999997" x2="124.21999999999997" y2="53.91999999999997" style="stroke-width:1;stroke:rgb(0,0,0);fill:none"/><line x1="124.21999999999997" y1="53.91999999999997" x2="134.44999999999996" y2="62.70999999999997" style="stroke-width:1;stroke:rgb(0,0,0);fill:none"/><line x1="134.44999999999996" y1="62.70999999999997" x2="197.28999999999996" y2="134.43999999999997" style="stroke-width:1;stroke:rgb(0,0,0);fill:none"/><line x1="197.28999999999996" y1="134.43999999999997" x2="125.55999999999996" y2="197.27999999999997" style="stroke-width:1;stroke:rgb(0,0,0);fill:none"/><line x1="125.55999999999996" y1="197.27999999999997" x2="62.719999999999956" y2="125.54999999999997" style="stroke-width:1;stroke:rgb(0,0,0);fill:none"/><line x1="62.719999999999956" y1="125.54999999999997" x2="134.44999999999996" y2="62.709999999999965" style="stroke-width:1;stroke:rgb(0,0,0);fill:none"/><line x1="134.44999999999996" y1="62.709999999999965" x2="142.30999999999997" y2="71.67999999999996" style="stroke-width:1;stroke:rgb(0,0,0);fill:none"/><line x1="142.30999999999997" y1="71.67999999999996" x2="188.32999999999998" y2="142.29999999999995" style="stroke-width:1;stroke:rgb(0,0,0);fill:none"/><line x1="188.32999999999998" y1="142.29999999999995" x2="117.70999999999998" y2="188.31999999999996" style="stroke-width:1;stroke:rgb(0,0,0);fill:none"/><line x1="117.70999999999998" y1="188.31999999999996" x2="71.68999999999997" y2="117.69999999999996" style="stroke-width:1;stroke:rgb(0,0,0);fill:none"/><line x1="71.68999999999997" y1="117.69999999999996" x2="142.30999999999997" y2="71.67999999999995" style="stroke-width:1;stroke:rgb(0,0,0);fill:none"/><line x1="142.30999999999997" y1="71.67999999999995" x2="148.05999999999997" y2="80.50999999999995" style="stroke-width:1;stroke:rgb(0,0,0);fill:none"/><line x1="148.05999999999997" y1="80.50999999999995" x2="179.49999999999997" y2="148.05999999999995" style="stroke-width:1;stroke:rgb(0,0,0);fill:none"/><line x1="179.49999999999997" y1="148.05999999999995" x2="111.94999999999997" y2="179.49999999999994" style="stroke-width:1;stroke:rgb(0,0,0);fill:none"/><line x1="111.94999999999997" y1="179.49999999999994" x2="80.50999999999998" y2="111.94999999999995" style="stroke-width:1;stroke:rgb(0,0,0);fill:none"/><line x1="80.50999999999998" y1="111.94999999999995" x2="148.05999999999997" y2="80.50999999999995" style="stroke-width:1;stroke:rgb(0,0,0);fill:none"/><line x1="148.05999999999997" y1="80.50999999999995" x2="151.98999999999998" y2="88.94999999999995" style="stroke-width:1;stroke:rgb(0,0,0);fill:none"/><line x1="154.36999999999998" y1="96.82999999999996" x2="163.17" y2="154.36999999999995" style="stroke-width:1;stroke:rgb(0,0,0);fill:none"/><line x1="163.17" y1="154.36999999999995" x2="105.63" y2="163.16999999999996" style="stroke-width:1;stroke:rgb(0,0,0);fill:none"/><line x1="105.63" y1="163.16999999999996" x2="96.83" y2="105.62999999999997" style="stroke-width:1;stroke:rgb(0,0,0);fill:none"/><line x1="96.83" y1="105.62999999999997" x2="154.37" y2="96.82999999999997" style="stroke-width:1;stroke:rgb(0,0,0);fill:none"/><line x1="154.37" y1="96.82999999999997" x2="155.47" y2="104.01999999999997" style="stroke-width:1;stroke:rgb(0,0,0);fill:none"/><line x1="155.47" y1="104.01999999999997" x2="155.98" y2="155.46999999999997" style="stroke-width:1;stroke:rgb(0,0,0);fill:none"/><line x1="155.98" y1="155.46999999999997" x2="104.52999999999999" y2="155.97999999999996" style="stroke-width:1;stroke:rgb(0,0,0);fill:none"/><line x1="104.52999999999999" y1="155.97999999999996" x2="104.01999999999998" y2="104.52999999999996" style="stroke-width:1;stroke:rgb(0,0,0);fill:none"/><line x1="104.01999999999998" y1="104.52999999999996" x2="155.46999999999997" y2="104.01999999999995" style="stroke-width:1;stroke:rgb(0,0,0);fill:none"/><line x1="155.46999999999997" y1="104.01999999999995" x2="155.52999999999997" y2="110.44999999999996" style="stroke-width:1;stroke:rgb(0,0,0);fill:none"/><line x1="155.52999999999997" y1="110.44999999999996" x2="149.54999999999998" y2="155.52999999999997" style="stroke-width:1;stroke:rgb(0,0,0);fill:none"/><line x1="149.54999999999998" y1="155.52999999999997" x2="104.46999999999998" y2="149.54999999999998" style="stroke-width:1;stroke:rgb(0,0,0);fill:none"/><line x1="104.46999999999998" y1="149.54999999999998" x2="110.44999999999999" y2="104.46999999999998" style="stroke-width:1;stroke:rgb(0,0,0);fill:none"/><line x1="110.44999999999999" y1="104.46999999999998" x2="155.52999999999997" y2="110.44999999999999" style="stroke-width:1;stroke:rgb(0,0,0);fill:none"/><line x1="155.52999999999997" y1="110.44999999999999" x2="154.77999999999997" y2="116.07999999999998" style="stroke-width:1;stroke:rgb(0,0,0);fill:none"/><line x1="154.77999999999997" y1="116.07999999999998" x2="143.90999999999997" y2="154.77999999999997" style="stroke-width:1;stroke:rgb(0,0,0);fill:none"/><line x1="143.90999999999997" y1="154.77999999999997" x2="105.20999999999997" y2="143.90999999999997" style="stroke-width:1;stroke:rgb(0,0,0);fill:none"/><line x1="105.20999999999997" y1="143.90999999999997" x2="116.07999999999997" y2="105.20999999999997" style="stroke-width:1;stroke:rgb(0,0,0);fill:none"/><line x1="116.07999999999997" y1="105.20999999999997" x2="154.77999999999997" y2="116.07999999999997" style="stroke-width:1;stroke:rgb(0,0,0);fill:none"/><line x1="154.77999999999997" y1="116.07999999999997" x2="153.41999999999996" y2="120.91999999999997" style="stroke-width:1;stroke:rgb(0,0,0);fill:none"/><line x1="151.62999999999997" y1="124.97999999999996" x2="135.00999999999996" y2="151.61999999999995" style="stroke-width:1;stroke:rgb(0,0,0);fill:none"/><line x1="135.00999999999996" y1="151.61999999999995" x2="108.36999999999996" y2="134.99999999999994" style="stroke-width:1;stroke:rgb(0,0,0);fill:none"/><line x1="108.36999999999996" y1="134.99999999999994" x2="124.98999999999997" y2="108.35999999999994" style="stroke-width:1;stroke:rgb(0,0,0);fill:none"/><line x1="124.98999999999997" y1="108.35999999999994" x2="151.62999999999997" y2="124.97999999999995" style="stroke-width:1;stroke:rgb(0,0,0);fill:none"/><line x1="151.62999999999997" y1="124.97999999999995" x2="149.54999999999995" y2="128.30999999999995" style="stroke-width:1;stroke:rgb(0,0,0);fill:none"/><line x1="149.54999999999995" y1="128.30999999999995" x2="131.67999999999995" y2="149.54999999999995" style="stroke-width:1;stroke:rgb(0,0,0);fill:none"/><line x1="131.67999999999995" y1="149.54999999999995" x2="110.43999999999996" y2="131.67999999999995" style="stroke-width:1;stroke:rgb(0,0,0);fill:none"/><line x1="110.43999999999996" y1="131.67999999999995" x2="128.30999999999995" y2="110.43999999999996" style="stroke-width:1;stroke:rgb(0,0,0);fill:none"/><line x1="128.30999999999995" y1="110.43999999999996" x2="149.54999999999995" y2="128.30999999999995" style="stroke-width:1;stroke:rgb(0,0,0);fill:none"/><line x1="149.54999999999995" y1="128.30999999999995" x2="147.31999999999996" y2="130.95999999999995" style="stroke-width:1;stroke:rgb(0,0,0);fill:none"/><line x1="147.31999999999996" y1="130.95999999999995" x2="129.02999999999997" y2="147.30999999999995" style="stroke-width:1;stroke:rgb(0,0,0);fill:none"/><line x1="129.02999999999997" y1="147.30999999999995" x2="112.67999999999998" y2="129.01999999999995" style="stroke-width:1;stroke:rgb(0,0,0);fill:none"/><line x1="112.67999999999998" y1="129.01999999999995" x2="130.96999999999997" y2="112.66999999999996" style="stroke-width:1;stroke:rgb(0,0,0);fill:none"/><line x1="130.96999999999997" y1="112.66999999999996" x2="147.31999999999996" y2="130.95999999999995" style="stroke-width:1;stroke:rgb(0,0,0);fill:none"/><line x1="147.31999999999996" y1="130.95999999999995" x2="145.02999999999997" y2="132.99999999999994" style="stroke-width:1;stroke:rgb(0,0,0);fill:none"/><line x1="145.02999999999997" y1="132.99999999999994" x2="126.97999999999998" y2="145.01999999999995" style="stroke-width:1;stroke:rgb(0,0,0);fill:none"/><line x1="126.97999999999998" y1="145.01999999999995" x2="114.95999999999998" y2="126.96999999999996" style="stroke-width:1;stroke:rgb(0,0,0);fill:none"/><line x1="114.95999999999998" y1="126.96999999999996" x2="133.01" y2="114.94999999999996" style="stroke-width:1;stroke:rgb(0,0,0);fill:none"/><line x1="133.01" y1="114.94999999999996" x2="145.03" y2="132.99999999999997" style="stroke-width:1;stroke:rgb(0,0,0);fill:none"/><line x1="145.03" y1="132.99999999999997" x2="142.77" y2="134.49999999999997" style="stroke-width:1;stroke:rgb(0,0,0);fill:none"/><line x1="140.61" y1="135.52999999999997" x2="124.44000000000001" y2="140.59999999999997" style="stroke-width:1;stroke:rgb(0,0,0);fill:none"/><line x1="124.44000000000001" y1="140.59999999999997" x2="119.37" y2="124.42999999999996" style="stroke-width:1;stroke:rgb(0,0,0);fill:none"/><line x1="119.37" y1="124.42999999999996" x2="135.54000000000002" y2="119.35999999999996" style="stroke-width:1;stroke:rgb(0,0,0);fill:none"/><line x1="135.54000000000002" y1="119.35999999999996" x2="140.61" y2="135.52999999999997" style="stroke-width:1;stroke:rgb(0,0,0);fill:none"/><line x1="140.61" y1="135.52999999999997" x2="138.59" y2="136.15999999999997" style="stroke-width:1;stroke:rgb(0,0,0);fill:none"/><line x1="138.59" y1="136.15999999999997" x2="123.81" y2="138.56999999999996" style="stroke-width:1;stroke:rgb(0,0,0);fill:none"/><line x1="123.81" y1="138.56999999999996" x2="121.4" y2="123.78999999999996" style="stroke-width:1;stroke:rgb(0,0,0);fill:none"/><line x1="121.4" y1="123.78999999999996" x2="136.18" y2="121.37999999999997" style="stroke-width:1;stroke:rgb(0,0,0);fill:none"/><line x1="136.18" y1="121.37999999999997" x2="138.59" y2="136.15999999999997" style="stroke-width:1;stroke:rgb(0,0,0);fill:none"/><line x1="138.59" y1="136.15999999999997" x2="136.74" y2="136.45999999999998" style="stroke-width:1;stroke:rgb(0,0,0);fill:none"/><line x1="136.74" y1="136.45999999999998" x2="123.51" y2="136.71999999999997" style="stroke-width:1;stroke:rgb(0,0,0);fill:none"/><line x1="123.51" y1="136.71999999999997" x2="123.25" y2="123.48999999999997" style="stroke-width:1;stroke:rgb(0,0,0);fill:none"/><line x1="123.25" y1="123.48999999999997" x2="136.48" y2="123.22999999999996" style="stroke-width:1;stroke:rgb(0,0,0);fill:none"/><line x1="136.48" y1="123.22999999999996" x2="136.73999999999998" y2="136.45999999999995" style="stroke-width:1;stroke:rgb(0,0,0);fill:none"/><line x1="136.73999999999998" y1="136.45999999999995" x2="135.08999999999997" y2="136.48999999999995" style="stroke-width:1;stroke:rgb(0,0,0);fill:none"/><line x1="135.08999999999997" y1="136.48999999999995" x2="123.47999999999998" y2="135.06999999999996" style="stroke-width:1;stroke:rgb(0,0,0);fill:none"/><line x1="123.47999999999998" y1="135.06999999999996" x2="124.89999999999998" y2="123.45999999999997" style="stroke-width:1;stroke:rgb(0,0,0);fill:none"/><line x1="124.89999999999998" y1="123.45999999999997" x2="136.51" y2="124.87999999999997" style="stroke-width:1;stroke:rgb(0,0,0);fill:none"/><line x1="136.51" y1="124.87999999999997" x2="135.09" y2="136.48999999999995" style="stroke-width:1;stroke:rgb(0,0,0);fill:none"/><line x1="135.09" y1="136.48999999999995" x2="133.64000000000001" y2="136.30999999999995" style="stroke-width:1;stroke:rgb(0,0,0);fill:none"/><line x1="132.39000000000001" y1="135.96999999999994" x2="123.99000000000001" y2="132.35999999999993" style="stroke-width:1;stroke:rgb(0,0,0);fill:none"/><line x1="123.99000000000001" y1="132.35999999999993" x2="127.60000000000001" y2="123.95999999999992" style="stroke-width:1;stroke:rgb(0,0,0);fill:none"/><line x1="127.60000000000001" y1="123.95999999999992" x2="136.0" y2="127.56999999999992" style="stroke-width:1;stroke:rgb(0,0,0);fill:none"/><line x1="136.0" y1="127.56999999999992" x2="132.39" y2="135.9699999999999" style="stroke-width:1;stroke:rgb(0,0,0);fill:none"/><line x1="132.39" y1="135.9699999999999" x2="131.33999999999997" y2="135.51999999999992" style="stroke-width:1;stroke:rgb(0,0,0);fill:none"/><line x1="131.33999999999997" y1="135.51999999999992" x2="124.43999999999997" y2="131.30999999999992" style="stroke-width:1;stroke:rgb(0,0,0);fill:none"/><line x1="124.43999999999997" y1="131.30999999999992" x2="128.64999999999998" y2="124.40999999999991" style="stroke-width:1;stroke:rgb(0,0,0);fill:none"/><line x1="128.64999999999998" y1="124.40999999999991" x2="135.54999999999998" y2="128.61999999999992" style="stroke-width:1;stroke:rgb(0,0,0);fill:none"/><line x1="135.54999999999998" y1="128.61999999999992" x2="131.33999999999997" y2="135.51999999999992" style="stroke-width:1;stroke:rgb(0,0,0);fill:none"/><line x1="131.33999999999997" y1="135.51999999999992" x2="130.47999999999996" y2="134.98999999999992" style="stroke-width:1;stroke:rgb(0,0,0);fill:none"/><line x1="130.47999999999996" y1="134.98999999999992" x2="124.96999999999996" y2="130.44999999999993" style="stroke-width:1;stroke:rgb(0,0,0);fill:none"/><line x1="124.96999999999996" y1="130.44999999999993" x2="129.50999999999996" y2="124.93999999999993" style="stroke-width:1;stroke:rgb(0,0,0);fill:none"/><line x1="129.50999999999996" y1="124.93999999999993" x2="135.01999999999995" y2="129.47999999999993" style="stroke-width:1;stroke:rgb(0,0,0);fill:none"/><line x1="135.01999999999995" y1="129.47999999999993" x2="130.47999999999996" y2="134.98999999999992" style="stroke-width:1;stroke:rgb(0,0,0);fill:none"/><line x1="130.47999999999996" y1="134.98999999999992" x2="129.78999999999996" y2="134.41999999999993" style="stroke-width:1;stroke:rgb(0,0,0);fill:none"/><line x1="129.78999999999996" y1="134.41999999999993" x2="125.53999999999996" y2="129.75999999999993" style="stroke-width:1;stroke:rgb(0,0,0);fill:none"/><line x1="125.53999999999996" y1="129.75999999999993" x2="130.19999999999996" y2="125.50999999999993" style="stroke-width:1;stroke:rgb(0,0,0);fill:none"/><line x1="130.19999999999996" y1="125.50999999999993" x2="134.44999999999996" y2="130.16999999999993" style="stroke-width:1;stroke:rgb(0,0,0);fill:none"/><line x1="134.44999999999996" y1="130.16999999999993" x2="129.78999999999996" y2="134.41999999999993" style="stroke-width:1;stroke:rgb(0,0,0);fill:none"/><line x1="129.78999999999996" y1="134.41999999999993" x2="129.25999999999996" y2="133.83999999999992" style="stroke-width:1;stroke:rgb(0,0,0);fill:none"/><line x1="128.86999999999995" y1="133.25999999999988" x2="126.69999999999995" y2="128.82999999999987" style="stroke-width:1;stroke:rgb(0,0,0);fill:none"/><line x1="126.69999999999995" y1="128.82999999999987" x2="131.12999999999994" y2="126.65999999999987" style="stroke-width:1;stroke:rgb(0,0,0);fill:none"/><line x1="131.12999999999994" y1="126.65999999999987" x2="133.29999999999993" y2="131.08999999999986" style="stroke-width:1;stroke:rgb(0,0,0);fill:none"/><line x1="133.29999999999993" y1="131.08999999999986" x2="128.86999999999992" y2="133.25999999999985" style="stroke-width:1;stroke:rgb(0,0,0);fill:none"/><line x1="128.86999999999992" y1="133.25999999999985" x2="128.5999999999999" y2="132.70999999999984" style="stroke-width:1;stroke:rgb(0,0,0);fill:none"/><line x1="128.5999999999999" y1="132.70999999999984" x2="127.2599999999999" y2="128.55999999999983" style="stroke-width:1;stroke:rgb(0,0,0);fill:none"/><line x1="127.2599999999999" y1="128.55999999999983" x2="131.4099999999999" y2="127.21999999999983" style="stroke-width:1;stroke:rgb(0,0,0);fill:none"/><line x1="131.4099999999999" y1="127.21999999999983" x2="132.74999999999991" y2="131.36999999999983" style="stroke-width:1;stroke:rgb(0,0,0);fill:none"/><line x1="132.74999999999991" y1="131.36999999999983" x2="128.5999999999999" y2="132.70999999999984" style="stroke-width:1;stroke:rgb(0,0,0);fill:none"/><line x1="128.5999999999999" y1="132.70999999999984" x2="128.42999999999992" y2="132.18999999999983" style="stroke-width:1;stroke:rgb(0,0,0);fill:none"/><line x1="128.42999999999992" y1="132.18999999999983" x2="127.76999999999992" y2="128.38999999999982" style="stroke-width:1;stroke:rgb(0,0,0);fill:none"/><line x1="127.76999999999992" y1="128.38999999999982" x2="131.56999999999994" y2="127.72999999999982" style="stroke-width:1;stroke:rgb(0,0,0);fill:none"/><line x1="131.56999999999994" y1="127.72999999999982" x2="132.22999999999993" y2="131.52999999999983" style="stroke-width:1;stroke:rgb(0,0,0);fill:none"/><line x1="132.22999999999993" y1="131.52999999999983" x2="128.42999999999992" y2="132.18999999999983" style="stroke-width:1;stroke:rgb(0,0,0);fill:none"/><line x1="128.42999999999992" y1="132.18999999999983" x2="128.3499999999999" y2="131.71999999999983" style="stroke-width:1;stroke:rgb(0,0,0);fill:none"/><line x1="128.3499999999999" y1="131.71999999999983" x2="128.24999999999991" y2="128.31999999999982" style="stroke-width:1;stroke:rgb(0,0,0);fill:none"/><line x1="128.24999999999991" y1="128.31999999999982" x2="131.64999999999992" y2="128.21999999999983" style="stroke-width:1;stroke:rgb(0,0,0);fill:none"/><line x1="131.64999999999992" y1="128.21999999999983" x2="131.74999999999991" y2="131.61999999999983" style="stroke-width:1;stroke:rgb(0,0,0);fill:none"/><line x1="131.74999999999991" y1="131.61999999999983" x2="128.3499999999999" y2="131.71999999999983" style="stroke-width:1;stroke:rgb(0,0,0);fill:none"/><line x1="128.3499999999999" y1="131.71999999999983" x2="128.33999999999992" y2="131.28999999999982" style="stroke-width:1;stroke:rgb(0,0,0);fill:none"/><line x1="128.3799999999999" y1="130.91999999999982" x2="129.0499999999999" y2="128.34999999999982" style="stroke-width:1;stroke:rgb(0,0,0);fill:none"/><line x1="129.0499999999999" y1="128.34999999999982" x2="131.6199999999999" y2="129.0199999999998" style="stroke-width:1;stroke:rgb(0,0,0);fill:none"/><line x1="131.6199999999999" y1="129.0199999999998" x2="130.9499999999999" y2="131.5899999999998" style="stroke-width:1;stroke:rgb(0,0,0);fill:none"/><line x1="130.9499999999999" y1="131.5899999999998" x2="128.3799999999999" y2="130.91999999999982" style="stroke-width:1;stroke:rgb(0,0,0);fill:none"/><line x1="128.3799999999999" y1="130.91999999999982" x2="128.45999999999992" y2="130.59999999999982" style="stroke-width:1;stroke:rgb(0,0,0);fill:none"/><line x1="128.45999999999992" y1="130.59999999999982" x2="129.36999999999992" y2="128.42999999999984" style="stroke-width:1;stroke:rgb(0,0,0);fill:none"/><line x1="129.36999999999992" y1="128.42999999999984" x2="131.5399999999999" y2="129.33999999999983" style="stroke-width:1;stroke:rgb(0,0,0);fill:none"/><line x1="131.5399999999999" y1="129.33999999999983" x2="130.6299999999999" y2="131.50999999999982" style="stroke-width:1;stroke:rgb(0,0,0);fill:none"/><line x1="130.6299999999999" y1="131.50999999999982" x2="128.45999999999992" y2="130.59999999999982" style="stroke-width:1;stroke:rgb(0,0,0);fill:none"/><line x1="128.45999999999992" y1="130.59999999999982" x2="128.56999999999994" y2="130.3299999999998" style="stroke-width:1;stroke:rgb(0,0,0);fill:none"/><line x1="128.56999999999994" y1="130.3299999999998" x2="129.62999999999994" y2="128.5499999999998" style="stroke-width:1;stroke:rgb(0,0,0);fill:none"/><line x1="129.62999999999994" y1="128.5499999999998" x2="131.40999999999994" y2="129.60999999999981" style="stroke-width:1;stroke:rgb(0,0,0);fill:none"/><line x1="131.40999999999994" y1="129.60999999999981" x2="130.34999999999994" y2="131.38999999999982" style="stroke-width:1;stroke:rgb(0,0,0);fill:none"/><line x1="130.34999999999994" y1="131.38999999999982" x2="128.56999999999994" y2="130.3299999999998" style="stroke-width:1;stroke:rgb(0,0,0);fill:none"/><line x1="128.56999999999994" y1="130.3299999999998" x2="128.69999999999993" y2="130.10999999999981" style="stroke-width:1;stroke:rgb(0,0,0);fill:none"/><line x1="128.69999999999993" y1="130.10999999999981" x2="129.84999999999994" y2="128.6799999999998" style="stroke-width:1;stroke:rgb(0,0,0);fill:none"/><line x1="129.84999999999994" y1="128.6799999999998" x2="131.27999999999994" y2="129.8299999999998" style="stroke-width:1;stroke:rgb(0,0,0);fill:none"/><line x1="131.27999999999994" y1="129.8299999999998" x2="130.12999999999994" y2="131.25999999999982" style="stroke-width:1;stroke:rgb(0,0,0);fill:none"/><line x1="130.12999999999994" y1="131.25999999999982" x2="128.69999999999993" y2="130.10999999999981" style="stroke-width:1;stroke:rgb(0,0,0);fill:none"/><line x1="128.69999999999993" y1="130.10999999999981" x2="128.83999999999992" y2="129.9299999999998" style="stroke-width:1;stroke:rgb(0,0,0);fill:none"/></svg>