<?xml version="1.0"?><!DOCTYPE svg PUBLIC "-//W3C//DTD util.SVG 1.0//EN" "http://www.w3.org/TR/2001/REC-util.SVG-20010904/DTD/svg10.dtd"><svg xmlns="http://www.w3.org/2000/svg" height="450" width="550" text-rendering="auto" shape-rendering="auto"><line x1="270.0" y1="0.0" x2="520.0" y2="433.01" style="stroke-width:1;stroke:rgb(0,0,0);fill:none"/><line x1="520.0" y1="433.01" x2="20.0" y2="433.01" style="stroke-width:1;stroke:rgb(0,0,0);fill:none"/><line x1="20.0" y1="433.01" x2="270.0" y2="0.0" style="stroke-width:1;stroke:rgb(0,0,0);fill:none"/><line x1="270.0" y1="12.03" x2="509.58000000000004" y2="427.0" style="stroke-width:1;stroke:rgb(0,0,0);fill:none"/><line x1="509.58000000000004" y1="427.0" x2="30.410000000000025" y2="427.0" style="stroke-width:1;stroke:rgb(0,0,0);fill:none"/><line x1="30.410000000000025" y1="427.0" x2="269.99" y2="12.029999999999973" style="stroke-width:1;stroke:rgb(0,0,0);fill:none"/><line x1="269.99" y1="24.059999999999974" x2="499.15999999999997" y2="420.99" style="stroke-width:1;stroke:rgb(0,0,0);fill:none"/><line x1="499.15999999999997" y1="420.99" x2="40.829999999999984" y2="420.99" style="stroke-width:1;stroke:rgb(0,0,0);fill:none"/><line x1="40.829999999999984" y1="420.99" x2="270.0" y2="24.060000000000002" style="stroke-width:1;stroke:rgb(0,0,0);fill:none"/><line x1="270.0" y1="36.09" x2="488.75" y2="414.98" style="stroke-width:1;stroke:rgb(0,0,0);fill:none"/><line x1="488.75" y1="414.98" x2="51.25" y2="414.98" style="stroke-width:1;stroke:rgb(0,0,0);fill:none"/><line x1="51.25" y1="414.98" x2="270.0" y2="36.09000000000003" style="stroke-width:1;stroke:rgb(0,0,0);fill:none"/><line x1="269.99" y1="60.15000000000006" x2="467.90999999999997" y2="402.95000000000005" style="stroke-width:1;stroke:rgb(0,0,0);fill:none"/><line x1="467.90999999999997" y1="402.95000000000005" x2="72.07999999999998" y2="402.95000000000005" style="stroke-width:1;stroke:rgb(0,0,0);fill:none"/><line x1="72.07999999999998" y1="402.95000000000005" x2="270.0" y2="60.150000000000034" style="stroke-width:1;stroke:rgb(0,0,0);fill:none"/><line x1="270.0" y1="72.18000000000004" x2="457.5" y2="396.94000000000005" style="stroke-width:1;stroke:rgb(0,0,0);fill:none"/><line x1="457.5" y1="396.94000000000005" x2="82.5" y2="396.94000000000005" style="stroke-width:1;stroke:rgb(0,0,0);fill:none"/><line x1="82.5" y1="396.94000000000005" x2="270.0" y2="72.18000000000006" style="stroke-width:1;stroke:rgb(0,0,0);fill:none"/><line x1="270.0" y1="84.21000000000006" x2="447.08000000000004" y2="390.93000000000006" style="stroke-width:1;stroke:rgb(0,0,0);fill:none"/><line x1="447.08000000000004" y1="390.93000000000006" x2="92.91000000000003" y2="390.93000000000006" style="stroke-width:1;stroke:rgb(0,0,0);fill:none"/><line x1="92.91000000000003" y1="390.93000000000006" x2="269.99" y2="84.21000000000004" style="stroke-width:1;stroke:rgb(0,0,0);fill:none"/><line x1="269.99" y1="96.24000000000004" x2="436.65999999999997" y2="384.9200000000001" style="stroke-width:1;stroke:rgb(0,0,0);fill:none"/><line x1="436.65999999999997" y1="384.9200000000001" x2="103.32999999999998" y2="384.9200000000001" style="stroke-width:1;stroke:rgb(0,0,0);fill:none"/><line x1="103.32999999999998" y1="384.9200000000001" x2="270.0" y2="96.24000000000007" style="stroke-width:1;stroke:rgb(0,0,0);fill:none"/><line x1="270.0" y1="120.3000000000001" x2="415.83000000000004" y2="372.8900000000001" style="stroke-width:1;stroke:rgb(0,0,0);fill:none"/><line x1="415.83000000000004" y1="372.8900000000001" x2="124.16000000000003" y2="372.8900000000001" style="stroke-width:1;stroke:rgb(0,0,0);fill:none"/><line x1="124.16000000000003" y1="372.8900000000001" x2="269.99" y2="120.3000000000001" style="stroke-width:1;stroke:rgb(0,0,0);fill:none"/><line x1="269.99" y1="132.3300000000001" x2="405.40999999999997" y2="366.8800000000001" style="stroke-width:1;stroke:rgb(0,0,0);fill:none"/><line x1="405.40999999999997" y1="366.8800000000001" x2="134.57999999999998" y2="366.8800000000001" style="stroke-width:1;stroke:rgb(0,0,0);fill:none"/><line x1="134.57999999999998" y1="366.8800000000001" x2="270.0" y2="132.3300000000001" style="stroke-width:1;stroke:rgb(0,0,0);fill:none"/><line x1="270.0" y1="144.3600000000001" x2="395.0" y2="360.8700000000001" style="stroke-width:1;stroke:rgb(0,0,0);fill:none"/><line x1="395.0" y1="360.8700000000001" x2="145.0" y2="360.8700000000001" style="stroke-width:1;stroke:rgb(0,0,0);fill:none"/><line x1="145.0" y1="360.8700000000001" x2="270.0" y2="144.36000000000013" style="stroke-width:1;stroke:rgb(0,0,0);fill:none"/><line x1="270.0" y1="156.39000000000013" x2="384.58" y2="354.85000000000014" style="stroke-width:1;stroke:rgb(0,0,0);fill:none"/><line x1="384.58" y1="354.85000000000014" x2="155.41" y2="354.85000000000014" style="stroke-width:1;stroke:rgb(0,0,0);fill:none"/><line x1="155.41" y1="354.85000000000014" x2="269.99" y2="156.39000000000013" style="stroke-width:1;stroke:rgb(0,0,0);fill:none"/><line x1="270.0" y1="180.45000000000016" x2="363.75" y2="342.83000000000015" style="stroke-width:1;stroke:rgb(0,0,0);fill:none"/><line x1="363.75" y1="342.83000000000015" x2="176.25" y2="342.83000000000015" style="stroke-width:1;stroke:rgb(0,0,0);fill:none"/><line x1="176.25" y1="342.83000000000015" x2="270.0" y2="180.45000000000016" style="stroke-width:1;stroke:rgb(0,0,0);fill:none"/><line x1="270.0" y1="192.48000000000016" x2="353.33" y2="336.82000000000016" style="stroke-width:1;stroke:rgb(0,0,0);fill:none"/><line x1="353.33" y1="336.82000000000016" x2="186.66" y2="336.82000000000016" style="stroke-width:1;stroke:rgb(0,0,0);fill:none"/><line x1="186.66" y1="336.82000000000016" x2="269.99" y2="192.48000000000016" style="stroke-width:1;stroke:rgb(0,0,0);fill:none"/><line x1="269.99" y1="204.51000000000016" x2="342.91" y2="330.8100000000002" style="stroke-width:1;stroke:rgb(0,0,0);fill:none"/><line x1="342.91" y1="330.8100000000002" x2="197.08" y2="330.8100000000002" style="stroke-width:1;stroke:rgb(0,0,0);fill:none"/><line x1="197.08" y1="330.8100000000002" x2="270.0" y2="204.51000000000016" style="stroke-width:1;stroke:rgb(0,0,0);fill:none"/><line x1="270.0" y1="216.54000000000016" x2="332.5" y2="324.7900000000002" style="stroke-width:1;stroke:rgb(0,0,0);fill:none"/><line x1="332.5" y1="324.7900000000002" x2="207.5" y2="324.7900000000002" style="stroke-width:1;stroke:rgb(0,0,0);fill:none"/><line x1="207.5" y1="324.7900000000002" x2="270.0" y2="216.5400000000002" style="stroke-width:1;stroke:rgb(0,0,0);fill:none"/><line x1="269.98999999999995" y1="240.60000000000022" x2="311.65999999999997" y2="312.7700000000002" style="stroke-width:1;stroke:rgb(0,0,0);fill:none"/><line x1="311.65999999999997" y1="312.7700000000002" x2="228.32999999999998" y2="312.7700000000002" style="stroke-width:1;stroke:rgb(0,0,0);fill:none"/><line x1="228.32999999999998" y1="312.7700000000002" x2="270.0" y2="240.6000000000002" style="stroke-width:1;stroke:rgb(0,0,0);fill:none"/><line x1="270.0" y1="252.6300000000002" x2="301.25" y2="306.7600000000002" style="stroke-width:1;stroke:rgb(0,0,0);fill:none"/><line x1="301.25" y1="306.7600000000002" x2="238.75" y2="306.7600000000002" style="stroke-width:1;stroke:rgb(0,0,0);fill:none"/><line x1="238.75" y1="306.7600000000002" x2="270.0" y2="252.63000000000022" style="stroke-width:1;stroke:rgb(0,0,0);fill:none"/><line x1="270.0" y1="264.6600000000002" x2="290.83" y2="300.7400000000002" style="stroke-width:1;stroke:rgb(0,0,0);fill:none"/><line x1="290.83" y1="300.7400000000002" x2="249.15999999999997" y2="300.7400000000002" style="stroke-width:1;stroke:rgb(0,0,0);fill:none"/><line x1="249.15999999999997" y1="300.7400000000002" x2="269.98999999999995" y2="264.6600000000002" style="stroke-width:1;stroke:rgb(0,0,0);fill:none"/><line x1="269.98999999999995" y1="276.69000000000017" x2="280.40999999999997" y2="294.7300000000002" style="stroke-width:1;stroke:rgb(0,0,0);fill:none"/><line x1="280.40999999999997" y1="294.7300000000002" x2="259.58" y2="294.7300000000002" style="stroke-width:1;stroke:rgb(0,0,0);fill:none"/><line x1="259.58" y1="294.7300000000002" x2="270.0" y2="276.69000000000017" style="stroke-width:1;stroke:rgb(0,0,0);fill:none"/></svg>