<?xml version="1.0"?><!DOCTYPE svg PUBLIC "-//W3C//DTD util.SVG 1.0//EN" "http://www.w3.org/TR/2001/REC-util.SVG-20010904/DTD/svg10.dtd"><svg xmlns="http://www.w3.org/2000/svg" height="1000" width="1000" text-rendering="auto" shape-rendering="auto"><line x1="30.0" y1="30.0" x2="330.0" y2="30.0" style="stroke-width:1;stroke:rgb(0,0,0);fill:none"/><line x1="330.0" y1="30.0" x2="330.0" y2="330.0" style="stroke-width:1;stroke:rgb(0,0,0);fill:none"/><line x1="330.0" y1="330.0" x2="30.0" y2="330.0" style="stroke-width:1;stroke:rgb(0,0,0);fill:none"/><line x1="30.0" y1="330.0" x2="30.0" y2="30.0" style="stroke-width:1;stroke:rgb(0,0,0);fill:none"/><line x1="30.0" y1="30.0" x2="67.5" y2="30.0" style="stroke-width:1;stroke:rgb(0,0,0);fill:none"/><line x1="67.5" y1="30.0" x2="330.0" y2="67.5" style="stroke-width:1;stroke:rgb(0,0,0);fill:none"/><line x1="330.0" y1="67.5" x2="292.5" y2="330.0" style="stroke-width:1;stroke:rgb(0,0,0);fill:none"/><line x1="292.5" y1="330.0" x2="30.0" y2="292.5" style="stroke-width:1;stroke:rgb(0,0,0);fill:none"/><line x1="30.0" y1="292.5" x2="67.5" y2="30.0" style="stroke-width:1;stroke:rgb(0,0,0);fill:none"/><line x1="67.5" y1="30.0" x2="100.31" y2="34.69" style="stroke-width:1;stroke:rgb(0,0,0);fill:none"/><line x1="100.31" y1="34.69" x2="325.31" y2="100.31" style="stroke-width:1;stroke:rgb(0,0,0);fill:none"/><line x1="325.31" y1="100.31" x2="259.69" y2="325.31" style="stroke-width:1;stroke:rgb(0,0,0);fill:none"/><line x1="259.69" y1="325.31" x2="34.69" y2="259.69" style="stroke-width:1;stroke:rgb(0,0,0);fill:none"/><line x1="34.69" y1="259.69" x2="100.31" y2="34.69" style="stroke-width:1;stroke:rgb(0,0,0);fill:none"/><line x1="100.31" y1="34.69" x2="128.44" y2="42.89" style="stroke-width:1;stroke:rgb(0,0,0);fill:none"/><line x1="128.44" y1="42.89" x2="317.11" y2="128.44" style="stroke-width:1;stroke:rgb(0,0,0);fill:none"/><line x1="317.11" y1="128.44" x2="231.56" y2="317.11" style="stroke-width:1;stroke:rgb(0,0,0);fill:none"/><line x1="231.56" y1="317.11" x2="42.890000000000015" y2="231.56" style="stroke-width:1;stroke:rgb(0,0,0);fill:none"/><line x1="42.890000000000015" y1="231.56" x2="128.44" y2="42.890000000000015" style="stroke-width:1;stroke:rgb(0,0,0);fill:none"/><line x1="128.44" y1="42.890000000000015" x2="152.01999999999998" y2="53.58000000000001" style="stroke-width:1;stroke:rgb(0,0,0);fill:none"/><line x1="171.32" y1="65.87999999999998" x2="294.11" y2="171.31" style="stroke-width:1;stroke:rgb(0,0,0);fill:none"/><line x1="294.11" y1="171.31" x2="188.68" y2="294.1" style="stroke-width:1;stroke:rgb(0,0,0);fill:none"/><line x1="188.68" y1="294.1" x2="65.89" y2="188.67000000000002" style="stroke-width:1;stroke:rgb(0,0,0);fill:none"/><line x1="65.89" y1="188.67000000000002" x2="171.32" y2="65.88000000000001" style="stroke-width:1;stroke:rgb(0,0,0);fill:none"/><line x1="171.32" y1="65.88000000000001" x2="186.67" y2="79.06" style="stroke-width:1;stroke:rgb(0,0,0);fill:none"/><line x1="186.67" y1="79.06" x2="280.93" y2="186.66" style="stroke-width:1;stroke:rgb(0,0,0);fill:none"/><line x1="280.93" y1="186.66" x2="173.33" y2="280.92" style="stroke-width:1;stroke:rgb(0,0,0);fill:none"/><line x1="173.33" y1="280.92" x2="79.07000000000001" y2="173.32000000000002" style="stroke-width:1;stroke:rgb(0,0,0);fill:none"/><line x1="79.07000000000001" y1="173.32000000000002" x2="186.67000000000002" y2="79.06000000000002" style="stroke-width:1;stroke:rgb(0,0,0);fill:none"/><line x1="186.67000000000002" y1="79.06000000000002" x2="198.45000000000002" y2="92.51000000000002" style="stroke-width:1;stroke:rgb(0,0,0);fill:none"/><line x1="198.45000000000002" y1="92.51000000000002" x2="267.48" y2="198.44000000000003" style="stroke-width:1;stroke:rgb(0,0,0);fill:none"/><line x1="267.48" y1="198.44000000000003" x2="161.55" y2="267.47" style="stroke-width:1;stroke:rgb(0,0,0);fill:none"/><line x1="161.55" y1="267.47" x2="92.52000000000001" y2="161.54000000000002" style="stroke-width:1;stroke:rgb(0,0,0);fill:none"/><line x1="92.52000000000001" y1="161.54000000000002" x2="198.45000000000002" y2="92.51000000000002" style="stroke-width:1;stroke:rgb(0,0,0);fill:none"/><line x1="198.45000000000002" y1="92.51000000000002" x2="207.08" y2="105.75000000000001" style="stroke-width:1;stroke:rgb(0,0,0);fill:none"/><line x1="207.08" y1="105.75000000000001" x2="254.24" y2="207.07" style="stroke-width:1;stroke:rgb(0,0,0);fill:none"/><line x1="254.24" y1="207.07" x2="152.92000000000002" y2="254.23" style="stroke-width:1;stroke:rgb(0,0,0);fill:none"/><line x1="152.92000000000002" y1="254.23" x2="105.76000000000002" y2="152.91" style="stroke-width:1;stroke:rgb(0,0,0);fill:none"/><line x1="105.76000000000002" y1="152.91" x2="207.08" y2="105.75" style="stroke-width:1;stroke:rgb(0,0,0);fill:none"/><line x1="207.08" y1="105.75" x2="212.97" y2="118.42" style="stroke-width:1;stroke:rgb(0,0,0);fill:none"/><line x1="216.53999999999996" y1="130.23999999999998" x2="229.74999999999997" y2="216.54999999999998" style="stroke-width:1;stroke:rgb(0,0,0);fill:none"/><line x1="229.74999999999997" y1="216.54999999999998" x2="143.43999999999997" y2="229.76" style="stroke-width:1;stroke:rgb(0,0,0);fill:none"/><line x1="143.43999999999997" y1="229.76" x2="130.22999999999996" y2="143.45" style="stroke-width:1;stroke:rgb(0,0,0);fill:none"/><line x1="130.22999999999996" y1="143.45" x2="216.53999999999996" y2="130.23999999999998" style="stroke-width:1;stroke:rgb(0,0,0);fill:none"/><line x1="216.53999999999996" y1="130.23999999999998" x2="218.18999999999997" y2="141.02999999999997" style="stroke-width:1;stroke:rgb(0,0,0);fill:none"/><line x1="218.18999999999997" y1="141.02999999999997" x2="218.95999999999998" y2="218.2" style="stroke-width:1;stroke:rgb(0,0,0);fill:none"/><line x1="218.95999999999998" y1="218.2" x2="141.78999999999996" y2="218.97" style="stroke-width:1;stroke:rgb(0,0,0);fill:none"/><line x1="141.78999999999996" y1="218.97" x2="141.01999999999995" y2="141.8" style="stroke-width:1;stroke:rgb(0,0,0);fill:none"/><line x1="141.01999999999995" y1="141.8" x2="218.18999999999994" y2="141.03" style="stroke-width:1;stroke:rgb(0,0,0);fill:none"/><line x1="218.18999999999994" y1="141.03" x2="218.28999999999994" y2="150.68" style="stroke-width:1;stroke:rgb(0,0,0);fill:none"/><line x1="218.28999999999994" y1="150.68" x2="209.30999999999995" y2="218.3" style="stroke-width:1;stroke:rgb(0,0,0);fill:none"/><line x1="209.30999999999995" y1="218.3" x2="141.68999999999994" y2="209.32000000000002" style="stroke-width:1;stroke:rgb(0,0,0);fill:none"/><line x1="141.68999999999994" y1="209.32000000000002" x2="150.66999999999993" y2="141.70000000000002" style="stroke-width:1;stroke:rgb(0,0,0);fill:none"/><line x1="150.66999999999993" y1="141.70000000000002" x2="218.28999999999994" y2="150.68" style="stroke-width:1;stroke:rgb(0,0,0);fill:none"/><line x1="218.28999999999994" y1="150.68" x2="217.16999999999993" y2="159.13" style="stroke-width:1;stroke:rgb(0,0,0);fill:none"/><line x1="217.16999999999993" y1="159.13" x2="200.85999999999993" y2="217.17" style="stroke-width:1;stroke:rgb(0,0,0);fill:none"/><line x1="200.85999999999993" y1="217.17" x2="142.81999999999994" y2="200.85999999999999" style="stroke-width:1;stroke:rgb(0,0,0);fill:none"/><line x1="142.81999999999994" y1="200.85999999999999" x2="159.12999999999994" y2="142.82" style="stroke-width:1;stroke:rgb(0,0,0);fill:none"/><line x1="159.12999999999994" y1="142.82" x2="217.16999999999993" y2="159.13" style="stroke-width:1;stroke:rgb(0,0,0);fill:none"/><line x1="217.16999999999993" y1="159.13" x2="215.12999999999994" y2="166.39" style="stroke-width:1;stroke:rgb(0,0,0);fill:none"/><line x1="212.43999999999994" y1="172.48" x2="187.50999999999993" y2="212.45" style="stroke-width:1;stroke:rgb(0,0,0);fill:none"/><line x1="187.50999999999993" y1="212.45" x2="147.53999999999994" y2="187.51999999999998" style="stroke-width:1;stroke:rgb(0,0,0);fill:none"/><line x1="147.53999999999994" y1="187.51999999999998" x2="172.46999999999994" y2="147.54999999999998" style="stroke-width:1;stroke:rgb(0,0,0);fill:none"/><line x1="172.46999999999994" y1="147.54999999999998" x2="212.43999999999994" y2="172.48" style="stroke-width:1;stroke:rgb(0,0,0);fill:none"/><line x1="212.43999999999994" y1="172.48" x2="209.31999999999994" y2="177.48" style="stroke-width:1;stroke:rgb(0,0,0);fill:none"/><line x1="209.31999999999994" y1="177.48" x2="182.50999999999993" y2="209.32999999999998" style="stroke-width:1;stroke:rgb(0,0,0);fill:none"/><line x1="182.50999999999993" y1="209.32999999999998" x2="150.65999999999994" y2="182.51999999999998" style="stroke-width:1;stroke:rgb(0,0,0);fill:none"/><line x1="150.65999999999994" y1="182.51999999999998" x2="177.46999999999994" y2="150.67" style="stroke-width:1;stroke:rgb(0,0,0);fill:none"/><line x1="177.46999999999994" y1="150.67" x2="209.31999999999994" y2="177.48" style="stroke-width:1;stroke:rgb(0,0,0);fill:none"/><line x1="209.31999999999994" y1="177.48" x2="205.96999999999994" y2="181.45999999999998" style="stroke-width:1;stroke:rgb(0,0,0);fill:none"/><line x1="205.96999999999994" y1="181.45999999999998" x2="178.52999999999994" y2="205.98" style="stroke-width:1;stroke:rgb(0,0,0);fill:none"/><line x1="178.52999999999994" y1="205.98" x2="154.00999999999993" y2="178.54" style="stroke-width:1;stroke:rgb(0,0,0);fill:none"/><line x1="154.00999999999993" y1="178.54" x2="181.44999999999993" y2="154.01999999999998" style="stroke-width:1;stroke:rgb(0,0,0);fill:none"/><line x1="181.44999999999993" y1="154.01999999999998" x2="205.96999999999994" y2="181.45999999999998" style="stroke-width:1;stroke:rgb(0,0,0);fill:none"/><line x1="205.96999999999994" y1="181.45999999999998" x2="202.53999999999994" y2="184.52999999999997" style="stroke-width:1;stroke:rgb(0,0,0);fill:none"/><line x1="202.53999999999994" y1="184.52999999999997" x2="175.46999999999994" y2="202.55999999999997" style="stroke-width:1;stroke:rgb(0,0,0);fill:none"/><line x1="175.46999999999994" y1="202.55999999999997" x2="157.43999999999994" y2="175.48999999999998" style="stroke-width:1;stroke:rgb(0,0,0);fill:none"/><line x1="157.43999999999994" y1="175.48999999999998" x2="184.50999999999993" y2="157.45999999999998" style="stroke-width:1;stroke:rgb(0,0,0);fill:none"/><line x1="184.50999999999993" y1="157.45999999999998" x2="202.53999999999994" y2="184.52999999999997" style="stroke-width:1;stroke:rgb(0,0,0);fill:none"/><line x1="202.53999999999994" y1="184.52999999999997" x2="199.15999999999994" y2="186.77999999999997" style="stroke-width:1;stroke:rgb(0,0,0);fill:none"/><line x1="195.9199999999999" y1="188.32999999999998" x2="171.6699999999999" y2="195.92999999999998" style="stroke-width:1;stroke:rgb(0,0,0);fill:none"/><line x1="171.6699999999999" y1="195.92999999999998" x2="164.0699999999999" y2="171.67999999999998" style="stroke-width:1;stroke:rgb(0,0,0);fill:none"/><line x1="164.0699999999999" y1="171.67999999999998" x2="188.3199999999999" y2="164.07999999999998" style="stroke-width:1;stroke:rgb(0,0,0);fill:none"/><line x1="188.3199999999999" y1="164.07999999999998" x2="195.9199999999999" y2="188.32999999999998" style="stroke-width:1;stroke:rgb(0,0,0);fill:none"/><line x1="195.9199999999999" y1="188.32999999999998" x2="192.8899999999999" y2="189.27999999999997" style="stroke-width:1;stroke:rgb(0,0,0);fill:none"/><line x1="192.8899999999999" y1="189.27999999999997" x2="170.7199999999999" y2="192.89999999999998" style="stroke-width:1;stroke:rgb(0,0,0);fill:none"/><line x1="170.7199999999999" y1="192.89999999999998" x2="167.0999999999999" y2="170.72999999999996" style="stroke-width:1;stroke:rgb(0,0,0);fill:none"/><line x1="167.0999999999999" y1="170.72999999999996" x2="189.26999999999992" y2="167.10999999999996" style="stroke-width:1;stroke:rgb(0,0,0);fill:none"/><line x1="189.26999999999992" y1="167.10999999999996" x2="192.88999999999993" y2="189.27999999999997" style="stroke-width:1;stroke:rgb(0,0,0);fill:none"/><line x1="192.88999999999993" y1="189.27999999999997" x2="190.11999999999992" y2="189.72999999999996" style="stroke-width:1;stroke:rgb(0,0,0);fill:none"/><line x1="190.11999999999992" y1="189.72999999999996" x2="170.26999999999992" y2="190.11999999999995" style="stroke-width:1;stroke:rgb(0,0,0);fill:none"/><line x1="170.26999999999992" y1="190.11999999999995" x2="169.87999999999994" y2="170.26999999999995" style="stroke-width:1;stroke:rgb(0,0,0);fill:none"/><line x1="169.87999999999994" y1="170.26999999999995" x2="189.72999999999993" y2="169.87999999999997" style="stroke-width:1;stroke:rgb(0,0,0);fill:none"/><line x1="189.72999999999993" y1="169.87999999999997" x2="190.11999999999992" y2="189.72999999999996" style="stroke-width:1;stroke:rgb(0,0,0);fill:none"/><line x1="190.11999999999992" y1="189.72999999999996" x2="187.63999999999993" y2="189.77999999999997" style="stroke-width:1;stroke:rgb(0,0,0);fill:none"/><line x1="187.63999999999993" y1="189.77999999999997" x2="170.2199999999999" y2="187.64" style="stroke-width:1;stroke:rgb(0,0,0);fill:none"/><line x1="170.2199999999999" y1="187.64" x2="172.3599999999999" y2="170.21999999999997" style="stroke-width:1;stroke:rgb(0,0,0);fill:none"/><line x1="172.3599999999999" y1="170.21999999999997" x2="189.77999999999992" y2="172.35999999999996" style="stroke-width:1;stroke:rgb(0,0,0);fill:none"/><line x1="189.77999999999992" y1="172.35999999999996" x2="187.63999999999993" y2="189.77999999999997" style="stroke-width:1;stroke:rgb(0,0,0);fill:none"/><line x1="187.63999999999993" y1="189.77999999999997" x2="185.45999999999992" y2="189.50999999999996" style="stroke-width:1;stroke:rgb(0,0,0);fill:none"/><line x1="183.58999999999992" y1="188.99999999999997" x2="170.98999999999992" y2="183.58999999999997" style="stroke-width:1;stroke:rgb(0,0,0);fill:none"/><line x1="170.98999999999992" y1="183.58999999999997" x2="176.39999999999992" y2="170.98999999999998" style="stroke-width:1;stroke:rgb(0,0,0);fill:none"/><line x1="176.39999999999992" y1="170.98999999999998" x2="188.99999999999991" y2="176.39999999999998" style="stroke-width:1;stroke:rgb(0,0,0);fill:none"/><line x1="188.99999999999991" y1="176.39999999999998" x2="183.58999999999992" y2="188.99999999999997" style="stroke-width:1;stroke:rgb(0,0,0);fill:none"/><line x1="183.58999999999992" y1="188.99999999999997" x2="182.01999999999992" y2="188.31999999999996" style="stroke-width:1;stroke:rgb(0,0,0);fill:none"/><line x1="182.01999999999992" y1="188.31999999999996" x2="171.67999999999992" y2="182.00999999999996" style="stroke-width:1;stroke:rgb(0,0,0);fill:none"/><line x1="171.67999999999992" y1="182.00999999999996" x2="177.98999999999992" y2="171.66999999999996" style="stroke-width:1;stroke:rgb(0,0,0);fill:none"/><line x1="177.98999999999992" y1="171.66999999999996" x2="188.32999999999993" y2="177.97999999999996" style="stroke-width:1;stroke:rgb(0,0,0);fill:none"/><line x1="188.32999999999993" y1="177.97999999999996" x2="182.01999999999992" y2="188.31999999999996" style="stroke-width:1;stroke:rgb(0,0,0);fill:none"/><line x1="182.01999999999992" y1="188.31999999999996" x2="180.72999999999993" y2="187.52999999999997" style="stroke-width:1;stroke:rgb(0,0,0);fill:none"/><line x1="180.72999999999993" y1="187.52999999999997" x2="172.46999999999994" y2="180.71999999999997" style="stroke-width:1;stroke:rgb(0,0,0);fill:none"/><line x1="172.46999999999994" y1="180.71999999999997" x2="179.27999999999994" y2="172.45999999999998" style="stroke-width:1;stroke:rgb(0,0,0);fill:none"/><line x1="179.27999999999994" y1="172.45999999999998" x2="187.53999999999994" y2="179.26999999999998" style="stroke-width:1;stroke:rgb(0,0,0);fill:none"/><line x1="187.53999999999994" y1="179.26999999999998" x2="180.72999999999993" y2="187.52999999999997" style="stroke-width:1;stroke:rgb(0,0,0);fill:none"/><line x1="180.72999999999993" y1="187.52999999999997" x2="179.69999999999993" y2="186.67999999999998" style="stroke-width:1;stroke:rgb(0,0,0);fill:none"/><line x1="179.69999999999993" y1="186.67999999999998" x2="173.31999999999994" y2="179.67999999999998" style="stroke-width:1;stroke:rgb(0,0,0);fill:none"/><line x1="173.31999999999994" y1="179.67999999999998" x2="180.31999999999994" y2="173.29999999999998" style="stroke-width:1;stroke:rgb(0,0,0);fill:none"/><line x1="180.31999999999994" y1="173.29999999999998" x2="186.69999999999993" y2="180.29999999999998" style="stroke-width:1;stroke:rgb(0,0,0);fill:none"/><line x1="186.69999999999993" y1="180.29999999999998" x2="179.69999999999993" y2="186.67999999999998" style="stroke-width:1;stroke:rgb(0,0,0);fill:none"/><line x1="179.69999999999993" y1="186.67999999999998" x2="178.89999999999992" y2="185.80999999999997" style="stroke-width:1;stroke:rgb(0,0,0);fill:none"/><line x1="178.30999999999992" y1="184.94999999999996" x2="175.05999999999992" y2="178.30999999999997" style="stroke-width:1;stroke:rgb(0,0,0);fill:none"/><line x1="175.05999999999992" y1="178.30999999999997" x2="181.6999999999999" y2="175.05999999999997" style="stroke-width:1;stroke:rgb(0,0,0);fill:none"/><line x1="181.6999999999999" y1="175.05999999999997" x2="184.9499999999999" y2="181.69999999999996" style="stroke-width:1;stroke:rgb(0,0,0);fill:none"/><line x1="184.9499999999999" y1="181.69999999999996" x2="178.30999999999992" y2="184.94999999999996" style="stroke-width:1;stroke:rgb(0,0,0);fill:none"/><line x1="178.30999999999992" y1="184.94999999999996" x2="177.89999999999992" y2="184.11999999999995" style="stroke-width:1;stroke:rgb(0,0,0);fill:none"/><line x1="177.89999999999992" y1="184.11999999999995" x2="175.8799999999999" y2="177.89999999999995" style="stroke-width:1;stroke:rgb(0,0,0);fill:none"/><line x1="175.8799999999999" y1="177.89999999999995" x2="182.0999999999999" y2="175.87999999999994" style="stroke-width:1;stroke:rgb(0,0,0);fill:none"/><line x1="182.0999999999999" y1="175.87999999999994" x2="184.11999999999992" y2="182.09999999999994" style="stroke-width:1;stroke:rgb(0,0,0);fill:none"/><line x1="184.11999999999992" y1="182.09999999999994" x2="177.89999999999992" y2="184.11999999999995" style="stroke-width:1;stroke:rgb(0,0,0);fill:none"/><line x1="177.89999999999992" y1="184.11999999999995" x2="177.64999999999992" y2="183.33999999999995" style="stroke-width:1;stroke:rgb(0,0,0);fill:none"/><line x1="177.64999999999992" y1="183.33999999999995" x2="176.6599999999999" y2="177.64999999999995" style="stroke-width:1;stroke:rgb(0,0,0);fill:none"/><line x1="176.6599999999999" y1="177.64999999999995" x2="182.3499999999999" y2="176.65999999999994" style="stroke-width:1;stroke:rgb(0,0,0);fill:none"/><line x1="182.3499999999999" y1="176.65999999999994" x2="183.33999999999992" y2="182.34999999999994" style="stroke-width:1;stroke:rgb(0,0,0);fill:none"/><line x1="183.33999999999992" y1="182.34999999999994" x2="177.64999999999992" y2="183.33999999999995" style="stroke-width:1;stroke:rgb(0,0,0);fill:none"/><line x1="177.64999999999992" y1="183.33999999999995" x2="177.52999999999992" y2="182.62999999999994" style="stroke-width:1;stroke:rgb(0,0,0);fill:none"/><line x1="177.52999999999992" y1="182.62999999999994" x2="177.3799999999999" y2="177.52999999999994" style="stroke-width:1;stroke:rgb(0,0,0);fill:none"/><line x1="177.3799999999999" y1="177.52999999999994" x2="182.4799999999999" y2="177.37999999999994" style="stroke-width:1;stroke:rgb(0,0,0);fill:none"/><line x1="182.4799999999999" y1="177.37999999999994" x2="182.6299999999999" y2="182.47999999999993" style="stroke-width:1;stroke:rgb(0,0,0);fill:none"/><line x1="182.6299999999999" y1="182.47999999999993" x2="177.52999999999992" y2="182.62999999999994" style="stroke-width:1;stroke:rgb(0,0,0);fill:none"/><line x1="177.52999999999992" y1="182.62999999999994" x2="177.5099999999999" y2="181.98999999999995" style="stroke-width:1;stroke:rgb(0,0,0);fill:none"/><line x1="177.5699999999999" y1="181.42999999999995" x2="178.5699999999999" y2="177.56999999999994" style="stroke-width:1;stroke:rgb(0,0,0);fill:none"/><line x1="178.5699999999999" y1="177.56999999999994" x2="182.42999999999992" y2="178.56999999999994" style="stroke-width:1;stroke:rgb(0,0,0);fill:none"/><line x1="182.42999999999992" y1="178.56999999999994" x2="181.42999999999992" y2="182.42999999999995" style="stroke-width:1;stroke:rgb(0,0,0);fill:none"/><line x1="181.42999999999992" y1="182.42999999999995" x2="177.5699999999999" y2="181.42999999999995" style="stroke-width:1;stroke:rgb(0,0,0);fill:none"/><line x1="177.5699999999999" y1="181.42999999999995" x2="177.6999999999999" y2="180.94999999999996" style="stroke-width:1;stroke:rgb(0,0,0);fill:none"/><line x1="177.6999999999999" y1="180.94999999999996" x2="179.05999999999992" y2="177.69999999999996" style="stroke-width:1;stroke:rgb(0,0,0);fill:none"/><line x1="179.05999999999992" y1="177.69999999999996" x2="182.30999999999992" y2="179.05999999999997" style="stroke-width:1;stroke:rgb(0,0,0);fill:none"/><line x1="182.30999999999992" y1="179.05999999999997" x2="180.9499999999999" y2="182.30999999999997" style="stroke-width:1;stroke:rgb(0,0,0);fill:none"/><line x1="180.9499999999999" y1="182.30999999999997" x2="177.6999999999999" y2="180.94999999999996" style="stroke-width:1;stroke:rgb(0,0,0);fill:none"/><line x1="177.6999999999999" y1="180.94999999999996" x2="177.8699999999999" y2="180.53999999999996" style="stroke-width:1;stroke:rgb(0,0,0);fill:none"/><line x1="177.8699999999999" y1="180.53999999999996" x2="179.46999999999989" y2="177.85999999999996" style="stroke-width:1;stroke:rgb(0,0,0);fill:none"/><line x1="179.46999999999989" y1="177.85999999999996" x2="182.1499999999999" y2="179.45999999999995" style="stroke-width:1;stroke:rgb(0,0,0);fill:none"/><line x1="182.1499999999999" y1="179.45999999999995" x2="180.5499999999999" y2="182.13999999999996" style="stroke-width:1;stroke:rgb(0,0,0);fill:none"/><line x1="180.5499999999999" y1="182.13999999999996" x2="177.8699999999999" y2="180.53999999999996" style="stroke-width:1;stroke:rgb(0,0,0);fill:none"/><line x1="177.8699999999999" y1="180.53999999999996" x2="178.06999999999988" y2="180.20999999999995" style="stroke-width:1;stroke:rgb(0,0,0);fill:none"/><line x1="178.06999999999988" y1="180.20999999999995" x2="179.79999999999987" y2="178.06999999999996" style="stroke-width:1;stroke:rgb(0,0,0);fill:none"/><line x1="179.79999999999987" y1="178.06999999999996" x2="181.93999999999986" y2="179.79999999999995" style="stroke-width:1;stroke:rgb(0,0,0);fill:none"/><line x1="181.93999999999986" y1="179.79999999999995" x2="180.20999999999987" y2="181.93999999999994" style="stroke-width:1;stroke:rgb(0,0,0);fill:none"/><line x1="180.20999999999987" y1="181.93999999999994" x2="178.06999999999988" y2="180.20999999999995" style="stroke-width:1;stroke:rgb(0,0,0);fill:none"/><line x1="178.06999999999988" y1="180.20999999999995" x2="178.28999999999988" y2="179.93999999999994" style="stroke-width:1;stroke:rgb(0,0,0);fill:none"/></svg>