<?xml version="1.0"?><!DOCTYPE svg PUBLIC "-//W3C//DTD util.SVG 1.0//EN" "http://www.w3.org/TR/2001/REC-util.SVG-20010904/DTD/svg10.dtd"><svg xmlns="http://www.w3.org/2000/svg" height="250" width="250" text-rendering="auto" shape-rendering="auto"><line x1="30.0" y1="30.0" x2="230.0" y2="30.0" style="stroke-width:1;stroke:rgb(0,0,0);fill:none"/><line x1="230.0" y1="30.0" x2="230.0" y2="230.0" style="stroke-width:1;stroke:rgb(0,0,0);fill:none"/><line x1="230.0" y1="230.0" x2="30.0" y2="230.0" style="stroke-width:1;stroke:rgb(0,0,0);fill:none"/><line x1="30.0" y1="230.0" x2="30.0" y2="30.0" style="stroke-width:1;stroke:rgb(0,0,0);fill:none"/><line x1="30.0" y1="30.0" x2="80.0" y2="30.0" style="stroke-width:1;stroke:rgb(0,0,0);fill:none"/><line x1="80.0" y1="30.0" x2="230.0" y2="80.0" style="stroke-width:1;stroke:rgb(0,0,0);fill:none"/><line x1="230.0" y1="80.0" x2="180.0" y2="230.0" style="stroke-width:1;stroke:rgb(0,0,0);fill:none"/><line x1="180.0" y1="230.0" x2="30.0" y2="180.0" style="stroke-width:1;stroke:rgb(0,0,0);fill:none"/><line x1="30.0" y1="180.0" x2="80.0" y2="30.0" style="stroke-width:1;stroke:rgb(0,0,0);fill:none"/><line x1="80.0" y1="30.0" x2="117.5" y2="42.5" style="stroke-width:1;stroke:rgb(0,0,0);fill:none"/><line x1="117.5" y1="42.5" x2="217.5" y2="117.5" style="stroke-width:1;stroke:rgb(0,0,0);fill:none"/><line x1="217.5" y1="117.5" x2="142.5" y2="217.5" style="stroke-width:1;stroke:rgb(0,0,0);fill:none"/><line x1="142.5" y1="217.5" x2="42.5" y2="142.5" style="stroke-width:1;stroke:rgb(0,0,0);fill:none"/><line x1="42.5" y1="142.5" x2="117.5" y2="42.5" style="stroke-width:1;stroke:rgb(0,0,0);fill:none"/><line x1="117.5" y1="42.5" x2="142.5" y2="61.25" style="stroke-width:1;stroke:rgb(0,0,0);fill:none"/><line x1="142.5" y1="61.25" x2="198.75" y2="142.5" style="stroke-width:1;stroke:rgb(0,0,0);fill:none"/><line x1="198.75" y1="142.5" x2="117.5" y2="198.75" style="stroke-width:1;stroke:rgb(0,0,0);fill:none"/><line x1="117.5" y1="198.75" x2="61.25" y2="117.5" style="stroke-width:1;stroke:rgb(0,0,0);fill:none"/><line x1="61.25" y1="117.5" x2="142.5" y2="61.25" style="stroke-width:1;stroke:rgb(0,0,0);fill:none"/><line x1="142.5" y1="61.25" x2="156.56" y2="81.56" style="stroke-width:1;stroke:rgb(0,0,0);fill:none"/><line x1="162.03" y1="100.31" x2="159.69" y2="162.03" style="stroke-width:1;stroke:rgb(0,0,0);fill:none"/><line x1="159.69" y1="162.03" x2="97.97" y2="159.69" style="stroke-width:1;stroke:rgb(0,0,0);fill:none"/><line x1="97.97" y1="159.69" x2="100.31" y2="97.97" style="stroke-width:1;stroke:rgb(0,0,0);fill:none"/><line x1="100.31" y1="97.97" x2="162.03" y2="100.31" style="stroke-width:1;stroke:rgb(0,0,0);fill:none"/><line x1="162.03" y1="100.31" x2="161.44" y2="115.74000000000001" style="stroke-width:1;stroke:rgb(0,0,0);fill:none"/><line x1="161.44" y1="115.74000000000001" x2="144.25" y2="161.44" style="stroke-width:1;stroke:rgb(0,0,0);fill:none"/><line x1="144.25" y1="161.44" x2="98.55" y2="144.25" style="stroke-width:1;stroke:rgb(0,0,0);fill:none"/><line x1="98.55" y1="144.25" x2="115.74" y2="98.55" style="stroke-width:1;stroke:rgb(0,0,0);fill:none"/><line x1="115.74" y1="98.55" x2="161.44" y2="115.74" style="stroke-width:1;stroke:rgb(0,0,0);fill:none"/><line x1="161.44" y1="115.74" x2="157.14" y2="127.16999999999999" style="stroke-width:1;stroke:rgb(0,0,0);fill:none"/><line x1="157.14" y1="127.16999999999999" x2="132.82" y2="157.14999999999998" style="stroke-width:1;stroke:rgb(0,0,0);fill:none"/><line x1="132.82" y1="157.14999999999998" x2="102.83999999999999" y2="132.82999999999998" style="stroke-width:1;stroke:rgb(0,0,0);fill:none"/><line x1="102.83999999999999" y1="132.82999999999998" x2="127.16" y2="102.84999999999998" style="stroke-width:1;stroke:rgb(0,0,0);fill:none"/><line x1="127.16" y1="102.84999999999998" x2="157.14" y2="127.16999999999999" style="stroke-width:1;stroke:rgb(0,0,0);fill:none"/><line x1="157.14" y1="127.16999999999999" x2="151.05999999999997" y2="134.67" style="stroke-width:1;stroke:rgb(0,0,0);fill:none"/><line x1="151.05999999999997" y1="134.67" x2="125.32999999999997" y2="151.07999999999998" style="stroke-width:1;stroke:rgb(0,0,0);fill:none"/><line x1="125.32999999999997" y1="151.07999999999998" x2="108.91999999999997" y2="125.34999999999998" style="stroke-width:1;stroke:rgb(0,0,0);fill:none"/><line x1="108.91999999999997" y1="125.34999999999998" x2="134.64999999999998" y2="108.93999999999998" style="stroke-width:1;stroke:rgb(0,0,0);fill:none"/><line x1="134.64999999999998" y1="108.93999999999998" x2="151.05999999999997" y2="134.67" style="stroke-width:1;stroke:rgb(0,0,0);fill:none"/><line x1="151.05999999999997" y1="134.67" x2="144.62999999999997" y2="138.76999999999998" style="stroke-width:1;stroke:rgb(0,0,0);fill:none"/><line x1="138.77999999999997" y1="140.23999999999998" x2="119.75999999999998" y2="138.79" style="stroke-width:1;stroke:rgb(0,0,0);fill:none"/><line x1="119.75999999999998" y1="138.79" x2="121.20999999999998" y2="119.77" style="stroke-width:1;stroke:rgb(0,0,0);fill:none"/><line x1="121.20999999999998" y1="119.77" x2="140.23" y2="121.22" style="stroke-width:1;stroke:rgb(0,0,0);fill:none"/><line x1="140.23" y1="121.22" x2="138.78" y2="140.24" style="stroke-width:1;stroke:rgb(0,0,0);fill:none"/><line x1="138.78" y1="140.24" x2="134.03" y2="139.88" style="stroke-width:1;stroke:rgb(0,0,0);fill:none"/><line x1="134.03" y1="139.88" x2="120.13" y2="134.04" style="stroke-width:1;stroke:rgb(0,0,0);fill:none"/><line x1="120.13" y1="134.04" x2="125.97" y2="120.13999999999999" style="stroke-width:1;stroke:rgb(0,0,0);fill:none"/><line x1="125.97" y1="120.13999999999999" x2="139.87" y2="125.97999999999999" style="stroke-width:1;stroke:rgb(0,0,0);fill:none"/><line x1="139.87" y1="125.97999999999999" x2="134.03" y2="139.88" style="stroke-width:1;stroke:rgb(0,0,0);fill:none"/><line x1="134.03" y1="139.88" x2="130.55" y2="138.42" style="stroke-width:1;stroke:rgb(0,0,0);fill:none"/><line x1="130.55" y1="138.42" x2="121.58000000000001" y2="130.55999999999997" style="stroke-width:1;stroke:rgb(0,0,0);fill:none"/><line x1="121.58000000000001" y1="130.55999999999997" x2="129.44000000000003" y2="121.58999999999997" style="stroke-width:1;stroke:rgb(0,0,0);fill:none"/><line x1="129.44000000000003" y1="121.58999999999997" x2="138.41000000000003" y2="129.45" style="stroke-width:1;stroke:rgb(0,0,0);fill:none"/><line x1="138.41000000000003" y1="129.45" x2="130.55" y2="138.42" style="stroke-width:1;stroke:rgb(0,0,0);fill:none"/><line x1="130.55" y1="138.42" x2="128.31" y2="136.45999999999998" style="stroke-width:1;stroke:rgb(0,0,0);fill:none"/><line x1="128.31" y1="136.45999999999998" x2="123.55" y2="128.32999999999998" style="stroke-width:1;stroke:rgb(0,0,0);fill:none"/><line x1="123.55" y1="128.32999999999998" x2="131.68" y2="123.56999999999998" style="stroke-width:1;stroke:rgb(0,0,0);fill:none"/><line x1="131.68" y1="123.56999999999998" x2="136.44" y2="131.7" style="stroke-width:1;stroke:rgb(0,0,0);fill:none"/><line x1="136.44" y1="131.7" x2="128.31" y2="136.45999999999998" style="stroke-width:1;stroke:rgb(0,0,0);fill:none"/><line x1="128.31" y1="136.45999999999998" x2="127.12" y2="134.42999999999998" style="stroke-width:1;stroke:rgb(0,0,0);fill:none"/><line x1="126.74" y1="132.60999999999996" x2="127.41" y2="126.75999999999996" style="stroke-width:1;stroke:rgb(0,0,0);fill:none"/><line x1="127.41" y1="126.75999999999996" x2="133.26" y2="127.42999999999996" style="stroke-width:1;stroke:rgb(0,0,0);fill:none"/><line x1="133.26" y1="127.42999999999996" x2="132.59" y2="133.27999999999997" style="stroke-width:1;stroke:rgb(0,0,0);fill:none"/><line x1="132.59" y1="133.27999999999997" x2="126.74000000000001" y2="132.60999999999999" style="stroke-width:1;stroke:rgb(0,0,0);fill:none"/><line x1="126.74000000000001" y1="132.60999999999999" x2="126.91000000000001" y2="131.14999999999998" style="stroke-width:1;stroke:rgb(0,0,0);fill:none"/><line x1="126.91000000000001" y1="131.14999999999998" x2="128.87" y2="126.92999999999998" style="stroke-width:1;stroke:rgb(0,0,0);fill:none"/><line x1="128.87" y1="126.92999999999998" x2="133.09" y2="128.89" style="stroke-width:1;stroke:rgb(0,0,0);fill:none"/><line x1="133.09" y1="128.89" x2="131.13" y2="133.10999999999999" style="stroke-width:1;stroke:rgb(0,0,0);fill:none"/><line x1="131.13" y1="133.10999999999999" x2="126.91" y2="131.14999999999998" style="stroke-width:1;stroke:rgb(0,0,0);fill:none"/><line x1="126.91" y1="131.14999999999998" x2="127.39999999999999" y2="130.08999999999997" style="stroke-width:1;stroke:rgb(0,0,0);fill:none"/><line x1="127.39999999999999" y1="130.08999999999997" x2="129.92999999999998" y2="127.40999999999997" style="stroke-width:1;stroke:rgb(0,0,0);fill:none"/><line x1="129.92999999999998" y1="127.40999999999997" x2="132.60999999999999" y2="129.93999999999997" style="stroke-width:1;stroke:rgb(0,0,0);fill:none"/><line x1="132.60999999999999" y1="129.93999999999997" x2="130.07999999999998" y2="132.61999999999998" style="stroke-width:1;stroke:rgb(0,0,0);fill:none"/><line x1="130.07999999999998" y1="132.61999999999998" x2="127.39999999999998" y2="130.08999999999997" style="stroke-width:1;stroke:rgb(0,0,0);fill:none"/><line x1="127.39999999999998" y1="130.08999999999997" x2="128.02999999999997" y2="129.42" style="stroke-width:1;stroke:rgb(0,0,0);fill:none"/><line x1="128.02999999999997" y1="129.42" x2="130.59999999999997" y2="128.04999999999998" style="stroke-width:1;stroke:rgb(0,0,0);fill:none"/><line x1="130.59999999999997" y1="128.04999999999998" x2="131.96999999999997" y2="130.61999999999998" style="stroke-width:1;stroke:rgb(0,0,0);fill:none"/><line x1="131.96999999999997" y1="130.61999999999998" x2="129.39999999999998" y2="131.98999999999998" style="stroke-width:1;stroke:rgb(0,0,0);fill:none"/><line x1="129.39999999999998" y1="131.98999999999998" x2="128.02999999999997" y2="129.42" style="stroke-width:1;stroke:rgb(0,0,0);fill:none"/><line x1="128.02999999999997" y1="129.42" x2="128.66999999999996" y2="129.07999999999998" style="stroke-width:1;stroke:rgb(0,0,0);fill:none"/></svg>