<?xml version="1.0"?><!DOCTYPE svg PUBLIC "-//W3C//DTD util.SVG 1.0//EN" "http://www.w3.org/TR/2001/REC-util.SVG-20010904/DTD/svg10.dtd"><svg xmlns="http://www.w3.org/2000/svg" height="250" width="250" text-rendering="auto" shape-rendering="auto"><line x1="30.0" y1="30.0" x2="230.0" y2="30.0" style="stroke-width:1;stroke:rgb(0,0,0);fill:none"/><line x1="230.0" y1="30.0" x2="230.0" y2="230.0" style="stroke-width:1;stroke:rgb(0,0,0);fill:none"/><line x1="230.0" y1="230.0" x2="30.0" y2="230.0" style="stroke-width:1;stroke:rgb(0,0,0);fill:none"/><line x1="30.0" y1="230.0" x2="30.0" y2="30.0" style="stroke-width:1;stroke:rgb(0,0,0);fill:none"/><line x1="30.0" y1="30.0" x2="48.18" y2="30.0" style="stroke-width:1;stroke:rgb(0,0,0);fill:none"/><line x1="48.18" y1="30.0" x2="230.0" y2="48.18" style="stroke-width:1;stroke:rgb(0,0,0);fill:none"/><line x1="230.0" y1="48.18" x2="211.82" y2="230.0" style="stroke-width:1;stroke:rgb(0,0,0);fill:none"/><line x1="211.82" y1="230.0" x2="30.0" y2="211.82" style="stroke-width:1;stroke:rgb(0,0,0);fill:none"/><line x1="30.0" y1="211.82" x2="48.18" y2="30.0" style="stroke-width:1;stroke:rgb(0,0,0);fill:none"/><line x1="48.18" y1="30.0" x2="64.71000000000001" y2="31.65" style="stroke-width:1;stroke:rgb(0,0,0);fill:none"/><line x1="64.71000000000001" y1="31.65" x2="228.35" y2="64.71000000000001" style="stroke-width:1;stroke:rgb(0,0,0);fill:none"/><line x1="228.35" y1="64.71000000000001" x2="195.29" y2="228.35" style="stroke-width:1;stroke:rgb(0,0,0);fill:none"/><line x1="195.29" y1="228.35" x2="31.650000000000006" y2="195.29" style="stroke-width:1;stroke:rgb(0,0,0);fill:none"/><line x1="31.650000000000006" y1="195.29" x2="64.71000000000001" y2="31.650000000000006" style="stroke-width:1;stroke:rgb(0,0,0);fill:none"/><line x1="64.71000000000001" y1="31.650000000000006" x2="79.59" y2="34.660000000000004" style="stroke-width:1;stroke:rgb(0,0,0);fill:none"/><line x1="79.59" y1="34.660000000000004" x2="225.35" y2="79.59" style="stroke-width:1;stroke:rgb(0,0,0);fill:none"/><line x1="225.35" y1="79.59" x2="180.42" y2="225.35" style="stroke-width:1;stroke:rgb(0,0,0);fill:none"/><line x1="180.42" y1="225.35" x2="34.66" y2="180.42" style="stroke-width:1;stroke:rgb(0,0,0);fill:none"/><line x1="34.66" y1="180.42" x2="79.59" y2="34.66" style="stroke-width:1;stroke:rgb(0,0,0);fill:none"/><line x1="79.59" y1="34.66" x2="92.84" y2="38.739999999999995" style="stroke-width:1;stroke:rgb(0,0,0);fill:none"/><line x1="92.84" y1="38.739999999999995" x2="221.26" y2="92.83" style="stroke-width:1;stroke:rgb(0,0,0);fill:none"/><line x1="221.26" y1="92.83" x2="167.17" y2="221.25" style="stroke-width:1;stroke:rgb(0,0,0);fill:none"/><line x1="167.17" y1="221.25" x2="38.75" y2="167.16" style="stroke-width:1;stroke:rgb(0,0,0);fill:none"/><line x1="38.75" y1="167.16" x2="92.84" y2="38.74000000000001" style="stroke-width:1;stroke:rgb(0,0,0);fill:none"/><line x1="92.84" y1="38.74000000000001" x2="104.51" y2="43.66000000000001" style="stroke-width:1;stroke:rgb(0,0,0);fill:none"/><line x1="104.51" y1="43.66000000000001" x2="216.34" y2="104.51000000000002" style="stroke-width:1;stroke:rgb(0,0,0);fill:none"/><line x1="216.34" y1="104.51000000000002" x2="155.49" y2="216.34000000000003" style="stroke-width:1;stroke:rgb(0,0,0);fill:none"/><line x1="155.49" y1="216.34000000000003" x2="43.66000000000001" y2="155.49000000000004" style="stroke-width:1;stroke:rgb(0,0,0);fill:none"/><line x1="43.66000000000001" y1="155.49000000000004" x2="104.51000000000002" y2="43.66000000000004" style="stroke-width:1;stroke:rgb(0,0,0);fill:none"/><line x1="104.51000000000002" y1="43.66000000000004" x2="114.68000000000002" y2="49.19000000000004" style="stroke-width:1;stroke:rgb(0,0,0);fill:none"/><line x1="114.68000000000002" y1="49.19000000000004" x2="210.81" y2="114.68000000000004" style="stroke-width:1;stroke:rgb(0,0,0);fill:none"/><line x1="210.81" y1="114.68000000000004" x2="145.32" y2="210.81000000000003" style="stroke-width:1;stroke:rgb(0,0,0);fill:none"/><line x1="145.32" y1="210.81000000000003" x2="49.19" y2="145.32000000000005" style="stroke-width:1;stroke:rgb(0,0,0);fill:none"/><line x1="49.19" y1="145.32000000000005" x2="114.67999999999999" y2="49.190000000000055" style="stroke-width:1;stroke:rgb(0,0,0);fill:none"/><line x1="114.67999999999999" y1="49.190000000000055" x2="123.41999999999999" y2="55.14000000000006" style="stroke-width:1;stroke:rgb(0,0,0);fill:none"/><line x1="123.41999999999999" y1="55.14000000000006" x2="204.85999999999999" y2="123.41000000000005" style="stroke-width:1;stroke:rgb(0,0,0);fill:none"/><line x1="204.85999999999999" y1="123.41000000000005" x2="136.58999999999997" y2="204.85000000000005" style="stroke-width:1;stroke:rgb(0,0,0);fill:none"/><line x1="136.58999999999997" y1="204.85000000000005" x2="55.14999999999998" y2="136.58000000000004" style="stroke-width:1;stroke:rgb(0,0,0);fill:none"/><line x1="55.14999999999998" y1="136.58000000000004" x2="123.41999999999997" y2="55.14000000000004" style="stroke-width:1;stroke:rgb(0,0,0);fill:none"/><line x1="123.41999999999997" y1="55.14000000000004" x2="130.81999999999996" y2="61.350000000000044" style="stroke-width:1;stroke:rgb(0,0,0);fill:none"/><line x1="130.81999999999996" y1="61.350000000000044" x2="198.64999999999998" y2="130.82000000000005" style="stroke-width:1;stroke:rgb(0,0,0);fill:none"/><line x1="198.64999999999998" y1="130.82000000000005" x2="129.17999999999998" y2="198.65000000000003" style="stroke-width:1;stroke:rgb(0,0,0);fill:none"/><line x1="129.17999999999998" y1="198.65000000000003" x2="61.34999999999998" y2="129.18000000000004" style="stroke-width:1;stroke:rgb(0,0,0);fill:none"/><line x1="61.34999999999998" y1="129.18000000000004" x2="130.82" y2="61.35000000000004" style="stroke-width:1;stroke:rgb(0,0,0);fill:none"/><line x1="130.82" y1="61.35000000000004" x2="136.98999999999998" y2="67.67000000000004" style="stroke-width:1;stroke:rgb(0,0,0);fill:none"/><line x1="136.98999999999998" y1="67.67000000000004" x2="192.33999999999997" y2="136.99000000000004" style="stroke-width:1;stroke:rgb(0,0,0);fill:none"/><line x1="192.33999999999997" y1="136.99000000000004" x2="123.01999999999998" y2="192.34000000000003" style="stroke-width:1;stroke:rgb(0,0,0);fill:none"/><line x1="123.01999999999998" y1="192.34000000000003" x2="67.66999999999999" y2="123.02000000000004" style="stroke-width:1;stroke:rgb(0,0,0);fill:none"/><line x1="67.66999999999999" y1="123.02000000000004" x2="136.98999999999998" y2="67.67000000000004" style="stroke-width:1;stroke:rgb(0,0,0);fill:none"/><line x1="136.98999999999998" y1="67.67000000000004" x2="142.01999999999998" y2="73.97000000000004" style="stroke-width:1;stroke:rgb(0,0,0);fill:none"/><line x1="142.01999999999998" y1="73.97000000000004" x2="186.02999999999997" y2="142.02000000000004" style="stroke-width:1;stroke:rgb(0,0,0);fill:none"/><line x1="186.02999999999997" y1="142.02000000000004" x2="117.97999999999998" y2="186.03000000000003" style="stroke-width:1;stroke:rgb(0,0,0);fill:none"/><line x1="117.97999999999998" y1="186.03000000000003" x2="73.96999999999997" y2="117.98000000000003" style="stroke-width:1;stroke:rgb(0,0,0);fill:none"/><line x1="73.96999999999997" y1="117.98000000000003" x2="142.01999999999998" y2="73.97000000000003" style="stroke-width:1;stroke:rgb(0,0,0);fill:none"/><line x1="142.01999999999998" y1="73.97000000000003" x2="146.01999999999998" y2="80.16000000000003" style="stroke-width:1;stroke:rgb(0,0,0);fill:none"/><line x1="146.01999999999998" y1="80.16000000000003" x2="179.84999999999997" y2="146.02000000000004" style="stroke-width:1;stroke:rgb(0,0,0);fill:none"/><line x1="179.84999999999997" y1="146.02000000000004" x2="113.98999999999997" y2="179.85000000000002" style="stroke-width:1;stroke:rgb(0,0,0);fill:none"/><line x1="113.98999999999997" y1="179.85000000000002" x2="80.15999999999997" y2="113.99000000000002" style="stroke-width:1;stroke:rgb(0,0,0);fill:none"/><line x1="80.15999999999997" y1="113.99000000000002" x2="146.01999999999998" y2="80.16000000000003" style="stroke-width:1;stroke:rgb(0,0,0);fill:none"/><line x1="146.01999999999998" y1="80.16000000000003" x2="149.1" y2="86.15000000000002" style="stroke-width:1;stroke:rgb(0,0,0);fill:none"/><line x1="149.1" y1="86.15000000000002" x2="173.85999999999999" y2="149.10000000000002" style="stroke-width:1;stroke:rgb(0,0,0);fill:none"/><line x1="173.85999999999999" y1="149.10000000000002" x2="110.90999999999998" y2="173.86" style="stroke-width:1;stroke:rgb(0,0,0);fill:none"/><line x1="110.90999999999998" y1="173.86" x2="86.14999999999998" y2="110.91000000000001" style="stroke-width:1;stroke:rgb(0,0,0);fill:none"/><line x1="86.14999999999998" y1="110.91000000000001" x2="149.09999999999997" y2="86.15" style="stroke-width:1;stroke:rgb(0,0,0);fill:none"/><line x1="149.09999999999997" y1="86.15" x2="151.34999999999997" y2="91.87" style="stroke-width:1;stroke:rgb(0,0,0);fill:none"/><line x1="151.34999999999997" y1="91.87" x2="168.13999999999996" y2="151.35" style="stroke-width:1;stroke:rgb(0,0,0);fill:none"/><line x1="168.13999999999996" y1="151.35" x2="108.65999999999997" y2="168.14" style="stroke-width:1;stroke:rgb(0,0,0);fill:none"/><line x1="108.65999999999997" y1="168.14" x2="91.86999999999998" y2="108.66" style="stroke-width:1;stroke:rgb(0,0,0);fill:none"/><line x1="91.86999999999998" y1="108.66" x2="151.34999999999997" y2="91.87" style="stroke-width:1;stroke:rgb(0,0,0);fill:none"/><line x1="151.34999999999997" y1="91.87" x2="152.87999999999997" y2="97.28" style="stroke-width:1;stroke:rgb(0,0,0);fill:none"/><line x1="152.87999999999997" y1="97.28" x2="162.73999999999995" y2="152.88" style="stroke-width:1;stroke:rgb(0,0,0);fill:none"/><line x1="162.73999999999995" y1="152.88" x2="107.13999999999996" y2="162.74" style="stroke-width:1;stroke:rgb(0,0,0);fill:none"/><line x1="107.13999999999996" y1="162.74" x2="97.27999999999996" y2="107.14000000000001" style="stroke-width:1;stroke:rgb(0,0,0);fill:none"/><line x1="97.27999999999996" y1="107.14000000000001" x2="152.87999999999997" y2="97.28000000000002" style="stroke-width:1;stroke:rgb(0,0,0);fill:none"/><line x1="152.87999999999997" y1="97.28000000000002" x2="153.77999999999997" y2="102.33000000000001" style="stroke-width:1;stroke:rgb(0,0,0);fill:none"/><line x1="153.77999999999997" y1="102.33000000000001" x2="157.67999999999998" y2="153.77" style="stroke-width:1;stroke:rgb(0,0,0);fill:none"/><line x1="157.67999999999998" y1="153.77" x2="106.23999999999998" y2="157.67000000000002" style="stroke-width:1;stroke:rgb(0,0,0);fill:none"/><line x1="106.23999999999998" y1="157.67000000000002" x2="102.33999999999997" y2="106.23000000000002" style="stroke-width:1;stroke:rgb(0,0,0);fill:none"/><line x1="102.33999999999997" y1="106.23000000000002" x2="153.77999999999997" y2="102.33000000000001" style="stroke-width:1;stroke:rgb(0,0,0);fill:none"/><line x1="153.77999999999997" y1="102.33000000000001" x2="154.12999999999997" y2="107.01000000000002" style="stroke-width:1;stroke:rgb(0,0,0);fill:none"/><line x1="154.12999999999997" y1="107.01000000000002" x2="152.99999999999997" y2="154.13000000000002" style="stroke-width:1;stroke:rgb(0,0,0);fill:none"/><line x1="152.99999999999997" y1="154.13000000000002" x2="105.87999999999997" y2="153.00000000000003" style="stroke-width:1;stroke:rgb(0,0,0);fill:none"/><line x1="105.87999999999997" y1="153.00000000000003" x2="107.00999999999996" y2="105.88000000000002" style="stroke-width:1;stroke:rgb(0,0,0);fill:none"/><line x1="107.00999999999996" y1="105.88000000000002" x2="154.12999999999997" y2="107.01000000000002" style="stroke-width:1;stroke:rgb(0,0,0);fill:none"/><line x1="154.12999999999997" y1="107.01000000000002" x2="154.02999999999997" y2="111.29000000000002" style="stroke-width:1;stroke:rgb(0,0,0);fill:none"/><line x1="154.02999999999997" y1="111.29000000000002" x2="148.71999999999997" y2="154.02" style="stroke-width:1;stroke:rgb(0,0,0);fill:none"/><line x1="148.71999999999997" y1="154.02" x2="105.98999999999998" y2="148.71" style="stroke-width:1;stroke:rgb(0,0,0);fill:none"/><line x1="105.98999999999998" y1="148.71" x2="111.29999999999998" y2="105.98000000000002" style="stroke-width:1;stroke:rgb(0,0,0);fill:none"/><line x1="111.29999999999998" y1="105.98000000000002" x2="154.02999999999997" y2="111.29000000000002" style="stroke-width:1;stroke:rgb(0,0,0);fill:none"/><line x1="154.02999999999997" y1="111.29000000000002" x2="153.54999999999998" y2="115.17000000000002" style="stroke-width:1;stroke:rgb(0,0,0);fill:none"/><line x1="153.54999999999998" y1="115.17000000000002" x2="144.83999999999997" y2="153.54000000000002" style="stroke-width:1;stroke:rgb(0,0,0);fill:none"/><line x1="144.83999999999997" y1="153.54000000000002" x2="106.46999999999997" y2="144.83" style="stroke-width:1;stroke:rgb(0,0,0);fill:none"/><line x1="106.46999999999997" y1="144.83" x2="115.17999999999998" y2="106.46000000000001" style="stroke-width:1;stroke:rgb(0,0,0);fill:none"/><line x1="115.17999999999998" y1="106.46000000000001" x2="153.54999999999998" y2="115.17000000000002" style="stroke-width:1;stroke:rgb(0,0,0);fill:none"/><line x1="153.54999999999998" y1="115.17000000000002" x2="152.76" y2="118.66000000000001" style="stroke-width:1;stroke:rgb(0,0,0);fill:none"/><line x1="152.76" y1="118.66000000000001" x2="141.35" y2="152.75" style="stroke-width:1;stroke:rgb(0,0,0);fill:none"/><line x1="141.35" y1="152.75" x2="107.25999999999999" y2="141.34" style="stroke-width:1;stroke:rgb(0,0,0);fill:none"/><line x1="107.25999999999999" y1="141.34" x2="118.66999999999999" y2="107.25" style="stroke-width:1;stroke:rgb(0,0,0);fill:none"/><line x1="118.66999999999999" y1="107.25" x2="152.76" y2="118.66" style="stroke-width:1;stroke:rgb(0,0,0);fill:none"/><line x1="152.76" y1="118.66" x2="151.72" y2="121.75999999999999" style="stroke-width:1;stroke:rgb(0,0,0);fill:none"/><line x1="151.72" y1="121.75999999999999" x2="138.25" y2="151.70999999999998" style="stroke-width:1;stroke:rgb(0,0,0);fill:none"/><line x1="138.25" y1="151.70999999999998" x2="108.3" y2="138.23999999999998" style="stroke-width:1;stroke:rgb(0,0,0);fill:none"/><line x1="108.3" y1="138.23999999999998" x2="121.77" y2="108.28999999999998" style="stroke-width:1;stroke:rgb(0,0,0);fill:none"/><line x1="121.77" y1="108.28999999999998" x2="151.72" y2="121.75999999999998" style="stroke-width:1;stroke:rgb(0,0,0);fill:none"/><line x1="151.72" y1="121.75999999999998" x2="150.5" y2="124.47999999999998" style="stroke-width:1;stroke:rgb(0,0,0);fill:none"/><line x1="150.5" y1="124.47999999999998" x2="135.53" y2="150.47999999999996" style="stroke-width:1;stroke:rgb(0,0,0);fill:none"/><line x1="135.53" y1="150.47999999999996" x2="109.53" y2="135.50999999999996" style="stroke-width:1;stroke:rgb(0,0,0);fill:none"/><line x1="109.53" y1="135.50999999999996" x2="124.5" y2="109.50999999999996" style="stroke-width:1;stroke:rgb(0,0,0);fill:none"/><line x1="124.5" y1="109.50999999999996" x2="150.5" y2="124.47999999999996" style="stroke-width:1;stroke:rgb(0,0,0);fill:none"/><line x1="150.5" y1="124.47999999999996" x2="149.14" y2="126.83999999999996" style="stroke-width:1;stroke:rgb(0,0,0);fill:none"/><line x1="149.14" y1="126.83999999999996" x2="133.17" y2="149.11999999999995" style="stroke-width:1;stroke:rgb(0,0,0);fill:none"/><line x1="133.17" y1="149.11999999999995" x2="110.88999999999999" y2="133.14999999999995" style="stroke-width:1;stroke:rgb(0,0,0);fill:none"/><line x1="110.88999999999999" y1="133.14999999999995" x2="126.85999999999999" y2="110.86999999999995" style="stroke-width:1;stroke:rgb(0,0,0);fill:none"/><line x1="126.85999999999999" y1="110.86999999999995" x2="149.14" y2="126.83999999999995" style="stroke-width:1;stroke:rgb(0,0,0);fill:none"/><line x1="149.14" y1="126.83999999999995" x2="147.69" y2="128.86999999999995" style="stroke-width:1;stroke:rgb(0,0,0);fill:none"/><line x1="147.69" y1="128.86999999999995" x2="131.15" y2="147.66999999999996" style="stroke-width:1;stroke:rgb(0,0,0);fill:none"/><line x1="131.15" y1="147.66999999999996" x2="112.35000000000001" y2="131.12999999999997" style="stroke-width:1;stroke:rgb(0,0,0);fill:none"/><line x1="112.35000000000001" y1="131.12999999999997" x2="128.89000000000001" y2="112.32999999999997" style="stroke-width:1;stroke:rgb(0,0,0);fill:none"/><line x1="128.89000000000001" y1="112.32999999999997" x2="147.69000000000003" y2="128.86999999999998" style="stroke-width:1;stroke:rgb(0,0,0);fill:none"/><line x1="147.69000000000003" y1="128.86999999999998" x2="146.19000000000003" y2="130.57999999999998" style="stroke-width:1;stroke:rgb(0,0,0);fill:none"/><line x1="146.19000000000003" y1="130.57999999999998" x2="129.44000000000003" y2="146.17" style="stroke-width:1;stroke:rgb(0,0,0);fill:none"/><line x1="129.44000000000003" y1="146.17" x2="113.85000000000002" y2="129.42" style="stroke-width:1;stroke:rgb(0,0,0);fill:none"/><line x1="113.85000000000002" y1="129.42" x2="130.60000000000002" y2="113.82999999999998" style="stroke-width:1;stroke:rgb(0,0,0);fill:none"/><line x1="130.60000000000002" y1="113.82999999999998" x2="146.19000000000003" y2="130.57999999999998" style="stroke-width:1;stroke:rgb(0,0,0);fill:none"/><line x1="146.19000000000003" y1="130.57999999999998" x2="144.67000000000002" y2="131.99999999999997" style="stroke-width:1;stroke:rgb(0,0,0);fill:none"/><line x1="144.67000000000002" y1="131.99999999999997" x2="128.03000000000003" y2="144.64999999999998" style="stroke-width:1;stroke:rgb(0,0,0);fill:none"/><line x1="128.03000000000003" y1="144.64999999999998" x2="115.38000000000002" y2="128.01" style="stroke-width:1;stroke:rgb(0,0,0);fill:none"/><line x1="115.38000000000002" y1="128.01" x2="132.02000000000004" y2="115.35999999999999" style="stroke-width:1;stroke:rgb(0,0,0);fill:none"/><line x1="132.02000000000004" y1="115.35999999999999" x2="144.67000000000004" y2="132.0" style="stroke-width:1;stroke:rgb(0,0,0);fill:none"/><line x1="144.67000000000004" y1="132.0" x2="143.16000000000005" y2="133.15" style="stroke-width:1;stroke:rgb(0,0,0);fill:none"/><line x1="143.16000000000005" y1="133.15" x2="126.88000000000005" y2="143.14000000000001" style="stroke-width:1;stroke:rgb(0,0,0);fill:none"/><line x1="126.88000000000005" y1="143.14000000000001" x2="116.89000000000006" y2="126.86000000000001" style="stroke-width:1;stroke:rgb(0,0,0);fill:none"/><line x1="116.89000000000006" y1="126.86000000000001" x2="133.17000000000007" y2="116.87000000000002" style="stroke-width:1;stroke:rgb(0,0,0);fill:none"/><line x1="133.17000000000007" y1="116.87000000000002" x2="143.16000000000008" y2="133.15000000000003" style="stroke-width:1;stroke:rgb(0,0,0);fill:none"/><line x1="143.16000000000008" y1="133.15000000000003" x2="141.6800000000001" y2="134.06000000000003" style="stroke-width:1;stroke:rgb(0,0,0);fill:none"/><line x1="141.6800000000001" y1="134.06000000000003" x2="125.97000000000008" y2="141.66000000000003" style="stroke-width:1;stroke:rgb(0,0,0);fill:none"/><line x1="125.97000000000008" y1="141.66000000000003" x2="118.37000000000009" y2="125.95000000000002" style="stroke-width:1;stroke:rgb(0,0,0);fill:none"/><line x1="118.37000000000009" y1="125.95000000000002" x2="134.0800000000001" y2="118.35000000000002" style="stroke-width:1;stroke:rgb(0,0,0);fill:none"/><line x1="134.0800000000001" y1="118.35000000000002" x2="141.6800000000001" y2="134.06000000000003" style="stroke-width:1;stroke:rgb(0,0,0);fill:none"/><line x1="141.6800000000001" y1="134.06000000000003" x2="140.25000000000009" y2="134.75000000000003" style="stroke-width:1;stroke:rgb(0,0,0);fill:none"/><line x1="140.25000000000009" y1="134.75000000000003" x2="125.28000000000009" y2="140.23000000000002" style="stroke-width:1;stroke:rgb(0,0,0);fill:none"/><line x1="125.28000000000009" y1="140.23000000000002" x2="119.80000000000008" y2="125.26000000000002" style="stroke-width:1;stroke:rgb(0,0,0);fill:none"/><line x1="119.80000000000008" y1="125.26000000000002" x2="134.7700000000001" y2="119.78000000000002" style="stroke-width:1;stroke:rgb(0,0,0);fill:none"/><line x1="134.7700000000001" y1="119.78000000000002" x2="140.25000000000009" y2="134.75000000000003" style="stroke-width:1;stroke:rgb(0,0,0);fill:none"/><line x1="140.25000000000009" y1="134.75000000000003" x2="138.89000000000007" y2="135.25000000000003" style="stroke-width:1;stroke:rgb(0,0,0);fill:none"/><line x1="138.89000000000007" y1="135.25000000000003" x2="124.78000000000007" y2="138.87000000000003" style="stroke-width:1;stroke:rgb(0,0,0);fill:none"/><line x1="124.78000000000007" y1="138.87000000000003" x2="121.16000000000007" y2="124.76000000000003" style="stroke-width:1;stroke:rgb(0,0,0);fill:none"/><line x1="121.16000000000007" y1="124.76000000000003" x2="135.27000000000007" y2="121.14000000000003" style="stroke-width:1;stroke:rgb(0,0,0);fill:none"/><line x1="135.27000000000007" y1="121.14000000000003" x2="138.89000000000007" y2="135.25000000000003" style="stroke-width:1;stroke:rgb(0,0,0);fill:none"/><line x1="138.89000000000007" y1="135.25000000000003" x2="137.61000000000007" y2="135.58000000000004" style="stroke-width:1;stroke:rgb(0,0,0);fill:none"/><line x1="137.61000000000007" y1="135.58000000000004" x2="124.46000000000006" y2="137.59000000000003" style="stroke-width:1;stroke:rgb(0,0,0);fill:none"/><line x1="124.46000000000006" y1="137.59000000000003" x2="122.45000000000006" y2="124.44000000000003" style="stroke-width:1;stroke:rgb(0,0,0);fill:none"/><line x1="122.45000000000006" y1="124.44000000000003" x2="135.60000000000005" y2="122.43000000000002" style="stroke-width:1;stroke:rgb(0,0,0);fill:none"/><line x1="135.60000000000005" y1="122.43000000000002" x2="137.61000000000004" y2="135.58" style="stroke-width:1;stroke:rgb(0,0,0);fill:none"/><line x1="137.61000000000004" y1="135.58" x2="136.41000000000005" y2="135.76000000000002" style="stroke-width:1;stroke:rgb(0,0,0);fill:none"/><line x1="136.41000000000005" y1="135.76000000000002" x2="124.27000000000005" y2="136.39000000000001" style="stroke-width:1;stroke:rgb(0,0,0);fill:none"/><line x1="124.27000000000005" y1="136.39000000000001" x2="123.64000000000006" y2="124.25000000000001" style="stroke-width:1;stroke:rgb(0,0,0);fill:none"/><line x1="123.64000000000006" y1="124.25000000000001" x2="135.78000000000006" y2="123.62000000000002" style="stroke-width:1;stroke:rgb(0,0,0);fill:none"/><line x1="135.78000000000006" y1="123.62000000000002" x2="136.41000000000005" y2="135.76000000000002" style="stroke-width:1;stroke:rgb(0,0,0);fill:none"/><line x1="136.41000000000005" y1="135.76000000000002" x2="135.31000000000006" y2="135.82000000000002" style="stroke-width:1;stroke:rgb(0,0,0);fill:none"/><line x1="135.31000000000006" y1="135.82000000000002" x2="124.22000000000006" y2="135.29000000000002" style="stroke-width:1;stroke:rgb(0,0,0);fill:none"/><line x1="124.22000000000006" y1="135.29000000000002" x2="124.75000000000006" y2="124.20000000000002" style="stroke-width:1;stroke:rgb(0,0,0);fill:none"/><line x1="124.75000000000006" y1="124.20000000000002" x2="135.84000000000006" y2="124.73000000000002" style="stroke-width:1;stroke:rgb(0,0,0);fill:none"/><line x1="135.84000000000006" y1="124.73000000000002" x2="135.31000000000006" y2="135.82000000000002" style="stroke-width:1;stroke:rgb(0,0,0);fill:none"/><line x1="135.31000000000006" y1="135.82000000000002" x2="134.30000000000007" y2="135.77" style="stroke-width:1;stroke:rgb(0,0,0);fill:none"/><line x1="134.30000000000007" y1="135.77" x2="124.26000000000008" y2="134.28" style="stroke-width:1;stroke:rgb(0,0,0);fill:none"/><line x1="124.26000000000008" y1="134.28" x2="125.75000000000007" y2="124.24000000000001" style="stroke-width:1;stroke:rgb(0,0,0);fill:none"/><line x1="125.75000000000007" y1="124.24000000000001" x2="135.79000000000008" y2="125.73" style="stroke-width:1;stroke:rgb(0,0,0);fill:none"/><line x1="135.79000000000008" y1="125.73" x2="134.30000000000007" y2="135.77" style="stroke-width:1;stroke:rgb(0,0,0);fill:none"/><line x1="134.30000000000007" y1="135.77" x2="133.39000000000007" y2="135.63000000000002" style="stroke-width:1;stroke:rgb(0,0,0);fill:none"/><line x1="133.39000000000007" y1="135.63000000000002" x2="124.40000000000008" y2="133.36" style="stroke-width:1;stroke:rgb(0,0,0);fill:none"/><line x1="124.40000000000008" y1="133.36" x2="126.67000000000007" y2="124.37000000000002" style="stroke-width:1;stroke:rgb(0,0,0);fill:none"/><line x1="126.67000000000007" y1="124.37000000000002" x2="135.66000000000008" y2="126.64000000000001" style="stroke-width:1;stroke:rgb(0,0,0);fill:none"/><line x1="135.66000000000008" y1="126.64000000000001" x2="133.39000000000007" y2="135.63000000000002" style="stroke-width:1;stroke:rgb(0,0,0);fill:none"/><line x1="133.39000000000007" y1="135.63000000000002" x2="132.57000000000008" y2="135.42000000000002" style="stroke-width:1;stroke:rgb(0,0,0);fill:none"/><line x1="132.57000000000008" y1="135.42000000000002" x2="124.60000000000008" y2="132.54000000000002" style="stroke-width:1;stroke:rgb(0,0,0);fill:none"/><line x1="124.60000000000008" y1="132.54000000000002" x2="127.48000000000008" y2="124.57000000000002" style="stroke-width:1;stroke:rgb(0,0,0);fill:none"/><line x1="127.48000000000008" y1="124.57000000000002" x2="135.45000000000007" y2="127.45000000000002" style="stroke-width:1;stroke:rgb(0,0,0);fill:none"/><line x1="135.45000000000007" y1="127.45000000000002" x2="132.57000000000008" y2="135.42000000000002" style="stroke-width:1;stroke:rgb(0,0,0);fill:none"/><line x1="132.57000000000008" y1="135.42000000000002" x2="131.85000000000008" y2="135.16000000000003" style="stroke-width:1;stroke:rgb(0,0,0);fill:none"/><line x1="131.85000000000008" y1="135.16000000000003" x2="124.87000000000008" y2="131.82000000000002" style="stroke-width:1;stroke:rgb(0,0,0);fill:none"/><line x1="124.87000000000008" y1="131.82000000000002" x2="128.21000000000006" y2="124.84000000000002" style="stroke-width:1;stroke:rgb(0,0,0);fill:none"/><line x1="128.21000000000006" y1="124.84000000000002" x2="135.19000000000005" y2="128.18" style="stroke-width:1;stroke:rgb(0,0,0);fill:none"/><line x1="135.19000000000005" y1="128.18" x2="131.85000000000005" y2="135.16" style="stroke-width:1;stroke:rgb(0,0,0);fill:none"/><line x1="131.85000000000005" y1="135.16" x2="131.22000000000006" y2="134.85999999999999" style="stroke-width:1;stroke:rgb(0,0,0);fill:none"/><line x1="131.22000000000006" y1="134.85999999999999" x2="125.18000000000005" y2="131.19" style="stroke-width:1;stroke:rgb(0,0,0);fill:none"/><line x1="125.18000000000005" y1="131.19" x2="128.85000000000005" y2="125.14999999999999" style="stroke-width:1;stroke:rgb(0,0,0);fill:none"/><line x1="128.85000000000005" y1="125.14999999999999" x2="134.89000000000004" y2="128.82" style="stroke-width:1;stroke:rgb(0,0,0);fill:none"/><line x1="134.89000000000004" y1="128.82" x2="131.22000000000006" y2="134.85999999999999" style="stroke-width:1;stroke:rgb(0,0,0);fill:none"/><line x1="131.22000000000006" y1="134.85999999999999" x2="130.67000000000004" y2="134.52999999999997" style="stroke-width:1;stroke:rgb(0,0,0);fill:none"/><line x1="130.67000000000004" y1="134.52999999999997" x2="125.51000000000005" y2="130.64" style="stroke-width:1;stroke:rgb(0,0,0);fill:none"/><line x1="125.51000000000005" y1="130.64" x2="129.40000000000003" y2="125.47999999999999" style="stroke-width:1;stroke:rgb(0,0,0);fill:none"/><line x1="129.40000000000003" y1="125.47999999999999" x2="134.56000000000003" y2="129.36999999999998" style="stroke-width:1;stroke:rgb(0,0,0);fill:none"/><line x1="134.56000000000003" y1="129.36999999999998" x2="130.67000000000004" y2="134.52999999999997" style="stroke-width:1;stroke:rgb(0,0,0);fill:none"/><line x1="130.67000000000004" y1="134.52999999999997" x2="130.20000000000005" y2="134.17999999999998" style="stroke-width:1;stroke:rgb(0,0,0);fill:none"/><line x1="130.20000000000005" y1="134.17999999999998" x2="125.86000000000004" y2="130.17999999999998" style="stroke-width:1;stroke:rgb(0,0,0);fill:none"/><line x1="125.86000000000004" y1="130.17999999999998" x2="129.86000000000004" y2="125.83999999999997" style="stroke-width:1;stroke:rgb(0,0,0);fill:none"/><line x1="129.86000000000004" y1="125.83999999999997" x2="134.20000000000005" y2="129.83999999999997" style="stroke-width:1;stroke:rgb(0,0,0);fill:none"/><line x1="134.20000000000005" y1="129.83999999999997" x2="130.20000000000005" y2="134.17999999999998" style="stroke-width:1;stroke:rgb(0,0,0);fill:none"/><line x1="130.20000000000005" y1="134.17999999999998" x2="129.81000000000006" y2="133.81999999999996" style="stroke-width:1;stroke:rgb(0,0,0);fill:none"/></svg>