<?xml version="1.0"?><!DOCTYPE svg PUBLIC "-//W3C//DTD util.SVG 1.0//EN" "http://www.w3.org/TR/2001/REC-util.SVG-20010904/DTD/svg10.dtd"><svg xmlns="http://www.w3.org/2000/svg" height="2000" width="2000" text-rendering="auto" shape-rendering="auto"><line x1="1000.0" y1="1000.0" x2="1092.71" y2="1067.35" style="stroke-width:1;stroke:rgb(0,0,0);fill:none"/><line x1="1092.71" y1="1067.35" x2="1057.3" y2="1176.33" style="stroke-width:1;stroke:rgb(0,0,0);fill:none"/><line x1="1057.3" y1="1176.33" x2="942.7099999999999" y2="1176.33" style="stroke-width:1;stroke:rgb(0,0,0);fill:none"/><line x1="942.7099999999999" y1="1176.33" x2="907.3" y2="1067.35" style="stroke-width:1;stroke:rgb(0,0,0);fill:none"/><line x1="907.3" y1="1067.35" x2="1000.01" y2="999.9999999999999" style="stroke-width:1;stroke:rgb(0,0,0);fill:none"/><line x1="1242.72" y1="1176.34" x2="1207.31" y2="1285.32" style="stroke-width:1;stroke:rgb(0,0,0);fill:none"/><line x1="1207.31" y1="1285.32" x2="1092.72" y2="1285.32" style="stroke-width:1;stroke:rgb(0,0,0);fill:none"/><line x1="1092.72" y1="1285.32" x2="1057.31" y2="1176.34" style="stroke-width:1;stroke:rgb(0,0,0);fill:none"/><line x1="1057.31" y1="1176.34" x2="1150.02" y2="1108.99" style="stroke-width:1;stroke:rgb(0,0,0);fill:none"/><line x1="1150.02" y1="1108.99" x2="1242.73" y2="1176.34" style="stroke-width:1;stroke:rgb(0,0,0);fill:none"/><line x1="1150.02" y1="1461.6599999999999" x2="1035.43" y2="1461.6599999999999" style="stroke-width:1;stroke:rgb(0,0,0);fill:none"/><line x1="1035.43" y1="1461.6599999999999" x2="1000.0200000000001" y2="1352.6799999999998" style="stroke-width:1;stroke:rgb(0,0,0);fill:none"/><line x1="1000.0200000000001" y1="1352.6799999999998" x2="1092.73" y2="1285.33" style="stroke-width:1;stroke:rgb(0,0,0);fill:none"/><line x1="1092.73" y1="1285.33" x2="1185.44" y2="1352.6799999999998" style="stroke-width:1;stroke:rgb(0,0,0);fill:none"/><line x1="1185.44" y1="1352.6799999999998" x2="1150.03" y2="1461.6599999999999" style="stroke-width:1;stroke:rgb(0,0,0);fill:none"/><line x1="850.03" y1="1461.6599999999999" x2="814.62" y2="1352.6799999999998" style="stroke-width:1;stroke:rgb(0,0,0);fill:none"/><line x1="814.62" y1="1352.6799999999998" x2="907.33" y2="1285.33" style="stroke-width:1;stroke:rgb(0,0,0);fill:none"/><line x1="907.33" y1="1285.33" x2="1000.0400000000001" y2="1352.6799999999998" style="stroke-width:1;stroke:rgb(0,0,0);fill:none"/><line x1="1000.0400000000001" y1="1352.6799999999998" x2="964.6300000000001" y2="1461.6599999999999" style="stroke-width:1;stroke:rgb(0,0,0);fill:none"/><line x1="964.6300000000001" y1="1461.6599999999999" x2="850.0400000000001" y2="1461.6599999999999" style="stroke-width:1;stroke:rgb(0,0,0);fill:none"/><line x1="757.33" y1="1176.34" x2="850.0400000000001" y2="1108.99" style="stroke-width:1;stroke:rgb(0,0,0);fill:none"/><line x1="850.0400000000001" y1="1108.99" x2="942.7500000000001" y2="1176.34" style="stroke-width:1;stroke:rgb(0,0,0);fill:none"/><line x1="942.7500000000001" y1="1176.34" x2="907.3400000000001" y2="1285.32" style="stroke-width:1;stroke:rgb(0,0,0);fill:none"/><line x1="907.3400000000001" y1="1285.32" x2="792.7500000000001" y2="1285.32" style="stroke-width:1;stroke:rgb(0,0,0);fill:none"/><line x1="792.7500000000001" y1="1285.32" x2="757.3400000000001" y2="1176.34" style="stroke-width:1;stroke:rgb(0,0,0);fill:none"/></svg>