<?xml version="1.0"?><!DOCTYPE svg PUBLIC "-//W3C//DTD util.SVG 1.0//EN" "http://www.w3.org/TR/2001/REC-util.SVG-20010904/DTD/svg10.dtd"><svg xmlns="http://www.w3.org/2000/svg" height="600" width="600" text-rendering="auto" shape-rendering="auto"><line x1="300.0" y1="50.0" x2="392.71" y2="117.35" style="stroke-width:1;stroke:rgb(0,0,0);fill:none"/><line x1="392.71" y1="117.35" x2="357.29999999999995" y2="226.32999999999998" style="stroke-width:1;stroke:rgb(0,0,0);fill:none"/><line x1="357.29999999999995" y1="226.32999999999998" x2="242.70999999999995" y2="226.32999999999998" style="stroke-width:1;stroke:rgb(0,0,0);fill:none"/><line x1="242.70999999999995" y1="226.32999999999998" x2="207.29999999999995" y2="117.34999999999998" style="stroke-width:1;stroke:rgb(0,0,0);fill:none"/><line x1="207.29999999999995" y1="117.34999999999998" x2="300.00999999999993" y2="49.999999999999986" style="stroke-width:1;stroke:rgb(0,0,0);fill:none"/><line x1="542.7199999999999" y1="226.33999999999997" x2="507.30999999999995" y2="335.32" style="stroke-width:1;stroke:rgb(0,0,0);fill:none"/><line x1="507.30999999999995" y1="335.32" x2="392.7199999999999" y2="335.32" style="stroke-width:1;stroke:rgb(0,0,0);fill:none"/><line x1="392.7199999999999" y1="335.32" x2="357.30999999999995" y2="226.33999999999997" style="stroke-width:1;stroke:rgb(0,0,0);fill:none"/><line x1="357.30999999999995" y1="226.33999999999997" x2="450.0199999999999" y2="158.98999999999998" style="stroke-width:1;stroke:rgb(0,0,0);fill:none"/><line x1="450.0199999999999" y1="158.98999999999998" x2="542.7299999999999" y2="226.33999999999997" style="stroke-width:1;stroke:rgb(0,0,0);fill:none"/><line x1="450.0199999999999" y1="511.65999999999997" x2="335.42999999999995" y2="511.65999999999997" style="stroke-width:1;stroke:rgb(0,0,0);fill:none"/><line x1="335.42999999999995" y1="511.65999999999997" x2="300.02" y2="402.67999999999995" style="stroke-width:1;stroke:rgb(0,0,0);fill:none"/><line x1="300.02" y1="402.67999999999995" x2="392.72999999999996" y2="335.3299999999999" style="stroke-width:1;stroke:rgb(0,0,0);fill:none"/><line x1="392.72999999999996" y1="335.3299999999999" x2="485.43999999999994" y2="402.67999999999995" style="stroke-width:1;stroke:rgb(0,0,0);fill:none"/><line x1="485.43999999999994" y1="402.67999999999995" x2="450.03" y2="511.65999999999997" style="stroke-width:1;stroke:rgb(0,0,0);fill:none"/><line x1="150.02999999999997" y1="511.65999999999997" x2="114.61999999999998" y2="402.67999999999995" style="stroke-width:1;stroke:rgb(0,0,0);fill:none"/><line x1="114.61999999999998" y1="402.67999999999995" x2="207.32999999999998" y2="335.3299999999999" style="stroke-width:1;stroke:rgb(0,0,0);fill:none"/><line x1="207.32999999999998" y1="335.3299999999999" x2="300.03999999999996" y2="402.67999999999995" style="stroke-width:1;stroke:rgb(0,0,0);fill:none"/><line x1="300.03999999999996" y1="402.67999999999995" x2="264.63" y2="511.65999999999997" style="stroke-width:1;stroke:rgb(0,0,0);fill:none"/><line x1="264.63" y1="511.65999999999997" x2="150.04" y2="511.65999999999997" style="stroke-width:1;stroke:rgb(0,0,0);fill:none"/><line x1="57.33" y1="226.33999999999997" x2="150.04" y2="158.98999999999998" style="stroke-width:1;stroke:rgb(0,0,0);fill:none"/><line x1="150.04" y1="158.98999999999998" x2="242.75" y2="226.33999999999997" style="stroke-width:1;stroke:rgb(0,0,0);fill:none"/><line x1="242.75" y1="226.33999999999997" x2="207.34" y2="335.32" style="stroke-width:1;stroke:rgb(0,0,0);fill:none"/><line x1="207.34" y1="335.32" x2="92.75" y2="335.32" style="stroke-width:1;stroke:rgb(0,0,0);fill:none"/><line x1="92.75" y1="335.32" x2="57.34" y2="226.33999999999997" style="stroke-width:1;stroke:rgb(0,0,0);fill:none"/></svg>