<?xml version="1.0"?><!DOCTYPE svg PUBLIC "-//W3C//DTD util.SVG 1.0//EN" "http://www.w3.org/TR/2001/REC-util.SVG-20010904/DTD/svg10.dtd"><svg xmlns="http://www.w3.org/2000/svg" height="1000" width="1000" text-rendering="auto" shape-rendering="auto"><line x1="500.0" y1="0.0" x2="598.3" y2="18.37" style="stroke-width:1;stroke:rgb(0,0,0);fill:none"/><line x1="598.3" y1="18.37" x2="683.3199999999999" y2="71.01" style="stroke-width:1;stroke:rgb(0,0,0);fill:none"/><line x1="683.3199999999999" y1="71.01" x2="743.5799999999999" y2="150.81" style="stroke-width:1;stroke:rgb(0,0,0);fill:none"/><line x1="743.5799999999999" y1="150.81" x2="770.9499999999999" y2="246.99" style="stroke-width:1;stroke:rgb(0,0,0);fill:none"/><line x1="770.9499999999999" y1="246.99" x2="761.7199999999999" y2="346.56" style="stroke-width:1;stroke:rgb(0,0,0);fill:none"/><line x1="761.7199999999999" y1="346.56" x2="717.1499999999999" y2="436.08" style="stroke-width:1;stroke:rgb(0,0,0);fill:none"/><line x1="717.1499999999999" y1="436.08" x2="643.2499999999999" y2="503.45" style="stroke-width:1;stroke:rgb(0,0,0);fill:none"/><line x1="643.2499999999999" y1="503.45" x2="549.9999999999999" y2="539.5699999999999" style="stroke-width:1;stroke:rgb(0,0,0);fill:none"/><line x1="549.9999999999999" y1="539.5699999999999" x2="449.9999999999999" y2="539.5699999999999" style="stroke-width:1;stroke:rgb(0,0,0);fill:none"/><line x1="449.9999999999999" y1="539.5699999999999" x2="356.7499999999999" y2="503.44999999999993" style="stroke-width:1;stroke:rgb(0,0,0);fill:none"/><line x1="356.7499999999999" y1="503.44999999999993" x2="282.8499999999999" y2="436.0799999999999" style="stroke-width:1;stroke:rgb(0,0,0);fill:none"/><line x1="282.8499999999999" y1="436.0799999999999" x2="238.27999999999992" y2="346.55999999999995" style="stroke-width:1;stroke:rgb(0,0,0);fill:none"/><line x1="238.27999999999992" y1="346.55999999999995" x2="229.04999999999993" y2="246.98999999999995" style="stroke-width:1;stroke:rgb(0,0,0);fill:none"/><line x1="229.04999999999993" y1="246.98999999999995" x2="256.4199999999999" y2="150.80999999999995" style="stroke-width:1;stroke:rgb(0,0,0);fill:none"/><line x1="256.4199999999999" y1="150.80999999999995" x2="316.6799999999999" y2="71.00999999999995" style="stroke-width:1;stroke:rgb(0,0,0);fill:none"/><line x1="316.6799999999999" y1="71.00999999999995" x2="401.6999999999999" y2="18.369999999999948" style="stroke-width:1;stroke:rgb(0,0,0);fill:none"/><line x1="401.6999999999999" y1="18.369999999999948" x2="499.9999999999999" y2="-5.3290705182007514E-14" style="stroke-width:1;stroke:rgb(0,0,0);fill:none"/></svg>