<?xml version="1.0"?><!DOCTYPE svg PUBLIC "-//W3C//DTD util.SVG 1.0//EN" "http://www.w3.org/TR/2001/REC-util.SVG-20010904/DTD/svg10.dtd"><svg xmlns="http://www.w3.org/2000/svg" height="1100" width="1100" text-rendering="auto" shape-rendering="auto"><line x1="0.0" y1="1000.0" x2="128.0" y2="1000.0" style="stroke-width:1;stroke:rgb(0,0,0);fill:none"/><line x1="128.0" y1="1000.0" x2="64.0" y2="889.15" style="stroke-width:1;stroke:rgb(0,0,0);fill:none"/><line x1="64.0" y1="889.15" x2="0.0" y2="1000.0" style="stroke-width:1;stroke:rgb(0,0,0);fill:none"/><line x1="128.0" y1="1000.0" x2="256.0" y2="1000.0" style="stroke-width:1;stroke:rgb(0,0,0);fill:none"/><line x1="256.0" y1="1000.0" x2="192.0" y2="889.15" style="stroke-width:1;stroke:rgb(0,0,0);fill:none"/><line x1="192.0" y1="889.15" x2="128.0" y2="1000.0" style="stroke-width:1;stroke:rgb(0,0,0);fill:none"/><line x1="64.0" y1="889.15" x2="192.0" y2="889.15" style="stroke-width:1;stroke:rgb(0,0,0);fill:none"/><line x1="192.0" y1="889.15" x2="128.0" y2="778.3" style="stroke-width:1;stroke:rgb(0,0,0);fill:none"/><line x1="128.0" y1="778.3" x2="64.0" y2="889.15" style="stroke-width:1;stroke:rgb(0,0,0);fill:none"/><line x1="256.0" y1="1000.0" x2="384.0" y2="1000.0" style="stroke-width:1;stroke:rgb(0,0,0);fill:none"/><line x1="384.0" y1="1000.0" x2="320.0" y2="889.15" style="stroke-width:1;stroke:rgb(0,0,0);fill:none"/><line x1="320.0" y1="889.15" x2="256.0" y2="1000.0" style="stroke-width:1;stroke:rgb(0,0,0);fill:none"/><line x1="384.0" y1="1000.0" x2="512.0" y2="1000.0" style="stroke-width:1;stroke:rgb(0,0,0);fill:none"/><line x1="512.0" y1="1000.0" x2="448.0" y2="889.15" style="stroke-width:1;stroke:rgb(0,0,0);fill:none"/><line x1="448.0" y1="889.15" x2="384.0" y2="1000.0" style="stroke-width:1;stroke:rgb(0,0,0);fill:none"/><line x1="320.0" y1="889.15" x2="448.0" y2="889.15" style="stroke-width:1;stroke:rgb(0,0,0);fill:none"/><line x1="448.0" y1="889.15" x2="384.0" y2="778.3" style="stroke-width:1;stroke:rgb(0,0,0);fill:none"/><line x1="384.0" y1="778.3" x2="320.0" y2="889.15" style="stroke-width:1;stroke:rgb(0,0,0);fill:none"/><line x1="128.0" y1="778.29" x2="256.0" y2="778.29" style="stroke-width:1;stroke:rgb(0,0,0);fill:none"/><line x1="256.0" y1="778.29" x2="192.0" y2="667.4399999999999" style="stroke-width:1;stroke:rgb(0,0,0);fill:none"/><line x1="192.0" y1="667.4399999999999" x2="128.0" y2="778.29" style="stroke-width:1;stroke:rgb(0,0,0);fill:none"/><line x1="256.0" y1="778.29" x2="384.0" y2="778.29" style="stroke-width:1;stroke:rgb(0,0,0);fill:none"/><line x1="384.0" y1="778.29" x2="320.0" y2="667.4399999999999" style="stroke-width:1;stroke:rgb(0,0,0);fill:none"/><line x1="320.0" y1="667.4399999999999" x2="256.0" y2="778.29" style="stroke-width:1;stroke:rgb(0,0,0);fill:none"/><line x1="192.0" y1="667.4399999999999" x2="320.0" y2="667.4399999999999" style="stroke-width:1;stroke:rgb(0,0,0);fill:none"/><line x1="320.0" y1="667.4399999999999" x2="256.0" y2="556.5899999999999" style="stroke-width:1;stroke:rgb(0,0,0);fill:none"/><line x1="256.0" y1="556.5899999999999" x2="192.0" y2="667.4399999999999" style="stroke-width:1;stroke:rgb(0,0,0);fill:none"/><line x1="512.0" y1="999.99" x2="640.0" y2="999.99" style="stroke-width:1;stroke:rgb(0,0,0);fill:none"/><line x1="640.0" y1="999.99" x2="576.0" y2="889.14" style="stroke-width:1;stroke:rgb(0,0,0);fill:none"/><line x1="576.0" y1="889.14" x2="512.0" y2="999.99" style="stroke-width:1;stroke:rgb(0,0,0);fill:none"/><line x1="640.0" y1="999.99" x2="768.0" y2="999.99" style="stroke-width:1;stroke:rgb(0,0,0);fill:none"/><line x1="768.0" y1="999.99" x2="704.0" y2="889.14" style="stroke-width:1;stroke:rgb(0,0,0);fill:none"/><line x1="704.0" y1="889.14" x2="640.0" y2="999.99" style="stroke-width:1;stroke:rgb(0,0,0);fill:none"/><line x1="576.0" y1="889.14" x2="704.0" y2="889.14" style="stroke-width:1;stroke:rgb(0,0,0);fill:none"/><line x1="704.0" y1="889.14" x2="640.0" y2="778.29" style="stroke-width:1;stroke:rgb(0,0,0);fill:none"/><line x1="640.0" y1="778.29" x2="576.0" y2="889.14" style="stroke-width:1;stroke:rgb(0,0,0);fill:none"/><line x1="768.0" y1="999.99" x2="896.0" y2="999.99" style="stroke-width:1;stroke:rgb(0,0,0);fill:none"/><line x1="896.0" y1="999.99" x2="832.0" y2="889.14" style="stroke-width:1;stroke:rgb(0,0,0);fill:none"/><line x1="832.0" y1="889.14" x2="768.0" y2="999.99" style="stroke-width:1;stroke:rgb(0,0,0);fill:none"/><line x1="896.0" y1="999.99" x2="1024.0" y2="999.99" style="stroke-width:1;stroke:rgb(0,0,0);fill:none"/><line x1="1024.0" y1="999.99" x2="960.0" y2="889.14" style="stroke-width:1;stroke:rgb(0,0,0);fill:none"/><line x1="960.0" y1="889.14" x2="896.0" y2="999.99" style="stroke-width:1;stroke:rgb(0,0,0);fill:none"/><line x1="832.0" y1="889.14" x2="960.0" y2="889.14" style="stroke-width:1;stroke:rgb(0,0,0);fill:none"/><line x1="960.0" y1="889.14" x2="896.0" y2="778.29" style="stroke-width:1;stroke:rgb(0,0,0);fill:none"/><line x1="896.0" y1="778.29" x2="832.0" y2="889.14" style="stroke-width:1;stroke:rgb(0,0,0);fill:none"/><line x1="640.0" y1="778.28" x2="768.0" y2="778.28" style="stroke-width:1;stroke:rgb(0,0,0);fill:none"/><line x1="768.0" y1="778.28" x2="704.0" y2="667.43" style="stroke-width:1;stroke:rgb(0,0,0);fill:none"/><line x1="704.0" y1="667.43" x2="640.0" y2="778.28" style="stroke-width:1;stroke:rgb(0,0,0);fill:none"/><line x1="768.0" y1="778.28" x2="896.0" y2="778.28" style="stroke-width:1;stroke:rgb(0,0,0);fill:none"/><line x1="896.0" y1="778.28" x2="832.0" y2="667.43" style="stroke-width:1;stroke:rgb(0,0,0);fill:none"/><line x1="832.0" y1="667.43" x2="768.0" y2="778.28" style="stroke-width:1;stroke:rgb(0,0,0);fill:none"/><line x1="704.0" y1="667.43" x2="832.0" y2="667.43" style="stroke-width:1;stroke:rgb(0,0,0);fill:none"/><line x1="832.0" y1="667.43" x2="768.0" y2="556.5799999999999" style="stroke-width:1;stroke:rgb(0,0,0);fill:none"/><line x1="768.0" y1="556.5799999999999" x2="704.0" y2="667.43" style="stroke-width:1;stroke:rgb(0,0,0);fill:none"/><line x1="256.0" y1="556.5800000000002" x2="384.0" y2="556.5800000000002" style="stroke-width:1;stroke:rgb(0,0,0);fill:none"/><line x1="384.0" y1="556.5800000000002" x2="320.0" y2="445.73000000000013" style="stroke-width:1;stroke:rgb(0,0,0);fill:none"/><line x1="320.0" y1="445.73000000000013" x2="256.0" y2="556.5800000000002" style="stroke-width:1;stroke:rgb(0,0,0);fill:none"/><line x1="384.0" y1="556.5800000000002" x2="512.0" y2="556.5800000000002" style="stroke-width:1;stroke:rgb(0,0,0);fill:none"/><line x1="512.0" y1="556.5800000000002" x2="448.0" y2="445.73000000000013" style="stroke-width:1;stroke:rgb(0,0,0);fill:none"/><line x1="448.0" y1="445.73000000000013" x2="384.0" y2="556.5800000000002" style="stroke-width:1;stroke:rgb(0,0,0);fill:none"/><line x1="320.0" y1="445.73000000000013" x2="448.0" y2="445.73000000000013" style="stroke-width:1;stroke:rgb(0,0,0);fill:none"/><line x1="448.0" y1="445.73000000000013" x2="384.0" y2="334.8800000000001" style="stroke-width:1;stroke:rgb(0,0,0);fill:none"/><line x1="384.0" y1="334.8800000000001" x2="320.0" y2="445.73000000000013" style="stroke-width:1;stroke:rgb(0,0,0);fill:none"/><line x1="512.0" y1="556.5800000000002" x2="640.0" y2="556.5800000000002" style="stroke-width:1;stroke:rgb(0,0,0);fill:none"/><line x1="640.0" y1="556.5800000000002" x2="576.0" y2="445.73000000000013" style="stroke-width:1;stroke:rgb(0,0,0);fill:none"/><line x1="576.0" y1="445.73000000000013" x2="512.0" y2="556.5800000000002" style="stroke-width:1;stroke:rgb(0,0,0);fill:none"/><line x1="640.0" y1="556.5800000000002" x2="768.0" y2="556.5800000000002" style="stroke-width:1;stroke:rgb(0,0,0);fill:none"/><line x1="768.0" y1="556.5800000000002" x2="704.0" y2="445.73000000000013" style="stroke-width:1;stroke:rgb(0,0,0);fill:none"/><line x1="704.0" y1="445.73000000000013" x2="640.0" y2="556.5800000000002" style="stroke-width:1;stroke:rgb(0,0,0);fill:none"/><line x1="576.0" y1="445.73000000000013" x2="704.0" y2="445.73000000000013" style="stroke-width:1;stroke:rgb(0,0,0);fill:none"/><line x1="704.0" y1="445.73000000000013" x2="640.0" y2="334.8800000000001" style="stroke-width:1;stroke:rgb(0,0,0);fill:none"/><line x1="640.0" y1="334.8800000000001" x2="576.0" y2="445.73000000000013" style="stroke-width:1;stroke:rgb(0,0,0);fill:none"/><line x1="384.0" y1="334.8700000000001" x2="512.0" y2="334.8700000000001" style="stroke-width:1;stroke:rgb(0,0,0);fill:none"/><line x1="512.0" y1="334.8700000000001" x2="448.0" y2="224.02000000000012" style="stroke-width:1;stroke:rgb(0,0,0);fill:none"/><line x1="448.0" y1="224.02000000000012" x2="384.0" y2="334.8700000000001" style="stroke-width:1;stroke:rgb(0,0,0);fill:none"/><line x1="512.0" y1="334.8700000000001" x2="640.0" y2="334.8700000000001" style="stroke-width:1;stroke:rgb(0,0,0);fill:none"/><line x1="640.0" y1="334.8700000000001" x2="576.0" y2="224.02000000000012" style="stroke-width:1;stroke:rgb(0,0,0);fill:none"/><line x1="576.0" y1="224.02000000000012" x2="512.0" y2="334.8700000000001" style="stroke-width:1;stroke:rgb(0,0,0);fill:none"/><line x1="448.0" y1="224.02000000000012" x2="576.0" y2="224.02000000000012" style="stroke-width:1;stroke:rgb(0,0,0);fill:none"/><line x1="576.0" y1="224.02000000000012" x2="512.0" y2="113.17000000000013" style="stroke-width:1;stroke:rgb(0,0,0);fill:none"/><line x1="512.0" y1="113.17000000000013" x2="448.0" y2="224.02000000000012" style="stroke-width:1;stroke:rgb(0,0,0);fill:none"/></svg>