<?xml version="1.0"?><!DOCTYPE svg PUBLIC "-//W3C//DTD util.SVG 1.0//EN" "http://www.w3.org/TR/2001/REC-util.SVG-20010904/DTD/svg10.dtd"><svg xmlns="http://www.w3.org/2000/svg" height="350" width="300" text-rendering="auto" shape-rendering="auto"><line x1="10.0" y1="250.0" x2="20.0" y2="250.0" style="stroke-width:1;stroke:rgb(0,0,0);fill:none"/><line x1="20.0" y1="250.0" x2="25.0" y2="258.66" style="stroke-width:1;stroke:rgb(0,0,0);fill:none"/><line x1="25.0" y1="258.66" x2="30.0" y2="250.00000000000003" style="stroke-width:1;stroke:rgb(0,0,0);fill:none"/><line x1="30.0" y1="250.00000000000003" x2="40.0" y2="250.00000000000003" style="stroke-width:1;stroke:rgb(0,0,0);fill:none"/><line x1="40.0" y1="250.00000000000003" x2="45.0" y2="258.66" style="stroke-width:1;stroke:rgb(0,0,0);fill:none"/><line x1="45.0" y1="258.66" x2="40.0" y2="267.32000000000005" style="stroke-width:1;stroke:rgb(0,0,0);fill:none"/><line x1="40.0" y1="267.32000000000005" x2="50.0" y2="267.32000000000005" style="stroke-width:1;stroke:rgb(0,0,0);fill:none"/><line x1="50.0" y1="267.32000000000005" x2="55.0" y2="275.9800000000001" style="stroke-width:1;stroke:rgb(0,0,0);fill:none"/><line x1="55.0" y1="275.9800000000001" x2="60.0" y2="267.32000000000005" style="stroke-width:1;stroke:rgb(0,0,0);fill:none"/><line x1="60.0" y1="267.32000000000005" x2="70.0" y2="267.32000000000005" style="stroke-width:1;stroke:rgb(0,0,0);fill:none"/><line x1="70.0" y1="267.32000000000005" x2="65.0" y2="258.66" style="stroke-width:1;stroke:rgb(0,0,0);fill:none"/><line x1="65.0" y1="258.66" x2="70.0" y2="250.00000000000003" style="stroke-width:1;stroke:rgb(0,0,0);fill:none"/><line x1="70.0" y1="250.00000000000003" x2="80.0" y2="250.00000000000003" style="stroke-width:1;stroke:rgb(0,0,0);fill:none"/><line x1="80.0" y1="250.00000000000003" x2="85.0" y2="258.66" style="stroke-width:1;stroke:rgb(0,0,0);fill:none"/><line x1="85.0" y1="258.66" x2="90.0" y2="250.00000000000003" style="stroke-width:1;stroke:rgb(0,0,0);fill:none"/><line x1="90.0" y1="250.00000000000003" x2="100.0" y2="250.00000000000003" style="stroke-width:1;stroke:rgb(0,0,0);fill:none"/><line x1="100.0" y1="250.00000000000003" x2="105.0" y2="258.66" style="stroke-width:1;stroke:rgb(0,0,0);fill:none"/><line x1="105.0" y1="258.66" x2="100.0" y2="267.32000000000005" style="stroke-width:1;stroke:rgb(0,0,0);fill:none"/><line x1="100.0" y1="267.32000000000005" x2="110.0" y2="267.32000000000005" style="stroke-width:1;stroke:rgb(0,0,0);fill:none"/><line x1="110.0" y1="267.32000000000005" x2="115.0" y2="275.9800000000001" style="stroke-width:1;stroke:rgb(0,0,0);fill:none"/><line x1="115.0" y1="275.9800000000001" x2="110.0" y2="284.6400000000001" style="stroke-width:1;stroke:rgb(0,0,0);fill:none"/><line x1="110.0" y1="284.6400000000001" x2="100.0" y2="284.6400000000001" style="stroke-width:1;stroke:rgb(0,0,0);fill:none"/><line x1="100.0" y1="284.6400000000001" x2="105.0" y2="293.3000000000001" style="stroke-width:1;stroke:rgb(0,0,0);fill:none"/><line x1="105.0" y1="293.3000000000001" x2="100.0" y2="301.96000000000015" style="stroke-width:1;stroke:rgb(0,0,0);fill:none"/><line x1="100.0" y1="301.96000000000015" x2="110.0" y2="301.96000000000015" style="stroke-width:1;stroke:rgb(0,0,0);fill:none"/><line x1="110.0" y1="301.96000000000015" x2="115.0" y2="310.6200000000002" style="stroke-width:1;stroke:rgb(0,0,0);fill:none"/><line x1="115.0" y1="310.6200000000002" x2="120.0" y2="301.96000000000015" style="stroke-width:1;stroke:rgb(0,0,0);fill:none"/><line x1="120.0" y1="301.96000000000015" x2="130.0" y2="301.96000000000015" style="stroke-width:1;stroke:rgb(0,0,0);fill:none"/><line x1="130.0" y1="301.96000000000015" x2="135.0" y2="310.6200000000002" style="stroke-width:1;stroke:rgb(0,0,0);fill:none"/><line x1="135.0" y1="310.6200000000002" x2="130.0" y2="319.2800000000002" style="stroke-width:1;stroke:rgb(0,0,0);fill:none"/><line x1="130.0" y1="319.2800000000002" x2="140.0" y2="319.2800000000002" style="stroke-width:1;stroke:rgb(0,0,0);fill:none"/><line x1="140.0" y1="319.2800000000002" x2="145.0" y2="327.9400000000002" style="stroke-width:1;stroke:rgb(0,0,0);fill:none"/><line x1="145.0" y1="327.9400000000002" x2="150.0" y2="319.2800000000002" style="stroke-width:1;stroke:rgb(0,0,0);fill:none"/><line x1="150.0" y1="319.2800000000002" x2="160.0" y2="319.2800000000002" style="stroke-width:1;stroke:rgb(0,0,0);fill:none"/><line x1="160.0" y1="319.2800000000002" x2="155.0" y2="310.6200000000002" style="stroke-width:1;stroke:rgb(0,0,0);fill:none"/><line x1="155.0" y1="310.6200000000002" x2="160.0" y2="301.96000000000015" style="stroke-width:1;stroke:rgb(0,0,0);fill:none"/><line x1="160.0" y1="301.96000000000015" x2="170.0" y2="301.96000000000015" style="stroke-width:1;stroke:rgb(0,0,0);fill:none"/><line x1="170.0" y1="301.96000000000015" x2="175.0" y2="310.6200000000002" style="stroke-width:1;stroke:rgb(0,0,0);fill:none"/><line x1="175.0" y1="310.6200000000002" x2="180.0" y2="301.96000000000015" style="stroke-width:1;stroke:rgb(0,0,0);fill:none"/><line x1="180.0" y1="301.96000000000015" x2="190.0" y2="301.96000000000015" style="stroke-width:1;stroke:rgb(0,0,0);fill:none"/><line x1="190.0" y1="301.96000000000015" x2="185.0" y2="293.3000000000001" style="stroke-width:1;stroke:rgb(0,0,0);fill:none"/><line x1="185.0" y1="293.3000000000001" x2="190.0" y2="284.6400000000001" style="stroke-width:1;stroke:rgb(0,0,0);fill:none"/><line x1="190.0" y1="284.6400000000001" x2="180.0" y2="284.6400000000001" style="stroke-width:1;stroke:rgb(0,0,0);fill:none"/><line x1="180.0" y1="284.6400000000001" x2="175.0" y2="275.9800000000001" style="stroke-width:1;stroke:rgb(0,0,0);fill:none"/><line x1="175.0" y1="275.9800000000001" x2="180.0" y2="267.32000000000005" style="stroke-width:1;stroke:rgb(0,0,0);fill:none"/><line x1="180.0" y1="267.32000000000005" x2="190.0" y2="267.32000000000005" style="stroke-width:1;stroke:rgb(0,0,0);fill:none"/><line x1="190.0" y1="267.32000000000005" x2="185.0" y2="258.66" style="stroke-width:1;stroke:rgb(0,0,0);fill:none"/><line x1="185.0" y1="258.66" x2="190.0" y2="250.00000000000003" style="stroke-width:1;stroke:rgb(0,0,0);fill:none"/><line x1="190.0" y1="250.00000000000003" x2="200.0" y2="250.00000000000003" style="stroke-width:1;stroke:rgb(0,0,0);fill:none"/><line x1="200.0" y1="250.00000000000003" x2="205.0" y2="258.66" style="stroke-width:1;stroke:rgb(0,0,0);fill:none"/><line x1="205.0" y1="258.66" x2="210.0" y2="250.00000000000003" style="stroke-width:1;stroke:rgb(0,0,0);fill:none"/><line x1="210.0" y1="250.00000000000003" x2="220.0" y2="250.00000000000003" style="stroke-width:1;stroke:rgb(0,0,0);fill:none"/><line x1="220.0" y1="250.00000000000003" x2="225.0" y2="258.66" style="stroke-width:1;stroke:rgb(0,0,0);fill:none"/><line x1="225.0" y1="258.66" x2="220.0" y2="267.32000000000005" style="stroke-width:1;stroke:rgb(0,0,0);fill:none"/><line x1="220.0" y1="267.32000000000005" x2="230.0" y2="267.32000000000005" style="stroke-width:1;stroke:rgb(0,0,0);fill:none"/><line x1="230.0" y1="267.32000000000005" x2="235.0" y2="275.9800000000001" style="stroke-width:1;stroke:rgb(0,0,0);fill:none"/><line x1="235.0" y1="275.9800000000001" x2="240.0" y2="267.32000000000005" style="stroke-width:1;stroke:rgb(0,0,0);fill:none"/><line x1="240.0" y1="267.32000000000005" x2="250.0" y2="267.32000000000005" style="stroke-width:1;stroke:rgb(0,0,0);fill:none"/><line x1="250.0" y1="267.32000000000005" x2="245.0" y2="258.66" style="stroke-width:1;stroke:rgb(0,0,0);fill:none"/><line x1="245.0" y1="258.66" x2="250.0" y2="250.00000000000003" style="stroke-width:1;stroke:rgb(0,0,0);fill:none"/><line x1="250.0" y1="250.00000000000003" x2="260.0" y2="250.00000000000003" style="stroke-width:1;stroke:rgb(0,0,0);fill:none"/><line x1="260.0" y1="250.00000000000003" x2="265.0" y2="258.66" style="stroke-width:1;stroke:rgb(0,0,0);fill:none"/><line x1="265.0" y1="258.66" x2="270.0" y2="250.00000000000003" style="stroke-width:1;stroke:rgb(0,0,0);fill:none"/><line x1="270.0" y1="250.00000000000003" x2="280.0" y2="250.00000000000003" style="stroke-width:1;stroke:rgb(0,0,0);fill:none"/><line x1="280.0" y1="250.00000000000003" x2="275.0" y2="241.34000000000003" style="stroke-width:1;stroke:rgb(0,0,0);fill:none"/><line x1="275.0" y1="241.34000000000003" x2="280.0" y2="232.68000000000004" style="stroke-width:1;stroke:rgb(0,0,0);fill:none"/><line x1="280.0" y1="232.68000000000004" x2="270.0" y2="232.68000000000004" style="stroke-width:1;stroke:rgb(0,0,0);fill:none"/><line x1="270.0" y1="232.68000000000004" x2="265.0" y2="224.02000000000004" style="stroke-width:1;stroke:rgb(0,0,0);fill:none"/><line x1="265.0" y1="224.02000000000004" x2="270.0" y2="215.36000000000004" style="stroke-width:1;stroke:rgb(0,0,0);fill:none"/><line x1="270.0" y1="215.36000000000004" x2="280.0" y2="215.36000000000004" style="stroke-width:1;stroke:rgb(0,0,0);fill:none"/><line x1="280.0" y1="215.36000000000004" x2="275.0" y2="206.70000000000005" style="stroke-width:1;stroke:rgb(0,0,0);fill:none"/><line x1="275.0" y1="206.70000000000005" x2="280.0" y2="198.04000000000005" style="stroke-width:1;stroke:rgb(0,0,0);fill:none"/><line x1="280.0" y1="198.04000000000005" x2="270.0" y2="198.04000000000005" style="stroke-width:1;stroke:rgb(0,0,0);fill:none"/><line x1="270.0" y1="198.04000000000005" x2="265.0" y2="189.38000000000005" style="stroke-width:1;stroke:rgb(0,0,0);fill:none"/><line x1="265.0" y1="189.38000000000005" x2="260.0" y2="198.04000000000005" style="stroke-width:1;stroke:rgb(0,0,0);fill:none"/><line x1="260.0" y1="198.04000000000005" x2="250.0" y2="198.04000000000005" style="stroke-width:1;stroke:rgb(0,0,0);fill:none"/><line x1="250.0" y1="198.04000000000005" x2="245.0" y2="189.38000000000005" style="stroke-width:1;stroke:rgb(0,0,0);fill:none"/><line x1="245.0" y1="189.38000000000005" x2="250.0" y2="180.72000000000006" style="stroke-width:1;stroke:rgb(0,0,0);fill:none"/><line x1="250.0" y1="180.72000000000006" x2="240.0" y2="180.72000000000006" style="stroke-width:1;stroke:rgb(0,0,0);fill:none"/><line x1="240.0" y1="180.72000000000006" x2="235.0" y2="172.06000000000006" style="stroke-width:1;stroke:rgb(0,0,0);fill:none"/><line x1="235.0" y1="172.06000000000006" x2="240.0" y2="163.40000000000006" style="stroke-width:1;stroke:rgb(0,0,0);fill:none"/><line x1="240.0" y1="163.40000000000006" x2="250.0" y2="163.40000000000006" style="stroke-width:1;stroke:rgb(0,0,0);fill:none"/><line x1="250.0" y1="163.40000000000006" x2="245.0" y2="154.74000000000007" style="stroke-width:1;stroke:rgb(0,0,0);fill:none"/><line x1="245.0" y1="154.74000000000007" x2="250.0" y2="146.08000000000007" style="stroke-width:1;stroke:rgb(0,0,0);fill:none"/><line x1="250.0" y1="146.08000000000007" x2="260.0" y2="146.08000000000007" style="stroke-width:1;stroke:rgb(0,0,0);fill:none"/><line x1="260.0" y1="146.08000000000007" x2="265.0" y2="154.74000000000007" style="stroke-width:1;stroke:rgb(0,0,0);fill:none"/><line x1="265.0" y1="154.74000000000007" x2="270.0" y2="146.08000000000007" style="stroke-width:1;stroke:rgb(0,0,0);fill:none"/><line x1="270.0" y1="146.08000000000007" x2="280.0" y2="146.08000000000007" style="stroke-width:1;stroke:rgb(0,0,0);fill:none"/><line x1="280.0" y1="146.08000000000007" x2="275.0" y2="137.42000000000007" style="stroke-width:1;stroke:rgb(0,0,0);fill:none"/><line x1="275.0" y1="137.42000000000007" x2="280.0" y2="128.76000000000008" style="stroke-width:1;stroke:rgb(0,0,0);fill:none"/><line x1="280.0" y1="128.76000000000008" x2="270.0" y2="128.76000000000008" style="stroke-width:1;stroke:rgb(0,0,0);fill:none"/><line x1="270.0" y1="128.76000000000008" x2="265.0" y2="120.10000000000008" style="stroke-width:1;stroke:rgb(0,0,0);fill:none"/><line x1="265.0" y1="120.10000000000008" x2="270.0" y2="111.44000000000008" style="stroke-width:1;stroke:rgb(0,0,0);fill:none"/><line x1="270.0" y1="111.44000000000008" x2="280.0" y2="111.44000000000008" style="stroke-width:1;stroke:rgb(0,0,0);fill:none"/><line x1="280.0" y1="111.44000000000008" x2="275.0" y2="102.78000000000009" style="stroke-width:1;stroke:rgb(0,0,0);fill:none"/><line x1="275.0" y1="102.78000000000009" x2="280.0" y2="94.12000000000009" style="stroke-width:1;stroke:rgb(0,0,0);fill:none"/><line x1="280.0" y1="94.12000000000009" x2="270.0" y2="94.12000000000009" style="stroke-width:1;stroke:rgb(0,0,0);fill:none"/><line x1="270.0" y1="94.12000000000009" x2="265.0" y2="85.4600000000001" style="stroke-width:1;stroke:rgb(0,0,0);fill:none"/><line x1="265.0" y1="85.4600000000001" x2="260.0" y2="94.12000000000009" style="stroke-width:1;stroke:rgb(0,0,0);fill:none"/><line x1="260.0" y1="94.12000000000009" x2="250.0" y2="94.12000000000009" style="stroke-width:1;stroke:rgb(0,0,0);fill:none"/><line x1="250.0" y1="94.12000000000009" x2="245.0" y2="85.4600000000001" style="stroke-width:1;stroke:rgb(0,0,0);fill:none"/><line x1="245.0" y1="85.4600000000001" x2="250.0" y2="76.8000000000001" style="stroke-width:1;stroke:rgb(0,0,0);fill:none"/><line x1="250.0" y1="76.8000000000001" x2="240.0" y2="76.8000000000001" style="stroke-width:1;stroke:rgb(0,0,0);fill:none"/><line x1="240.0" y1="76.8000000000001" x2="235.0" y2="68.1400000000001" style="stroke-width:1;stroke:rgb(0,0,0);fill:none"/><line x1="235.0" y1="68.1400000000001" x2="230.0" y2="76.8000000000001" style="stroke-width:1;stroke:rgb(0,0,0);fill:none"/><line x1="230.0" y1="76.8000000000001" x2="220.0" y2="76.8000000000001" style="stroke-width:1;stroke:rgb(0,0,0);fill:none"/><line x1="220.0" y1="76.8000000000001" x2="225.0" y2="85.4600000000001" style="stroke-width:1;stroke:rgb(0,0,0);fill:none"/><line x1="225.0" y1="85.4600000000001" x2="220.0" y2="94.12000000000009" style="stroke-width:1;stroke:rgb(0,0,0);fill:none"/><line x1="220.0" y1="94.12000000000009" x2="210.0" y2="94.12000000000009" style="stroke-width:1;stroke:rgb(0,0,0);fill:none"/><line x1="210.0" y1="94.12000000000009" x2="205.0" y2="85.4600000000001" style="stroke-width:1;stroke:rgb(0,0,0);fill:none"/><line x1="205.0" y1="85.4600000000001" x2="200.0" y2="94.12000000000009" style="stroke-width:1;stroke:rgb(0,0,0);fill:none"/><line x1="200.0" y1="94.12000000000009" x2="190.0" y2="94.12000000000009" style="stroke-width:1;stroke:rgb(0,0,0);fill:none"/><line x1="190.0" y1="94.12000000000009" x2="185.0" y2="85.4600000000001" style="stroke-width:1;stroke:rgb(0,0,0);fill:none"/><line x1="185.0" y1="85.4600000000001" x2="190.0" y2="76.8000000000001" style="stroke-width:1;stroke:rgb(0,0,0);fill:none"/><line x1="190.0" y1="76.8000000000001" x2="180.0" y2="76.8000000000001" style="stroke-width:1;stroke:rgb(0,0,0);fill:none"/><line x1="180.0" y1="76.8000000000001" x2="175.0" y2="68.1400000000001" style="stroke-width:1;stroke:rgb(0,0,0);fill:none"/><line x1="175.0" y1="68.1400000000001" x2="180.0" y2="59.4800000000001" style="stroke-width:1;stroke:rgb(0,0,0);fill:none"/><line x1="180.0" y1="59.4800000000001" x2="190.0" y2="59.4800000000001" style="stroke-width:1;stroke:rgb(0,0,0);fill:none"/><line x1="190.0" y1="59.4800000000001" x2="185.0" y2="50.82000000000011" style="stroke-width:1;stroke:rgb(0,0,0);fill:none"/><line x1="185.0" y1="50.82000000000011" x2="190.0" y2="42.16000000000011" style="stroke-width:1;stroke:rgb(0,0,0);fill:none"/><line x1="190.0" y1="42.16000000000011" x2="180.0" y2="42.16000000000011" style="stroke-width:1;stroke:rgb(0,0,0);fill:none"/><line x1="180.0" y1="42.16000000000011" x2="175.0" y2="33.500000000000114" style="stroke-width:1;stroke:rgb(0,0,0);fill:none"/><line x1="175.0" y1="33.500000000000114" x2="170.0" y2="42.16000000000011" style="stroke-width:1;stroke:rgb(0,0,0);fill:none"/><line x1="170.0" y1="42.16000000000011" x2="160.0" y2="42.16000000000011" style="stroke-width:1;stroke:rgb(0,0,0);fill:none"/><line x1="160.0" y1="42.16000000000011" x2="155.0" y2="33.500000000000114" style="stroke-width:1;stroke:rgb(0,0,0);fill:none"/><line x1="155.0" y1="33.500000000000114" x2="160.0" y2="24.840000000000114" style="stroke-width:1;stroke:rgb(0,0,0);fill:none"/><line x1="160.0" y1="24.840000000000114" x2="150.0" y2="24.840000000000114" style="stroke-width:1;stroke:rgb(0,0,0);fill:none"/><line x1="150.0" y1="24.840000000000114" x2="145.0" y2="16.180000000000113" style="stroke-width:1;stroke:rgb(0,0,0);fill:none"/><line x1="145.0" y1="16.180000000000113" x2="140.0" y2="24.840000000000114" style="stroke-width:1;stroke:rgb(0,0,0);fill:none"/><line x1="140.0" y1="24.840000000000114" x2="130.0" y2="24.840000000000114" style="stroke-width:1;stroke:rgb(0,0,0);fill:none"/><line x1="130.0" y1="24.840000000000114" x2="135.0" y2="33.500000000000114" style="stroke-width:1;stroke:rgb(0,0,0);fill:none"/><line x1="135.0" y1="33.500000000000114" x2="130.0" y2="42.16000000000011" style="stroke-width:1;stroke:rgb(0,0,0);fill:none"/><line x1="130.0" y1="42.16000000000011" x2="120.0" y2="42.16000000000011" style="stroke-width:1;stroke:rgb(0,0,0);fill:none"/><line x1="120.0" y1="42.16000000000011" x2="115.0" y2="33.500000000000114" style="stroke-width:1;stroke:rgb(0,0,0);fill:none"/><line x1="115.0" y1="33.500000000000114" x2="110.0" y2="42.16000000000011" style="stroke-width:1;stroke:rgb(0,0,0);fill:none"/><line x1="110.0" y1="42.16000000000011" x2="100.0" y2="42.16000000000011" style="stroke-width:1;stroke:rgb(0,0,0);fill:none"/><line x1="100.0" y1="42.16000000000011" x2="105.0" y2="50.82000000000011" style="stroke-width:1;stroke:rgb(0,0,0);fill:none"/><line x1="105.0" y1="50.82000000000011" x2="100.0" y2="59.4800000000001" style="stroke-width:1;stroke:rgb(0,0,0);fill:none"/><line x1="100.0" y1="59.4800000000001" x2="110.0" y2="59.4800000000001" style="stroke-width:1;stroke:rgb(0,0,0);fill:none"/><line x1="110.0" y1="59.4800000000001" x2="115.0" y2="68.1400000000001" style="stroke-width:1;stroke:rgb(0,0,0);fill:none"/><line x1="115.0" y1="68.1400000000001" x2="110.0" y2="76.8000000000001" style="stroke-width:1;stroke:rgb(0,0,0);fill:none"/><line x1="110.0" y1="76.8000000000001" x2="100.0" y2="76.8000000000001" style="stroke-width:1;stroke:rgb(0,0,0);fill:none"/><line x1="100.0" y1="76.8000000000001" x2="105.0" y2="85.4600000000001" style="stroke-width:1;stroke:rgb(0,0,0);fill:none"/><line x1="105.0" y1="85.4600000000001" x2="100.0" y2="94.12000000000009" style="stroke-width:1;stroke:rgb(0,0,0);fill:none"/><line x1="100.0" y1="94.12000000000009" x2="90.0" y2="94.12000000000009" style="stroke-width:1;stroke:rgb(0,0,0);fill:none"/><line x1="90.0" y1="94.12000000000009" x2="85.0" y2="85.4600000000001" style="stroke-width:1;stroke:rgb(0,0,0);fill:none"/><line x1="85.0" y1="85.4600000000001" x2="80.0" y2="94.12000000000009" style="stroke-width:1;stroke:rgb(0,0,0);fill:none"/><line x1="80.0" y1="94.12000000000009" x2="70.0" y2="94.12000000000009" style="stroke-width:1;stroke:rgb(0,0,0);fill:none"/><line x1="70.0" y1="94.12000000000009" x2="65.0" y2="85.4600000000001" style="stroke-width:1;stroke:rgb(0,0,0);fill:none"/><line x1="65.0" y1="85.4600000000001" x2="70.0" y2="76.8000000000001" style="stroke-width:1;stroke:rgb(0,0,0);fill:none"/><line x1="70.0" y1="76.8000000000001" x2="60.0" y2="76.8000000000001" style="stroke-width:1;stroke:rgb(0,0,0);fill:none"/><line x1="60.0" y1="76.8000000000001" x2="55.0" y2="68.1400000000001" style="stroke-width:1;stroke:rgb(0,0,0);fill:none"/><line x1="55.0" y1="68.1400000000001" x2="50.0" y2="76.8000000000001" style="stroke-width:1;stroke:rgb(0,0,0);fill:none"/><line x1="50.0" y1="76.8000000000001" x2="40.0" y2="76.8000000000001" style="stroke-width:1;stroke:rgb(0,0,0);fill:none"/><line x1="40.0" y1="76.8000000000001" x2="45.0" y2="85.4600000000001" style="stroke-width:1;stroke:rgb(0,0,0);fill:none"/><line x1="45.0" y1="85.4600000000001" x2="40.0" y2="94.12000000000009" style="stroke-width:1;stroke:rgb(0,0,0);fill:none"/><line x1="40.0" y1="94.12000000000009" x2="30.0" y2="94.12000000000009" style="stroke-width:1;stroke:rgb(0,0,0);fill:none"/><line x1="30.0" y1="94.12000000000009" x2="25.0" y2="85.4600000000001" style="stroke-width:1;stroke:rgb(0,0,0);fill:none"/><line x1="25.0" y1="85.4600000000001" x2="20.0" y2="94.12000000000009" style="stroke-width:1;stroke:rgb(0,0,0);fill:none"/><line x1="20.0" y1="94.12000000000009" x2="10.0" y2="94.12000000000009" style="stroke-width:1;stroke:rgb(0,0,0);fill:none"/><line x1="10.0" y1="94.12000000000009" x2="15.0" y2="102.78000000000009" style="stroke-width:1;stroke:rgb(0,0,0);fill:none"/><line x1="15.0" y1="102.78000000000009" x2="10.0" y2="111.44000000000008" style="stroke-width:1;stroke:rgb(0,0,0);fill:none"/><line x1="10.0" y1="111.44000000000008" x2="20.0" y2="111.44000000000008" style="stroke-width:1;stroke:rgb(0,0,0);fill:none"/><line x1="20.0" y1="111.44000000000008" x2="25.0" y2="120.10000000000008" style="stroke-width:1;stroke:rgb(0,0,0);fill:none"/><line x1="25.0" y1="120.10000000000008" x2="20.0" y2="128.76000000000008" style="stroke-width:1;stroke:rgb(0,0,0);fill:none"/><line x1="20.0" y1="128.76000000000008" x2="10.0" y2="128.76000000000008" style="stroke-width:1;stroke:rgb(0,0,0);fill:none"/><line x1="10.0" y1="128.76000000000008" x2="15.0" y2="137.42000000000007" style="stroke-width:1;stroke:rgb(0,0,0);fill:none"/><line x1="15.0" y1="137.42000000000007" x2="10.0" y2="146.08000000000007" style="stroke-width:1;stroke:rgb(0,0,0);fill:none"/><line x1="10.0" y1="146.08000000000007" x2="20.0" y2="146.08000000000007" style="stroke-width:1;stroke:rgb(0,0,0);fill:none"/><line x1="20.0" y1="146.08000000000007" x2="25.0" y2="154.74000000000007" style="stroke-width:1;stroke:rgb(0,0,0);fill:none"/><line x1="25.0" y1="154.74000000000007" x2="30.0" y2="146.08000000000007" style="stroke-width:1;stroke:rgb(0,0,0);fill:none"/><line x1="30.0" y1="146.08000000000007" x2="40.0" y2="146.08000000000007" style="stroke-width:1;stroke:rgb(0,0,0);fill:none"/><line x1="40.0" y1="146.08000000000007" x2="45.0" y2="154.74000000000007" style="stroke-width:1;stroke:rgb(0,0,0);fill:none"/><line x1="45.0" y1="154.74000000000007" x2="40.0" y2="163.40000000000006" style="stroke-width:1;stroke:rgb(0,0,0);fill:none"/><line x1="40.0" y1="163.40000000000006" x2="50.0" y2="163.40000000000006" style="stroke-width:1;stroke:rgb(0,0,0);fill:none"/><line x1="50.0" y1="163.40000000000006" x2="55.0" y2="172.06000000000006" style="stroke-width:1;stroke:rgb(0,0,0);fill:none"/><line x1="55.0" y1="172.06000000000006" x2="50.0" y2="180.72000000000006" style="stroke-width:1;stroke:rgb(0,0,0);fill:none"/><line x1="50.0" y1="180.72000000000006" x2="40.0" y2="180.72000000000006" style="stroke-width:1;stroke:rgb(0,0,0);fill:none"/><line x1="40.0" y1="180.72000000000006" x2="45.0" y2="189.38000000000005" style="stroke-width:1;stroke:rgb(0,0,0);fill:none"/><line x1="45.0" y1="189.38000000000005" x2="40.0" y2="198.04000000000005" style="stroke-width:1;stroke:rgb(0,0,0);fill:none"/><line x1="40.0" y1="198.04000000000005" x2="30.0" y2="198.04000000000005" style="stroke-width:1;stroke:rgb(0,0,0);fill:none"/><line x1="30.0" y1="198.04000000000005" x2="25.0" y2="189.38000000000005" style="stroke-width:1;stroke:rgb(0,0,0);fill:none"/><line x1="25.0" y1="189.38000000000005" x2="20.0" y2="198.04000000000005" style="stroke-width:1;stroke:rgb(0,0,0);fill:none"/><line x1="20.0" y1="198.04000000000005" x2="10.0" y2="198.04000000000005" style="stroke-width:1;stroke:rgb(0,0,0);fill:none"/><line x1="10.0" y1="198.04000000000005" x2="15.0" y2="206.70000000000005" style="stroke-width:1;stroke:rgb(0,0,0);fill:none"/><line x1="15.0" y1="206.70000000000005" x2="10.0" y2="215.36000000000004" style="stroke-width:1;stroke:rgb(0,0,0);fill:none"/><line x1="10.0" y1="215.36000000000004" x2="20.0" y2="215.36000000000004" style="stroke-width:1;stroke:rgb(0,0,0);fill:none"/><line x1="20.0" y1="215.36000000000004" x2="25.0" y2="224.02000000000004" style="stroke-width:1;stroke:rgb(0,0,0);fill:none"/><line x1="25.0" y1="224.02000000000004" x2="20.0" y2="232.68000000000004" style="stroke-width:1;stroke:rgb(0,0,0);fill:none"/><line x1="20.0" y1="232.68000000000004" x2="10.0" y2="232.68000000000004" style="stroke-width:1;stroke:rgb(0,0,0);fill:none"/><line x1="10.0" y1="232.68000000000004" x2="15.0" y2="241.34000000000003" style="stroke-width:1;stroke:rgb(0,0,0);fill:none"/><line x1="15.0" y1="241.34000000000003" x2="10.0" y2="250.00000000000003" style="stroke-width:1;stroke:rgb(0,0,0);fill:none"/></svg>