<?xml version="1.0"?><!DOCTYPE svg PUBLIC "-//W3C//DTD util.SVG 1.0//EN" "http://www.w3.org/TR/2001/REC-util.SVG-20010904/DTD/svg10.dtd"><svg xmlns="http://www.w3.org/2000/svg" height="600" width="600" text-rendering="auto" shape-rendering="auto"><polyline points=" 0.0,0.0 0.0,600.0 600.0,600.0 0.0,0.0 " style="stroke-width:1;stroke:rgb(0,0,0);fill:none" /><polygon points=" 0.0,0.0 0.0,30.0 30.0,30.0 " style=";stroke:rgb(0,255,0);fill:rgb(0,255,0)" /><polygon points=" 600.0,600.0 570.0,570.0 570.0,600.0 " style=";stroke:rgb(255,0,0);fill:rgb(255,0,0)" /><line x1="30.0" y1="30.0" x2="30.0" y2="60.0" style="stroke-width:1;stroke:rgb(0,0,0);fill:none"/><line x1="30.0" y1="60.0" x2="60.0" y2="90.0" style="stroke-width:1;stroke:rgb(0,0,0);fill:none"/><line x1="30.0" y1="90.0" x2="60.0" y2="90.0" style="stroke-width:1;stroke:rgb(0,0,0);fill:none"/><line x1="0.0" y1="120.0" x2="30.0" y2="150.0" style="stroke-width:1;stroke:rgb(0,0,0);fill:none"/><line x1="30.0" y1="120.0" x2="60.0" y2="150.0" style="stroke-width:1;stroke:rgb(0,0,0);fill:none"/><line x1="60.0" y1="120.0" x2="60.0" y2="150.0" style="stroke-width:1;stroke:rgb(0,0,0);fill:none"/><line x1="60.0" y1="150.0" x2="90.0" y2="150.0" style="stroke-width:1;stroke:rgb(0,0,0);fill:none"/><line x1="90.0" y1="120.0" x2="90.0" y2="150.0" style="stroke-width:1;stroke:rgb(0,0,0);fill:none"/><line x1="90.0" y1="120.0" x2="120.0" y2="150.0" style="stroke-width:1;stroke:rgb(0,0,0);fill:none"/><line x1="30.0" y1="180.0" x2="60.0" y2="180.0" style="stroke-width:1;stroke:rgb(0,0,0);fill:none"/><line x1="60.0" y1="150.0" x2="90.0" y2="180.0" style="stroke-width:1;stroke:rgb(0,0,0);fill:none"/><line x1="60.0" y1="180.0" x2="90.0" y2="180.0" style="stroke-width:1;stroke:rgb(0,0,0);fill:none"/><line x1="90.0" y1="180.0" x2="120.0" y2="180.0" style="stroke-width:1;stroke:rgb(0,0,0);fill:none"/><line x1="120.0" y1="150.0" x2="150.0" y2="180.0" style="stroke-width:1;stroke:rgb(0,0,0);fill:none"/><line x1="150.0" y1="180.0" x2="180.0" y2="180.0" style="stroke-width:1;stroke:rgb(0,0,0);fill:none"/><line x1="0.0" y1="180.0" x2="30.0" y2="210.0" style="stroke-width:1;stroke:rgb(0,0,0);fill:none"/><line x1="30.0" y1="210.0" x2="60.0" y2="210.0" style="stroke-width:1;stroke:rgb(0,0,0);fill:none"/><line x1="60.0" y1="210.0" x2="90.0" y2="210.0" style="stroke-width:1;stroke:rgb(0,0,0);fill:none"/><line x1="90.0" y1="180.0" x2="120.0" y2="210.0" style="stroke-width:1;stroke:rgb(0,0,0);fill:none"/><line x1="150.0" y1="180.0" x2="150.0" y2="210.0" style="stroke-width:1;stroke:rgb(0,0,0);fill:none"/><line x1="150.0" y1="180.0" x2="180.0" y2="210.0" style="stroke-width:1;stroke:rgb(0,0,0);fill:none"/><line x1="30.0" y1="210.0" x2="60.0" y2="240.0" style="stroke-width:1;stroke:rgb(0,0,0);fill:none"/><line x1="120.0" y1="240.0" x2="150.0" y2="240.0" style="stroke-width:1;stroke:rgb(0,0,0);fill:none"/><line x1="180.0" y1="240.0" x2="210.0" y2="240.0" style="stroke-width:1;stroke:rgb(0,0,0);fill:none"/><line x1="210.0" y1="240.0" x2="240.0" y2="240.0" style="stroke-width:1;stroke:rgb(0,0,0);fill:none"/><line x1="30.0" y1="240.0" x2="60.0" y2="270.0" style="stroke-width:1;stroke:rgb(0,0,0);fill:none"/><line x1="60.0" y1="240.0" x2="90.0" y2="270.0" style="stroke-width:1;stroke:rgb(0,0,0);fill:none"/><line x1="60.0" y1="270.0" x2="90.0" y2="270.0" style="stroke-width:1;stroke:rgb(0,0,0);fill:none"/><line x1="90.0" y1="240.0" x2="90.0" y2="270.0" style="stroke-width:1;stroke:rgb(0,0,0);fill:none"/><line x1="120.0" y1="240.0" x2="120.0" y2="270.0" style="stroke-width:1;stroke:rgb(0,0,0);fill:none"/><line x1="120.0" y1="240.0" x2="150.0" y2="270.0" style="stroke-width:1;stroke:rgb(0,0,0);fill:none"/><line x1="150.0" y1="240.0" x2="180.0" y2="270.0" style="stroke-width:1;stroke:rgb(0,0,0);fill:none"/><line x1="180.0" y1="240.0" x2="180.0" y2="270.0" style="stroke-width:1;stroke:rgb(0,0,0);fill:none"/><line x1="0.0" y1="300.0" x2="30.0" y2="300.0" style="stroke-width:1;stroke:rgb(0,0,0);fill:none"/><line x1="30.0" y1="270.0" x2="30.0" y2="300.0" style="stroke-width:1;stroke:rgb(0,0,0);fill:none"/><line x1="60.0" y1="270.0" x2="90.0" y2="300.0" style="stroke-width:1;stroke:rgb(0,0,0);fill:none"/><line x1="60.0" y1="300.0" x2="90.0" y2="300.0" style="stroke-width:1;stroke:rgb(0,0,0);fill:none"/><line x1="90.0" y1="300.0" x2="120.0" y2="300.0" style="stroke-width:1;stroke:rgb(0,0,0);fill:none"/><line x1="120.0" y1="300.0" x2="150.0" y2="300.0" style="stroke-width:1;stroke:rgb(0,0,0);fill:none"/><line x1="150.0" y1="300.0" x2="180.0" y2="300.0" style="stroke-width:1;stroke:rgb(0,0,0);fill:none"/><line x1="210.0" y1="270.0" x2="210.0" y2="300.0" style="stroke-width:1;stroke:rgb(0,0,0);fill:none"/><line x1="240.0" y1="270.0" x2="240.0" y2="300.0" style="stroke-width:1;stroke:rgb(0,0,0);fill:none"/><line x1="0.0" y1="300.0" x2="30.0" y2="330.0" style="stroke-width:1;stroke:rgb(0,0,0);fill:none"/><line x1="30.0" y1="330.0" x2="60.0" y2="330.0" style="stroke-width:1;stroke:rgb(0,0,0);fill:none"/><line x1="90.0" y1="300.0" x2="90.0" y2="330.0" style="stroke-width:1;stroke:rgb(0,0,0);fill:none"/><line x1="120.0" y1="300.0" x2="150.0" y2="330.0" style="stroke-width:1;stroke:rgb(0,0,0);fill:none"/><line x1="120.0" y1="330.0" x2="150.0" y2="330.0" style="stroke-width:1;stroke:rgb(0,0,0);fill:none"/><line x1="150.0" y1="330.0" x2="180.0" y2="330.0" style="stroke-width:1;stroke:rgb(0,0,0);fill:none"/><line x1="210.0" y1="300.0" x2="240.0" y2="330.0" style="stroke-width:1;stroke:rgb(0,0,0);fill:none"/><line x1="240.0" y1="300.0" x2="270.0" y2="330.0" style="stroke-width:1;stroke:rgb(0,0,0);fill:none"/><line x1="270.0" y1="300.0" x2="300.0" y2="330.0" style="stroke-width:1;stroke:rgb(0,0,0);fill:none"/><line x1="270.0" y1="330.0" x2="300.0" y2="330.0" style="stroke-width:1;stroke:rgb(0,0,0);fill:none"/><line x1="300.0" y1="300.0" x2="330.0" y2="330.0" style="stroke-width:1;stroke:rgb(0,0,0);fill:none"/><line x1="300.0" y1="330.0" x2="330.0" y2="330.0" style="stroke-width:1;stroke:rgb(0,0,0);fill:none"/><line x1="30.0" y1="330.0" x2="30.0" y2="360.0" style="stroke-width:1;stroke:rgb(0,0,0);fill:none"/><line x1="30.0" y1="330.0" x2="60.0" y2="360.0" style="stroke-width:1;stroke:rgb(0,0,0);fill:none"/><line x1="90.0" y1="330.0" x2="90.0" y2="360.0" style="stroke-width:1;stroke:rgb(0,0,0);fill:none"/><line x1="90.0" y1="360.0" x2="120.0" y2="360.0" style="stroke-width:1;stroke:rgb(0,0,0);fill:none"/><line x1="150.0" y1="330.0" x2="150.0" y2="360.0" style="stroke-width:1;stroke:rgb(0,0,0);fill:none"/><line x1="210.0" y1="330.0" x2="210.0" y2="360.0" style="stroke-width:1;stroke:rgb(0,0,0);fill:none"/><line x1="240.0" y1="330.0" x2="240.0" y2="360.0" style="stroke-width:1;stroke:rgb(0,0,0);fill:none"/><line x1="270.0" y1="360.0" x2="300.0" y2="360.0" style="stroke-width:1;stroke:rgb(0,0,0);fill:none"/><line x1="0.0" y1="360.0" x2="30.0" y2="390.0" style="stroke-width:1;stroke:rgb(0,0,0);fill:none"/><line x1="60.0" y1="390.0" x2="90.0" y2="390.0" style="stroke-width:1;stroke:rgb(0,0,0);fill:none"/><line x1="120.0" y1="390.0" x2="150.0" y2="390.0" style="stroke-width:1;stroke:rgb(0,0,0);fill:none"/><line x1="150.0" y1="390.0" x2="180.0" y2="390.0" style="stroke-width:1;stroke:rgb(0,0,0);fill:none"/><line x1="180.0" y1="360.0" x2="210.0" y2="390.0" style="stroke-width:1;stroke:rgb(0,0,0);fill:none"/><line x1="210.0" y1="360.0" x2="210.0" y2="390.0" style="stroke-width:1;stroke:rgb(0,0,0);fill:none"/><line x1="210.0" y1="390.0" x2="240.0" y2="390.0" style="stroke-width:1;stroke:rgb(0,0,0);fill:none"/><line x1="240.0" y1="360.0" x2="240.0" y2="390.0" style="stroke-width:1;stroke:rgb(0,0,0);fill:none"/><line x1="300.0" y1="360.0" x2="300.0" y2="390.0" style="stroke-width:1;stroke:rgb(0,0,0);fill:none"/><line x1="330.0" y1="360.0" x2="360.0" y2="390.0" style="stroke-width:1;stroke:rgb(0,0,0);fill:none"/><line x1="360.0" y1="390.0" x2="390.0" y2="390.0" style="stroke-width:1;stroke:rgb(0,0,0);fill:none"/><line x1="30.0" y1="390.0" x2="60.0" y2="420.0" style="stroke-width:1;stroke:rgb(0,0,0);fill:none"/><line x1="60.0" y1="390.0" x2="60.0" y2="420.0" style="stroke-width:1;stroke:rgb(0,0,0);fill:none"/><line x1="60.0" y1="390.0" x2="90.0" y2="420.0" style="stroke-width:1;stroke:rgb(0,0,0);fill:none"/><line x1="90.0" y1="390.0" x2="120.0" y2="420.0" style="stroke-width:1;stroke:rgb(0,0,0);fill:none"/><line x1="120.0" y1="390.0" x2="120.0" y2="420.0" style="stroke-width:1;stroke:rgb(0,0,0);fill:none"/><line x1="120.0" y1="420.0" x2="150.0" y2="420.0" style="stroke-width:1;stroke:rgb(0,0,0);fill:none"/><line x1="180.0" y1="390.0" x2="180.0" y2="420.0" style="stroke-width:1;stroke:rgb(0,0,0);fill:none"/><line x1="180.0" y1="420.0" x2="210.0" y2="420.0" style="stroke-width:1;stroke:rgb(0,0,0);fill:none"/><line x1="210.0" y1="390.0" x2="210.0" y2="420.0" style="stroke-width:1;stroke:rgb(0,0,0);fill:none"/><line x1="240.0" y1="390.0" x2="240.0" y2="420.0" style="stroke-width:1;stroke:rgb(0,0,0);fill:none"/><line x1="240.0" y1="420.0" x2="270.0" y2="420.0" style="stroke-width:1;stroke:rgb(0,0,0);fill:none"/><line x1="270.0" y1="390.0" x2="270.0" y2="420.0" style="stroke-width:1;stroke:rgb(0,0,0);fill:none"/><line x1="300.0" y1="390.0" x2="330.0" y2="420.0" style="stroke-width:1;stroke:rgb(0,0,0);fill:none"/><line x1="330.0" y1="390.0" x2="330.0" y2="420.0" style="stroke-width:1;stroke:rgb(0,0,0);fill:none"/><line x1="360.0" y1="390.0" x2="360.0" y2="420.0" style="stroke-width:1;stroke:rgb(0,0,0);fill:none"/><line x1="0.0" y1="450.0" x2="30.0" y2="450.0" style="stroke-width:1;stroke:rgb(0,0,0);fill:none"/><line x1="30.0" y1="420.0" x2="30.0" y2="450.0" style="stroke-width:1;stroke:rgb(0,0,0);fill:none"/><line x1="90.0" y1="420.0" x2="90.0" y2="450.0" style="stroke-width:1;stroke:rgb(0,0,0);fill:none"/><line x1="120.0" y1="450.0" x2="150.0" y2="450.0" style="stroke-width:1;stroke:rgb(0,0,0);fill:none"/><line x1="180.0" y1="420.0" x2="180.0" y2="450.0" style="stroke-width:1;stroke:rgb(0,0,0);fill:none"/><line x1="240.0" y1="420.0" x2="270.0" y2="450.0" style="stroke-width:1;stroke:rgb(0,0,0);fill:none"/><line x1="270.0" y1="420.0" x2="300.0" y2="450.0" style="stroke-width:1;stroke:rgb(0,0,0);fill:none"/><line x1="300.0" y1="420.0" x2="300.0" y2="450.0" style="stroke-width:1;stroke:rgb(0,0,0);fill:none"/><line x1="330.0" y1="420.0" x2="330.0" y2="450.0" style="stroke-width:1;stroke:rgb(0,0,0);fill:none"/><line x1="330.0" y1="450.0" x2="360.0" y2="450.0" style="stroke-width:1;stroke:rgb(0,0,0);fill:none"/><line x1="390.0" y1="420.0" x2="420.0" y2="450.0" style="stroke-width:1;stroke:rgb(0,0,0);fill:none"/><line x1="390.0" y1="450.0" x2="420.0" y2="450.0" style="stroke-width:1;stroke:rgb(0,0,0);fill:none"/><line x1="420.0" y1="420.0" x2="420.0" y2="450.0" style="stroke-width:1;stroke:rgb(0,0,0);fill:none"/><line x1="30.0" y1="450.0" x2="60.0" y2="480.0" style="stroke-width:1;stroke:rgb(0,0,0);fill:none"/><line x1="60.0" y1="450.0" x2="60.0" y2="480.0" style="stroke-width:1;stroke:rgb(0,0,0);fill:none"/><line x1="60.0" y1="450.0" x2="90.0" y2="480.0" style="stroke-width:1;stroke:rgb(0,0,0);fill:none"/><line x1="120.0" y1="480.0" x2="150.0" y2="480.0" style="stroke-width:1;stroke:rgb(0,0,0);fill:none"/><line x1="150.0" y1="450.0" x2="150.0" y2="480.0" style="stroke-width:1;stroke:rgb(0,0,0);fill:none"/><line x1="180.0" y1="450.0" x2="180.0" y2="480.0" style="stroke-width:1;stroke:rgb(0,0,0);fill:none"/><line x1="210.0" y1="450.0" x2="240.0" y2="480.0" style="stroke-width:1;stroke:rgb(0,0,0);fill:none"/><line x1="210.0" y1="480.0" x2="240.0" y2="480.0" style="stroke-width:1;stroke:rgb(0,0,0);fill:none"/><line x1="240.0" y1="450.0" x2="240.0" y2="480.0" style="stroke-width:1;stroke:rgb(0,0,0);fill:none"/><line x1="240.0" y1="480.0" x2="270.0" y2="480.0" style="stroke-width:1;stroke:rgb(0,0,0);fill:none"/><line x1="330.0" y1="480.0" x2="360.0" y2="480.0" style="stroke-width:1;stroke:rgb(0,0,0);fill:none"/><line x1="360.0" y1="450.0" x2="360.0" y2="480.0" style="stroke-width:1;stroke:rgb(0,0,0);fill:none"/><line x1="360.0" y1="450.0" x2="390.0" y2="480.0" style="stroke-width:1;stroke:rgb(0,0,0);fill:none"/><line x1="420.0" y1="450.0" x2="420.0" y2="480.0" style="stroke-width:1;stroke:rgb(0,0,0);fill:none"/><line x1="420.0" y1="450.0" x2="450.0" y2="480.0" style="stroke-width:1;stroke:rgb(0,0,0);fill:none"/><line x1="30.0" y1="480.0" x2="30.0" y2="510.0" style="stroke-width:1;stroke:rgb(0,0,0);fill:none"/><line x1="30.0" y1="510.0" x2="60.0" y2="510.0" style="stroke-width:1;stroke:rgb(0,0,0);fill:none"/><line x1="90.0" y1="480.0" x2="90.0" y2="510.0" style="stroke-width:1;stroke:rgb(0,0,0);fill:none"/><line x1="90.0" y1="510.0" x2="120.0" y2="510.0" style="stroke-width:1;stroke:rgb(0,0,0);fill:none"/><line x1="120.0" y1="480.0" x2="120.0" y2="510.0" style="stroke-width:1;stroke:rgb(0,0,0);fill:none"/><line x1="120.0" y1="510.0" x2="150.0" y2="510.0" style="stroke-width:1;stroke:rgb(0,0,0);fill:none"/><line x1="150.0" y1="480.0" x2="180.0" y2="510.0" style="stroke-width:1;stroke:rgb(0,0,0);fill:none"/><line x1="210.0" y1="480.0" x2="210.0" y2="510.0" style="stroke-width:1;stroke:rgb(0,0,0);fill:none"/><line x1="240.0" y1="480.0" x2="270.0" y2="510.0" style="stroke-width:1;stroke:rgb(0,0,0);fill:none"/><line x1="270.0" y1="510.0" x2="300.0" y2="510.0" style="stroke-width:1;stroke:rgb(0,0,0);fill:none"/><line x1="300.0" y1="480.0" x2="330.0" y2="510.0" style="stroke-width:1;stroke:rgb(0,0,0);fill:none"/><line x1="300.0" y1="510.0" x2="330.0" y2="510.0" style="stroke-width:1;stroke:rgb(0,0,0);fill:none"/><line x1="330.0" y1="480.0" x2="330.0" y2="510.0" style="stroke-width:1;stroke:rgb(0,0,0);fill:none"/><line x1="330.0" y1="480.0" x2="360.0" y2="510.0" style="stroke-width:1;stroke:rgb(0,0,0);fill:none"/><line x1="360.0" y1="480.0" x2="390.0" y2="510.0" style="stroke-width:1;stroke:rgb(0,0,0);fill:none"/><line x1="420.0" y1="480.0" x2="450.0" y2="510.0" style="stroke-width:1;stroke:rgb(0,0,0);fill:none"/><line x1="420.0" y1="510.0" x2="450.0" y2="510.0" style="stroke-width:1;stroke:rgb(0,0,0);fill:none"/><line x1="450.0" y1="510.0" x2="480.0" y2="510.0" style="stroke-width:1;stroke:rgb(0,0,0);fill:none"/><line x1="30.0" y1="510.0" x2="30.0" y2="540.0" style="stroke-width:1;stroke:rgb(0,0,0);fill:none"/><line x1="60.0" y1="510.0" x2="90.0" y2="540.0" style="stroke-width:1;stroke:rgb(0,0,0);fill:none"/><line x1="60.0" y1="540.0" x2="90.0" y2="540.0" style="stroke-width:1;stroke:rgb(0,0,0);fill:none"/><line x1="120.0" y1="510.0" x2="120.0" y2="540.0" style="stroke-width:1;stroke:rgb(0,0,0);fill:none"/><line x1="120.0" y1="510.0" x2="150.0" y2="540.0" style="stroke-width:1;stroke:rgb(0,0,0);fill:none"/><line x1="180.0" y1="540.0" x2="210.0" y2="540.0" style="stroke-width:1;stroke:rgb(0,0,0);fill:none"/><line x1="210.0" y1="510.0" x2="210.0" y2="540.0" style="stroke-width:1;stroke:rgb(0,0,0);fill:none"/><line x1="240.0" y1="510.0" x2="270.0" y2="540.0" style="stroke-width:1;stroke:rgb(0,0,0);fill:none"/><line x1="270.0" y1="540.0" x2="300.0" y2="540.0" style="stroke-width:1;stroke:rgb(0,0,0);fill:none"/><line x1="300.0" y1="510.0" x2="330.0" y2="540.0" style="stroke-width:1;stroke:rgb(0,0,0);fill:none"/><line x1="300.0" y1="540.0" x2="330.0" y2="540.0" style="stroke-width:1;stroke:rgb(0,0,0);fill:none"/><line x1="360.0" y1="540.0" x2="390.0" y2="540.0" style="stroke-width:1;stroke:rgb(0,0,0);fill:none"/><line x1="390.0" y1="540.0" x2="420.0" y2="540.0" style="stroke-width:1;stroke:rgb(0,0,0);fill:none"/><line x1="420.0" y1="540.0" x2="450.0" y2="540.0" style="stroke-width:1;stroke:rgb(0,0,0);fill:none"/><line x1="450.0" y1="510.0" x2="480.0" y2="540.0" style="stroke-width:1;stroke:rgb(0,0,0);fill:none"/><line x1="30.0" y1="540.0" x2="30.0" y2="570.0" style="stroke-width:1;stroke:rgb(0,0,0);fill:none"/><line x1="60.0" y1="570.0" x2="90.0" y2="570.0" style="stroke-width:1;stroke:rgb(0,0,0);fill:none"/><line x1="180.0" y1="540.0" x2="180.0" y2="570.0" style="stroke-width:1;stroke:rgb(0,0,0);fill:none"/><line x1="180.0" y1="570.0" x2="210.0" y2="570.0" style="stroke-width:1;stroke:rgb(0,0,0);fill:none"/><line x1="240.0" y1="540.0" x2="240.0" y2="570.0" style="stroke-width:1;stroke:rgb(0,0,0);fill:none"/><line x1="270.0" y1="570.0" x2="300.0" y2="570.0" style="stroke-width:1;stroke:rgb(0,0,0);fill:none"/><line x1="300.0" y1="570.0" x2="330.0" y2="570.0" style="stroke-width:1;stroke:rgb(0,0,0);fill:none"/><line x1="330.0" y1="540.0" x2="360.0" y2="570.0" style="stroke-width:1;stroke:rgb(0,0,0);fill:none"/><line x1="360.0" y1="540.0" x2="360.0" y2="570.0" style="stroke-width:1;stroke:rgb(0,0,0);fill:none"/><line x1="420.0" y1="540.0" x2="420.0" y2="570.0" style="stroke-width:1;stroke:rgb(0,0,0);fill:none"/><line x1="420.0" y1="570.0" x2="450.0" y2="570.0" style="stroke-width:1;stroke:rgb(0,0,0);fill:none"/><line x1="450.0" y1="570.0" x2="480.0" y2="570.0" style="stroke-width:1;stroke:rgb(0,0,0);fill:none"/><line x1="480.0" y1="540.0" x2="510.0" y2="570.0" style="stroke-width:1;stroke:rgb(0,0,0);fill:none"/><line x1="510.0" y1="540.0" x2="540.0" y2="570.0" style="stroke-width:1;stroke:rgb(0,0,0);fill:none"/><line x1="30.0" y1="570.0" x2="60.0" y2="600.0" style="stroke-width:1;stroke:rgb(0,0,0);fill:none"/><line x1="60.0" y1="570.0" x2="60.0" y2="600.0" style="stroke-width:1;stroke:rgb(0,0,0);fill:none"/><line x1="90.0" y1="600.0" x2="120.0" y2="600.0" style="stroke-width:1;stroke:rgb(0,0,0);fill:none"/><line x1="120.0" y1="570.0" x2="150.0" y2="600.0" style="stroke-width:1;stroke:rgb(0,0,0);fill:none"/><line x1="150.0" y1="570.0" x2="180.0" y2="600.0" style="stroke-width:1;stroke:rgb(0,0,0);fill:none"/><line x1="210.0" y1="570.0" x2="240.0" y2="600.0" style="stroke-width:1;stroke:rgb(0,0,0);fill:none"/><line x1="240.0" y1="570.0" x2="240.0" y2="600.0" style="stroke-width:1;stroke:rgb(0,0,0);fill:none"/><line x1="240.0" y1="600.0" x2="270.0" y2="600.0" style="stroke-width:1;stroke:rgb(0,0,0);fill:none"/><line x1="270.0" y1="570.0" x2="270.0" y2="600.0" style="stroke-width:1;stroke:rgb(0,0,0);fill:none"/><line x1="390.0" y1="570.0" x2="420.0" y2="600.0" style="stroke-width:1;stroke:rgb(0,0,0);fill:none"/><line x1="420.0" y1="600.0" x2="450.0" y2="600.0" style="stroke-width:1;stroke:rgb(0,0,0);fill:none"/><line x1="510.0" y1="600.0" x2="540.0" y2="600.0" style="stroke-width:1;stroke:rgb(0,0,0);fill:none"/><line x1="540.0" y1="570.0" x2="570.0" y2="600.0" style="stroke-width:1;stroke:rgb(0,0,0);fill:none"/></svg>