<?xml version="1.0"?><!DOCTYPE svg PUBLIC "-//W3C//DTD util.SVG 1.0//EN" "http://www.w3.org/TR/2001/REC-util.SVG-20010904/DTD/svg10.dtd"><svg xmlns="http://www.w3.org/2000/svg" height="500" width="500" text-rendering="auto" shape-rendering="auto"><rect x="364" y="124" width="1" height="1" style=";stroke:rgb(0,0,0);fill:none" /><rect x="23" y="460" width="1" height="1" style=";stroke:rgb(0,0,0);fill:none" /><rect x="41" y="48" width="1" height="1" style=";stroke:rgb(0,0,0);fill:none" /><rect x="300" y="168" width="1" height="1" style=";stroke:rgb(0,0,0);fill:none" /><rect x="333" y="304" width="1" height="1" style=";stroke:rgb(0,0,0);fill:none" /><rect x="68" y="41" width="1" height="1" style=";stroke:rgb(0,0,0);fill:none" /><rect x="390" y="193" width="1" height="1" style=";stroke:rgb(0,0,0);fill:none" /><rect x="143" y="198" width="1" height="1" style=";stroke:rgb(0,0,0);fill:none" /><rect x="188" y="74" width="1" height="1" style=";stroke:rgb(0,0,0);fill:none" /><rect x="297" y="256" width="1" height="1" style=";stroke:rgb(0,0,0);fill:none" /><rect x="104" y="26" width="1" height="1" style=";stroke:rgb(0,0,0);fill:none" /><rect x="104" y="471" width="1" height="1" style=";stroke:rgb(0,0,0);fill:none" /><rect x="118" y="30" width="1" height="1" style=";stroke:rgb(0,0,0);fill:none" /><rect x="87" y="243" width="1" height="1" style=";stroke:rgb(0,0,0);fill:none" /><rect x="384" y="134" width="1" height="1" style=";stroke:rgb(0,0,0);fill:none" /><rect x="321" y="469" width="1" height="1" style=";stroke:rgb(0,0,0);fill:none" /><rect x="155" y="439" width="1" height="1" style=";stroke:rgb(0,0,0);fill:none" /><rect x="399" y="14" width="1" height="1" style=";stroke:rgb(0,0,0);fill:none" /><rect x="325" y="130" width="1" height="1" style=";stroke:rgb(0,0,0);fill:none" /><rect x="278" y="432" width="1" height="1" style=";stroke:rgb(0,0,0);fill:none" /><rect x="439" y="192" width="1" height="1" style=";stroke:rgb(0,0,0);fill:none" /><rect x="419" y="476" width="1" height="1" style=";stroke:rgb(0,0,0);fill:none" /><rect x="123" y="254" width="1" height="1" style=";stroke:rgb(0,0,0);fill:none" /><rect x="24" y="72" width="1" height="1" style=";stroke:rgb(0,0,0);fill:none" /><rect x="133" y="476" width="1" height="1" style=";stroke:rgb(0,0,0);fill:none" /><line x1="23.083042830643496" y1="460.7389548359483" x2="24.86436410993531" y2="72.32873943759249" style="stroke-width:1;stroke:rgb(0,0,0);fill:none"/><line x1="24.86436410993531" y1="72.32873943759249" x2="41.81121508488628" y2="48.64595484617645" style="stroke-width:1;stroke:rgb(0,0,0);fill:none"/><line x1="41.81121508488628" y1="48.64595484617645" x2="104.45907128831067" y2="26.180844836643402" style="stroke-width:1;stroke:rgb(0,0,0);fill:none"/><line x1="104.45907128831067" y1="26.180844836643402" x2="399.2451310236492" y2="14.003792745007127" style="stroke-width:1;stroke:rgb(0,0,0);fill:none"/><line x1="399.2451310236492" y1="14.003792745007127" x2="439.53321415991064" y2="192.9808023374635" style="stroke-width:1;stroke:rgb(0,0,0);fill:none"/><line x1="439.53321415991064" y1="192.9808023374635" x2="419.0551796738155" y2="476.05766106645586" style="stroke-width:1;stroke:rgb(0,0,0);fill:none"/><line x1="419.0551796738155" y1="476.05766106645586" x2="133.87938714324653" y2="476.2547830343133" style="stroke-width:1;stroke:rgb(0,0,0);fill:none"/><line x1="133.87938714324653" y1="476.2547830343133" x2="23.083042830643496" y2="460.7389548359483" style="stroke-width:1;stroke:rgb(0,0,0);fill:none"/></svg>