<?xml version="1.0"?><!DOCTYPE svg PUBLIC "-//W3C//DTD util.SVG 1.0//EN" "http://www.w3.org/TR/2001/REC-util.SVG-20010904/DTD/svg10.dtd"><svg xmlns="http://www.w3.org/2000/svg" height="500" width="500" text-rendering="auto" shape-rendering="auto"><rect x="155" y="395" width="1" height="1" style=";stroke:rgb(0,0,0);fill:none" /><rect x="126" y="391" width="1" height="1" style=";stroke:rgb(0,0,0);fill:none" /><rect x="229" y="135" width="1" height="1" style=";stroke:rgb(0,0,0);fill:none" /><rect x="93" y="182" width="1" height="1" style=";stroke:rgb(0,0,0);fill:none" /><rect x="392" y="274" width="1" height="1" style=";stroke:rgb(0,0,0);fill:none" /><rect x="47" y="67" width="1" height="1" style=";stroke:rgb(0,0,0);fill:none" /><rect x="74" y="261" width="1" height="1" style=";stroke:rgb(0,0,0);fill:none" /><rect x="262" y="117" width="1" height="1" style=";stroke:rgb(0,0,0);fill:none" /><rect x="42" y="85" width="1" height="1" style=";stroke:rgb(0,0,0);fill:none" /><rect x="301" y="228" width="1" height="1" style=";stroke:rgb(0,0,0);fill:none" /><rect x="199" y="135" width="1" height="1" style=";stroke:rgb(0,0,0);fill:none" /><rect x="253" y="170" width="1" height="1" style=";stroke:rgb(0,0,0);fill:none" /><rect x="62" y="207" width="1" height="1" style=";stroke:rgb(0,0,0);fill:none" /><rect x="131" y="293" width="1" height="1" style=";stroke:rgb(0,0,0);fill:none" /><rect x="278" y="431" width="1" height="1" style=";stroke:rgb(0,0,0);fill:none" /><rect x="206" y="346" width="1" height="1" style=";stroke:rgb(0,0,0);fill:none" /><rect x="216" y="190" width="1" height="1" style=";stroke:rgb(0,0,0);fill:none" /><rect x="27" y="143" width="1" height="1" style=";stroke:rgb(0,0,0);fill:none" /><rect x="223" y="47" width="1" height="1" style=";stroke:rgb(0,0,0);fill:none" /><rect x="416" y="33" width="1" height="1" style=";stroke:rgb(0,0,0);fill:none" /><rect x="317" y="63" width="1" height="1" style=";stroke:rgb(0,0,0);fill:none" /><rect x="318" y="270" width="1" height="1" style=";stroke:rgb(0,0,0);fill:none" /><rect x="195" y="241" width="1" height="1" style=";stroke:rgb(0,0,0);fill:none" /><rect x="304" y="460" width="1" height="1" style=";stroke:rgb(0,0,0);fill:none" /><rect x="137" y="220" width="1" height="1" style=";stroke:rgb(0,0,0);fill:none" /><line x1="27.012078782926885" y1="143.53927420918845" x2="47.28431423570994" y2="67.47461105514796" style="stroke-width:1;stroke:rgb(0,0,0);fill:none"/><line x1="47.28431423570994" y1="67.47461105514796" x2="223.82525097603144" y2="47.275785139475005" style="stroke-width:1;stroke:rgb(0,0,0);fill:none"/><line x1="223.82525097603144" y1="47.275785139475005" x2="416.4249869257136" y2="33.7173488260305" style="stroke-width:1;stroke:rgb(0,0,0);fill:none"/><line x1="416.4249869257136" y1="33.7173488260305" x2="392.12558812489436" y2="274.3168224120533" style="stroke-width:1;stroke:rgb(0,0,0);fill:none"/><line x1="392.12558812489436" y1="274.3168224120533" x2="304.8027044516065" y2="460.53100627812347" style="stroke-width:1;stroke:rgb(0,0,0);fill:none"/><line x1="304.8027044516065" y1="460.53100627812347" x2="126.82492172330988" y2="391.8485874520588" style="stroke-width:1;stroke:rgb(0,0,0);fill:none"/><line x1="126.82492172330988" y1="391.8485874520588" x2="27.012078782926885" y2="143.53927420918845" style="stroke-width:1;stroke:rgb(0,0,0);fill:none"/></svg>