<?xml version="1.0"?><!DOCTYPE svg PUBLIC "-//W3C//DTD util.SVG 1.0//EN" "http://www.w3.org/TR/2001/REC-util.SVG-20010904/DTD/svg10.dtd"><svg xmlns="http://www.w3.org/2000/svg" height="500" width="500" text-rendering="auto" shape-rendering="auto"><rect x="155" y="496" width="1" height="1" style=";stroke:rgb(0,0,0);fill:none" /><rect x="386" y="224" width="1" height="1" style=";stroke:rgb(0,0,0);fill:none" /><rect x="140" y="358" width="1" height="1" style=";stroke:rgb(0,0,0);fill:none" /><rect x="31" y="232" width="1" height="1" style=";stroke:rgb(0,0,0);fill:none" /><rect x="380" y="271" width="1" height="1" style=";stroke:rgb(0,0,0);fill:none" /><rect x="50" y="175" width="1" height="1" style=";stroke:rgb(0,0,0);fill:none" /><rect x="170" y="354" width="1" height="1" style=";stroke:rgb(0,0,0);fill:none" /><rect x="0" y="65" width="1" height="1" style=";stroke:rgb(0,0,0);fill:none" /><rect x="139" y="68" width="1" height="1" style=";stroke:rgb(0,0,0);fill:none" /><rect x="329" y="21" width="1" height="1" style=";stroke:rgb(0,0,0);fill:none" /><rect x="359" y="120" width="1" height="1" style=";stroke:rgb(0,0,0);fill:none" /><rect x="487" y="9" width="1" height="1" style=";stroke:rgb(0,0,0);fill:none" /><rect x="218" y="372" width="1" height="1" style=";stroke:rgb(0,0,0);fill:none" /><rect x="400" y="165" width="1" height="1" style=";stroke:rgb(0,0,0);fill:none" /><rect x="350" y="428" width="1" height="1" style=";stroke:rgb(0,0,0);fill:none" /><rect x="427" y="389" width="1" height="1" style=";stroke:rgb(0,0,0);fill:none" /><rect x="224" y="452" width="1" height="1" style=";stroke:rgb(0,0,0);fill:none" /><rect x="305" y="78" width="1" height="1" style=";stroke:rgb(0,0,0);fill:none" /><rect x="414" y="242" width="1" height="1" style=";stroke:rgb(0,0,0);fill:none" /><rect x="360" y="341" width="1" height="1" style=";stroke:rgb(0,0,0);fill:none" /><rect x="159" y="228" width="1" height="1" style=";stroke:rgb(0,0,0);fill:none" /><rect x="229" y="138" width="1" height="1" style=";stroke:rgb(0,0,0);fill:none" /><rect x="9" y="167" width="1" height="1" style=";stroke:rgb(0,0,0);fill:none" /><rect x="328" y="314" width="1" height="1" style=";stroke:rgb(0,0,0);fill:none" /><rect x="123" y="356" width="1" height="1" style=";stroke:rgb(0,0,0);fill:none" /><line x1="0.7919679803402024" y1="65.93365218478186" x2="329.5654850798897" y2="21.961845548877424" style="stroke-width:1;stroke:rgb(0,0,0);fill:none"/><line x1="329.5654850798897" y1="21.961845548877424" x2="487.79122212911" y2="9.871812878901709" style="stroke-width:1;stroke:rgb(0,0,0);fill:none"/><line x1="487.79122212911" y1="9.871812878901709" x2="427.071522665977" y2="389.09050608827124" style="stroke-width:1;stroke:rgb(0,0,0);fill:none"/><line x1="427.071522665977" y1="389.09050608827124" x2="350.122700874451" y2="428.37964072512415" style="stroke-width:1;stroke:rgb(0,0,0);fill:none"/><line x1="350.122700874451" y1="428.37964072512415" x2="155.0517638356012" y2="496.601620146176" style="stroke-width:1;stroke:rgb(0,0,0);fill:none"/><line x1="155.0517638356012" y1="496.601620146176" x2="31.39677917921707" y2="232.83792572371792" style="stroke-width:1;stroke:rgb(0,0,0);fill:none"/><line x1="31.39677917921707" y1="232.83792572371792" x2="9.755702040866954" y2="167.27978802861537" style="stroke-width:1;stroke:rgb(0,0,0);fill:none"/><line x1="9.755702040866954" y1="167.27978802861537" x2="0.7919679803402024" y2="65.93365218478186" style="stroke-width:1;stroke:rgb(0,0,0);fill:none"/></svg>