<?xml version="1.0"?><!DOCTYPE svg PUBLIC "-//W3C//DTD util.SVG 1.0//EN" "http://www.w3.org/TR/2001/REC-util.SVG-20010904/DTD/svg10.dtd"><svg xmlns="http://www.w3.org/2000/svg" height="500" width="500" text-rendering="auto" shape-rendering="auto"><rect x="215" y="33" width="1" height="1" style=";stroke:rgb(0,0,0);fill:none" /><rect x="265" y="171" width="1" height="1" style=";stroke:rgb(0,0,0);fill:none" /><rect x="69" y="279" width="1" height="1" style=";stroke:rgb(0,0,0);fill:none" /><rect x="283" y="40" width="1" height="1" style=";stroke:rgb(0,0,0);fill:none" /><rect x="366" y="15" width="1" height="1" style=";stroke:rgb(0,0,0);fill:none" /><rect x="494" y="428" width="1" height="1" style=";stroke:rgb(0,0,0);fill:none" /><rect x="237" y="65" width="1" height="1" style=";stroke:rgb(0,0,0);fill:none" /><rect x="372" y="260" width="1" height="1" style=";stroke:rgb(0,0,0);fill:none" /><rect x="198" y="130" width="1" height="1" style=";stroke:rgb(0,0,0);fill:none" /><rect x="398" y="390" width="1" height="1" style=";stroke:rgb(0,0,0);fill:none" /><rect x="450" y="183" width="1" height="1" style=";stroke:rgb(0,0,0);fill:none" /><rect x="241" y="401" width="1" height="1" style=";stroke:rgb(0,0,0);fill:none" /><rect x="148" y="148" width="1" height="1" style=";stroke:rgb(0,0,0);fill:none" /><rect x="377" y="389" width="1" height="1" style=";stroke:rgb(0,0,0);fill:none" /><rect x="209" y="395" width="1" height="1" style=";stroke:rgb(0,0,0);fill:none" /><rect x="355" y="31" width="1" height="1" style=";stroke:rgb(0,0,0);fill:none" /><rect x="10" y="62" width="1" height="1" style=";stroke:rgb(0,0,0);fill:none" /><rect x="493" y="197" width="1" height="1" style=";stroke:rgb(0,0,0);fill:none" /><rect x="347" y="39" width="1" height="1" style=";stroke:rgb(0,0,0);fill:none" /><rect x="267" y="70" width="1" height="1" style=";stroke:rgb(0,0,0);fill:none" /><rect x="193" y="289" width="1" height="1" style=";stroke:rgb(0,0,0);fill:none" /><rect x="331" y="406" width="1" height="1" style=";stroke:rgb(0,0,0);fill:none" /><rect x="291" y="385" width="1" height="1" style=";stroke:rgb(0,0,0);fill:none" /><rect x="161" y="99" width="1" height="1" style=";stroke:rgb(0,0,0);fill:none" /><rect x="73" y="151" width="1" height="1" style=";stroke:rgb(0,0,0);fill:none" /><line x1="10.395777864175615" y1="62.24078600501648" x2="215.14807782677175" y2="33.058985190936916" style="stroke-width:1;stroke:rgb(0,0,0);fill:none"/><line x1="215.14807782677175" y1="33.058985190936916" x2="366.8512821867834" y2="15.415221093571517" style="stroke-width:1;stroke:rgb(0,0,0);fill:none"/><line x1="366.8512821867834" y1="15.415221093571517" x2="493.6101937470956" y2="197.29022094122993" style="stroke-width:1;stroke:rgb(0,0,0);fill:none"/><line x1="493.6101937470956" y1="197.29022094122993" x2="494.6965730707035" y2="428.3395202992715" style="stroke-width:1;stroke:rgb(0,0,0);fill:none"/><line x1="494.6965730707035" y1="428.3395202992715" x2="241.50172668115465" y2="401.80074473005834" style="stroke-width:1;stroke:rgb(0,0,0);fill:none"/><line x1="241.50172668115465" y1="401.80074473005834" x2="209.60202134924177" y2="395.14293350330377" style="stroke-width:1;stroke:rgb(0,0,0);fill:none"/><line x1="209.60202134924177" y1="395.14293350330377" x2="69.26529879972243" y2="279.04617476333794" style="stroke-width:1;stroke:rgb(0,0,0);fill:none"/><line x1="69.26529879972243" y1="279.04617476333794" x2="10.395777864175615" y2="62.24078600501648" style="stroke-width:1;stroke:rgb(0,0,0);fill:none"/></svg>