<?xml version="1.0"?><!DOCTYPE svg PUBLIC "-//W3C//DTD util.SVG 1.0//EN" "http://www.w3.org/TR/2001/REC-util.SVG-20010904/DTD/svg10.dtd"><svg xmlns="http://www.w3.org/2000/svg" height="500" width="500" text-rendering="auto" shape-rendering="auto"><rect x="419" y="108" width="1" height="1" style=";stroke:rgb(0,0,0);fill:none" /><rect x="284" y="233" width="1" height="1" style=";stroke:rgb(0,0,0);fill:none" /><rect x="17" y="314" width="1" height="1" style=";stroke:rgb(0,0,0);fill:none" /><rect x="196" y="75" width="1" height="1" style=";stroke:rgb(0,0,0);fill:none" /><rect x="185" y="377" width="1" height="1" style=";stroke:rgb(0,0,0);fill:none" /><rect x="274" y="272" width="1" height="1" style=";stroke:rgb(0,0,0);fill:none" /><rect x="274" y="209" width="1" height="1" style=";stroke:rgb(0,0,0);fill:none" /><rect x="63" y="72" width="1" height="1" style=";stroke:rgb(0,0,0);fill:none" /><rect x="99" y="39" width="1" height="1" style=";stroke:rgb(0,0,0);fill:none" /><rect x="484" y="312" width="1" height="1" style=";stroke:rgb(0,0,0);fill:none" /><rect x="168" y="337" width="1" height="1" style=";stroke:rgb(0,0,0);fill:none" /><rect x="174" y="149" width="1" height="1" style=";stroke:rgb(0,0,0);fill:none" /><rect x="379" y="293" width="1" height="1" style=";stroke:rgb(0,0,0);fill:none" /><rect x="423" y="71" width="1" height="1" style=";stroke:rgb(0,0,0);fill:none" /><rect x="315" y="108" width="1" height="1" style=";stroke:rgb(0,0,0);fill:none" /><rect x="286" y="393" width="1" height="1" style=";stroke:rgb(0,0,0);fill:none" /><rect x="139" y="383" width="1" height="1" style=";stroke:rgb(0,0,0);fill:none" /><rect x="222" y="442" width="1" height="1" style=";stroke:rgb(0,0,0);fill:none" /><rect x="222" y="239" width="1" height="1" style=";stroke:rgb(0,0,0);fill:none" /><rect x="113" y="483" width="1" height="1" style=";stroke:rgb(0,0,0);fill:none" /><rect x="431" y="100" width="1" height="1" style=";stroke:rgb(0,0,0);fill:none" /><rect x="215" y="343" width="1" height="1" style=";stroke:rgb(0,0,0);fill:none" /><rect x="129" y="459" width="1" height="1" style=";stroke:rgb(0,0,0);fill:none" /><rect x="349" y="330" width="1" height="1" style=";stroke:rgb(0,0,0);fill:none" /><rect x="305" y="70" width="1" height="1" style=";stroke:rgb(0,0,0);fill:none" /><line x1="17.35906524431674" y1="314.8610700987261" x2="63.00639649099599" y2="72.68053277605185" style="stroke-width:1;stroke:rgb(0,0,0);fill:none"/><line x1="63.00639649099599" y1="72.68053277605185" x2="99.35043086285661" y2="39.06846039857348" style="stroke-width:1;stroke:rgb(0,0,0);fill:none"/><line x1="99.35043086285661" y1="39.06846039857348" x2="423.8497521868894" y2="71.65809591975214" style="stroke-width:1;stroke:rgb(0,0,0);fill:none"/><line x1="423.8497521868894" y1="71.65809591975214" x2="431.90912014809174" y2="100.40217790672651" style="stroke-width:1;stroke:rgb(0,0,0);fill:none"/><line x1="431.90912014809174" y1="100.40217790672651" x2="484.13087215116286" y2="312.80309768096606" style="stroke-width:1;stroke:rgb(0,0,0);fill:none"/><line x1="484.13087215116286" y1="312.80309768096606" x2="222.6594740368784" y2="442.8562794495597" style="stroke-width:1;stroke:rgb(0,0,0);fill:none"/><line x1="222.6594740368784" y1="442.8562794495597" x2="113.86623862495316" y2="483.2609164578046" style="stroke-width:1;stroke:rgb(0,0,0);fill:none"/><line x1="113.86623862495316" y1="483.2609164578046" x2="17.35906524431674" y2="314.8610700987261" style="stroke-width:1;stroke:rgb(0,0,0);fill:none"/></svg>