<?xml version="1.0"?><!DOCTYPE svg PUBLIC "-//W3C//DTD util.SVG 1.0//EN" "http://www.w3.org/TR/2001/REC-util.SVG-20010904/DTD/svg10.dtd"><svg xmlns="http://www.w3.org/2000/svg" height="1000" width="1000" text-rendering="auto" shape-rendering="auto"><line x1="23.19550376723356" y1="51.45269135527397" x2="212.60904727303677" y2="163.35671066010144" style="stroke-width:1;stroke:rgb(0,0,0);fill:none"/><line x1="65.6562501480274" y1="205.96418151931283" x2="248.10082058676483" y2="328.9031042306518" style="stroke-width:1;stroke:rgb(0,0,0);fill:none"/><line x1="426.7077676542841" y1="165.80149331848764" x2="255.43467620978112" y2="27.723514817052035" style="stroke-width:1;stroke:rgb(0,0,0);fill:none"/><line x1="105.60024078852742" y1="470.6882920943496" x2="284.8411563763187" y2="343.12382141677307" style="stroke-width:1;stroke:rgb(0,0,0);fill:none"/><line x1="193.7323869400505" y1="387.8268130868575" x2="23.553686350159637" y2="248.4022461499784" style="stroke-width:1;stroke:rgb(0,0,0);fill:none"/><line x1="192.72086490545064" y1="75.21255229580359" x2="103.67919736890627" y2="276.38805140618604" style="stroke-width:1;stroke:rgb(0,0,0);fill:none"/><line x1="409.7607406635884" y1="355.7925673378689" x2="427.45115537779003" y2="136.50497255138865" style="stroke-width:1;stroke:rgb(0,0,0);fill:none"/><line x1="387.27012628853663" y1="448.0268869355332" x2="404.6610576189539" y2="228.7153379750174" style="stroke-width:1;stroke:rgb(0,0,0);fill:none"/><line x1="188.71977319968136" y1="12.38194602032705" x2="296.2515019985472" y2="204.3114312526049" style="stroke-width:1;stroke:rgb(0,0,0);fill:none"/><line x1="138.8923323701791" y1="211.42652624504817" x2="177.50529731442168" y2="428.0114724860432" style="stroke-width:1;stroke:rgb(0,0,0);fill:none"/><line x1="244.83871882631226" y1="111.66236053930034" x2="429.5449690091626" y2="231.17638123725146" style="stroke-width:1;stroke:rgb(0,0,0);fill:none"/><line x1="251.74712569302753" y1="296.8553398753125" x2="33.56113464490039" y2="268.6618422145648" style="stroke-width:1;stroke:rgb(0,0,0);fill:none"/><line x1="190.6458390805943" y1="248.7603894593556" x2="166.17526773424825" y2="30.125554316409108" style="stroke-width:1;stroke:rgb(0,0,0);fill:none"/><line x1="283.318250331081" y1="191.62328293775278" x2="85.38769302567096" y2="95.5842570952871" style="stroke-width:1;stroke:rgb(0,0,0);fill:none"/><line x1="279.3038545604287" y1="485.72493441961655" x2="488.7491265611425" y2="418.399767976844" style="stroke-width:1;stroke:rgb(0,0,0);fill:none"/><line x1="152.379821049604" y1="386.7767677234895" x2="367.2878162173532" y2="339.71772382140125" style="stroke-width:1;stroke:rgb(0,0,0);fill:none"/><line x1="473.6482792277179" y1="284.71613812955036" x2="425.1734262503494" y2="70.12306128683741" style="stroke-width:1;stroke:rgb(0,0,0);fill:none"/><line x1="207.22562057569854" y1="457.33053829233313" x2="394.49353005020885" y2="341.871757417743" style="stroke-width:1;stroke:rgb(0,0,0);fill:none"/><line x1="287.89361750734747" y1="168.513971578473" x2="496.9909206997514" y2="100.11574208630049" style="stroke-width:1;stroke:rgb(0,0,0);fill:none"/><line x1="0.7062112871655257" y1="308.8617263413721" x2="119.95308224646047" y2="123.98289097502396" style="stroke-width:1;stroke:rgb(0,0,0);fill:none"/><line x1="194.3183768383961" y1="470.99222200652025" x2="52.4593115853163" y2="302.8375146518867" style="stroke-width:1;stroke:rgb(0,0,0);fill:none"/><line x1="30.446544022037557" y1="291.37753229325466" x2="70.636548911572" y2="75.07967398906527" style="stroke-width:1;stroke:rgb(0,0,0);fill:none"/><line x1="407.44408463059693" y1="355.8108233665828" x2="207.93545286288656" y2="263.0945580719963" style="stroke-width:1;stroke:rgb(0,0,0);fill:none"/><line x1="47.72607817333141" y1="474.21141535082427" x2="195.17139018569895" y2="310.9328804309654" style="stroke-width:1;stroke:rgb(0,0,0);fill:none"/><line x1="76.21281592509827" y1="210.8642387503699" x2="56.86638656286182" y2="430.01194161520027" style="stroke-width:1;stroke:rgb(0,0,0);fill:none"/></svg>