<?xml version="1.0"?><!DOCTYPE svg PUBLIC "-//W3C//DTD util.SVG 1.0//EN" "http://www.w3.org/TR/2001/REC-util.SVG-20010904/DTD/svg10.dtd"><svg xmlns="http://www.w3.org/2000/svg" height="1000" width="1000" text-rendering="auto" shape-rendering="auto"><line x1="128.51873310787832" y1="262.704131721354" x2="325.31831344478394" y2="361.0399094384078" style="stroke-width:1;stroke:rgb(0,0,0);fill:none"/><line x1="468.5632774039632" y1="112.04218144501327" x2="254.1314954035683" y2="161.22562244028236" style="stroke-width:1;stroke:rgb(0,0,0);fill:none"/><line x1="178.49243016951044" y1="100.10749618757814" x2="374.6401858479061" y2="199.73709993229062" style="stroke-width:1;stroke:rgb(0,0,0);fill:none"/><line x1="5.225201064920915" y1="108.99968113787517" x2="133.7988294407746" y2="287.5180893939088" style="stroke-width:1;stroke:rgb(0,0,0);fill:none"/><line x1="324.19967360416933" y1="63.99077676354265" x2="335.3233338719657" y2="283.7093790307304" style="stroke-width:1;stroke:rgb(0,0,0);fill:none"/><line x1="329.4487118045744" y1="187.14521040782915" x2="297.5779731295668" y2="404.824460719634" style="stroke-width:1;stroke:rgb(0,0,0);fill:none"/><line x1="473.40268159377945" y1="437.78680785596" x2="392.78090491498205" y2="233.09159754278699" style="stroke-width:1;stroke:rgb(0,0,0);fill:none"/><line x1="143.75705998901216" y1="438.0390730594101" x2="243.31170686566156" y2="241.85326244797562" style="stroke-width:1;stroke:rgb(0,0,0);fill:none"/><line x1="26.236372342184954" y1="467.1190363879098" x2="228.1764701790438" y2="379.82529729030966" style="stroke-width:1;stroke:rgb(0,0,0);fill:none"/><line x1="91.87572654494241" y1="139.64479126769297" x2="47.17263045923838" y2="355.0551744908615" style="stroke-width:1;stroke:rgb(0,0,0);fill:none"/><line x1="421.2128344053407" y1="215.5764750554997" x2="335.5766293714149" y2="418.2250387992071" style="stroke-width:1;stroke:rgb(0,0,0);fill:none"/><line x1="39.48252611100772" y1="274.5123318667883" x2="24.60758413936417" y2="494.0088833233892" style="stroke-width:1;stroke:rgb(0,0,0);fill:none"/><line x1="98.60346911936047" y1="205.65360867915467" x2="297.39799847334564" y2="299.89126091501805" style="stroke-width:1;stroke:rgb(0,0,0);fill:none"/><line x1="275.5532751908812" y1="309.45401540651716" x2="158.576816400019" y2="123.13035054145041" style="stroke-width:1;stroke:rgb(0,0,0);fill:none"/><line x1="336.0093320846378" y1="109.54962990605787" x2="255.14951647919895" y2="314.15092565037725" style="stroke-width:1;stroke:rgb(0,0,0);fill:none"/><line x1="454.9217690554201" y1="397.1107685702937" x2="425.652895033869" y2="179.0664313048867" style="stroke-width:1;stroke:rgb(0,0,0);fill:none"/><line x1="153.8142996341324" y1="199.56097245498316" x2="271.2190004690899" y2="385.61509420952564" style="stroke-width:1;stroke:rgb(0,0,0);fill:none"/><line x1="387.6851255142171" y1="190.7378029096871" x2="192.18477120618408" y2="291.63186351502486" style="stroke-width:1;stroke:rgb(0,0,0);fill:none"/><line x1="48.390250629951005" y1="200.17635289688067" x2="169.0844029912487" y2="384.11362912382674" style="stroke-width:1;stroke:rgb(0,0,0);fill:none"/><line x1="147.30673542055624" y1="242.79187373562823" x2="366.573757809226" y2="224.84827061901302" style="stroke-width:1;stroke:rgb(0,0,0);fill:none"/><line x1="288.48761020269245" y1="393.24411628354886" x2="482.96714726914786" y2="290.3961232918663" style="stroke-width:1;stroke:rgb(0,0,0);fill:none"/><line x1="176.95024527558033" y1="138.30879878474767" x2="395.1037508790653" y2="109.86502982017036" style="stroke-width:1;stroke:rgb(0,0,0);fill:none"/><line x1="481.8573159086824" y1="111.09220919819579" x2="282.60552646381393" y2="17.82525683554057" style="stroke-width:1;stroke:rgb(0,0,0);fill:none"/><line x1="422.0374535971827" y1="68.76467888045362" x2="202.32670516040895" y2="80.04240122819382" style="stroke-width:1;stroke:rgb(0,0,0);fill:none"/><line x1="263.0351135292099" y1="40.416152335265906" x2="133.37927914901852" y2="218.15012379591934" style="stroke-width:1;stroke:rgb(0,0,0);fill:none"/><rect x="303" y="349" width="5" height="5" style="stroke-width:1;stroke:rgb(255,200,0);fill:none" /><rect x="209" y="302" width="5" height="5" style="stroke-width:1;stroke:rgb(255,200,0);fill:none" /><rect x="221" y="308" width="5" height="5" style="stroke-width:1;stroke:rgb(255,200,0);fill:none" /><rect x="282" y="152" width="5" height="5" style="stroke-width:1;stroke:rgb(255,200,0);fill:none" /><rect x="326" y="142" width="5" height="5" style="stroke-width:1;stroke:rgb(255,200,0);fill:none" /><rect x="319" y="143" width="5" height="5" style="stroke-width:1;stroke:rgb(255,200,0);fill:none" /><rect x="327" y="175" width="5" height="5" style="stroke-width:1;stroke:rgb(255,200,0);fill:none" /><rect x="310" y="166" width="5" height="5" style="stroke-width:1;stroke:rgb(255,200,0);fill:none" /><rect x="370" y="196" width="5" height="5" style="stroke-width:1;stroke:rgb(255,200,0);fill:none" /><rect x="236" y="128" width="5" height="5" style="stroke-width:1;stroke:rgb(255,200,0);fill:none" /><rect x="206" y="113" width="5" height="5" style="stroke-width:1;stroke:rgb(255,200,0);fill:none" /><rect x="75" y="207" width="5" height="5" style="stroke-width:1;stroke:rgb(255,200,0);fill:none" /><rect x="325" y="128" width="5" height="5" style="stroke-width:1;stroke:rgb(255,200,0);fill:none" /><rect x="330" y="217" width="5" height="5" style="stroke-width:1;stroke:rgb(255,200,0);fill:none" /><rect x="330" y="225" width="5" height="5" style="stroke-width:1;stroke:rgb(255,200,0);fill:none" /><rect x="324" y="116" width="5" height="5" style="stroke-width:1;stroke:rgb(255,200,0);fill:none" /><rect x="322" y="71" width="5" height="5" style="stroke-width:1;stroke:rgb(255,200,0);fill:none" /><rect x="322" y="221" width="5" height="5" style="stroke-width:1;stroke:rgb(255,200,0);fill:none" /><rect x="321" y="226" width="5" height="5" style="stroke-width:1;stroke:rgb(255,200,0);fill:none" /><rect x="298" y="385" width="5" height="5" style="stroke-width:1;stroke:rgb(255,200,0);fill:none" /><rect x="400" y="256" width="5" height="5" style="stroke-width:1;stroke:rgb(255,200,0);fill:none" /><rect x="451" y="385" width="5" height="5" style="stroke-width:1;stroke:rgb(255,200,0);fill:none" /><rect x="425" y="317" width="5" height="5" style="stroke-width:1;stroke:rgb(255,200,0);fill:none" /><rect x="155" y="408" width="5" height="5" style="stroke-width:1;stroke:rgb(255,200,0);fill:none" /><rect x="228" y="265" width="5" height="5" style="stroke-width:1;stroke:rgb(255,200,0);fill:none" /><rect x="236" y="248" width="5" height="5" style="stroke-width:1;stroke:rgb(255,200,0);fill:none" /><rect x="213" y="295" width="5" height="5" style="stroke-width:1;stroke:rgb(255,200,0);fill:none" /><rect x="225" y="271" width="5" height="5" style="stroke-width:1;stroke:rgb(255,200,0);fill:none" /><rect x="24" y="465" width="5" height="5" style="stroke-width:1;stroke:rgb(255,200,0);fill:none" /><rect x="69" y="233" width="5" height="5" style="stroke-width:1;stroke:rgb(255,200,0);fill:none" /><rect x="360" y="351" width="5" height="5" style="stroke-width:1;stroke:rgb(255,200,0);fill:none" /><rect x="255" y="279" width="5" height="5" style="stroke-width:1;stroke:rgb(255,200,0);fill:none" /><rect x="264" y="283" width="5" height="5" style="stroke-width:1;stroke:rgb(255,200,0);fill:none" /><rect x="180" y="243" width="5" height="5" style="stroke-width:1;stroke:rgb(255,200,0);fill:none" /><rect x="232" y="267" width="5" height="5" style="stroke-width:1;stroke:rgb(255,200,0);fill:none" /><rect x="170" y="238" width="5" height="5" style="stroke-width:1;stroke:rgb(255,200,0);fill:none" /><rect x="262" y="289" width="5" height="5" style="stroke-width:1;stroke:rgb(255,200,0);fill:none" /><rect x="244" y="261" width="5" height="5" style="stroke-width:1;stroke:rgb(255,200,0);fill:none" /><rect x="227" y="234" width="5" height="5" style="stroke-width:1;stroke:rgb(255,200,0);fill:none" /><rect x="176" y="153" width="5" height="5" style="stroke-width:1;stroke:rgb(255,200,0);fill:none" /><rect x="280" y="243" width="5" height="5" style="stroke-width:1;stroke:rgb(255,200,0);fill:none" /><rect x="285" y="229" width="5" height="5" style="stroke-width:1;stroke:rgb(255,200,0);fill:none" /><rect x="330" y="116" width="5" height="5" style="stroke-width:1;stroke:rgb(255,200,0);fill:none" /><rect x="441" y="309" width="5" height="5" style="stroke-width:1;stroke:rgb(255,200,0);fill:none" /><rect x="205" y="281" width="5" height="5" style="stroke-width:1;stroke:rgb(255,200,0);fill:none" /><rect x="177" y="238" width="5" height="5" style="stroke-width:1;stroke:rgb(255,200,0);fill:none" /><rect x="311" y="227" width="5" height="5" style="stroke-width:1;stroke:rgb(255,200,0);fill:none" /><rect x="191" y="134" width="5" height="5" style="stroke-width:1;stroke:rgb(255,200,0);fill:none" /><rect x="392" y="68" width="5" height="5" style="stroke-width:1;stroke:rgb(255,200,0);fill:none" /><rect x="233" y="76" width="5" height="5" style="stroke-width:1;stroke:rgb(255,200,0);fill:none" /></svg>