<?xml version="1.0"?><!DOCTYPE svg PUBLIC "-//W3C//DTD util.SVG 1.0//EN" "http://www.w3.org/TR/2001/REC-util.SVG-20010904/DTD/svg10.dtd"><svg xmlns="http://www.w3.org/2000/svg" height="1000" width="1000" text-rendering="auto" shape-rendering="auto"><line x1="89.14575310435968" y1="306.67989701988176" x2="270.0456820627657" y2="431.8805987065882" style="stroke-width:1;stroke:rgb(0,0,0);fill:none"/><line x1="217.87304475145197" y1="154.45864720325096" x2="85.44061137355604" y2="330.1334905633894" style="stroke-width:1;stroke:rgb(0,0,0);fill:none"/><line x1="435.13928158656904" y1="364.2427195434188" x2="441.79914111859614" y2="144.3435465776851" style="stroke-width:1;stroke:rgb(0,0,0);fill:none"/><line x1="242.8390226963169" y1="437.998151813709" x2="50.18849551146164" y2="331.7636264681447" style="stroke-width:1;stroke:rgb(0,0,0);fill:none"/><line x1="283.27464360571867" y1="306.7973667160493" x2="300.94257421275944" y2="87.50795924714123" style="stroke-width:1;stroke:rgb(0,0,0);fill:none"/><line x1="297.91637652525463" y1="444.3759117308539" x2="115.30033005696109" y2="321.69184767895655" style="stroke-width:1;stroke:rgb(0,0,0);fill:none"/><line x1="303.80480386102784" y1="422.2006656219866" x2="491.7591483592859" y2="307.8627262307674" style="stroke-width:1;stroke:rgb(0,0,0);fill:none"/><line x1="310.3787008418249" y1="243.88750868261477" x2="289.899011686625" y2="24.84280472448117" style="stroke-width:1;stroke:rgb(0,0,0);fill:none"/><line x1="80.08047494529569" y1="388.87322671669887" x2="31.966811967000908" y2="174.19887930925694" style="stroke-width:1;stroke:rgb(0,0,0);fill:none"/><line x1="12.885157888086084" y1="400.0693674947795" x2="145.9769489563057" y2="224.8935268367328" style="stroke-width:1;stroke:rgb(0,0,0);fill:none"/><line x1="125.14140682242709" y1="125.74745198372844" x2="313.43777985257066" y2="239.52124467647923" style="stroke-width:1;stroke:rgb(0,0,0);fill:none"/><line x1="197.3059138969302" y1="287.32406106049996" x2="84.97349052021531" y2="98.16426972440635" style="stroke-width:1;stroke:rgb(0,0,0);fill:none"/><line x1="325.4867607743051" y1="399.3834775387614" x2="148.4961393835688" y2="268.71473628929095" style="stroke-width:1;stroke:rgb(0,0,0);fill:none"/><line x1="260.159517509486" y1="307.6705405950247" x2="375.5980121943551" y2="120.39012532185347" style="stroke-width:1;stroke:rgb(0,0,0);fill:none"/><line x1="265.05946124311987" y1="20.892632148219125" x2="132.80001863464605" y2="196.69775107510313" style="stroke-width:1;stroke:rgb(0,0,0);fill:none"/><line x1="127.92919641990696" y1="241.72199044366528" x2="26.73620466079936" y2="437.0677823585186" style="stroke-width:1;stroke:rgb(0,0,0);fill:none"/><line x1="410.91641429564294" y1="431.55791489476957" x2="194.99441375523492" y2="473.7205723374408" style="stroke-width:1;stroke:rgb(0,0,0);fill:none"/><line x1="434.22595020021697" y1="23.82101398021319" x2="395.6349646291422" y2="240.4098775735501" style="stroke-width:1;stroke:rgb(0,0,0);fill:none"/><line x1="205.06909745021628" y1="89.29322014384783" x2="110.17911805166669" y2="287.7772039051147" style="stroke-width:1;stroke:rgb(0,0,0);fill:none"/><line x1="250.61600744944585" y1="49.54640316826914" x2="70.64942140875391" y2="176.0850451273886" style="stroke-width:1;stroke:rgb(0,0,0);fill:none"/><line x1="156.2290276270385" y1="297.57752958953154" x2="309.43117413883556" y2="139.68800395791186" style="stroke-width:1;stroke:rgb(0,0,0);fill:none"/><line x1="423.2449773267473" y1="225.56897617385334" x2="348.4661984143928" y2="432.4702430244389" style="stroke-width:1;stroke:rgb(0,0,0);fill:none"/><line x1="113.90131046658242" y1="316.2861114916206" x2="328.4242726198367" y2="365.0703170195723" style="stroke-width:1;stroke:rgb(0,0,0);fill:none"/><line x1="476.5494246771869" y1="72.40618357497064" x2="264.41136050746945" y2="14.11860573607892" style="stroke-width:1;stroke:rgb(0,0,0);fill:none"/><line x1="315.22290430251894" y1="119.78335035525383" x2="466.1141706418083" y2="279.88277490926544" style="stroke-width:1;stroke:rgb(0,0,0);fill:none"/><rect x="96" y="311" width="5" height="5" style="stroke-width:1;stroke:rgb(255,200,0);fill:none" /><rect x="90" y="307" width="5" height="5" style="stroke-width:1;stroke:rgb(255,200,0);fill:none" /><rect x="201" y="171" width="5" height="5" style="stroke-width:1;stroke:rgb(255,200,0);fill:none" /><rect x="160" y="226" width="5" height="5" style="stroke-width:1;stroke:rgb(255,200,0);fill:none" /><rect x="433" y="339" width="5" height="5" style="stroke-width:1;stroke:rgb(255,200,0);fill:none" /><rect x="436" y="248" width="5" height="5" style="stroke-width:1;stroke:rgb(255,200,0);fill:none" /><rect x="67" y="340" width="5" height="5" style="stroke-width:1;stroke:rgb(255,200,0);fill:none" /><rect x="58" y="335" width="5" height="5" style="stroke-width:1;stroke:rgb(255,200,0);fill:none" /><rect x="72" y="343" width="5" height="5" style="stroke-width:1;stroke:rgb(255,200,0);fill:none" /><rect x="296" y="115" width="5" height="5" style="stroke-width:1;stroke:rgb(255,200,0);fill:none" /><rect x="287" y="223" width="5" height="5" style="stroke-width:1;stroke:rgb(255,200,0);fill:none" /><rect x="284" y="262" width="5" height="5" style="stroke-width:1;stroke:rgb(255,200,0);fill:none" /><rect x="293" y="151" width="5" height="5" style="stroke-width:1;stroke:rgb(255,200,0);fill:none" /><rect x="363" y="382" width="5" height="5" style="stroke-width:1;stroke:rgb(255,200,0);fill:none" /><rect x="307" y="235" width="5" height="5" style="stroke-width:1;stroke:rgb(255,200,0);fill:none" /><rect x="306" y="226" width="5" height="5" style="stroke-width:1;stroke:rgb(255,200,0);fill:none" /><rect x="299" y="145" width="5" height="5" style="stroke-width:1;stroke:rgb(255,200,0);fill:none" /><rect x="64" y="327" width="5" height="5" style="stroke-width:1;stroke:rgb(255,200,0);fill:none" /><rect x="69" y="348" width="5" height="5" style="stroke-width:1;stroke:rgb(255,200,0);fill:none" /><rect x="114" y="261" width="5" height="5" style="stroke-width:1;stroke:rgb(255,200,0);fill:none" /><rect x="128" y="243" width="5" height="5" style="stroke-width:1;stroke:rgb(255,200,0);fill:none" /><rect x="303" y="232" width="5" height="5" style="stroke-width:1;stroke:rgb(255,200,0);fill:none" /><rect x="165" y="149" width="5" height="5" style="stroke-width:1;stroke:rgb(255,200,0);fill:none" /><rect x="171" y="153" width="5" height="5" style="stroke-width:1;stroke:rgb(255,200,0);fill:none" /><rect x="132" y="129" width="5" height="5" style="stroke-width:1;stroke:rgb(255,200,0);fill:none" /><rect x="247" y="199" width="5" height="5" style="stroke-width:1;stroke:rgb(255,200,0);fill:none" /><rect x="136" y="186" width="5" height="5" style="stroke-width:1;stroke:rgb(255,200,0);fill:none" /><rect x="147" y="204" width="5" height="5" style="stroke-width:1;stroke:rgb(255,200,0);fill:none" /><rect x="111" y="144" width="5" height="5" style="stroke-width:1;stroke:rgb(255,200,0);fill:none" /><rect x="183" y="265" width="5" height="5" style="stroke-width:1;stroke:rgb(255,200,0);fill:none" /><rect x="167" y="282" width="5" height="5" style="stroke-width:1;stroke:rgb(255,200,0);fill:none" /><rect x="255" y="346" width="5" height="5" style="stroke-width:1;stroke:rgb(255,200,0);fill:none" /><rect x="349" y="156" width="5" height="5" style="stroke-width:1;stroke:rgb(255,200,0);fill:none" /><rect x="188" y="118" width="5" height="5" style="stroke-width:1;stroke:rgb(255,200,0);fill:none" /><rect x="233" y="58" width="5" height="5" style="stroke-width:1;stroke:rgb(255,200,0);fill:none" /><rect x="425" y="57" width="5" height="5" style="stroke-width:1;stroke:rgb(255,200,0);fill:none" /><rect x="398" y="208" width="5" height="5" style="stroke-width:1;stroke:rgb(255,200,0);fill:none" /><rect x="418" y="229" width="5" height="5" style="stroke-width:1;stroke:rgb(255,200,0);fill:none" /></svg>