<?xml version="1.0"?><!DOCTYPE svg PUBLIC "-//W3C//DTD util.SVG 1.0//EN" "http://www.w3.org/TR/2001/REC-util.SVG-20010904/DTD/svg10.dtd"><svg xmlns="http://www.w3.org/2000/svg" height="1000" width="1000" text-rendering="auto" shape-rendering="auto"><line x1="43.1847502267364" y1="326.55025622178175" x2="142.03588118037328" y2="130.0090292255433" style="stroke-width:1;stroke:rgb(0,0,0);fill:none"/><line x1="372.2643818087192" y1="10.134816142666647" x2="435.9539733749825" y2="220.71410269792725" style="stroke-width:1;stroke:rgb(0,0,0);fill:none"/><line x1="159.67732443085237" y1="208.13786932564915" x2="61.9919999876719" y2="11.014615019033727" style="stroke-width:1;stroke:rgb(0,0,0);fill:none"/><line x1="219.35665115270476" y1="266.6184397701779" x2="117.18251122706911" y2="461.45284415106903" style="stroke-width:1;stroke:rgb(0,0,0);fill:none"/><line x1="287.0023908789434" y1="396.8128575474167" x2="68.12129385935546" y2="374.65286279331707" style="stroke-width:1;stroke:rgb(0,0,0);fill:none"/><line x1="263.7856700911843" y1="375.3516952827535" x2="483.1830476220336" y2="391.62408701187456" style="stroke-width:1;stroke:rgb(0,0,0);fill:none"/><line x1="362.8162147561406" y1="332.3305912112701" x2="270.31607333062027" y2="132.7216639653707" style="stroke-width:1;stroke:rgb(0,0,0);fill:none"/><line x1="217.99864720342143" y1="99.2987002215313" x2="324.0363445145318" y2="292.0576345124153" style="stroke-width:1;stroke:rgb(0,0,0);fill:none"/><line x1="465.22277715528384" y1="204.13055890882376" x2="298.9268187641435" y2="60.097041202797755" style="stroke-width:1;stroke:rgb(0,0,0);fill:none"/><line x1="78.47699594267948" y1="173.58035674599893" x2="36.300799536190034" y2="389.4997131193478" style="stroke-width:1;stroke:rgb(0,0,0);fill:none"/><line x1="387.3787378145489" y1="303.0711632567045" x2="368.1726676848052" y2="83.91111473012799" style="stroke-width:1;stroke:rgb(0,0,0);fill:none"/><line x1="130.65799148926794" y1="341.74465950129957" x2="349.0469065851032" y2="315.1686973688753" style="stroke-width:1;stroke:rgb(0,0,0);fill:none"/><line x1="428.4632634120438" y1="305.8434584902956" x2="218.64170256477237" y2="239.70033637155373" style="stroke-width:1;stroke:rgb(0,0,0);fill:none"/><line x1="237.94573879318042" y1="340.7219341565818" x2="54.726996405040694" y2="218.93978260017153" style="stroke-width:1;stroke:rgb(0,0,0);fill:none"/><line x1="329.59871954572407" y1="39.19965939082398" x2="113.81900024976073" y2="82.08453715158333" style="stroke-width:1;stroke:rgb(0,0,0);fill:none"/><line x1="346.8356031112901" y1="201.76955733090406" x2="235.6085477169887" y2="11.957697458257996" style="stroke-width:1;stroke:rgb(0,0,0);fill:none"/><line x1="449.0056397909405" y1="340.34067959383617" x2="295.15551738985585" y2="183.08248477661436" style="stroke-width:1;stroke:rgb(0,0,0);fill:none"/><line x1="222.94180762109812" y1="174.41735996162032" x2="4.941937237000559" y2="144.8191081126231" style="stroke-width:1;stroke:rgb(0,0,0);fill:none"/><line x1="340.9435405087749" y1="448.4350012386691" x2="257.201763372066" y2="244.99627640491042" style="stroke-width:1;stroke:rgb(0,0,0);fill:none"/><line x1="198.61938282314063" y1="224.87402226538046" x2="115.10845653621779" y2="428.40761946913483" style="stroke-width:1;stroke:rgb(0,0,0);fill:none"/><line x1="30.661960262329313" y1="319.4499868781996" x2="204.31506180770953" y2="184.37741259433594" style="stroke-width:1;stroke:rgb(0,0,0);fill:none"/><line x1="459.27278268450476" y1="21.363367919188413" x2="241.16158387375108" y2="50.12975374250439" style="stroke-width:1;stroke:rgb(0,0,0);fill:none"/><line x1="435.8057718129911" y1="342.98819607293217" x2="238.16076488028443" y2="246.362882440477" style="stroke-width:1;stroke:rgb(0,0,0);fill:none"/><line x1="52.518846606649575" y1="372.3045169265628" x2="160.63116587184894" y2="180.7014730491244" style="stroke-width:1;stroke:rgb(0,0,0);fill:none"/><line x1="491.94471138761054" y1="372.9211740621985" x2="274.1376494736041" y2="341.93595532183525" style="stroke-width:1;stroke:rgb(0,0,0);fill:none"/></svg>