<?xml version="1.0"?><!DOCTYPE svg PUBLIC "-//W3C//DTD util.SVG 1.0//EN" "http://www.w3.org/TR/2001/REC-util.SVG-20010904/DTD/svg10.dtd"><svg xmlns="http://www.w3.org/2000/svg" height="1000" width="1000" text-rendering="auto" shape-rendering="auto"><line x1="191.3037680970453" y1="268.25999570374114" x2="324.94264267751885" y2="443.0188329648779" style="stroke-width:1;stroke:rgb(0,0,0);fill:none"/><line x1="24.480606462717823" y1="296.88150256944283" x2="238.73714557000986" y2="346.8228226337487" style="stroke-width:1;stroke:rgb(0,0,0);fill:none"/><line x1="120.38714038655274" y1="377.11804017451453" x2="329.1495456684248" y2="446.53171419431686" style="stroke-width:1;stroke:rgb(0,0,0);fill:none"/><line x1="420.21717129225465" y1="458.0244722279408" x2="445.3596294841756" y2="239.465883295665" style="stroke-width:1;stroke:rgb(0,0,0);fill:none"/><line x1="420.3909494544027" y1="127.77624918649427" x2="420.3636528057809" y2="347.7762474930692" style="stroke-width:1;stroke:rgb(0,0,0);fill:none"/><line x1="305.9791846494965" y1="207.40149574335965" x2="86.64912570342841" y2="224.55740559140565" style="stroke-width:1;stroke:rgb(0,0,0);fill:none"/><line x1="87.90614565368737" y1="18.0075774471124" x2="306.9005421668232" y2="39.01839123067279" style="stroke-width:1;stroke:rgb(0,0,0);fill:none"/><line x1="405.34974873571923" y1="357.7650854262908" x2="185.64798455795872" y2="369.21649656988836" style="stroke-width:1;stroke:rgb(0,0,0);fill:none"/><line x1="270.66485092018604" y1="336.0918863028075" x2="100.54575056637344" y2="196.59460426903652" style="stroke-width:1;stroke:rgb(0,0,0);fill:none"/><line x1="291.2224465674532" y1="114.45007245449396" x2="365.68169654968034" y2="321.4665454514132" style="stroke-width:1;stroke:rgb(0,0,0);fill:none"/><line x1="217.3164198263231" y1="338.4050303074951" x2="431.8846848376796" y2="386.9895921560526" style="stroke-width:1;stroke:rgb(0,0,0);fill:none"/><line x1="108.33583915828815" y1="310.56982912379823" x2="100.39564761350911" y2="90.71316363868672" style="stroke-width:1;stroke:rgb(0,0,0);fill:none"/><line x1="112.03066513551757" y1="343.2839890220798" x2="153.33294515228943" y2="127.1957624445632" style="stroke-width:1;stroke:rgb(0,0,0);fill:none"/><line x1="219.4434031972361" y1="126.69181501553555" x2="170.60742268685817" y2="341.20299655997155" style="stroke-width:1;stroke:rgb(0,0,0);fill:none"/><line x1="132.1368646401619" y1="446.72232714711294" x2="301.61701903681364" y2="306.44945997142895" style="stroke-width:1;stroke:rgb(0,0,0);fill:none"/><line x1="351.5566760124668" y1="348.0136452764029" x2="374.4797850590567" y2="129.21115198247776" style="stroke-width:1;stroke:rgb(0,0,0);fill:none"/><line x1="184.9828516798666" y1="411.0565625033264" x2="404.800882094797" y2="402.11041783085716" style="stroke-width:1;stroke:rgb(0,0,0);fill:none"/><line x1="222.70025486415983" y1="251.65133366284863" x2="100.55537555538514" y2="68.67420815628464" style="stroke-width:1;stroke:rgb(0,0,0);fill:none"/><line x1="443.4918018459763" y1="287.38068364262153" x2="382.83765755992806" y2="498.8542630347698" style="stroke-width:1;stroke:rgb(0,0,0);fill:none"/><line x1="307.6971893786911" y1="238.8172427402785" x2="130.89734029100703" y2="369.74399081939384" style="stroke-width:1;stroke:rgb(0,0,0);fill:none"/><line x1="382.0423633186364" y1="402.94654075559424" x2="283.12629992333905" y2="206.43798521060654" style="stroke-width:1;stroke:rgb(0,0,0);fill:none"/><line x1="324.8526112771086" y1="263.5332624199306" x2="274.04271479094047" y2="477.5854859988154" style="stroke-width:1;stroke:rgb(0,0,0);fill:none"/><line x1="240.3964774761903" y1="99.80670590367585" x2="56.87447251597197" y2="221.1313682579622" style="stroke-width:1;stroke:rgb(0,0,0);fill:none"/><line x1="79.27637980380275" y1="182.2888924316799" x2="279.6351558673002" y2="273.15341165858865" style="stroke-width:1;stroke:rgb(0,0,0);fill:none"/><line x1="415.1101006594469" y1="25.532487966749894" x2="302.85258332937315" y2="214.73674215488435" style="stroke-width:1;stroke:rgb(0,0,0);fill:none"/></svg>