<?xml version="1.0"?><!DOCTYPE svg PUBLIC "-//W3C//DTD util.SVG 1.0//EN" "http://www.w3.org/TR/2001/REC-util.SVG-20010904/DTD/svg10.dtd"><svg xmlns="http://www.w3.org/2000/svg" height="1000" width="1000" text-rendering="auto" shape-rendering="auto"><line x1="131.6428970339963" y1="492.54125397918295" x2="330.8611419599788" y2="399.20267198539403" style="stroke-width:1;stroke:rgb(0,0,0);fill:none"/><line x1="68.02427826859176" y1="190.95288103889553" x2="76.82601028101668" y2="410.7767412396969" style="stroke-width:1;stroke:rgb(0,0,0);fill:none"/><line x1="299.6313677530438" y1="271.92097075680005" x2="489.76813816388653" y2="382.59169198755046" style="stroke-width:1;stroke:rgb(0,0,0);fill:none"/><line x1="420.0128093025956" y1="366.6339759041739" x2="216.5984495763735" y2="450.43492015405155" style="stroke-width:1;stroke:rgb(0,0,0);fill:none"/><line x1="498.30705771024964" y1="231.84976778308996" x2="434.8050360659461" y2="442.4856936055536" style="stroke-width:1;stroke:rgb(0,0,0);fill:none"/><line x1="448.8498774523486" y1="468.83614467937616" x2="264.40847204042575" y2="348.91380326763294" style="stroke-width:1;stroke:rgb(0,0,0);fill:none"/><line x1="259.170095585865" y1="269.30443902610966" x2="408.01847970678756" y2="431.3049283605259" style="stroke-width:1;stroke:rgb(0,0,0);fill:none"/><line x1="300.27164741503395" y1="222.53719250911706" x2="147.9195707887945" y2="381.24713154153073" style="stroke-width:1;stroke:rgb(0,0,0);fill:none"/><line x1="420.42325956576224" y1="179.1751625522543" x2="203.34305628076518" y2="214.8988989434041" style="stroke-width:1;stroke:rgb(0,0,0);fill:none"/><line x1="13.579584200107131" y1="295.35981648253266" x2="161.20355621413037" y2="458.4768385458442" style="stroke-width:1;stroke:rgb(0,0,0);fill:none"/><line x1="139.6522114448398" y1="351.14646313336425" x2="359.4436565310347" y2="341.56937239963094" style="stroke-width:1;stroke:rgb(0,0,0);fill:none"/><line x1="387.6141089549535" y1="179.46088007355615" x2="374.05038845839107" y2="399.0423580863684" style="stroke-width:1;stroke:rgb(0,0,0);fill:none"/><line x1="404.31540937319375" y1="410.0170259652267" x2="198.0779316895958" y2="333.4265383136427" style="stroke-width:1;stroke:rgb(0,0,0);fill:none"/><line x1="431.4954608639829" y1="197.68933940625905" x2="212.13812825615943" y2="214.49292923643253" style="stroke-width:1;stroke:rgb(0,0,0);fill:none"/><line x1="243.14117843907695" y1="266.1311100511502" x2="97.04429405988594" y2="101.64493928079852" style="stroke-width:1;stroke:rgb(0,0,0);fill:none"/><line x1="404.8693409509617" y1="66.3310281429062" x2="209.66836982260278" y2="167.80309755388052" style="stroke-width:1;stroke:rgb(0,0,0);fill:none"/><line x1="15.130614367103611" y1="454.2704019456248" x2="68.83061601184323" y2="240.92488447840697" style="stroke-width:1;stroke:rgb(0,0,0);fill:none"/><line x1="99.46168981754782" y1="64.38294021936535" x2="318.8717216459247" y2="80.48380768266215" style="stroke-width:1;stroke:rgb(0,0,0);fill:none"/><line x1="84.06487493489256" y1="108.06908163692248" x2="301.0231518816049" y2="144.525988586274" style="stroke-width:1;stroke:rgb(0,0,0);fill:none"/><line x1="161.81980786340304" y1="481.4710779876915" x2="311.1638865921901" y2="319.9274425554968" style="stroke-width:1;stroke:rgb(0,0,0);fill:none"/><line x1="301.4840620489398" y1="3.8009850626348762" x2="87.0391410600298" y2="52.92710705552328" style="stroke-width:1;stroke:rgb(0,0,0);fill:none"/><line x1="414.49813271939774" y1="301.9357570742558" x2="291.078451512092" y2="119.81606486419571" style="stroke-width:1;stroke:rgb(0,0,0);fill:none"/><line x1="141.62343708651747" y1="224.84437967654847" x2="298.21572702464994" y2="70.31653515676018" style="stroke-width:1;stroke:rgb(0,0,0);fill:none"/><line x1="315.74926820199784" y1="104.01064812886595" x2="98.6593245103721" y2="139.67514515275178" style="stroke-width:1;stroke:rgb(0,0,0);fill:none"/><line x1="499.6569918633861" y1="35.4164566727887" x2="476.5576632250885" y2="254.200416360102" style="stroke-width:1;stroke:rgb(0,0,0);fill:none"/><rect x="255" y="431" width="5" height="5" style="stroke-width:1;stroke:rgb(255,200,0);fill:none" /><rect x="164" y="474" width="5" height="5" style="stroke-width:1;stroke:rgb(255,200,0);fill:none" /><rect x="72" y="361" width="5" height="5" style="stroke-width:1;stroke:rgb(255,200,0);fill:none" /><rect x="456" y="362" width="5" height="5" style="stroke-width:1;stroke:rgb(255,200,0);fill:none" /><rect x="377" y="316" width="5" height="5" style="stroke-width:1;stroke:rgb(255,200,0);fill:none" /><rect x="339" y="397" width="5" height="5" style="stroke-width:1;stroke:rgb(255,200,0);fill:none" /><rect x="366" y="385" width="5" height="5" style="stroke-width:1;stroke:rgb(255,200,0);fill:none" /><rect x="372" y="383" width="5" height="5" style="stroke-width:1;stroke:rgb(255,200,0);fill:none" /><rect x="355" y="390" width="5" height="5" style="stroke-width:1;stroke:rgb(255,200,0);fill:none" /><rect x="295" y="368" width="5" height="5" style="stroke-width:1;stroke:rgb(255,200,0);fill:none" /><rect x="274" y="355" width="5" height="5" style="stroke-width:1;stroke:rgb(255,200,0);fill:none" /><rect x="324" y="340" width="5" height="5" style="stroke-width:1;stroke:rgb(255,200,0);fill:none" /><rect x="372" y="392" width="5" height="5" style="stroke-width:1;stroke:rgb(255,200,0);fill:none" /><rect x="378" y="399" width="5" height="5" style="stroke-width:1;stroke:rgb(255,200,0);fill:none" /><rect x="306" y="320" width="5" height="5" style="stroke-width:1;stroke:rgb(255,200,0);fill:none" /><rect x="176" y="347" width="5" height="5" style="stroke-width:1;stroke:rgb(255,200,0);fill:none" /><rect x="385" y="182" width="5" height="5" style="stroke-width:1;stroke:rgb(255,200,0);fill:none" /><rect x="338" y="190" width="5" height="5" style="stroke-width:1;stroke:rgb(255,200,0);fill:none" /><rect x="44" y="329" width="5" height="5" style="stroke-width:1;stroke:rgb(255,200,0);fill:none" /><rect x="232" y="345" width="5" height="5" style="stroke-width:1;stroke:rgb(255,200,0);fill:none" /><rect x="286" y="342" width="5" height="5" style="stroke-width:1;stroke:rgb(255,200,0);fill:none" /><rect x="372" y="396" width="5" height="5" style="stroke-width:1;stroke:rgb(255,200,0);fill:none" /><rect x="384" y="199" width="5" height="5" style="stroke-width:1;stroke:rgb(255,200,0);fill:none" /><rect x="380" y="253" width="5" height="5" style="stroke-width:1;stroke:rgb(255,200,0);fill:none" /><rect x="270" y="359" width="5" height="5" style="stroke-width:1;stroke:rgb(255,200,0);fill:none" /><rect x="346" y="202" width="5" height="5" style="stroke-width:1;stroke:rgb(255,200,0);fill:none" /><rect x="104" y="109" width="5" height="5" style="stroke-width:1;stroke:rgb(255,200,0);fill:none" /><rect x="174" y="188" width="5" height="5" style="stroke-width:1;stroke:rgb(255,200,0);fill:none" /><rect x="124" y="133" width="5" height="5" style="stroke-width:1;stroke:rgb(255,200,0);fill:none" /><rect x="263" y="136" width="5" height="5" style="stroke-width:1;stroke:rgb(255,200,0);fill:none" /><rect x="291" y="122" width="5" height="5" style="stroke-width:1;stroke:rgb(255,200,0);fill:none" /><rect x="288" y="76" width="5" height="5" style="stroke-width:1;stroke:rgb(255,200,0);fill:none" /><rect x="232" y="131" width="5" height="5" style="stroke-width:1;stroke:rgb(255,200,0);fill:none" /><rect x="184" y="123" width="5" height="5" style="stroke-width:1;stroke:rgb(255,200,0);fill:none" /><rect x="251" y="112" width="5" height="5" style="stroke-width:1;stroke:rgb(255,200,0);fill:none" /></svg>