<?xml version="1.0"?><!DOCTYPE svg PUBLIC "-//W3C//DTD util.SVG 1.0//EN" "http://www.w3.org/TR/2001/REC-util.SVG-20010904/DTD/svg10.dtd"><svg xmlns="http://www.w3.org/2000/svg" height="1000" width="1000" text-rendering="auto" shape-rendering="auto"><line x1="307.091806473644" y1="12.68026212390616" x2="477.4340831154752" y2="151.90493231018405" style="stroke-width:1;stroke:rgb(0,0,0);fill:none"/><line x1="156.17127533405989" y1="372.7345412749052" x2="3.5105443854058933" y2="214.3214697617795" style="stroke-width:1;stroke:rgb(0,0,0);fill:none"/><line x1="33.875440239686306" y1="83.16180782855648" x2="215.9711471130404" y2="206.61687470834676" style="stroke-width:1;stroke:rgb(0,0,0);fill:none"/><line x1="96.7610349618075" y1="53.8238366321025" x2="3.333100149313367" y2="253.00019315232896" style="stroke-width:1;stroke:rgb(0,0,0);fill:none"/><line x1="262.2097915747632" y1="1.3045704017644044" x2="231.76293981643036" y2="219.18754178320603" style="stroke-width:1;stroke:rgb(0,0,0);fill:none"/><line x1="48.63820728569878" y1="94.14460424198612" x2="268.6164566520709" y2="91.05109398562607" style="stroke-width:1;stroke:rgb(0,0,0);fill:none"/><line x1="106.25815497772462" y1="449.74686163962815" x2="223.26621465470365" y2="263.4430399648474" style="stroke-width:1;stroke:rgb(0,0,0);fill:none"/><line x1="29.639417803310085" y1="468.1094344537179" x2="7.981864394587852" y2="249.17805164086406" style="stroke-width:1;stroke:rgb(0,0,0);fill:none"/><line x1="227.52222541426514" y1="207.4644033748025" x2="190.89557078571715" y2="424.394088228492" style="stroke-width:1;stroke:rgb(0,0,0);fill:none"/><line x1="58.363144531688505" y1="21.895355106110294" x2="174.60177073183445" y2="208.68020936122045" style="stroke-width:1;stroke:rgb(0,0,0);fill:none"/><line x1="399.5155202641808" y1="437.6141629662888" x2="478.5104947662603" y2="232.2856603091667" style="stroke-width:1;stroke:rgb(0,0,0);fill:none"/><line x1="464.9197962943239" y1="275.38733365980016" x2="264.08576323157865" y2="185.57814056826777" style="stroke-width:1;stroke:rgb(0,0,0);fill:none"/><line x1="42.58492404345454" y1="182.4611696138601" x2="164.13581421477946" y2="365.83341696486605" style="stroke-width:1;stroke:rgb(0,0,0);fill:none"/><line x1="193.22739558656093" y1="22.335405126155226" x2="400.800395734287" y2="95.22881778924918" style="stroke-width:1;stroke:rgb(0,0,0);fill:none"/><line x1="149.38019052183498" y1="394.4471887464697" x2="218.5410954465869" y2="185.60090740540912" style="stroke-width:1;stroke:rgb(0,0,0);fill:none"/><line x1="477.14173090977283" y1="420.3377866491929" x2="292.23402720693787" y2="301.13568469060914" style="stroke-width:1;stroke:rgb(0,0,0);fill:none"/><line x1="151.2951624908443" y1="400.34820774973724" x2="366.53879050336866" y2="445.84744510604963" style="stroke-width:1;stroke:rgb(0,0,0);fill:none"/><line x1="252.8298508795861" y1="184.4749164495723" x2="64.65452900617586" y2="298.44880924015155" style="stroke-width:1;stroke:rgb(0,0,0);fill:none"/><line x1="295.2184649354905" y1="392.04875359050493" x2="357.35319327901965" y2="181.00545108204855" style="stroke-width:1;stroke:rgb(0,0,0);fill:none"/><line x1="343.0611216235305" y1="386.4828299377195" x2="292.06507345316345" y2="172.4748789849439" style="stroke-width:1;stroke:rgb(0,0,0);fill:none"/><line x1="352.3751265831686" y1="226.50383912619589" x2="149.16064901160289" y2="310.7883341731238" style="stroke-width:1;stroke:rgb(0,0,0);fill:none"/><line x1="210.5207428500998" y1="161.06928158401456" x2="289.08873268581704" y2="366.5615465799862" style="stroke-width:1;stroke:rgb(0,0,0);fill:none"/><line x1="193.9634055172347" y1="58.04687486318072" x2="149.70406374910635" y2="273.54887175938586" style="stroke-width:1;stroke:rgb(0,0,0);fill:none"/><line x1="17.178731134102787" y1="285.9560452537025" x2="3.769087035064816" y2="66.36510408094568" style="stroke-width:1;stroke:rgb(0,0,0);fill:none"/><line x1="176.55712042950879" y1="497.7276391171589" x2="241.45778192643039" y2="287.5184477451782" style="stroke-width:1;stroke:rgb(0,0,0);fill:none"/><rect x="13" y="224" width="5" height="5" style="stroke-width:1;stroke:rgb(255,200,0);fill:none" /><rect x="153" y="369" width="5" height="5" style="stroke-width:1;stroke:rgb(255,200,0);fill:none" /><rect x="75" y="288" width="5" height="5" style="stroke-width:1;stroke:rgb(255,200,0);fill:none" /><rect x="11" y="222" width="5" height="5" style="stroke-width:1;stroke:rgb(255,200,0);fill:none" /><rect x="69" y="106" width="5" height="5" style="stroke-width:1;stroke:rgb(255,200,0);fill:none" /><rect x="48" y="92" width="5" height="5" style="stroke-width:1;stroke:rgb(255,200,0);fill:none" /><rect x="140" y="154" width="5" height="5" style="stroke-width:1;stroke:rgb(255,200,0);fill:none" /><rect x="210" y="202" width="5" height="5" style="stroke-width:1;stroke:rgb(255,200,0);fill:none" /><rect x="167" y="173" width="5" height="5" style="stroke-width:1;stroke:rgb(255,200,0);fill:none" /><rect x="76" y="91" width="5" height="5" style="stroke-width:1;stroke:rgb(255,200,0);fill:none" /><rect x="86" y="68" width="5" height="5" style="stroke-width:1;stroke:rgb(255,200,0);fill:none" /><rect x="11" y="228" width="5" height="5" style="stroke-width:1;stroke:rgb(255,200,0);fill:none" /><rect x="247" y="89" width="5" height="5" style="stroke-width:1;stroke:rgb(255,200,0);fill:none" /><rect x="254" y="42" width="5" height="5" style="stroke-width:1;stroke:rgb(255,200,0);fill:none" /><rect x="233" y="193" width="5" height="5" style="stroke-width:1;stroke:rgb(255,200,0);fill:none" /><rect x="230" y="215" width="5" height="5" style="stroke-width:1;stroke:rgb(255,200,0);fill:none" /><rect x="100" y="91" width="5" height="5" style="stroke-width:1;stroke:rgb(255,200,0);fill:none" /><rect x="184" y="90" width="5" height="5" style="stroke-width:1;stroke:rgb(255,200,0);fill:none" /><rect x="214" y="272" width="5" height="5" style="stroke-width:1;stroke:rgb(255,200,0);fill:none" /><rect x="159" y="359" width="5" height="5" style="stroke-width:1;stroke:rgb(255,200,0);fill:none" /><rect x="156" y="364" width="5" height="5" style="stroke-width:1;stroke:rgb(255,200,0);fill:none" /><rect x="207" y="283" width="5" height="5" style="stroke-width:1;stroke:rgb(255,200,0);fill:none" /><rect x="191" y="407" width="5" height="5" style="stroke-width:1;stroke:rgb(255,200,0);fill:none" /><rect x="212" y="281" width="5" height="5" style="stroke-width:1;stroke:rgb(255,200,0);fill:none" /><rect x="163" y="192" width="5" height="5" style="stroke-width:1;stroke:rgb(255,200,0);fill:none" /><rect x="460" y="272" width="5" height="5" style="stroke-width:1;stroke:rgb(255,200,0);fill:none" /><rect x="418" y="381" width="5" height="5" style="stroke-width:1;stroke:rgb(255,200,0);fill:none" /><rect x="343" y="219" width="5" height="5" style="stroke-width:1;stroke:rgb(255,200,0);fill:none" /><rect x="296" y="199" width="5" height="5" style="stroke-width:1;stroke:rgb(255,200,0);fill:none" /><rect x="158" y="358" width="5" height="5" style="stroke-width:1;stroke:rgb(255,200,0);fill:none" /><rect x="101" y="272" width="5" height="5" style="stroke-width:1;stroke:rgb(255,200,0);fill:none" /><rect x="208" y="208" width="5" height="5" style="stroke-width:1;stroke:rgb(255,200,0);fill:none" /><rect x="179" y="295" width="5" height="5" style="stroke-width:1;stroke:rgb(255,200,0);fill:none" /><rect x="315" y="315" width="5" height="5" style="stroke-width:1;stroke:rgb(255,200,0);fill:none" /><rect x="326" y="322" width="5" height="5" style="stroke-width:1;stroke:rgb(255,200,0);fill:none" /><rect x="201" y="409" width="5" height="5" style="stroke-width:1;stroke:rgb(255,200,0);fill:none" /><rect x="223" y="198" width="5" height="5" style="stroke-width:1;stroke:rgb(255,200,0);fill:none" /><rect x="153" y="241" width="5" height="5" style="stroke-width:1;stroke:rgb(255,200,0);fill:none" /><rect x="320" y="297" width="5" height="5" style="stroke-width:1;stroke:rgb(255,200,0);fill:none" /><rect x="340" y="228" width="5" height="5" style="stroke-width:1;stroke:rgb(255,200,0);fill:none" /><rect x="307" y="242" width="5" height="5" style="stroke-width:1;stroke:rgb(255,200,0);fill:none" /><rect x="249" y="266" width="5" height="5" style="stroke-width:1;stroke:rgb(255,200,0);fill:none" /></svg>