<?xml version="1.0"?><!DOCTYPE svg PUBLIC "-//W3C//DTD util.SVG 1.0//EN" "http://www.w3.org/TR/2001/REC-util.SVG-20010904/DTD/svg10.dtd"><svg xmlns="http://www.w3.org/2000/svg" height="1000" width="1000" text-rendering="auto" shape-rendering="auto"><line x1="275.8382447013362" y1="9.234235584785534" x2="445.40103333462935" y2="149.40720270363173" style="stroke-width:1;stroke:rgb(0,0,0);fill:none"/><line x1="207.7736748860956" y1="65.26736955232487" x2="3.0648608142193723" y2="145.85459832516466" style="stroke-width:1;stroke:rgb(0,0,0);fill:none"/><line x1="86.22826219110019" y1="293.24806883870434" x2="178.58954693708645" y2="93.57485310842458" style="stroke-width:1;stroke:rgb(0,0,0);fill:none"/><line x1="339.27007400994387" y1="319.8430273730223" x2="370.61960096607817" y2="102.08810283714274" style="stroke-width:1;stroke:rgb(0,0,0);fill:none"/><line x1="211.159857694944" y1="325.1018115471172" x2="299.91773745922103" y2="123.80094523067501" style="stroke-width:1;stroke:rgb(0,0,0);fill:none"/><line x1="457.82812796959473" y1="75.05806572365387" x2="392.8805203058832" y2="285.2527570428225" style="stroke-width:1;stroke:rgb(0,0,0);fill:none"/><line x1="365.49471961289754" y1="459.8991350591184" x2="145.73352426839932" y2="470.14691631933744" style="stroke-width:1;stroke:rgb(0,0,0);fill:none"/><line x1="378.3292390615998" y1="390.2896688617126" x2="189.7351194450682" y2="277.01011180897086" style="stroke-width:1;stroke:rgb(0,0,0);fill:none"/><line x1="299.42827471841235" y1="471.7397260915803" x2="295.5790743578414" y2="251.77340217679514" style="stroke-width:1;stroke:rgb(0,0,0);fill:none"/><line x1="76.86518376202206" y1="291.2268730680875" x2="190.67543276187277" y2="479.5012133871867" style="stroke-width:1;stroke:rgb(0,0,0);fill:none"/><line x1="267.9466534411807" y1="232.57283249660182" x2="167.4113604684306" y2="428.2579235661141" style="stroke-width:1;stroke:rgb(0,0,0);fill:none"/><line x1="69.82429090191089" y1="339.50394434100537" x2="120.56307568272763" y2="125.4348533470789" style="stroke-width:1;stroke:rgb(0,0,0);fill:none"/><line x1="313.87763850685377" y1="389.4785584631999" x2="322.7988789416574" y2="169.65951590977497" style="stroke-width:1;stroke:rgb(0,0,0);fill:none"/><line x1="192.9975974970211" y1="58.8610694065147" x2="43.76070527951009" y2="220.50373085843154" style="stroke-width:1;stroke:rgb(0,0,0);fill:none"/><line x1="151.46305335360094" y1="109.3331578895384" x2="248.2075449465927" y2="306.9198561928745" style="stroke-width:1;stroke:rgb(0,0,0);fill:none"/><line x1="192.07286059888713" y1="236.8898763567729" x2="368.9887160311695" y2="106.11992531042671" style="stroke-width:1;stroke:rgb(0,0,0);fill:none"/><line x1="194.93486710961133" y1="428.81113833312935" x2="6.761148640071866" y2="314.8345983025314" style="stroke-width:1;stroke:rgb(0,0,0);fill:none"/><line x1="419.97970332438865" y1="495.8889123016581" x2="239.89619384721894" y2="369.51672543134185" style="stroke-width:1;stroke:rgb(0,0,0);fill:none"/><line x1="392.80551098837805" y1="204.4959832360772" x2="496.2915719395123" y2="10.35522196009444" style="stroke-width:1;stroke:rgb(0,0,0);fill:none"/><line x1="184.44617455619522" y1="450.41345206791453" x2="36.76981456313254" y2="287.34385741827003" style="stroke-width:1;stroke:rgb(0,0,0);fill:none"/><line x1="171.9410951706858" y1="274.87813225629316" x2="290.316566421637" y2="89.44014314371884" style="stroke-width:1;stroke:rgb(0,0,0);fill:none"/><line x1="338.81084596181046" y1="90.89799043784191" x2="188.61860888134504" y2="251.65336957261695" style="stroke-width:1;stroke:rgb(0,0,0);fill:none"/><line x1="204.74405506502325" y1="28.38717910862404" x2="209.18778848219372" y2="248.34229551494258" style="stroke-width:1;stroke:rgb(0,0,0);fill:none"/><line x1="381.4085150349342" y1="45.71751967148801" x2="175.43967317068928" y2="123.0275201960105" style="stroke-width:1;stroke:rgb(0,0,0);fill:none"/><line x1="322.01137034691004" y1="182.32548952422744" x2="450.7803662929996" y2="360.7030264593359" style="stroke-width:1;stroke:rgb(0,0,0);fill:none"/></svg>