<?xml version="1.0"?><!DOCTYPE svg PUBLIC "-//W3C//DTD util.SVG 1.0//EN" "http://www.w3.org/TR/2001/REC-util.SVG-20010904/DTD/svg10.dtd"><svg xmlns="http://www.w3.org/2000/svg" height="1000" width="1000" text-rendering="auto" shape-rendering="auto"><line x1="305.19293852168835" y1="327.5753258087617" x2="173.89105896968746" y2="151.05389247526574" style="stroke-width:1;stroke:rgb(0,0,0);fill:none"/><line x1="93.61103295973227" y1="358.2369134672208" x2="276.5901749464194" y2="236.09505496729537" style="stroke-width:1;stroke:rgb(0,0,0);fill:none"/><line x1="321.32368773314874" y1="21.66684623371107" x2="104.20253619694623" y2="57.14085863142817" style="stroke-width:1;stroke:rgb(0,0,0);fill:none"/><line x1="187.22647492545363" y1="15.417316976784335" x2="338.3245525480054" y2="175.32157251355642" style="stroke-width:1;stroke:rgb(0,0,0);fill:none"/><line x1="470.42880428394835" y1="149.24734565888735" x2="275.27554461637715" y2="250.8111445299493" style="stroke-width:1;stroke:rgb(0,0,0);fill:none"/><line x1="158.4176205560499" y1="210.60815693745693" x2="254.91246862954415" y2="408.31689294897785" style="stroke-width:1;stroke:rgb(0,0,0);fill:none"/><line x1="257.37905392122906" y1="159.57386203356228" x2="295.687683783959" y2="376.21284485530737" style="stroke-width:1;stroke:rgb(0,0,0);fill:none"/><line x1="203.43477453304325" y1="295.92814745470247" x2="2.743862443648254" y2="205.79958480818772" style="stroke-width:1;stroke:rgb(0,0,0);fill:none"/><line x1="352.19436657428946" y1="174.14464962701155" x2="207.82097214410993" y2="8.14367679640489" style="stroke-width:1;stroke:rgb(0,0,0);fill:none"/><line x1="295.22672740908325" y1="479.94101020935034" x2="478.51366742446066" y2="358.26152294958484" style="stroke-width:1;stroke:rgb(0,0,0);fill:none"/><line x1="364.93221538564353" y1="495.4391189359999" x2="145.12414987246856" y2="486.25139150448683" style="stroke-width:1;stroke:rgb(0,0,0);fill:none"/><line x1="244.5008909699946" y1="36.72022443436917" x2="218.50012973123256" y2="255.17836782802914" style="stroke-width:1;stroke:rgb(0,0,0);fill:none"/><line x1="327.7083427769026" y1="48.74193085234124" x2="224.9811042274345" y2="243.28527938937214" style="stroke-width:1;stroke:rgb(0,0,0);fill:none"/><line x1="252.62471823518572" y1="105.85708985500503" x2="57.69183916705191" y2="207.8432293946911" style="stroke-width:1;stroke:rgb(0,0,0);fill:none"/><line x1="293.1406223225753" y1="484.53597342584027" x2="345.1235822054631" y2="270.7656015736725" style="stroke-width:1;stroke:rgb(0,0,0);fill:none"/><line x1="466.6428638369919" y1="80.46326570421175" x2="281.1692385597913" y2="198.78289352027858" style="stroke-width:1;stroke:rgb(0,0,0);fill:none"/><line x1="180.83702099027903" y1="333.3338644544106" x2="380.4384848444568" y2="240.81761924704523" style="stroke-width:1;stroke:rgb(0,0,0);fill:none"/><line x1="56.38367097288116" y1="165.82300083541335" x2="259.6711889299228" y2="249.93117548488186" style="stroke-width:1;stroke:rgb(0,0,0);fill:none"/><line x1="351.03154087114996" y1="238.71551620769742" x2="131.27732763216096" y2="249.11194654281522" style="stroke-width:1;stroke:rgb(0,0,0);fill:none"/><line x1="374.97386845180665" y1="28.93754368015261" x2="173.3238683274239" y2="116.89933907927144" style="stroke-width:1;stroke:rgb(0,0,0);fill:none"/><line x1="70.48578203098288" y1="464.64438133659934" x2="165.08116108145407" y2="266.01982529606926" style="stroke-width:1;stroke:rgb(0,0,0);fill:none"/><line x1="491.85782553466004" y1="322.7006929121921" x2="317.1588978739004" y2="456.41787458373597" style="stroke-width:1;stroke:rgb(0,0,0);fill:none"/><line x1="62.76120066125623" y1="92.05487758393066" x2="281.2415000636836" y2="66.24095163250493" style="stroke-width:1;stroke:rgb(0,0,0);fill:none"/><line x1="307.9751625957053" y1="289.58940293131394" x2="154.8312992273736" y2="131.64334532739096" style="stroke-width:1;stroke:rgb(0,0,0);fill:none"/><line x1="119.43079176319499" y1="169.75715429395137" x2="322.52081615649405" y2="254.34108889106733" style="stroke-width:1;stroke:rgb(0,0,0);fill:none"/><rect x="248" y="251" width="5" height="5" style="stroke-width:1;stroke:rgb(255,200,0);fill:none" /><rect x="279" y="293" width="5" height="5" style="stroke-width:1;stroke:rgb(255,200,0);fill:none" /><rect x="221" y="215" width="5" height="5" style="stroke-width:1;stroke:rgb(255,200,0);fill:none" /><rect x="230" y="227" width="5" height="5" style="stroke-width:1;stroke:rgb(255,200,0);fill:none" /><rect x="274" y="287" width="5" height="5" style="stroke-width:1;stroke:rgb(255,200,0);fill:none" /><rect x="240" y="240" width="5" height="5" style="stroke-width:1;stroke:rgb(255,200,0);fill:none" /><rect x="240" y="241" width="5" height="5" style="stroke-width:1;stroke:rgb(255,200,0);fill:none" /><rect x="172" y="150" width="5" height="5" style="stroke-width:1;stroke:rgb(255,200,0);fill:none" /><rect x="216" y="209" width="5" height="5" style="stroke-width:1;stroke:rgb(255,200,0);fill:none" /><rect x="194" y="287" width="5" height="5" style="stroke-width:1;stroke:rgb(255,200,0);fill:none" /><rect x="269" y="237" width="5" height="5" style="stroke-width:1;stroke:rgb(255,200,0);fill:none" /><rect x="191" y="289" width="5" height="5" style="stroke-width:1;stroke:rgb(255,200,0);fill:none" /><rect x="255" y="246" width="5" height="5" style="stroke-width:1;stroke:rgb(255,200,0);fill:none" /><rect x="264" y="240" width="5" height="5" style="stroke-width:1;stroke:rgb(255,200,0);fill:none" /><rect x="132" y="329" width="5" height="5" style="stroke-width:1;stroke:rgb(255,200,0);fill:none" /><rect x="262" y="242" width="5" height="5" style="stroke-width:1;stroke:rgb(255,200,0);fill:none" /><rect x="208" y="37" width="5" height="5" style="stroke-width:1;stroke:rgb(255,200,0);fill:none" /><rect x="230" y="34" width="5" height="5" style="stroke-width:1;stroke:rgb(255,200,0);fill:none" /><rect x="238" y="69" width="5" height="5" style="stroke-width:1;stroke:rgb(255,200,0);fill:none" /><rect x="286" y="120" width="5" height="5" style="stroke-width:1;stroke:rgb(255,200,0);fill:none" /><rect x="328" y="165" width="5" height="5" style="stroke-width:1;stroke:rgb(255,200,0);fill:none" /><rect x="249" y="80" width="5" height="5" style="stroke-width:1;stroke:rgb(255,200,0);fill:none" /><rect x="237" y="69" width="5" height="5" style="stroke-width:1;stroke:rgb(255,200,0);fill:none" /><rect x="291" y="239" width="5" height="5" style="stroke-width:1;stroke:rgb(255,200,0);fill:none" /><rect x="290" y="239" width="5" height="5" style="stroke-width:1;stroke:rgb(255,200,0);fill:none" /><rect x="197" y="291" width="5" height="5" style="stroke-width:1;stroke:rgb(255,200,0);fill:none" /><rect x="209" y="317" width="5" height="5" style="stroke-width:1;stroke:rgb(255,200,0);fill:none" /><rect x="174" y="244" width="5" height="5" style="stroke-width:1;stroke:rgb(255,200,0);fill:none" /><rect x="258" y="174" width="5" height="5" style="stroke-width:1;stroke:rgb(255,200,0);fill:none" /><rect x="277" y="285" width="5" height="5" style="stroke-width:1;stroke:rgb(255,200,0);fill:none" /><rect x="270" y="240" width="5" height="5" style="stroke-width:1;stroke:rgb(255,200,0);fill:none" /><rect x="272" y="252" width="5" height="5" style="stroke-width:1;stroke:rgb(255,200,0);fill:none" /><rect x="268" y="230" width="5" height="5" style="stroke-width:1;stroke:rgb(255,200,0);fill:none" /><rect x="158" y="274" width="5" height="5" style="stroke-width:1;stroke:rgb(255,200,0);fill:none" /><rect x="241" y="46" width="5" height="5" style="stroke-width:1;stroke:rgb(255,200,0);fill:none" /><rect x="293" y="107" width="5" height="5" style="stroke-width:1;stroke:rgb(255,200,0);fill:none" /><rect x="338" y="158" width="5" height="5" style="stroke-width:1;stroke:rgb(255,200,0);fill:none" /><rect x="264" y="74" width="5" height="5" style="stroke-width:1;stroke:rgb(255,200,0);fill:none" /><rect x="258" y="66" width="5" height="5" style="stroke-width:1;stroke:rgb(255,200,0);fill:none" /><rect x="233" y="112" width="5" height="5" style="stroke-width:1;stroke:rgb(255,200,0);fill:none" /><rect x="219" y="231" width="5" height="5" style="stroke-width:1;stroke:rgb(255,200,0);fill:none" /><rect x="217" y="242" width="5" height="5" style="stroke-width:1;stroke:rgb(255,200,0);fill:none" /><rect x="236" y="86" width="5" height="5" style="stroke-width:1;stroke:rgb(255,200,0);fill:none" /><rect x="238" y="69" width="5" height="5" style="stroke-width:1;stroke:rgb(255,200,0);fill:none" /><rect x="222" y="201" width="5" height="5" style="stroke-width:1;stroke:rgb(255,200,0);fill:none" /><rect x="221" y="211" width="5" height="5" style="stroke-width:1;stroke:rgb(255,200,0);fill:none" /><rect x="226" y="234" width="5" height="5" style="stroke-width:1;stroke:rgb(255,200,0);fill:none" /><rect x="325" y="47" width="5" height="5" style="stroke-width:1;stroke:rgb(255,200,0);fill:none" /><rect x="236" y="215" width="5" height="5" style="stroke-width:1;stroke:rgb(255,200,0);fill:none" /><rect x="235" y="217" width="5" height="5" style="stroke-width:1;stroke:rgb(255,200,0);fill:none" /><rect x="99" y="182" width="5" height="5" style="stroke-width:1;stroke:rgb(255,200,0);fill:none" /><rect x="169" y="146" width="5" height="5" style="stroke-width:1;stroke:rgb(255,200,0);fill:none" /><rect x="123" y="170" width="5" height="5" style="stroke-width:1;stroke:rgb(255,200,0);fill:none" /><rect x="295" y="277" width="5" height="5" style="stroke-width:1;stroke:rgb(255,200,0);fill:none" /><rect x="242" y="241" width="5" height="5" style="stroke-width:1;stroke:rgb(255,200,0);fill:none" /><rect x="260" y="240" width="5" height="5" style="stroke-width:1;stroke:rgb(255,200,0);fill:none" /><rect x="289" y="239" width="5" height="5" style="stroke-width:1;stroke:rgb(255,200,0);fill:none" /><rect x="238" y="218" width="5" height="5" style="stroke-width:1;stroke:rgb(255,200,0);fill:none" /></svg>