<?xml version="1.0"?><!DOCTYPE svg PUBLIC "-//W3C//DTD util.SVG 1.0//EN" "http://www.w3.org/TR/2001/REC-util.SVG-20010904/DTD/svg10.dtd"><svg xmlns="http://www.w3.org/2000/svg" height="1000" width="1000" text-rendering="auto" shape-rendering="auto"><line x1="301.79384407866485" y1="257.50452951239765" x2="282.0041845245505" y2="38.39640694563326" style="stroke-width:1;stroke:rgb(0,0,0);fill:none"/><line x1="264.8691906160156" y1="172.75578521579666" x2="472.7091044217949" y2="244.88462985652433" style="stroke-width:1;stroke:rgb(0,0,0);fill:none"/><line x1="472.2319175836122" y1="260.7342871293891" x2="310.2699269537943" y2="409.62456079166293" style="stroke-width:1;stroke:rgb(0,0,0);fill:none"/><line x1="489.2478620783157" y1="9.645751132586366" x2="273.72503604568954" y2="53.8035529224215" style="stroke-width:1;stroke:rgb(0,0,0);fill:none"/><line x1="19.032731077847252" y1="307.9457029233469" x2="239.02496074569927" y2="309.79472584560614" style="stroke-width:1;stroke:rgb(0,0,0);fill:none"/><line x1="489.6831348775963" y1="434.77812142233347" x2="271.28195625554747" y2="408.3031298925913" style="stroke-width:1;stroke:rgb(0,0,0);fill:none"/><line x1="165.38908287683546" y1="78.4100582909057" x2="110.74305145725309" y2="291.51522305724825" style="stroke-width:1;stroke:rgb(0,0,0);fill:none"/><line x1="120.1138852743484" y1="407.28910754068625" x2="160.53288237921583" y2="191.0339233877122" style="stroke-width:1;stroke:rgb(0,0,0);fill:none"/><line x1="271.7342784642387" y1="283.01057187083586" x2="148.7104195766022" y2="465.3978799391192" style="stroke-width:1;stroke:rgb(0,0,0);fill:none"/><line x1="319.64168624736124" y1="258.0481551682251" x2="215.92492747421252" y2="452.0657676408882" style="stroke-width:1;stroke:rgb(0,0,0);fill:none"/><line x1="376.69395532348216" y1="366.6109363473499" x2="247.63687912614108" y2="188.44171598818207" style="stroke-width:1;stroke:rgb(0,0,0);fill:none"/><line x1="318.5578550521626" y1="282.08366944613005" x2="230.0004441432123" y2="80.69453127551438" style="stroke-width:1;stroke:rgb(0,0,0);fill:none"/><line x1="39.502448590180315" y1="251.22401073137934" x2="259.5024386454504" y2="251.15786180037247" style="stroke-width:1;stroke:rgb(0,0,0);fill:none"/><line x1="106.73208348268376" y1="297.7350577912076" x2="15.369967028605473" y2="497.8674231822943" style="stroke-width:1;stroke:rgb(0,0,0);fill:none"/><line x1="110.36158381343836" y1="14.41132477121898" x2="10.726651381980489" y2="210.55637375125013" style="stroke-width:1;stroke:rgb(0,0,0);fill:none"/><line x1="477.79974850615406" y1="80.49749529801886" x2="260.8414908110961" y2="116.95451681548266" style="stroke-width:1;stroke:rgb(0,0,0);fill:none"/><line x1="488.6245807719594" y1="482.9862100522592" x2="404.95123892515625" y2="279.5193285599927" style="stroke-width:1;stroke:rgb(0,0,0);fill:none"/><line x1="486.70339790413794" y1="315.08503413374115" x2="340.05739175813596" y2="479.0818294726341" style="stroke-width:1;stroke:rgb(0,0,0);fill:none"/><line x1="204.28632718928552" y1="488.06315269978137" x2="388.35878495069875" y2="367.57526827287006" style="stroke-width:1;stroke:rgb(0,0,0);fill:none"/><line x1="128.21578853031502" y1="19.90106868288749" x2="185.3379174185809" y2="232.355916571262" style="stroke-width:1;stroke:rgb(0,0,0);fill:none"/><line x1="399.5887108336872" y1="444.98647201844153" x2="367.93736938254006" y2="227.27521235476934" style="stroke-width:1;stroke:rgb(0,0,0);fill:none"/><line x1="181.28826287143556" y1="8.969647952481562" x2="329.0646247465688" y2="171.94862472847456" style="stroke-width:1;stroke:rgb(0,0,0);fill:none"/><line x1="469.7031851679267" y1="375.93464805289165" x2="454.06225676154617" y2="156.49134932042526" style="stroke-width:1;stroke:rgb(0,0,0);fill:none"/><line x1="103.68376691554687" y1="69.10749634520053" x2="55.686496987810855" y2="283.80789708885084" style="stroke-width:1;stroke:rgb(0,0,0);fill:none"/><line x1="196.09315865432535" y1="408.3507880360836" x2="234.12133589818492" y2="191.66239947889855" style="stroke-width:1;stroke:rgb(0,0,0);fill:none"/></svg>