<?xml version="1.0"?><!DOCTYPE svg PUBLIC "-//W3C//DTD util.SVG 1.0//EN" "http://www.w3.org/TR/2001/REC-util.SVG-20010904/DTD/svg10.dtd"><svg xmlns="http://www.w3.org/2000/svg" height="1000" width="1000" text-rendering="auto" shape-rendering="auto"><line x1="36.60310228897706" y1="475.69731467384344" x2="248.85907902063312" y2="417.84059214576826" style="stroke-width:1;stroke:rgb(0,0,0);fill:none"/><line x1="123.79447968583568" y1="9.9867594208638" x2="337.17658066783116" y2="63.541208167064866" style="stroke-width:1;stroke:rgb(0,0,0);fill:none"/><line x1="98.75841142550146" y1="334.45985878945015" x2="206.62306443075494" y2="142.7172797099555" style="stroke-width:1;stroke:rgb(0,0,0);fill:none"/><line x1="32.07428069641411" y1="319.7898049963073" x2="163.55068537142432" y2="143.3983227367238" style="stroke-width:1;stroke:rgb(0,0,0);fill:none"/><line x1="147.10865921681193" y1="157.5972315159102" x2="366.78811386652853" y2="169.46892915369918" style="stroke-width:1;stroke:rgb(0,0,0);fill:none"/><line x1="342.50844035760105" y1="331.42979686358404" x2="411.49704094842537" y2="122.52653459006254" style="stroke-width:1;stroke:rgb(0,0,0);fill:none"/><line x1="297.1552499172475" y1="301.8701757601649" x2="318.9633903820836" y2="82.95374191047426" style="stroke-width:1;stroke:rgb(0,0,0);fill:none"/><line x1="35.35491848529853" y1="126.70665550028531" x2="228.05121878185386" y2="20.555179523642522" style="stroke-width:1;stroke:rgb(0,0,0);fill:none"/><line x1="490.8040206554874" y1="108.83699689609105" x2="316.90544794897994" y2="243.5933934442309" style="stroke-width:1;stroke:rgb(0,0,0);fill:none"/><line x1="289.7907330869341" y1="225.9402557456945" x2="445.9269349071992" y2="380.92892139948174" style="stroke-width:1;stroke:rgb(0,0,0);fill:none"/><line x1="387.31465365676877" y1="491.1715129152997" x2="183.49572953491744" y2="408.3593992494174" style="stroke-width:1;stroke:rgb(0,0,0);fill:none"/><line x1="425.4093212561256" y1="390.01868817862805" x2="214.2978067550851" y2="451.9212603794418" style="stroke-width:1;stroke:rgb(0,0,0);fill:none"/><line x1="413.7107794253644" y1="179.43355640122311" x2="213.22762431720653" y2="88.84379694752819" style="stroke-width:1;stroke:rgb(0,0,0);fill:none"/><line x1="41.17885450534453" y1="12.793612314717539" x2="210.56798279822718" y2="153.1763862443466" style="stroke-width:1;stroke:rgb(0,0,0);fill:none"/><line x1="158.09462827603082" y1="103.04746368436652" x2="240.22685342262966" y2="307.1413087470445" style="stroke-width:1;stroke:rgb(0,0,0);fill:none"/><line x1="479.23015708483337" y1="412.1737235577899" x2="437.7175230628351" y2="196.12580938929898" style="stroke-width:1;stroke:rgb(0,0,0);fill:none"/><line x1="293.1035400975584" y1="411.32758840253194" x2="140.28311244154003" y2="253.06857004644692" style="stroke-width:1;stroke:rgb(0,0,0);fill:none"/><line x1="351.09698161524176" y1="330.82536187898427" x2="145.7313550101113" y2="251.92694992359623" style="stroke-width:1;stroke:rgb(0,0,0);fill:none"/><line x1="44.422509555175296" y1="456.8055151790151" x2="112.7108759162426" y2="247.6723063867799" style="stroke-width:1;stroke:rgb(0,0,0);fill:none"/><line x1="122.63188569861194" y1="205.4608564179594" x2="79.5688790366295" y2="421.20509726167245" style="stroke-width:1;stroke:rgb(0,0,0);fill:none"/><line x1="388.8930842653088" y1="174.1158841735274" x2="462.20458246657375" y2="381.5415919136384" style="stroke-width:1;stroke:rgb(0,0,0);fill:none"/><line x1="307.7394358092203" y1="83.94074892749043" x2="88.7280988041646" y2="104.77423791176582" style="stroke-width:1;stroke:rgb(0,0,0);fill:none"/><line x1="360.4637761174204" y1="242.601933893545" x2="496.4515426101117" y2="415.53928487455573" style="stroke-width:1;stroke:rgb(0,0,0);fill:none"/><line x1="43.84139283679023" y1="390.05899277705925" x2="122.90292397308119" y2="184.75610849535877" style="stroke-width:1;stroke:rgb(0,0,0);fill:none"/><line x1="31.20115998723183" y1="432.9882679055634" x2="241.85173645026904" y2="496.4416731395625" style="stroke-width:1;stroke:rgb(0,0,0);fill:none"/></svg>