<?xml version="1.0"?><!DOCTYPE svg PUBLIC "-//W3C//DTD util.SVG 1.0//EN" "http://www.w3.org/TR/2001/REC-util.SVG-20010904/DTD/svg10.dtd"><svg xmlns="http://www.w3.org/2000/svg" height="1000" width="1000" text-rendering="auto" shape-rendering="auto"><line x1="49.8502488100368" y1="482.68013781193207" x2="245.21808581077636" y2="381.5297138600155" style="stroke-width:1;stroke:rgb(0,0,0);fill:none"/><line x1="36.66949108434625" y1="397.41896437720374" x2="236.17492133251972" y2="304.69581030287776" style="stroke-width:1;stroke:rgb(0,0,0);fill:none"/><line x1="61.55699299595013" y1="453.51996839609853" x2="84.63470781405627" y2="234.7337277894869" style="stroke-width:1;stroke:rgb(0,0,0);fill:none"/><line x1="31.747744095114825" y1="249.68242924126477" x2="68.4639617542841" y2="32.767885328680364" style="stroke-width:1;stroke:rgb(0,0,0);fill:none"/><line x1="243.91370393344314" y1="153.64091938997743" x2="408.9150568816349" y2="8.12613139485208" style="stroke-width:1;stroke:rgb(0,0,0);fill:none"/><line x1="337.80347119627595" y1="283.9475356746577" x2="377.063642965462" y2="67.47897233888364" style="stroke-width:1;stroke:rgb(0,0,0);fill:none"/><line x1="366.5295077044612" y1="293.48533848359" x2="453.6419134575704" y2="495.5037256762058" style="stroke-width:1;stroke:rgb(0,0,0);fill:none"/><line x1="293.41849483105904" y1="419.85756970087436" x2="359.2441613499906" y2="209.9361995944976" style="stroke-width:1;stroke:rgb(0,0,0);fill:none"/><line x1="89.31878703723144" y1="207.6996716444313" x2="239.81752924999387" y2="47.23120560709276" style="stroke-width:1;stroke:rgb(0,0,0);fill:none"/><line x1="401.96325797687217" y1="319.9768935547466" x2="218.34029345739984" y2="198.80508618570298" style="stroke-width:1;stroke:rgb(0,0,0);fill:none"/><line x1="324.3743675242102" y1="424.3842260489797" x2="172.84259459488305" y2="264.8908976841392" style="stroke-width:1;stroke:rgb(0,0,0);fill:none"/><line x1="445.142740964386" y1="91.63172987031115" x2="228.10795504938383" y2="127.63036460593922" style="stroke-width:1;stroke:rgb(0,0,0);fill:none"/><line x1="112.19473733260621" y1="464.3692252193627" x2="331.42653946056777" y2="446.0003130107884" style="stroke-width:1;stroke:rgb(0,0,0);fill:none"/><line x1="147.1397490036883" y1="181.0656405128182" x2="327.56091876999335" y2="306.95528067497827" style="stroke-width:1;stroke:rgb(0,0,0);fill:none"/><line x1="11.796296382696358" y1="205.8609444867946" x2="49.2336894447959" y2="422.6521841638486" style="stroke-width:1;stroke:rgb(0,0,0);fill:none"/><line x1="389.2345648858506" y1="400.2840013506553" x2="246.60616948605303" y2="232.7813421906318" style="stroke-width:1;stroke:rgb(0,0,0);fill:none"/><line x1="432.2525482359365" y1="162.4830515477056" x2="456.5387767695923" y2="381.1384404673731" style="stroke-width:1;stroke:rgb(0,0,0);fill:none"/><line x1="123.93658536130225" y1="324.3884804505791" x2="38.452529849751826" y2="121.6756879255434" style="stroke-width:1;stroke:rgb(0,0,0);fill:none"/><line x1="335.4621150744952" y1="163.62518329891563" x2="428.8025862764856" y2="362.84254307408787" style="stroke-width:1;stroke:rgb(0,0,0);fill:none"/><line x1="161.11815978173743" y1="259.2094665572779" x2="81.76830686222857" y2="464.40108637069113" style="stroke-width:1;stroke:rgb(0,0,0);fill:none"/><line x1="246.63314310903107" y1="176.05787874359274" x2="451.35518511108734" y2="95.50425983973274" style="stroke-width:1;stroke:rgb(0,0,0);fill:none"/><line x1="314.85059648182124" y1="356.12198019505706" x2="401.2451012450292" y2="153.79553717111608" style="stroke-width:1;stroke:rgb(0,0,0);fill:none"/><line x1="208.0698225397437" y1="416.2522833362273" x2="412.8077237517565" y2="335.7389812843297" style="stroke-width:1;stroke:rgb(0,0,0);fill:none"/><line x1="497.37689161911305" y1="376.3778360357102" x2="331.62812046673446" y2="231.71496982092637" style="stroke-width:1;stroke:rgb(0,0,0);fill:none"/><line x1="274.1595840909418" y1="220.3337744131777" x2="322.4545859574669" y2="434.9673989800483" style="stroke-width:1;stroke:rgb(0,0,0);fill:none"/><rect x="67" y="380" width="5" height="5" style="stroke-width:1;stroke:rgb(255,200,0);fill:none" /><rect x="216" y="310" width="5" height="5" style="stroke-width:1;stroke:rgb(255,200,0);fill:none" /><rect x="42" y="391" width="5" height="5" style="stroke-width:1;stroke:rgb(255,200,0);fill:none" /><rect x="121" y="355" width="5" height="5" style="stroke-width:1;stroke:rgb(255,200,0);fill:none" /><rect x="47" y="144" width="5" height="5" style="stroke-width:1;stroke:rgb(255,200,0);fill:none" /><rect x="281" y="116" width="5" height="5" style="stroke-width:1;stroke:rgb(255,200,0);fill:none" /><rect x="338" y="268" width="5" height="5" style="stroke-width:1;stroke:rgb(255,200,0);fill:none" /><rect x="336" y="276" width="5" height="5" style="stroke-width:1;stroke:rgb(255,200,0);fill:none" /><rect x="368" y="102" width="5" height="5" style="stroke-width:1;stroke:rgb(255,200,0);fill:none" /><rect x="350" y="198" width="5" height="5" style="stroke-width:1;stroke:rgb(255,200,0);fill:none" /><rect x="363" y="127" width="5" height="5" style="stroke-width:1;stroke:rgb(255,200,0);fill:none" /><rect x="343" y="241" width="5" height="5" style="stroke-width:1;stroke:rgb(255,200,0);fill:none" /><rect x="366" y="295" width="5" height="5" style="stroke-width:1;stroke:rgb(255,200,0);fill:none" /><rect x="386" y="343" width="5" height="5" style="stroke-width:1;stroke:rgb(255,200,0);fill:none" /><rect x="335" y="275" width="5" height="5" style="stroke-width:1;stroke:rgb(255,200,0);fill:none" /><rect x="298" y="396" width="5" height="5" style="stroke-width:1;stroke:rgb(255,200,0);fill:none" /><rect x="321" y="321" width="5" height="5" style="stroke-width:1;stroke:rgb(255,200,0);fill:none" /><rect x="356" y="210" width="5" height="5" style="stroke-width:1;stroke:rgb(255,200,0);fill:none" /><rect x="304" y="375" width="5" height="5" style="stroke-width:1;stroke:rgb(255,200,0);fill:none" /><rect x="345" y="243" width="5" height="5" style="stroke-width:1;stroke:rgb(255,200,0);fill:none" /><rect x="306" y="370" width="5" height="5" style="stroke-width:1;stroke:rgb(255,200,0);fill:none" /><rect x="344" y="281" width="5" height="5" style="stroke-width:1;stroke:rgb(255,200,0);fill:none" /><rect x="276" y="236" width="5" height="5" style="stroke-width:1;stroke:rgb(255,200,0);fill:none" /><rect x="285" y="383" width="5" height="5" style="stroke-width:1;stroke:rgb(255,200,0);fill:none" /><rect x="316" y="416" width="5" height="5" style="stroke-width:1;stroke:rgb(255,200,0);fill:none" /><rect x="281" y="274" width="5" height="5" style="stroke-width:1;stroke:rgb(255,200,0);fill:none" /><rect x="285" y="276" width="5" height="5" style="stroke-width:1;stroke:rgb(255,200,0);fill:none" /><rect x="325" y="325" width="5" height="5" style="stroke-width:1;stroke:rgb(255,200,0);fill:none" /><rect x="351" y="356" width="5" height="5" style="stroke-width:1;stroke:rgb(255,200,0);fill:none" /><rect x="285" y="279" width="5" height="5" style="stroke-width:1;stroke:rgb(255,200,0);fill:none" /><rect x="449" y="334" width="5" height="5" style="stroke-width:1;stroke:rgb(255,200,0);fill:none" /><rect x="365" y="230" width="5" height="5" style="stroke-width:1;stroke:rgb(255,200,0);fill:none" /><rect x="390" y="282" width="5" height="5" style="stroke-width:1;stroke:rgb(255,200,0);fill:none" /><rect x="356" y="252" width="5" height="5" style="stroke-width:1;stroke:rgb(255,200,0);fill:none" /><rect x="307" y="374" width="5" height="5" style="stroke-width:1;stroke:rgb(255,200,0);fill:none" /></svg>
