<?xml version="1.0"?><!DOCTYPE svg PUBLIC "-//W3C//DTD util.SVG 1.0//EN" "http://www.w3.org/TR/2001/REC-util.SVG-20010904/DTD/svg10.dtd"><svg xmlns="http://www.w3.org/2000/svg" height="1000" width="1000" text-rendering="auto" shape-rendering="auto"><line x1="85.8053883246992" y1="299.6678999738518" x2="276.9584295504458" y2="190.7619091829499" style="stroke-width:1;stroke:rgb(0,0,0);fill:none"/><line x1="197.31710890749176" y1="19.340290459157195" x2="305.89855052905034" y2="210.67787311187092" style="stroke-width:1;stroke:rgb(0,0,0);fill:none"/><line x1="254.18991603496687" y1="98.60868576882741" x2="468.6855696227158" y2="49.70454901165282" style="stroke-width:1;stroke:rgb(0,0,0);fill:none"/><line x1="69.5736298858488" y1="106.69526589477101" x2="224.91626196456122" y2="262.47930441880527" style="stroke-width:1;stroke:rgb(0,0,0);fill:none"/><line x1="198.4522505809056" y1="104.14401550732805" x2="4.041460447116492" y2="1.1661310876343123" style="stroke-width:1;stroke:rgb(0,0,0);fill:none"/><line x1="345.6512041634063" y1="278.55965702164775" x2="127.47630721468485" y2="250.2804360031193" style="stroke-width:1;stroke:rgb(0,0,0);fill:none"/><line x1="334.6947486663794" y1="129.71111515651407" x2="125.26919680176798" y2="197.09759915889364" style="stroke-width:1;stroke:rgb(0,0,0);fill:none"/><line x1="343.91833905119404" y1="409.94339644426253" x2="127.5750366100315" y2="369.9987411215328" style="stroke-width:1;stroke:rgb(0,0,0);fill:none"/><line x1="390.47574414628275" y1="228.86530556243935" x2="365.4630961251333" y2="447.43878848973793" style="stroke-width:1;stroke:rgb(0,0,0);fill:none"/><line x1="238.4978095777082" y1="398.36447771731036" x2="113.01219056780698" y2="217.66207202855946" style="stroke-width:1;stroke:rgb(0,0,0);fill:none"/><line x1="462.60522515029237" y1="356.9607696141855" x2="260.30484389198614" y2="443.41628269891567" style="stroke-width:1;stroke:rgb(0,0,0);fill:none"/><line x1="435.3786032462057" y1="159.47473782653765" x2="306.7468667328094" y2="337.9512807153671" style="stroke-width:1;stroke:rgb(0,0,0);fill:none"/><line x1="167.01323826799302" y1="416.16523487090274" x2="128.60257754899897" y2="199.54431911452818" style="stroke-width:1;stroke:rgb(0,0,0);fill:none"/><line x1="181.65621720612634" y1="316.5840908507705" x2="243.32923567413297" y2="105.40540160148825" style="stroke-width:1;stroke:rgb(0,0,0);fill:none"/><line x1="310.0366818503642" y1="23.97215112670653" x2="442.66476144369886" y2="199.49933564062755" style="stroke-width:1;stroke:rgb(0,0,0);fill:none"/><line x1="364.2636980349328" y1="370.6818712991694" x2="155.52002700683335" y2="301.21187917514084" style="stroke-width:1;stroke:rgb(0,0,0);fill:none"/><line x1="36.83182509664928" y1="41.01681981423155" x2="214.0880606008427" y2="171.3250197668129" style="stroke-width:1;stroke:rgb(0,0,0);fill:none"/><line x1="207.86111143787323" y1="24.740200445836745" x2="120.53521681655845" y2="226.6663952017104" style="stroke-width:1;stroke:rgb(0,0,0);fill:none"/><line x1="471.6042430157635" y1="244.82709120271184" x2="296.45843692085884" y2="377.95840460179943" style="stroke-width:1;stroke:rgb(0,0,0);fill:none"/><line x1="275.92743459507966" y1="282.99319079602265" x2="57.75906191937702" y2="311.3227012760101" style="stroke-width:1;stroke:rgb(0,0,0);fill:none"/><line x1="376.36663391450014" y1="48.493108824693486" x2="373.7571608578181" y2="268.4776324857148" style="stroke-width:1;stroke:rgb(0,0,0);fill:none"/><line x1="207.6114080805563" y1="369.0214771503329" x2="157.165818267826" y2="154.88310490368073" style="stroke-width:1;stroke:rgb(0,0,0);fill:none"/><line x1="341.9587058652198" y1="320.0344296960243" x2="365.308275944824" y2="101.27703535906099" style="stroke-width:1;stroke:rgb(0,0,0);fill:none"/><line x1="42.677048368961465" y1="361.400680666721" x2="262.66830297528315" y2="359.4390750140567" style="stroke-width:1;stroke:rgb(0,0,0);fill:none"/><line x1="235.62934088604982" y1="243.94839306985494" x2="123.32465684792336" y2="433.1246546438077" style="stroke-width:1;stroke:rgb(0,0,0);fill:none"/><rect x="196" y="233" width="5" height="5" style="stroke-width:1;stroke:rgb(255,200,0);fill:none" /><rect x="162" y="253" width="5" height="5" style="stroke-width:1;stroke:rgb(255,200,0);fill:none" /><rect x="144" y="263" width="5" height="5" style="stroke-width:1;stroke:rgb(255,200,0);fill:none" /><rect x="138" y="266" width="5" height="5" style="stroke-width:1;stroke:rgb(255,200,0);fill:none" /><rect x="204" y="228" width="5" height="5" style="stroke-width:1;stroke:rgb(255,200,0);fill:none" /><rect x="176" y="244" width="5" height="5" style="stroke-width:1;stroke:rgb(255,200,0);fill:none" /><rect x="269" y="148" width="5" height="5" style="stroke-width:1;stroke:rgb(255,200,0);fill:none" /><rect x="202" y="30" width="5" height="5" style="stroke-width:1;stroke:rgb(255,200,0);fill:none" /><rect x="347" y="74" width="5" height="5" style="stroke-width:1;stroke:rgb(255,200,0);fill:none" /><rect x="374" y="68" width="5" height="5" style="stroke-width:1;stroke:rgb(255,200,0);fill:none" /><rect x="149" y="186" width="5" height="5" style="stroke-width:1;stroke:rgb(255,200,0);fill:none" /><rect x="201" y="239" width="5" height="5" style="stroke-width:1;stroke:rgb(255,200,0);fill:none" /><rect x="139" y="176" width="5" height="5" style="stroke-width:1;stroke:rgb(255,200,0);fill:none" /><rect x="167" y="204" width="5" height="5" style="stroke-width:1;stroke:rgb(255,200,0);fill:none" /><rect x="222" y="260" width="5" height="5" style="stroke-width:1;stroke:rgb(255,200,0);fill:none" /><rect x="176" y="91" width="5" height="5" style="stroke-width:1;stroke:rgb(255,200,0);fill:none" /><rect x="134" y="249" width="5" height="5" style="stroke-width:1;stroke:rgb(255,200,0);fill:none" /><rect x="135" y="249" width="5" height="5" style="stroke-width:1;stroke:rgb(255,200,0);fill:none" /><rect x="196" y="257" width="5" height="5" style="stroke-width:1;stroke:rgb(255,200,0);fill:none" /><rect x="179" y="255" width="5" height="5" style="stroke-width:1;stroke:rgb(255,200,0);fill:none" /><rect x="222" y="260" width="5" height="5" style="stroke-width:1;stroke:rgb(255,200,0);fill:none" /><rect x="224" y="162" width="5" height="5" style="stroke-width:1;stroke:rgb(255,200,0);fill:none" /><rect x="209" y="167" width="5" height="5" style="stroke-width:1;stroke:rgb(255,200,0);fill:none" /><rect x="132" y="192" width="5" height="5" style="stroke-width:1;stroke:rgb(255,200,0);fill:none" /><rect x="162" y="182" width="5" height="5" style="stroke-width:1;stroke:rgb(255,200,0);fill:none" /><rect x="230" y="387" width="5" height="5" style="stroke-width:1;stroke:rgb(255,200,0);fill:none" /><rect x="338" y="407" width="5" height="5" style="stroke-width:1;stroke:rgb(255,200,0);fill:none" /><rect x="157" y="373" width="5" height="5" style="stroke-width:1;stroke:rgb(255,200,0);fill:none" /><rect x="155" y="373" width="5" height="5" style="stroke-width:1;stroke:rgb(255,200,0);fill:none" /><rect x="369" y="393" width="5" height="5" style="stroke-width:1;stroke:rgb(255,200,0);fill:none" /><rect x="378" y="311" width="5" height="5" style="stroke-width:1;stroke:rgb(255,200,0);fill:none" /><rect x="136" y="252" width="5" height="5" style="stroke-width:1;stroke:rgb(255,200,0);fill:none" /><rect x="179" y="314" width="5" height="5" style="stroke-width:1;stroke:rgb(255,200,0);fill:none" /><rect x="173" y="305" width="5" height="5" style="stroke-width:1;stroke:rgb(255,200,0);fill:none" /><rect x="166" y="294" width="5" height="5" style="stroke-width:1;stroke:rgb(255,200,0);fill:none" /><rect x="200" y="344" width="5" height="5" style="stroke-width:1;stroke:rgb(255,200,0);fill:none" /><rect x="209" y="357" width="5" height="5" style="stroke-width:1;stroke:rgb(255,200,0);fill:none" /><rect x="185" y="322" width="5" height="5" style="stroke-width:1;stroke:rgb(255,200,0);fill:none" /><rect x="422" y="173" width="5" height="5" style="stroke-width:1;stroke:rgb(255,200,0);fill:none" /><rect x="372" y="242" width="5" height="5" style="stroke-width:1;stroke:rgb(255,200,0);fill:none" /><rect x="343" y="281" width="5" height="5" style="stroke-width:1;stroke:rgb(255,200,0);fill:none" /><rect x="127" y="203" width="5" height="5" style="stroke-width:1;stroke:rgb(255,200,0);fill:none" /><rect x="144" y="297" width="5" height="5" style="stroke-width:1;stroke:rgb(255,200,0);fill:none" /><rect x="155" y="358" width="5" height="5" style="stroke-width:1;stroke:rgb(255,200,0);fill:none" /><rect x="157" y="370" width="5" height="5" style="stroke-width:1;stroke:rgb(255,200,0);fill:none" /><rect x="181" y="308" width="5" height="5" style="stroke-width:1;stroke:rgb(255,200,0);fill:none" /><rect x="186" y="292" width="5" height="5" style="stroke-width:1;stroke:rgb(255,200,0);fill:none" /><rect x="187" y="288" width="5" height="5" style="stroke-width:1;stroke:rgb(255,200,0);fill:none" /><rect x="373" y="108" width="5" height="5" style="stroke-width:1;stroke:rgb(255,200,0);fill:none" /><rect x="321" y="355" width="5" height="5" style="stroke-width:1;stroke:rgb(255,200,0);fill:none" /><rect x="192" y="312" width="5" height="5" style="stroke-width:1;stroke:rgb(255,200,0);fill:none" /><rect x="192" y="312" width="5" height="5" style="stroke-width:1;stroke:rgb(255,200,0);fill:none" /><rect x="159" y="130" width="5" height="5" style="stroke-width:1;stroke:rgb(255,200,0);fill:none" /><rect x="187" y="292" width="5" height="5" style="stroke-width:1;stroke:rgb(255,200,0);fill:none" /><rect x="205" y="289" width="5" height="5" style="stroke-width:1;stroke:rgb(255,200,0);fill:none" /><rect x="203" y="357" width="5" height="5" style="stroke-width:1;stroke:rgb(255,200,0);fill:none" /><rect x="192" y="311" width="5" height="5" style="stroke-width:1;stroke:rgb(255,200,0);fill:none" /><rect x="164" y="358" width="5" height="5" style="stroke-width:1;stroke:rgb(255,200,0);fill:none" /></svg>