<?xml version="1.0"?><!DOCTYPE svg PUBLIC "-//W3C//DTD util.SVG 1.0//EN" "http://www.w3.org/TR/2001/REC-util.SVG-20010904/DTD/svg10.dtd"><svg xmlns="http://www.w3.org/2000/svg" height="1000" width="1000" text-rendering="auto" shape-rendering="auto"><line x1="481.72327303239706" y1="349.41775345619385" x2="298.0558286419" y2="228.3133775193035" style="stroke-width:1;stroke:rgb(0,0,0);fill:none"/><line x1="402.18618933402917" y1="379.57264716275034" x2="241.4147650450628" y2="229.39758554432728" style="stroke-width:1;stroke:rgb(0,0,0);fill:none"/><line x1="182.0055929575531" y1="163.71807548972893" x2="50.093900806575334" y2="339.78427177358594" style="stroke-width:1;stroke:rgb(0,0,0);fill:none"/><line x1="103.4779478516119" y1="220.85587467589883" x2="293.4701396494837" y2="331.7746154541852" style="stroke-width:1;stroke:rgb(0,0,0);fill:none"/><line x1="479.79388448632034" y1="51.75109330751487" x2="347.6534020351868" y2="227.6456438131564" style="stroke-width:1;stroke:rgb(0,0,0);fill:none"/><line x1="173.76966440385405" y1="484.7377727720638" x2="366.8434397735815" y2="379.2744271752166" style="stroke-width:1;stroke:rgb(0,0,0);fill:none"/><line x1="188.04182434557544" y1="295.2210568325314" x2="151.6318179883386" y2="78.25490408730258" style="stroke-width:1;stroke:rgb(0,0,0);fill:none"/><line x1="396.8866877124814" y1="320.8368078640309" x2="315.2928478921532" y2="116.52712795782915" style="stroke-width:1;stroke:rgb(0,0,0);fill:none"/><line x1="257.6130036380888" y1="299.19770086702636" x2="456.30966336269256" y2="393.64153292759573" style="stroke-width:1;stroke:rgb(0,0,0);fill:none"/><line x1="163.51324140131757" y1="317.3719034663438" x2="68.75801273108604" y2="118.82355509836532" style="stroke-width:1;stroke:rgb(0,0,0);fill:none"/><line x1="205.4231460962153" y1="367.4964627782275" x2="405.06780589646564" y2="275.0734688143751" style="stroke-width:1;stroke:rgb(0,0,0);fill:none"/><line x1="27.598139221055806" y1="181.4825902698351" x2="199.17447979964652" y2="43.78161222806716" style="stroke-width:1;stroke:rgb(0,0,0);fill:none"/><line x1="485.71639562886475" y1="415.0423882223678" x2="326.5747043170513" y2="263.1413609499511" style="stroke-width:1;stroke:rgb(0,0,0);fill:none"/><line x1="387.4271091818333" y1="402.85782043717467" x2="325.6712835752061" y2="191.70333196097903" style="stroke-width:1;stroke:rgb(0,0,0);fill:none"/><line x1="144.3323331565121" y1="494.74215128075656" x2="353.446068233548" y2="426.39417543559154" style="stroke-width:1;stroke:rgb(0,0,0);fill:none"/><line x1="258.3129902174594" y1="253.4530201281075" x2="359.59605739783" y2="58.15391541296415" style="stroke-width:1;stroke:rgb(0,0,0);fill:none"/><line x1="431.6827097860809" y1="46.252093768006375" x2="338.9999459592758" y2="245.77629102093272" style="stroke-width:1;stroke:rgb(0,0,0);fill:none"/><line x1="179.05257257734485" y1="61.922623791417884" x2="351.2670655388817" y2="198.82466327221152" style="stroke-width:1;stroke:rgb(0,0,0);fill:none"/><line x1="450.7485020406012" y1="58.56264293956392" x2="236.7537646865001" y2="109.61411093754901" style="stroke-width:1;stroke:rgb(0,0,0);fill:none"/><line x1="369.0383585789058" y1="480.63325910341155" x2="412.2148733068184" y2="264.91170576218803" style="stroke-width:1;stroke:rgb(0,0,0);fill:none"/><line x1="97.05801590358082" y1="6.9158585815635165" x2="247.47256699387958" y2="167.46324355031317" style="stroke-width:1;stroke:rgb(0,0,0);fill:none"/><line x1="187.05817042294092" y1="272.17626561903876" x2="10.214099015527523" y2="141.3092552304398" style="stroke-width:1;stroke:rgb(0,0,0);fill:none"/><line x1="43.962337118575725" y1="51.939645472579784" x2="36.14531410167347" y2="271.80072468205066" style="stroke-width:1;stroke:rgb(0,0,0);fill:none"/><line x1="229.04220224223715" y1="75.40506346614222" x2="217.95059538759833" y2="295.12528615258987" style="stroke-width:1;stroke:rgb(0,0,0);fill:none"/><line x1="319.54033358081546" y1="220.03977908564104" x2="133.9057857229212" y2="101.97278690918573" style="stroke-width:1;stroke:rgb(0,0,0);fill:none"/></svg>