<?xml version="1.0"?><!DOCTYPE svg PUBLIC "-//W3C//DTD util.SVG 1.0//EN" "http://www.w3.org/TR/2001/REC-util.SVG-20010904/DTD/svg10.dtd"><svg xmlns="http://www.w3.org/2000/svg" height="1000" width="1000" text-rendering="auto" shape-rendering="auto"><line x1="463.4456749077439" y1="305.0889168843006" x2="324.9648206076552" y2="134.14140156946016" style="stroke-width:1;stroke:rgb(0,0,0);fill:none"/><line x1="70.08185849834852" y1="291.1458015365441" x2="115.44515011022818" y2="75.87348149949068" style="stroke-width:1;stroke:rgb(0,0,0);fill:none"/><line x1="122.13059382666269" y1="366.4965597166466" x2="342.0943577147003" y2="362.5037441426887" style="stroke-width:1;stroke:rgb(0,0,0);fill:none"/><line x1="289.6388273967605" y1="427.13225930896493" x2="326.8531742422269" y2="210.30262021673812" style="stroke-width:1;stroke:rgb(0,0,0);fill:none"/><line x1="263.7233469259043" y1="441.39333902046224" x2="359.2871260406238" y2="243.23288857357537" style="stroke-width:1;stroke:rgb(0,0,0);fill:none"/><line x1="82.49155615603875" y1="109.50807073298313" x2="199.95378835303802" y2="295.5258763519567" style="stroke-width:1;stroke:rgb(0,0,0);fill:none"/><line x1="475.6658580873766" y1="390.2611167504403" x2="395.7779692252066" y2="185.27837305442677" style="stroke-width:1;stroke:rgb(0,0,0);fill:none"/><line x1="423.05954072040623" y1="394.1206924429684" x2="440.80882884890855" y2="174.83785505953017" style="stroke-width:1;stroke:rgb(0,0,0);fill:none"/><line x1="236.71645598965137" y1="46.464008751454514" x2="19.257330191234473" y2="79.8036039347842" style="stroke-width:1;stroke:rgb(0,0,0);fill:none"/><line x1="40.450088681908355" y1="23.468918888345904" x2="222.6556452118307" y2="146.76180258250434" style="stroke-width:1;stroke:rgb(0,0,0);fill:none"/><line x1="236.85587777157357" y1="91.0840404655575" x2="243.40428347007676" y2="310.9865606484963" style="stroke-width:1;stroke:rgb(0,0,0);fill:none"/><line x1="326.26376154554254" y1="42.589827691455916" x2="447.82755087898875" y2="225.95352399716825" style="stroke-width:1;stroke:rgb(0,0,0);fill:none"/><line x1="310.56498644729925" y1="156.11623271264563" x2="481.19505643783333" y2="17.244424144364046" style="stroke-width:1;stroke:rgb(0,0,0);fill:none"/><line x1="362.53408134976576" y1="101.90646954606069" x2="226.2989613182124" y2="274.64902964631005" style="stroke-width:1;stroke:rgb(0,0,0);fill:none"/><line x1="387.47036486402266" y1="162.71357712125427" x2="416.2793056505025" y2="380.8191591927847" style="stroke-width:1;stroke:rgb(0,0,0);fill:none"/><line x1="469.4346920169688" y1="27.54245882158579" x2="486.1839427468316" y2="246.90394723736992" style="stroke-width:1;stroke:rgb(0,0,0);fill:none"/><line x1="232.43601475238108" y1="192.88430643589822" x2="307.73332880064385" y2="399.59742768638216" style="stroke-width:1;stroke:rgb(0,0,0);fill:none"/><line x1="111.04085479981418" y1="151.57563914091543" x2="259.83005933862984" y2="313.6304836001493" style="stroke-width:1;stroke:rgb(0,0,0);fill:none"/><line x1="259.9450137453202" y1="83.29720967434956" x2="404.7563689019412" y2="248.91626479091212" style="stroke-width:1;stroke:rgb(0,0,0);fill:none"/><line x1="18.514276857472588" y1="419.1267274359218" x2="140.28133004481523" y2="235.89795033453177" style="stroke-width:1;stroke:rgb(0,0,0);fill:none"/><line x1="390.94402711339467" y1="18.742086613605323" x2="171.63938359749707" y2="1.26429120442765" style="stroke-width:1;stroke:rgb(0,0,0);fill:none"/><line x1="460.87516922050673" y1="186.31370407066393" x2="282.5975178938018" y2="57.406454323282276" style="stroke-width:1;stroke:rgb(0,0,0);fill:none"/><line x1="89.15595168837659" y1="266.9842404053123" x2="254.320482974983" y2="412.3137886908403" style="stroke-width:1;stroke:rgb(0,0,0);fill:none"/><line x1="32.88142460160226" y1="192.26483682991667" x2="144.9254298206157" y2="381.59560795411005" style="stroke-width:1;stroke:rgb(0,0,0);fill:none"/><line x1="97.20704183577739" y1="14.46406597132005" x2="258.21053520221716" y2="164.3902982450712" style="stroke-width:1;stroke:rgb(0,0,0);fill:none"/></svg>