<?xml version="1.0"?><!DOCTYPE svg PUBLIC "-//W3C//DTD util.SVG 1.0//EN" "http://www.w3.org/TR/2001/REC-util.SVG-20010904/DTD/svg10.dtd"><svg xmlns="http://www.w3.org/2000/svg" height="1000" width="1000" text-rendering="auto" shape-rendering="auto"><line x1="137.5130432358147" y1="460.02869202573675" x2="307.6209681491189" y2="320.5177824821112" style="stroke-width:1;stroke:rgb(0,0,0);fill:none"/><line x1="173.9905999995717" y1="321.30171585757597" x2="20.968306673016286" y2="163.23787513148952" style="stroke-width:1;stroke:rgb(0,0,0);fill:none"/><line x1="123.25802634079459" y1="277.9519697419762" x2="98.0081505227286" y2="59.40576462467786" style="stroke-width:1;stroke:rgb(0,0,0);fill:none"/><line x1="453.36123510513244" y1="230.08132772554114" x2="242.36416005478324" y2="167.78980085231936" style="stroke-width:1;stroke:rgb(0,0,0);fill:none"/><line x1="158.42789024377961" y1="217.57907505128426" x2="92.97069777499198" y2="427.61563366455067" style="stroke-width:1;stroke:rgb(0,0,0);fill:none"/><line x1="246.75270622005158" y1="172.99865401931325" x2="269.46014667232095" y2="391.82363465019694" style="stroke-width:1;stroke:rgb(0,0,0);fill:none"/><line x1="318.6649140316116" y1="81.16744118462333" x2="479.14327464663836" y2="231.65563266260412" style="stroke-width:1;stroke:rgb(0,0,0);fill:none"/><line x1="437.73660738125386" y1="139.4006260404632" x2="338.79955825085017" y2="335.89861663926825" style="stroke-width:1;stroke:rgb(0,0,0);fill:none"/><line x1="65.26261844397973" y1="426.9721210872607" x2="282.5193394811315" y2="392.33807477174605" style="stroke-width:1;stroke:rgb(0,0,0);fill:none"/><line x1="70.32520196318859" y1="32.2752741303185" x2="208.0517107550269" y2="203.83112152705309" style="stroke-width:1;stroke:rgb(0,0,0);fill:none"/><line x1="11.028474551116553" y1="21.851674425621916" x2="150.92871830075356" y2="191.6395473694578" style="stroke-width:1;stroke:rgb(0,0,0);fill:none"/><line x1="411.0587163539363" y1="193.74161978277667" x2="210.33570128365875" y2="103.68457552139124" style="stroke-width:1;stroke:rgb(0,0,0);fill:none"/><line x1="381.9413133544846" y1="32.81410670752022" x2="237.99155961203334" y2="199.1825784727187" style="stroke-width:1;stroke:rgb(0,0,0);fill:none"/><line x1="163.60550201731948" y1="253.17145314964944" x2="226.79681435534408" y2="42.44210530033297" style="stroke-width:1;stroke:rgb(0,0,0);fill:none"/><line x1="159.86519044896207" y1="453.8240516180103" x2="372.4118766988608" y2="397.0445996640939" style="stroke-width:1;stroke:rgb(0,0,0);fill:none"/><line x1="307.93096800450814" y1="242.99097137217112" x2="228.53897825171452" y2="37.81565130883524" style="stroke-width:1;stroke:rgb(0,0,0);fill:none"/><line x1="185.642746681768" y1="71.99405816472898" x2="279.4308366687339" y2="271.00107858510705" style="stroke-width:1;stroke:rgb(0,0,0);fill:none"/><line x1="210.4173869563406" y1="220.07501162509723" x2="84.21045824372207" y2="39.87564662919047" style="stroke-width:1;stroke:rgb(0,0,0);fill:none"/><line x1="80.52951454598522" y1="259.4320875021726" x2="109.73077396644959" y2="477.4854902462223" style="stroke-width:1;stroke:rgb(0,0,0);fill:none"/><line x1="221.79117155290857" y1="58.06180985576104" x2="430.60279335745327" y2="127.32728898754641" style="stroke-width:1;stroke:rgb(0,0,0);fill:none"/><line x1="158.80501042025847" y1="440.2519385849168" x2="318.84915490810874" y2="289.30204022406303" style="stroke-width:1;stroke:rgb(0,0,0);fill:none"/><line x1="120.65383243495576" y1="95.40376170735854" x2="271.30906777586785" y2="255.7253137968215" style="stroke-width:1;stroke:rgb(0,0,0);fill:none"/><line x1="108.73043539934973" y1="16.123169098116897" x2="88.53836361843648" y2="235.19457352414975" style="stroke-width:1;stroke:rgb(0,0,0);fill:none"/><line x1="310.1966871454963" y1="88.36083341436024" x2="471.4827163863464" y2="237.98308032878015" style="stroke-width:1;stroke:rgb(0,0,0);fill:none"/><line x1="392.6012144515467" y1="135.60716318672127" x2="366.3148417612492" y2="354.0311238933864" style="stroke-width:1;stroke:rgb(0,0,0);fill:none"/><rect x="263" y="352" width="5" height="5" style="stroke-width:1;stroke:rgb(255,200,0);fill:none" /><rect x="202" y="402" width="5" height="5" style="stroke-width:1;stroke:rgb(255,200,0);fill:none" /><rect x="120" y="265" width="5" height="5" style="stroke-width:1;stroke:rgb(255,200,0);fill:none" /><rect x="135" y="281" width="5" height="5" style="stroke-width:1;stroke:rgb(255,200,0);fill:none" /><rect x="86" y="231" width="5" height="5" style="stroke-width:1;stroke:rgb(255,200,0);fill:none" /><rect x="97" y="65" width="5" height="5" style="stroke-width:1;stroke:rgb(255,200,0);fill:none" /><rect x="105" y="136" width="5" height="5" style="stroke-width:1;stroke:rgb(255,200,0);fill:none" /><rect x="96" y="57" width="5" height="5" style="stroke-width:1;stroke:rgb(255,200,0);fill:none" /><rect x="99" y="89" width="5" height="5" style="stroke-width:1;stroke:rgb(255,200,0);fill:none" /><rect x="398" y="212" width="5" height="5" style="stroke-width:1;stroke:rgb(255,200,0);fill:none" /><rect x="258" y="171" width="5" height="5" style="stroke-width:1;stroke:rgb(255,200,0);fill:none" /><rect x="281" y="177" width="5" height="5" style="stroke-width:1;stroke:rgb(255,200,0);fill:none" /><rect x="381" y="207" width="5" height="5" style="stroke-width:1;stroke:rgb(255,200,0);fill:none" /><rect x="92" y="420" width="5" height="5" style="stroke-width:1;stroke:rgb(255,200,0);fill:none" /><rect x="98" y="402" width="5" height="5" style="stroke-width:1;stroke:rgb(255,200,0);fill:none" /><rect x="246" y="185" width="5" height="5" style="stroke-width:1;stroke:rgb(255,200,0);fill:none" /><rect x="248" y="207" width="5" height="5" style="stroke-width:1;stroke:rgb(255,200,0);fill:none" /><rect x="262" y="338" width="5" height="5" style="stroke-width:1;stroke:rgb(255,200,0);fill:none" /><rect x="251" y="234" width="5" height="5" style="stroke-width:1;stroke:rgb(255,200,0);fill:none" /><rect x="417" y="173" width="5" height="5" style="stroke-width:1;stroke:rgb(255,200,0);fill:none" /><rect x="328" y="90" width="5" height="5" style="stroke-width:1;stroke:rgb(255,200,0);fill:none" /><rect x="331" y="93" width="5" height="5" style="stroke-width:1;stroke:rgb(255,200,0);fill:none" /><rect x="388" y="146" width="5" height="5" style="stroke-width:1;stroke:rgb(255,200,0);fill:none" /><rect x="408" y="191" width="5" height="5" style="stroke-width:1;stroke:rgb(255,200,0);fill:none" /><rect x="412" y="183" width="5" height="5" style="stroke-width:1;stroke:rgb(255,200,0);fill:none" /><rect x="375" y="256" width="5" height="5" style="stroke-width:1;stroke:rgb(255,200,0);fill:none" /><rect x="100" y="419" width="5" height="5" style="stroke-width:1;stroke:rgb(255,200,0);fill:none" /><rect x="192" y="404" width="5" height="5" style="stroke-width:1;stroke:rgb(255,200,0);fill:none" /><rect x="184" y="174" width="5" height="5" style="stroke-width:1;stroke:rgb(255,200,0);fill:none" /><rect x="135" y="113" width="5" height="5" style="stroke-width:1;stroke:rgb(255,200,0);fill:none" /><rect x="121" y="95" width="5" height="5" style="stroke-width:1;stroke:rgb(255,200,0);fill:none" /><rect x="101" y="71" width="5" height="5" style="stroke-width:1;stroke:rgb(255,200,0);fill:none" /><rect x="96" y="125" width="5" height="5" style="stroke-width:1;stroke:rgb(255,200,0);fill:none" /><rect x="287" y="137" width="5" height="5" style="stroke-width:1;stroke:rgb(255,200,0);fill:none" /><rect x="261" y="125" width="5" height="5" style="stroke-width:1;stroke:rgb(255,200,0);fill:none" /><rect x="384" y="180" width="5" height="5" style="stroke-width:1;stroke:rgb(255,200,0);fill:none" /><rect x="272" y="154" width="5" height="5" style="stroke-width:1;stroke:rgb(255,200,0);fill:none" /><rect x="240" y="191" width="5" height="5" style="stroke-width:1;stroke:rgb(255,200,0);fill:none" /><rect x="327" y="91" width="5" height="5" style="stroke-width:1;stroke:rgb(255,200,0);fill:none" /><rect x="321" y="98" width="5" height="5" style="stroke-width:1;stroke:rgb(255,200,0);fill:none" /><rect x="203" y="111" width="5" height="5" style="stroke-width:1;stroke:rgb(255,200,0);fill:none" /><rect x="182" y="181" width="5" height="5" style="stroke-width:1;stroke:rgb(255,200,0);fill:none" /><rect x="220" y="56" width="5" height="5" style="stroke-width:1;stroke:rgb(255,200,0);fill:none" /><rect x="187" y="166" width="5" height="5" style="stroke-width:1;stroke:rgb(255,200,0);fill:none" /><rect x="236" y="61" width="5" height="5" style="stroke-width:1;stroke:rgb(255,200,0);fill:none" /><rect x="128" y="103" width="5" height="5" style="stroke-width:1;stroke:rgb(255,200,0);fill:none" /><rect x="101" y="66" width="5" height="5" style="stroke-width:1;stroke:rgb(255,200,0);fill:none" /><rect x="387" y="159" width="5" height="5" style="stroke-width:1;stroke:rgb(255,200,0);fill:none" /></svg>