<?xml version="1.0"?><!DOCTYPE svg PUBLIC "-//W3C//DTD util.SVG 1.0//EN" "http://www.w3.org/TR/2001/REC-util.SVG-20010904/DTD/svg10.dtd"><svg xmlns="http://www.w3.org/2000/svg" height="1000" width="1000" text-rendering="auto" shape-rendering="auto"><line x1="643.2918229206" y1="62.81487847156075" x2="393.6216287081111" y2="75.65209475462112" style="stroke-width:1;stroke:rgb(0,0,0);fill:none"/><line x1="712.8944563403063" y1="318.29917123093844" x2="778.5262780565914" y2="559.5303134539147" style="stroke-width:1;stroke:rgb(0,0,0);fill:none"/><line x1="145.3316195552965" y1="437.3384237906932" x2="385.30221261861453" y2="507.4391688997106" style="stroke-width:1;stroke:rgb(0,0,0);fill:none"/><line x1="470.7522679905186" y1="62.42060948246908" x2="234.4426830333734" y2="144.01583028235282" style="stroke-width:1;stroke:rgb(0,0,0);fill:none"/><line x1="917.9757092513843" y1="519.7895502059622" x2="889.2526352805651" y2="768.1340388133538" style="stroke-width:1;stroke:rgb(0,0,0);fill:none"/><line x1="311.5366209758185" y1="468.32194083189063" x2="528.8891309497701" y2="344.7991234740306" style="stroke-width:1;stroke:rgb(0,0,0);fill:none"/><line x1="592.340383791097" y1="746.3571213199456" x2="399.05123195253213" y2="587.8033330286272" style="stroke-width:1;stroke:rgb(0,0,0);fill:none"/><line x1="30.300872480537034" y1="293.47267533210555" x2="88.70581767934752" y2="50.39066781957092" style="stroke-width:1;stroke:rgb(0,0,0);fill:none"/><line x1="399.27589495647265" y1="282.5373998271121" x2="154.47687323328466" y2="231.80832568446556" style="stroke-width:1;stroke:rgb(0,0,0);fill:none"/><line x1="462.56326034553564" y1="789.2482215910844" x2="255.28118090623238" y2="929.0128077469428" style="stroke-width:1;stroke:rgb(0,0,0);fill:none"/><line x1="659.643263506344" y1="140.85931563241815" x2="715.3464599113456" y2="384.57462887774096" style="stroke-width:1;stroke:rgb(0,0,0);fill:none"/><line x1="343.7667560830241" y1="952.2747474083222" x2="548.2004663796764" y2="808.3759701572822" style="stroke-width:1;stroke:rgb(0,0,0);fill:none"/><line x1="754.6304596272922" y1="950.3754875983848" x2="616.3033699341714" y2="742.1313610136685" style="stroke-width:1;stroke:rgb(0,0,0);fill:none"/><line x1="67.93409497954939" y1="450.32407362328644" x2="315.7292269739218" y2="483.4537062788345" style="stroke-width:1;stroke:rgb(0,0,0);fill:none"/><line x1="94.59300549604865" y1="871.0021544433268" x2="196.1200650806411" y2="642.5459088029272" style="stroke-width:1;stroke:rgb(0,0,0);fill:none"/><line x1="47.8499249834039" y1="789.5897015189723" x2="167.66157241475614" y2="570.1696269136953" style="stroke-width:1;stroke:rgb(0,0,0);fill:none"/><line x1="654.3995636039418" y1="756.9860753394325" x2="563.2619996376088" y2="524.1901466072433" style="stroke-width:1;stroke:rgb(0,0,0);fill:none"/><line x1="457.5938179114557" y1="123.81178159358186" x2="641.3308524999381" y2="293.3426110041371" style="stroke-width:1;stroke:rgb(0,0,0);fill:none"/><line x1="462.33666360986905" y1="317.0142001192936" x2="221.44631133704905" y2="383.8860042064923" style="stroke-width:1;stroke:rgb(0,0,0);fill:none"/><line x1="870.1096316878345" y1="335.1698029881648" x2="679.5952239687658" y2="173.29250238226624" style="stroke-width:1;stroke:rgb(0,0,0);fill:none"/><line x1="538.4290910195854" y1="503.3337897439187" x2="367.9232396593544" y2="320.50120333787675" style="stroke-width:1;stroke:rgb(0,0,0);fill:none"/><line x1="440.97571479113617" y1="147.00669462357297" x2="684.5311344266114" y2="90.60848927812279" style="stroke-width:1;stroke:rgb(0,0,0);fill:none"/><line x1="126.10749818326117" y1="201.41191862614926" x2="290.6483947315314" y2="13.193180549698894" style="stroke-width:1;stroke:rgb(0,0,0);fill:none"/><line x1="763.4875743756293" y1="392.2992056958785" x2="796.2082109296792" y2="144.44973536459503" style="stroke-width:1;stroke:rgb(0,0,0);fill:none"/><line x1="213.82726934262885" y1="950.9530062346212" x2="384.35966191666125" y2="768.1451752125993" style="stroke-width:1;stroke:rgb(0,0,0);fill:none"/><line x1="502.38704235321154" y1="570.4738654226364" x2="374.8789290022238" y2="785.5126550157506" style="stroke-width:1;stroke:rgb(0,0,0);fill:none"/><line x1="773.6894525380836" y1="577.4585662686133" x2="783.6695074888294" y2="827.2592838480072" style="stroke-width:1;stroke:rgb(0,0,0);fill:none"/><line x1="941.1414470379124" y1="217.94922436156594" x2="834.3771658092228" y2="444.0053860863048" style="stroke-width:1;stroke:rgb(0,0,0);fill:none"/><line x1="822.2911127371234" y1="373.02341297090237" x2="825.650408377191" y2="623.0008422176298" style="stroke-width:1;stroke:rgb(0,0,0);fill:none"/><line x1="734.9886264881511" y1="712.0422577375546" x2="487.9223141297563" y2="673.8553843695494" style="stroke-width:1;stroke:rgb(0,0,0);fill:none"/><line x1="904.1446853897384" y1="660.9122363680672" x2="874.9551855651347" y2="909.2023350429629" style="stroke-width:1;stroke:rgb(0,0,0);fill:none"/><line x1="581.8906647686845" y1="69.11855145850198" x2="349.2722163722981" y2="160.7081658569573" style="stroke-width:1;stroke:rgb(0,0,0);fill:none"/><line x1="461.02994792685257" y1="988.9725276075596" x2="258.6670702466821" y2="842.1758459795326" style="stroke-width:1;stroke:rgb(0,0,0);fill:none"/><line x1="216.92045807308702" y1="309.7262711260014" x2="88.41549010619448" y2="95.28170204618553" style="stroke-width:1;stroke:rgb(0,0,0);fill:none"/><line x1="259.3227504377659" y1="803.5558815227193" x2="491.0148789753468" y2="709.6476413426102" style="stroke-width:1;stroke:rgb(0,0,0);fill:none"/><line x1="789.6378830474573" y1="597.6892652977226" x2="815.3632164670544" y2="846.3621573073877" style="stroke-width:1;stroke:rgb(0,0,0);fill:none"/><line x1="433.3857549796939" y1="692.9135831126025" x2="374.63581560419266" y2="449.91472586554687" style="stroke-width:1;stroke:rgb(0,0,0);fill:none"/><line x1="748.4642178297289" y1="746.6278435315121" x2="964.5736839946184" y2="620.9429254469364" style="stroke-width:1;stroke:rgb(0,0,0);fill:none"/><line x1="793.75095898638" y1="294.696780349038" x2="685.5679197138198" y2="520.0774139752475" style="stroke-width:1;stroke:rgb(0,0,0);fill:none"/><line x1="380.1597108068775" y1="784.1363670240901" x2="531.6188801882665" y2="585.2391070874593" style="stroke-width:1;stroke:rgb(0,0,0);fill:none"/><line x1="270.65996180005726" y1="827.0485195063213" x2="461.00126428926126" y2="989.1293282614399" style="stroke-width:1;stroke:rgb(0,0,0);fill:none"/><line x1="303.46082161310386" y1="107.00472315834442" x2="544.4524521879924" y2="173.510617580241" style="stroke-width:1;stroke:rgb(0,0,0);fill:none"/><line x1="493.1145026277468" y1="220.76877831763508" x2="244.16070275819553" y2="243.6162186668605" style="stroke-width:1;stroke:rgb(0,0,0);fill:none"/><line x1="630.4086360988971" y1="714.6868058650196" x2="686.3808508049685" y2="958.3404764322765" style="stroke-width:1;stroke:rgb(0,0,0);fill:none"/><line x1="719.4106922319667" y1="748.2350010878697" x2="649.6112398622053" y2="508.17659892522636" style="stroke-width:1;stroke:rgb(0,0,0);fill:none"/><line x1="927.8454060706063" y1="15.073722975461056" x2="994.268929061812" y2="256.0880702526237" style="stroke-width:1;stroke:rgb(0,0,0);fill:none"/><line x1="48.23006152339726" y1="313.3651821745609" x2="252.12590401070327" y2="168.705286500633" style="stroke-width:1;stroke:rgb(0,0,0);fill:none"/><line x1="738.5380761284972" y1="527.0320734532108" x2="756.4642388874562" y2="277.67559631909" style="stroke-width:1;stroke:rgb(0,0,0);fill:none"/><line x1="407.1606903172501" y1="589.2374915854709" x2="340.1164489803137" y2="830.0799083304344" style="stroke-width:1;stroke:rgb(0,0,0);fill:none"/><line x1="945.1148755845333" y1="306.7501999885184" x2="751.6489643058553" y2="465.0882597628845" style="stroke-width:1;stroke:rgb(0,0,0);fill:none"/><line x1="133.40307194011535" y1="572.476749439171" x2="296.64562298305304" y2="761.8226485999236" style="stroke-width:1;stroke:rgb(0,0,0);fill:none"/><line x1="645.7959301965071" y1="276.45553063521845" x2="448.3075531097487" y2="123.16384489969559" style="stroke-width:1;stroke:rgb(0,0,0);fill:none"/><line x1="417.18180593042365" y1="925.7526463828175" x2="666.0500842133795" y2="901.991752786885" style="stroke-width:1;stroke:rgb(0,0,0);fill:none"/><line x1="32.34510164425619" y1="589.4080379163737" x2="129.90334465867832" y2="819.5870752328482" style="stroke-width:1;stroke:rgb(0,0,0);fill:none"/><line x1="804.3968186492092" y1="464.4029606161235" x2="687.4716593558876" y2="685.3746943836608" style="stroke-width:1;stroke:rgb(0,0,0);fill:none"/><line x1="684.2000664553501" y1="307.24411766828086" x2="932.5668987658806" y2="278.7148939138078" style="stroke-width:1;stroke:rgb(0,0,0);fill:none"/><line x1="441.4082118602313" y1="26.118889758167118" x2="689.9052397919716" y2="53.49090300330259" style="stroke-width:1;stroke:rgb(0,0,0);fill:none"/><line x1="721.8362172382521" y1="655.8772216292101" x2="970.0174144614575" y2="625.7758371949952" style="stroke-width:1;stroke:rgb(0,0,0);fill:none"/><line x1="330.65118074129373" y1="662.751414097554" x2="574.6787711055605" y2="717.0702427024644" style="stroke-width:1;stroke:rgb(0,0,0);fill:none"/><line x1="378.59446584666256" y1="953.5116367150476" x2="627.2264845657917" y2="927.3942236032815" style="stroke-width:1;stroke:rgb(0,0,0);fill:none"/><line x1="894.464470376918" y1="982.6915542202793" x2="644.4657311103159" y2="983.48550957765" style="stroke-width:1;stroke:rgb(0,0,0);fill:none"/><line x1="245.79719488981544" y1="536.2788385616853" x2="23.17532705334088" y2="650.0307790330428" style="stroke-width:1;stroke:rgb(0,0,0);fill:none"/><line x1="269.74574178280454" y1="626.1347652742256" x2="232.11457291758083" y2="873.2863283480549" style="stroke-width:1;stroke:rgb(0,0,0);fill:none"/><line x1="517.9015123496944" y1="39.068397348670516" x2="284.18811385065624" y2="127.82676237433894" style="stroke-width:1;stroke:rgb(0,0,0);fill:none"/><line x1="664.6368496043201" y1="302.1839577929867" x2="774.3872187978549" y2="77.56237276188861" style="stroke-width:1;stroke:rgb(0,0,0);fill:none"/><line x1="62.67496831013908" y1="694.930071010036" x2="189.94647199239432" y2="910.1089834305093" style="stroke-width:1;stroke:rgb(0,0,0);fill:none"/><line x1="21.452725737438172" y1="787.6202266618171" x2="55.30696245039256" y2="539.9230513517558" style="stroke-width:1;stroke:rgb(0,0,0);fill:none"/><line x1="904.1643188774605" y1="697.730351931386" x2="870.5714719093237" y2="449.9975914159965" style="stroke-width:1;stroke:rgb(0,0,0);fill:none"/><line x1="426.9118770873489" y1="466.8464392896088" x2="395.6675625057307" y2="714.8863409311085" style="stroke-width:1;stroke:rgb(0,0,0);fill:none"/><line x1="31.930118167946443" y1="509.43479648350063" x2="65.98322892719555" y2="261.7648838020885" style="stroke-width:1;stroke:rgb(0,0,0);fill:none"/><line x1="937.5039091641816" y1="768.6817647643816" x2="957.1115471654628" y2="519.4518698239657" style="stroke-width:1;stroke:rgb(0,0,0);fill:none"/><line x1="523.0636399357622" y1="493.4681449900619" x2="552.9852758986603" y2="741.6710774894661" style="stroke-width:1;stroke:rgb(0,0,0);fill:none"/><line x1="43.81499872791761" y1="569.1742372069365" x2="13.926095577135584" y2="817.3811135589892" style="stroke-width:1;stroke:rgb(0,0,0);fill:none"/><line x1="961.2408179064379" y1="705.2081205555305" x2="762.2282161032803" y2="856.5157023997257" style="stroke-width:1;stroke:rgb(0,0,0);fill:none"/><line x1="498.70173855766177" y1="824.3506213075788" x2="306.1008930896587" y2="664.9614299393734" style="stroke-width:1;stroke:rgb(0,0,0);fill:none"/><line x1="120.55695687012357" y1="684.0545323203596" x2="113.0446022003645" y2="434.1674287569389" style="stroke-width:1;stroke:rgb(0,0,0);fill:none"/><line x1="350.93042261461824" y1="369.90689200086655" x2="259.1695831990653" y2="602.4578506094113" style="stroke-width:1;stroke:rgb(0,0,0);fill:none"/><line x1="726.9895169012738" y1="861.0656471583076" x2="971.5700765706454" y2="912.837742265778" style="stroke-width:1;stroke:rgb(0,0,0);fill:none"/><line x1="470.35325207442037" y1="676.4549659261139" x2="539.330127524569" y2="916.75101386102" style="stroke-width:1;stroke:rgb(0,0,0);fill:none"/><line x1="604.5031319303733" y1="742.376557042186" x2="513.1209363466256" y2="975.0765663466416" style="stroke-width:1;stroke:rgb(0,0,0);fill:none"/><line x1="878.4234682241206" y1="32.400986246506" x2="631.7939121688619" y2="73.31384583839956" style="stroke-width:1;stroke:rgb(0,0,0);fill:none"/><line x1="963.1153031134646" y1="450.14187118844575" x2="732.5027125806973" y2="353.6129476071366" style="stroke-width:1;stroke:rgb(0,0,0);fill:none"/><line x1="645.8448521716037" y1="998.2850845398369" x2="846.6811328270646" y2="849.4066496592911" style="stroke-width:1;stroke:rgb(0,0,0);fill:none"/><line x1="919.484888655175" y1="926.3364478831886" x2="762.1012958541494" y2="732.0932891438371" style="stroke-width:1;stroke:rgb(0,0,0);fill:none"/><line x1="223.21096177404254" y1="346.02895308073346" x2="127.8337655383561" y2="114.93764982979033" style="stroke-width:1;stroke:rgb(0,0,0);fill:none"/><line x1="638.367671319846" y1="135.28389661945172" x2="887.9667349117527" y2="149.43689821074952" style="stroke-width:1;stroke:rgb(0,0,0);fill:none"/><line x1="738.0877273245419" y1="76.71515159430997" x2="489.64176826031394" y2="104.54688572382388" style="stroke-width:1;stroke:rgb(0,0,0);fill:none"/><line x1="716.2562988613716" y1="771.2731746422963" x2="906.8512564592722" y2="933.0556277645508" style="stroke-width:1;stroke:rgb(0,0,0);fill:none"/><line x1="804.0753842717178" y1="467.07690678203187" x2="656.7925043372555" y2="669.0861968610052" style="stroke-width:1;stroke:rgb(0,0,0);fill:none"/><line x1="766.919902546804" y1="199.20053984368323" x2="603.7391332090934" y2="9.801393809829932" style="stroke-width:1;stroke:rgb(0,0,0);fill:none"/><line x1="118.39252172234605" y1="596.7589327775673" x2="113.18578224428343" y2="346.8131589305035" style="stroke-width:1;stroke:rgb(0,0,0);fill:none"/><line x1="936.2797368101756" y1="868.0942865294278" x2="978.7471237011854" y2="621.7276470454074" style="stroke-width:1;stroke:rgb(0,0,0);fill:none"/><line x1="794.571154958593" y1="77.68462111083873" x2="833.0389202025373" y2="324.7073549576181" style="stroke-width:1;stroke:rgb(0,0,0);fill:none"/><line x1="861.659407185417" y1="57.02873447846824" x2="615.0978589906026" y2="98.34946718949668" style="stroke-width:1;stroke:rgb(0,0,0);fill:none"/><line x1="36.32321524074988" y1="68.73114147656634" x2="175.53221597772068" y2="276.38675568868933" style="stroke-width:1;stroke:rgb(0,0,0);fill:none"/><line x1="111.2417189766729" y1="185.81563713462722" x2="305.1117862814276" y2="343.6585875735046" style="stroke-width:1;stroke:rgb(0,0,0);fill:none"/><line x1="872.6412856325949" y1="391.6912289392276" x2="644.9138830761012" y2="288.5397377969629" style="stroke-width:1;stroke:rgb(0,0,0);fill:none"/><line x1="599.579036485888" y1="772.612720756888" x2="728.7408313207499" y2="986.6623195769677" style="stroke-width:1;stroke:rgb(0,0,0);fill:none"/><line x1="60.756138457914055" y1="149.63190535994576" x2="281.03625409969493" y2="31.408935287105678" style="stroke-width:1;stroke:rgb(0,0,0);fill:none"/><line x1="605.286300392524" y1="498.9642989059213" x2="480.71154730739" y2="282.2129877362356" style="stroke-width:1;stroke:rgb(0,0,0);fill:none"/></svg>