<?xml version="1.0"?><!DOCTYPE svg PUBLIC "-//W3C//DTD util.SVG 1.0//EN" "http://www.w3.org/TR/2001/REC-util.SVG-20010904/DTD/svg10.dtd"><svg xmlns="http://www.w3.org/2000/svg" height="1000" width="1000" text-rendering="auto" shape-rendering="auto"><line x1="160.19827320758912" y1="287.786423057539" x2="164.35722434011393" y2="67.82573764881136" style="stroke-width:1;stroke:rgb(0,0,0);fill:none"/><line x1="37.25303413480774" y1="227.1905214452255" x2="72.25471957822518" y2="444.3883161304388" style="stroke-width:1;stroke:rgb(0,0,0);fill:none"/><line x1="184.19657007778318" y1="371.35245197142194" x2="221.42828601061188" y2="154.5257946418926" style="stroke-width:1;stroke:rgb(0,0,0);fill:none"/><line x1="77.55207587352363" y1="106.8075107282459" x2="15.945762053645211" y2="318.0056690950429" style="stroke-width:1;stroke:rgb(0,0,0);fill:none"/><line x1="124.23088086812656" y1="397.4506838865525" x2="91.4313811927203" y2="179.90943993257713" style="stroke-width:1;stroke:rgb(0,0,0);fill:none"/><line x1="263.8183936680077" y1="85.63587817334556" x2="45.47732727474738" y2="112.60212979002179" style="stroke-width:1;stroke:rgb(0,0,0);fill:none"/><line x1="165.19101237839538" y1="480.61005681932386" x2="5.670738244159196" y2="329.10665045452254" style="stroke-width:1;stroke:rgb(0,0,0);fill:none"/><line x1="426.20695822169705" y1="191.8017282453956" x2="399.06812061006065" y2="410.121410118307" style="stroke-width:1;stroke:rgb(0,0,0);fill:none"/><line x1="4.306977778179233" y1="143.77617109339607" x2="188.71029471585047" y2="263.75707250018155" style="stroke-width:1;stroke:rgb(0,0,0);fill:none"/><line x1="472.83306583382944" y1="257.734648439532" x2="360.7283838178683" y2="447.02949852822366" style="stroke-width:1;stroke:rgb(0,0,0);fill:none"/><line x1="38.122945956373776" y1="488.4232712856613" x2="58.28096016485633" y2="269.34873040249386" style="stroke-width:1;stroke:rgb(0,0,0);fill:none"/><line x1="252.56800942349295" y1="17.694255018130157" x2="32.80278686616643" y2="7.533204170469862" style="stroke-width:1;stroke:rgb(0,0,0);fill:none"/><line x1="313.469426022419" y1="250.42682448779436" x2="404.5409205462344" y2="50.1620425484862" style="stroke-width:1;stroke:rgb(0,0,0);fill:none"/><line x1="457.3809506977766" y1="491.6255451233626" x2="498.9320695448458" y2="275.5850291950842" style="stroke-width:1;stroke:rgb(0,0,0);fill:none"/><line x1="228.51056216929993" y1="31.16608192149983" x2="37.1501694971534" y2="139.70731886102382" style="stroke-width:1;stroke:rgb(0,0,0);fill:none"/><line x1="209.30147673418892" y1="341.19060513970936" x2="28.294881774064663" y2="466.2370468361508" style="stroke-width:1;stroke:rgb(0,0,0);fill:none"/><line x1="357.37371868835135" y1="238.45264250852316" x2="158.4878297244143" y2="332.49732960473557" style="stroke-width:1;stroke:rgb(0,0,0);fill:none"/><line x1="478.5365289828212" y1="146.5449455978829" x2="496.3361206485905" y2="365.8237054824916" style="stroke-width:1;stroke:rgb(0,0,0);fill:none"/><line x1="160.42783503552667" y1="420.9690106281134" x2="288.40731280938326" y2="242.02417759644703" style="stroke-width:1;stroke:rgb(0,0,0);fill:none"/><line x1="489.92016285042337" y1="371.6955014855779" x2="285.9845991298392" y2="454.2199575575057" style="stroke-width:1;stroke:rgb(0,0,0);fill:none"/><line x1="210.96941842772387" y1="32.26674118026107" x2="163.99060394647316" y2="247.19228873088667" style="stroke-width:1;stroke:rgb(0,0,0);fill:none"/><line x1="340.1155527684839" y1="340.3183547080649" x2="282.2551980831222" y2="128.06336806302951" style="stroke-width:1;stroke:rgb(0,0,0);fill:none"/><line x1="435.9669334634889" y1="179.3954637274049" x2="481.6670630543023" y2="394.59652821218583" style="stroke-width:1;stroke:rgb(0,0,0);fill:none"/><line x1="314.7979769564418" y1="237.51212051753566" x2="119.47291729443401" y2="136.27911666981265" style="stroke-width:1;stroke:rgb(0,0,0);fill:none"/><line x1="415.73454072691305" y1="349.3543123059245" x2="206.84635751341824" y2="418.38855680650136" style="stroke-width:1;stroke:rgb(0,0,0);fill:none"/><rect x="161" y="95" width="5" height="5" style="stroke-width:1;stroke:rgb(255,200,0);fill:none" /><rect x="158" y="243" width="5" height="5" style="stroke-width:1;stroke:rgb(255,200,0);fill:none" /><rect x="160" y="156" width="5" height="5" style="stroke-width:1;stroke:rgb(255,200,0);fill:none" /><rect x="37" y="236" width="5" height="5" style="stroke-width:1;stroke:rgb(255,200,0);fill:none" /><rect x="60" y="380" width="5" height="5" style="stroke-width:1;stroke:rgb(255,200,0);fill:none" /><rect x="51" y="323" width="5" height="5" style="stroke-width:1;stroke:rgb(255,200,0);fill:none" /><rect x="69" y="434" width="5" height="5" style="stroke-width:1;stroke:rgb(255,200,0);fill:none" /><rect x="184" y="354" width="5" height="5" style="stroke-width:1;stroke:rgb(255,200,0);fill:none" /><rect x="191" y="313" width="5" height="5" style="stroke-width:1;stroke:rgb(255,200,0);fill:none" /><rect x="213" y="184" width="5" height="5" style="stroke-width:1;stroke:rgb(255,200,0);fill:none" /><rect x="75" y="106" width="5" height="5" style="stroke-width:1;stroke:rgb(255,200,0);fill:none" /><rect x="54" y="175" width="5" height="5" style="stroke-width:1;stroke:rgb(255,200,0);fill:none" /><rect x="72" y="116" width="5" height="5" style="stroke-width:1;stroke:rgb(255,200,0);fill:none" /><rect x="92" y="200" width="5" height="5" style="stroke-width:1;stroke:rgb(255,200,0);fill:none" /><rect x="93" y="104" width="5" height="5" style="stroke-width:1;stroke:rgb(255,200,0);fill:none" /><rect x="195" y="91" width="5" height="5" style="stroke-width:1;stroke:rgb(255,200,0);fill:none" /><rect x="47" y="368" width="5" height="5" style="stroke-width:1;stroke:rgb(255,200,0);fill:none" /><rect x="96" y="415" width="5" height="5" style="stroke-width:1;stroke:rgb(255,200,0);fill:none" /><rect x="401" y="372" width="5" height="5" style="stroke-width:1;stroke:rgb(255,200,0);fill:none" /><rect x="397" y="406" width="5" height="5" style="stroke-width:1;stroke:rgb(255,200,0);fill:none" /><rect x="404" y="350" width="5" height="5" style="stroke-width:1;stroke:rgb(255,200,0);fill:none" /><rect x="376" y="414" width="5" height="5" style="stroke-width:1;stroke:rgb(255,200,0);fill:none" /><rect x="455" y="280" width="5" height="5" style="stroke-width:1;stroke:rgb(255,200,0);fill:none" /><rect x="38" y="455" width="5" height="5" style="stroke-width:1;stroke:rgb(255,200,0);fill:none" /><rect x="312" y="245" width="5" height="5" style="stroke-width:1;stroke:rgb(255,200,0);fill:none" /><rect x="489" y="309" width="5" height="5" style="stroke-width:1;stroke:rgb(255,200,0);fill:none" /><rect x="477" y="373" width="5" height="5" style="stroke-width:1;stroke:rgb(255,200,0);fill:none" /><rect x="476" y="378" width="5" height="5" style="stroke-width:1;stroke:rgb(255,200,0);fill:none" /><rect x="206" y="40" width="5" height="5" style="stroke-width:1;stroke:rgb(255,200,0);fill:none" /><rect x="255" y="283" width="5" height="5" style="stroke-width:1;stroke:rgb(255,200,0);fill:none" /><rect x="315" y="255" width="5" height="5" style="stroke-width:1;stroke:rgb(255,200,0);fill:none" /><rect x="475" y="374" width="5" height="5" style="stroke-width:1;stroke:rgb(255,200,0);fill:none" /><rect x="179" y="166" width="5" height="5" style="stroke-width:1;stroke:rgb(255,200,0);fill:none" /><rect x="309" y="233" width="5" height="5" style="stroke-width:1;stroke:rgb(255,200,0);fill:none" /></svg>