<?xml version="1.0"?><!DOCTYPE svg PUBLIC "-//W3C//DTD util.SVG 1.0//EN" "http://www.w3.org/TR/2001/REC-util.SVG-20010904/DTD/svg10.dtd"><svg xmlns="http://www.w3.org/2000/svg" height="1000" width="1000" text-rendering="auto" shape-rendering="auto"><line x1="353.02917494583676" y1="167.5399839417333" x2="195.80309440553663" y2="13.657042723627342" style="stroke-width:1;stroke:rgb(0,0,0);fill:none"/><line x1="347.887850529941" y1="62.542823032270434" x2="319.5526610713037" y2="280.7104582083963" style="stroke-width:1;stroke:rgb(0,0,0);fill:none"/><line x1="368.95386927061276" y1="72.981122056132" x2="189.97079818100153" y2="200.90711731640417" style="stroke-width:1;stroke:rgb(0,0,0);fill:none"/><line x1="489.9653186803468" y1="36.89061682250172" x2="336.5705930240251" y2="194.5930522533529" style="stroke-width:1;stroke:rgb(0,0,0);fill:none"/><line x1="413.4237467158952" y1="31.125385570205054" x2="211.09148155455154" y2="117.50625425465223" style="stroke-width:1;stroke:rgb(0,0,0);fill:none"/><line x1="114.97053811737001" y1="364.17676734631914" x2="308.61089517171035" y2="259.7573624453737" style="stroke-width:1;stroke:rgb(0,0,0);fill:none"/><line x1="157.5867297069316" y1="214.8923892539168" x2="44.4252706459953" y2="26.227384064294966" style="stroke-width:1;stroke:rgb(0,0,0);fill:none"/><line x1="86.07698893197463" y1="81.4084812581169" x2="298.1073963969194" y2="22.730492963957794" style="stroke-width:1;stroke:rgb(0,0,0);fill:none"/><line x1="230.7560186618124" y1="362.0075702838874" x2="450.75076998899215" y2="363.52723751467465" style="stroke-width:1;stroke:rgb(0,0,0);fill:none"/><line x1="360.56843922009483" y1="343.2140595973191" x2="150.6085563407701" y2="408.9167808598379" style="stroke-width:1;stroke:rgb(0,0,0);fill:none"/><line x1="71.2387456981557" y1="74.20385517152378" x2="144.7673115209871" y2="281.55271580991155" style="stroke-width:1;stroke:rgb(0,0,0);fill:none"/><line x1="365.2874876778132" y1="371.4012352233245" x2="329.87031226902167" y2="154.27080509879565" style="stroke-width:1;stroke:rgb(0,0,0);fill:none"/><line x1="280.8359537055386" y1="490.7005594555189" x2="284.2420626157459" y2="270.7269282582961" style="stroke-width:1;stroke:rgb(0,0,0);fill:none"/><line x1="77.80388978419556" y1="337.81853797107226" x2="8.303647346324354" y2="129.08493669644008" style="stroke-width:1;stroke:rgb(0,0,0);fill:none"/><line x1="19.58054771533002" y1="73.8065961231748" x2="17.49209128165508" y2="293.7966830583016" style="stroke-width:1;stroke:rgb(0,0,0);fill:none"/><line x1="13.96745382368303" y1="292.69639119668017" x2="3.0967871197755983" y2="72.9651266815626" style="stroke-width:1;stroke:rgb(0,0,0);fill:none"/><line x1="461.9776516445294" y1="207.12032365151188" x2="344.1491107649219" y2="21.334331299605395" style="stroke-width:1;stroke:rgb(0,0,0);fill:none"/><line x1="40.926121854489125" y1="147.61120777686565" x2="219.34870836598333" y2="276.3177756844451" style="stroke-width:1;stroke:rgb(0,0,0);fill:none"/><line x1="415.22163835328035" y1="223.67828393767024" x2="477.3572252417123" y2="12.635234201295077" style="stroke-width:1;stroke:rgb(0,0,0);fill:none"/><line x1="30.090274168876107" y1="206.49383734864603" x2="237.6793419965564" y2="133.64619553070685" style="stroke-width:1;stroke:rgb(0,0,0);fill:none"/><line x1="440.48217788483805" y1="81.54263484602659" x2="220.79242815672563" y2="69.86300024560629" style="stroke-width:1;stroke:rgb(0,0,0);fill:none"/><line x1="110.83287640046846" y1="105.10219362783712" x2="258.2475767025184" y2="268.408366612378" style="stroke-width:1;stroke:rgb(0,0,0);fill:none"/><line x1="232.58381556014086" y1="455.7792138701555" x2="106.28744034901447" y2="275.64252796600556" style="stroke-width:1;stroke:rgb(0,0,0);fill:none"/><line x1="214.6727480898083" y1="166.07019988540256" x2="285.41374466017953" y2="374.3865732318842" style="stroke-width:1;stroke:rgb(0,0,0);fill:none"/><line x1="183.7696737446739" y1="450.693924097673" x2="346.75309278823585" y2="302.9224616400297" style="stroke-width:1;stroke:rgb(0,0,0);fill:none"/></svg>
