<?xml version="1.0"?><!DOCTYPE svg PUBLIC "-//W3C//DTD util.SVG 1.0//EN" "http://www.w3.org/TR/2001/REC-util.SVG-20010904/DTD/svg10.dtd"><svg xmlns="http://www.w3.org/2000/svg" height="1000" width="1000" text-rendering="auto" shape-rendering="auto"><line x1="82.07514149411516" y1="81.62033466030411" x2="190.02847032693836" y2="273.31300221415796" style="stroke-width:1;stroke:rgb(0,0,0);fill:none"/><line x1="128.50415331652903" y1="231.12058241394868" x2="89.03081865404833" y2="14.690788137320027" style="stroke-width:1;stroke:rgb(0,0,0);fill:none"/><line x1="170.44829349149597" y1="480.2156359233603" x2="353.8424478245531" y2="358.6978011974945" style="stroke-width:1;stroke:rgb(0,0,0);fill:none"/><line x1="94.35446225369387" y1="342.07569920888085" x2="311.83795159502085" y2="375.2559925156148" style="stroke-width:1;stroke:rgb(0,0,0);fill:none"/><line x1="88.8770125928538" y1="129.10267667900516" x2="132.36338364121468" y2="344.7619809833738" style="stroke-width:1;stroke:rgb(0,0,0);fill:none"/><line x1="251.92948079670268" y1="204.79640493843326" x2="37.6196189500281" y2="155.08440321591905" style="stroke-width:1;stroke:rgb(0,0,0);fill:none"/><line x1="440.9502993430096" y1="495.6925085584705" x2="267.3294545846155" y2="360.57847425639795" style="stroke-width:1;stroke:rgb(0,0,0);fill:none"/><line x1="223.38313425795076" y1="123.86288111126798" x2="412.00748134142174" y2="10.633663648043125" style="stroke-width:1;stroke:rgb(0,0,0);fill:none"/><line x1="481.2039296709257" y1="367.24853947124006" x2="464.5580390500886" y2="147.87918353144815" style="stroke-width:1;stroke:rgb(0,0,0);fill:none"/><line x1="12.383574275697807" y1="116.08826116549942" x2="229.00242797506905" y2="77.66597307680809" style="stroke-width:1;stroke:rgb(0,0,0);fill:none"/><line x1="418.7569992193852" y1="214.46644551863164" x2="322.30485323865275" y2="412.1960172465638" style="stroke-width:1;stroke:rgb(0,0,0);fill:none"/><line x1="194.53112017560613" y1="447.9482176638074" x2="404.5035435596461" y2="382.28558431550607" style="stroke-width:1;stroke:rgb(0,0,0);fill:none"/><line x1="278.5936275098831" y1="92.85829782486077" x2="354.52354165635336" y2="299.3398905582317" style="stroke-width:1;stroke:rgb(0,0,0);fill:none"/><line x1="466.39525348683947" y1="217.58559342075284" x2="264.9415017392661" y2="129.1752664966482" style="stroke-width:1;stroke:rgb(0,0,0);fill:none"/><line x1="92.0452085556317" y1="8.183486621427482" x2="213.46563347787713" y2="191.6421479369984" style="stroke-width:1;stroke:rgb(0,0,0);fill:none"/><line x1="498.6927260532187" y1="168.84513308413224" x2="419.2557811976758" y2="374.00305223915154" style="stroke-width:1;stroke:rgb(0,0,0);fill:none"/><line x1="482.4721632096846" y1="64.29194031537305" x2="337.02407051897296" y2="229.35208793627567" style="stroke-width:1;stroke:rgb(0,0,0);fill:none"/><line x1="230.07124172229797" y1="430.6398996722321" x2="318.03002855677187" y2="228.9885872078507" style="stroke-width:1;stroke:rgb(0,0,0);fill:none"/><line x1="74.61036543882066" y1="291.3974934526298" x2="167.51613806315805" y2="490.8179473009624" style="stroke-width:1;stroke:rgb(0,0,0);fill:none"/><line x1="212.01807425694392" y1="149.62573863329726" x2="205.10589502766416" y2="369.51712495459526" style="stroke-width:1;stroke:rgb(0,0,0);fill:none"/><line x1="10.854861673826822" y1="62.65844803470427" x2="144.3833551835863" y2="237.50163898309128" style="stroke-width:1;stroke:rgb(0,0,0);fill:none"/><line x1="175.80104642816042" y1="258.6226019010008" x2="377.58338322688496" y2="170.9648095717041" style="stroke-width:1;stroke:rgb(0,0,0);fill:none"/><line x1="293.27904990571204" y1="447.49628844789567" x2="423.82226028577713" y2="270.41305879679044" style="stroke-width:1;stroke:rgb(0,0,0);fill:none"/><line x1="168.8574243000139" y1="198.73847927523065" x2="46.803930571600304" y2="15.700383052919307" style="stroke-width:1;stroke:rgb(0,0,0);fill:none"/><line x1="63.873908809462755" y1="104.63209854796467" x2="246.47969602831228" y2="227.33143218178787" style="stroke-width:1;stroke:rgb(0,0,0);fill:none"/><rect x="108" y="129" width="5" height="5" style="stroke-width:1;stroke:rgb(255,200,0);fill:none" /><rect x="134" y="175" width="5" height="5" style="stroke-width:1;stroke:rgb(255,200,0);fill:none" /><rect x="91" y="99" width="5" height="5" style="stroke-width:1;stroke:rgb(255,200,0);fill:none" /><rect x="178" y="254" width="5" height="5" style="stroke-width:1;stroke:rgb(255,200,0);fill:none" /><rect x="112" y="136" width="5" height="5" style="stroke-width:1;stroke:rgb(255,200,0);fill:none" /><rect x="116" y="171" width="5" height="5" style="stroke-width:1;stroke:rgb(255,200,0);fill:none" /><rect x="102" y="97" width="5" height="5" style="stroke-width:1;stroke:rgb(255,200,0);fill:none" /><rect x="123" y="210" width="5" height="5" style="stroke-width:1;stroke:rgb(255,200,0);fill:none" /><rect x="103" y="101" width="5" height="5" style="stroke-width:1;stroke:rgb(255,200,0);fill:none" /><rect x="109" y="134" width="5" height="5" style="stroke-width:1;stroke:rgb(255,200,0);fill:none" /><rect x="303" y="388" width="5" height="5" style="stroke-width:1;stroke:rgb(255,200,0);fill:none" /><rect x="343" y="362" width="5" height="5" style="stroke-width:1;stroke:rgb(255,200,0);fill:none" /><rect x="239" y="431" width="5" height="5" style="stroke-width:1;stroke:rgb(255,200,0);fill:none" /><rect x="277" y="368" width="5" height="5" style="stroke-width:1;stroke:rgb(255,200,0);fill:none" /><rect x="255" y="365" width="5" height="5" style="stroke-width:1;stroke:rgb(255,200,0);fill:none" /><rect x="96" y="340" width="5" height="5" style="stroke-width:1;stroke:rgb(255,200,0);fill:none" /><rect x="203" y="357" width="5" height="5" style="stroke-width:1;stroke:rgb(255,200,0);fill:none" /><rect x="94" y="166" width="5" height="5" style="stroke-width:1;stroke:rgb(255,200,0);fill:none" /><rect x="96" y="175" width="5" height="5" style="stroke-width:1;stroke:rgb(255,200,0);fill:none" /><rect x="208" y="193" width="5" height="5" style="stroke-width:1;stroke:rgb(255,200,0);fill:none" /><rect x="88" y="165" width="5" height="5" style="stroke-width:1;stroke:rgb(255,200,0);fill:none" /><rect x="156" y="181" width="5" height="5" style="stroke-width:1;stroke:rgb(255,200,0);fill:none" /><rect x="190" y="188" width="5" height="5" style="stroke-width:1;stroke:rgb(255,200,0);fill:none" /><rect x="323" y="403" width="5" height="5" style="stroke-width:1;stroke:rgb(255,200,0);fill:none" /><rect x="324" y="404" width="5" height="5" style="stroke-width:1;stroke:rgb(255,200,0);fill:none" /><rect x="322" y="403" width="5" height="5" style="stroke-width:1;stroke:rgb(255,200,0);fill:none" /><rect x="469" y="237" width="5" height="5" style="stroke-width:1;stroke:rgb(255,200,0);fill:none" /><rect x="145" y="90" width="5" height="5" style="stroke-width:1;stroke:rgb(255,200,0);fill:none" /><rect x="44" y="107" width="5" height="5" style="stroke-width:1;stroke:rgb(255,200,0);fill:none" /><rect x="101" y="98" width="5" height="5" style="stroke-width:1;stroke:rgb(255,200,0);fill:none" /><rect x="64" y="104" width="5" height="5" style="stroke-width:1;stroke:rgb(255,200,0);fill:none" /><rect x="322" y="405" width="5" height="5" style="stroke-width:1;stroke:rgb(255,200,0);fill:none" /><rect x="326" y="398" width="5" height="5" style="stroke-width:1;stroke:rgb(255,200,0);fill:none" /><rect x="320" y="405" width="5" height="5" style="stroke-width:1;stroke:rgb(255,200,0);fill:none" /><rect x="295" y="141" width="5" height="5" style="stroke-width:1;stroke:rgb(255,200,0);fill:none" /><rect x="314" y="195" width="5" height="5" style="stroke-width:1;stroke:rgb(255,200,0);fill:none" /><rect x="378" y="177" width="5" height="5" style="stroke-width:1;stroke:rgb(255,200,0);fill:none" /><rect x="366" y="172" width="5" height="5" style="stroke-width:1;stroke:rgb(255,200,0);fill:none" /><rect x="208" y="185" width="5" height="5" style="stroke-width:1;stroke:rgb(255,200,0);fill:none" /><rect x="207" y="242" width="5" height="5" style="stroke-width:1;stroke:rgb(255,200,0);fill:none" /><rect x="208" y="201" width="5" height="5" style="stroke-width:1;stroke:rgb(255,200,0);fill:none" /><rect x="138" y="154" width="5" height="5" style="stroke-width:1;stroke:rgb(255,200,0);fill:none" /></svg>