<?xml version="1.0"?><!DOCTYPE svg PUBLIC "-//W3C//DTD util.SVG 1.0//EN" "http://www.w3.org/TR/2001/REC-util.SVG-20010904/DTD/svg10.dtd"><svg xmlns="http://www.w3.org/2000/svg" height="1000" width="1000" text-rendering="auto" shape-rendering="auto"><line x1="131.57701695130808" y1="489.5184802549323" x2="287.0131875851379" y2="333.8277712877915" style="stroke-width:1;stroke:rgb(0,0,0);fill:none"/><line x1="0.6627659284976772" y1="293.13978554889593" x2="78.249765086501" y2="499.00444390883877" style="stroke-width:1;stroke:rgb(0,0,0);fill:none"/><line x1="284.30247330593113" y1="443.1525921128577" x2="290.16847775163706" y2="223.2308105816893" style="stroke-width:1;stroke:rgb(0,0,0);fill:none"/><line x1="311.1984514234966" y1="43.92011090871107" x2="418.21230730448934" y2="236.13882656741612" style="stroke-width:1;stroke:rgb(0,0,0);fill:none"/><line x1="15.682231563821702" y1="370.6306345555701" x2="49.947517751952574" y2="153.31544833416154" style="stroke-width:1;stroke:rgb(0,0,0);fill:none"/><line x1="138.2420743894638" y1="253.60667316890644" x2="198.56538469762353" y2="465.17486131037884" style="stroke-width:1;stroke:rgb(0,0,0);fill:none"/><line x1="251.84972591198857" y1="44.943776402001035" x2="404.34006220245067" y2="203.52087858898693" style="stroke-width:1;stroke:rgb(0,0,0);fill:none"/><line x1="429.54369744217166" y1="215.44612136166708" x2="216.24780431748934" y2="269.34289284330686" style="stroke-width:1;stroke:rgb(0,0,0);fill:none"/><line x1="315.7707138403929" y1="318.0293124504622" x2="191.01079435539663" y2="136.82511136754786" style="stroke-width:1;stroke:rgb(0,0,0);fill:none"/><line x1="345.6018795396705" y1="163.17844296860517" x2="308.10456274600807" y2="379.95932596633565" style="stroke-width:1;stroke:rgb(0,0,0);fill:none"/><line x1="344.8846151110396" y1="71.57666398259104" x2="437.32907253839323" y2="271.2113861402413" style="stroke-width:1;stroke:rgb(0,0,0);fill:none"/><line x1="140.24500226785125" y1="406.2120397166843" x2="359.48987313791065" y2="387.9997746963482" style="stroke-width:1;stroke:rgb(0,0,0);fill:none"/><line x1="492.59434584217115" y1="375.4775312129058" x2="275.50975266506975" y2="339.7804808427088" style="stroke-width:1;stroke:rgb(0,0,0);fill:none"/><line x1="106.52711633567397" y1="383.55102199617795" x2="292.9235341475667" y2="266.69052641749965" style="stroke-width:1;stroke:rgb(0,0,0);fill:none"/><line x1="177.13868826265278" y1="42.92533507855334" x2="333.45305124271545" y2="197.73431390774533" style="stroke-width:1;stroke:rgb(0,0,0);fill:none"/><line x1="156.54993098230048" y1="84.84576054289356" x2="19.35611699367047" y2="256.8279032300144" style="stroke-width:1;stroke:rgb(0,0,0);fill:none"/><line x1="478.1371738073047" y1="241.0194696641401" x2="331.8762373701393" y2="405.3597826507091" style="stroke-width:1;stroke:rgb(0,0,0);fill:none"/><line x1="57.903363145498766" y1="438.62744246318493" x2="201.87144331047554" y2="272.27482933789975" style="stroke-width:1;stroke:rgb(0,0,0);fill:none"/><line x1="405.8475257968612" y1="68.3258011533468" x2="191.52912050303044" y2="18.65064486462144" style="stroke-width:1;stroke:rgb(0,0,0);fill:none"/><line x1="308.5328261399894" y1="435.8644783285659" x2="353.1032307921052" y2="220.4266009041291" style="stroke-width:1;stroke:rgb(0,0,0);fill:none"/><line x1="312.2679824557309" y1="437.29943241325196" x2="92.73557618220383" y2="422.9633731306225" style="stroke-width:1;stroke:rgb(0,0,0);fill:none"/><line x1="137.49699599910252" y1="258.3389224712031" x2="269.8249193251105" y2="82.58534296789352" style="stroke-width:1;stroke:rgb(0,0,0);fill:none"/><line x1="284.5611300731525" y1="223.71476092987845" x2="142.17933428120773" y2="391.42708673529125" style="stroke-width:1;stroke:rgb(0,0,0);fill:none"/><line x1="251.84061549298715" y1="278.1902128871482" x2="45.12785402706899" y2="202.89191113249763" style="stroke-width:1;stroke:rgb(0,0,0);fill:none"/><line x1="169.34499639761458" y1="249.00929679905082" x2="107.28844263380961" y2="37.94299410020696" style="stroke-width:1;stroke:rgb(0,0,0);fill:none"/></svg>