<?xml version="1.0"?><!DOCTYPE svg PUBLIC "-//W3C//DTD util.SVG 1.0//EN" "http://www.w3.org/TR/2001/REC-util.SVG-20010904/DTD/svg10.dtd"><svg xmlns="http://www.w3.org/2000/svg" height="1000" width="1000" text-rendering="auto" shape-rendering="auto"><line x1="123.98899840061279" y1="298.2985912078413" x2="215.59403916348458" y2="498.31988134174827" style="stroke-width:1;stroke:rgb(0,0,0);fill:none"/><line x1="256.01653675966827" y1="230.0727357592512" x2="475.9357968214178" y2="224.11294936269528" style="stroke-width:1;stroke:rgb(0,0,0);fill:none"/><line x1="87.02134516120252" y1="152.0785038642185" x2="267.9300501205266" y2="277.2665243371864" style="stroke-width:1;stroke:rgb(0,0,0);fill:none"/><line x1="308.9511094099491" y1="282.9850605940033" x2="93.59726742446514" y2="238.01037057738162" style="stroke-width:1;stroke:rgb(0,0,0);fill:none"/><line x1="344.43701724096707" y1="152.0015824787781" x2="428.67254693565394" y2="355.23636182782434" style="stroke-width:1;stroke:rgb(0,0,0);fill:none"/><line x1="379.9721110973937" y1="429.48670688155477" x2="193.61557282504702" y2="312.56262620033925" style="stroke-width:1;stroke:rgb(0,0,0);fill:none"/><line x1="422.6336307733201" y1="320.7060181136109" x2="207.06062888449608" y2="276.7938232625097" style="stroke-width:1;stroke:rgb(0,0,0);fill:none"/><line x1="239.3854215845184" y1="179.9443811239329" x2="22.493819541516956" y2="216.79587991598055" style="stroke-width:1;stroke:rgb(0,0,0);fill:none"/><line x1="179.5728291529901" y1="439.0937999308871" x2="81.87686773930973" y2="241.97581718081764" style="stroke-width:1;stroke:rgb(0,0,0);fill:none"/><line x1="354.4069764667083" y1="243.24915953773458" x2="166.77745967120728" y2="358.119366410913" style="stroke-width:1;stroke:rgb(0,0,0);fill:none"/><line x1="231.0507674049561" y1="249.35593470525697" x2="12.544054140203116" y2="274.94531254519313" style="stroke-width:1;stroke:rgb(0,0,0);fill:none"/><line x1="488.8438593646502" y1="474.76619574449285" x2="321.8210351698369" y2="331.5761954023304" style="stroke-width:1;stroke:rgb(0,0,0);fill:none"/><line x1="431.5327327097376" y1="243.75478888639313" x2="233.72521901286908" y2="340.0469875582646" style="stroke-width:1;stroke:rgb(0,0,0);fill:none"/><line x1="388.20435471214347" y1="288.7887725844055" x2="211.0061548497206" y2="419.17588071061874" style="stroke-width:1;stroke:rgb(0,0,0);fill:none"/><line x1="70.67825796189913" y1="154.4236503018106" x2="43.17408416588512" y2="372.69760757523034" style="stroke-width:1;stroke:rgb(0,0,0);fill:none"/><line x1="201.70961962442996" y1="454.04535823045774" x2="393.61739281491856" y2="346.4748855668686" style="stroke-width:1;stroke:rgb(0,0,0);fill:none"/><line x1="208.9987197840698" y1="326.4777729697168" x2="425.37017197642103" y2="286.6858808788264" style="stroke-width:1;stroke:rgb(0,0,0);fill:none"/><line x1="364.1528694791851" y1="335.79943957008214" x2="148.07373628272921" y2="294.44961252004134" style="stroke-width:1;stroke:rgb(0,0,0);fill:none"/><line x1="54.499983785492034" y1="57.535137663432714" x2="207.84639572241127" y2="215.28455270536776" style="stroke-width:1;stroke:rgb(0,0,0);fill:none"/><line x1="125.12371721813321" y1="292.126492289181" x2="278.588662067358" y2="449.76059615767895" style="stroke-width:1;stroke:rgb(0,0,0);fill:none"/><line x1="363.87579467641774" y1="366.3405808990684" x2="240.84475901968904" y2="183.958113909413" style="stroke-width:1;stroke:rgb(0,0,0);fill:none"/><line x1="177.52084835723286" y1="52.1023278227688" x2="163.51747990573776" y2="271.6562065678542" style="stroke-width:1;stroke:rgb(0,0,0);fill:none"/><line x1="494.35147670394235" y1="351.9034085248506" x2="429.89947653014656" y2="141.5562201110355" style="stroke-width:1;stroke:rgb(0,0,0);fill:none"/><line x1="191.06890116203112" y1="484.75441238330444" x2="287.3090669367609" y2="286.9215776675967" style="stroke-width:1;stroke:rgb(0,0,0);fill:none"/><line x1="88.46541469977149" y1="483.0432077510117" x2="249.43712082176933" y2="333.0828468946402" style="stroke-width:1;stroke:rgb(0,0,0);fill:none"/><rect x="198" y="463" width="5" height="5" style="stroke-width:1;stroke:rgb(255,200,0);fill:none" /><rect x="170" y="402" width="5" height="5" style="stroke-width:1;stroke:rgb(255,200,0);fill:none" /><rect x="373" y="224" width="5" height="5" style="stroke-width:1;stroke:rgb(255,200,0);fill:none" /><rect x="269" y="227" width="5" height="5" style="stroke-width:1;stroke:rgb(255,200,0);fill:none" /><rect x="453" y="222" width="5" height="5" style="stroke-width:1;stroke:rgb(255,200,0);fill:none" /><rect x="260" y="271" width="5" height="5" style="stroke-width:1;stroke:rgb(255,200,0);fill:none" /><rect x="147" y="193" width="5" height="5" style="stroke-width:1;stroke:rgb(255,200,0);fill:none" /><rect x="226" y="247" width="5" height="5" style="stroke-width:1;stroke:rgb(255,200,0);fill:none" /><rect x="165" y="205" width="5" height="5" style="stroke-width:1;stroke:rgb(255,200,0);fill:none" /><rect x="292" y="277" width="5" height="5" style="stroke-width:1;stroke:rgb(255,200,0);fill:none" /><rect x="175" y="253" width="5" height="5" style="stroke-width:1;stroke:rgb(255,200,0);fill:none" /><rect x="305" y="280" width="5" height="5" style="stroke-width:1;stroke:rgb(255,200,0);fill:none" /><rect x="162" y="250" width="5" height="5" style="stroke-width:1;stroke:rgb(255,200,0);fill:none" /><rect x="411" y="316" width="5" height="5" style="stroke-width:1;stroke:rgb(255,200,0);fill:none" /><rect x="388" y="261" width="5" height="5" style="stroke-width:1;stroke:rgb(255,200,0);fill:none" /><rect x="400" y="288" width="5" height="5" style="stroke-width:1;stroke:rgb(255,200,0);fill:none" /><rect x="215" y="325" width="5" height="5" style="stroke-width:1;stroke:rgb(255,200,0);fill:none" /><rect x="233" y="337" width="5" height="5" style="stroke-width:1;stroke:rgb(255,200,0);fill:none" /><rect x="279" y="365" width="5" height="5" style="stroke-width:1;stroke:rgb(255,200,0);fill:none" /><rect x="314" y="387" width="5" height="5" style="stroke-width:1;stroke:rgb(255,200,0);fill:none" /><rect x="212" y="323" width="5" height="5" style="stroke-width:1;stroke:rgb(255,200,0);fill:none" /><rect x="253" y="349" width="5" height="5" style="stroke-width:1;stroke:rgb(255,200,0);fill:none" /><rect x="238" y="339" width="5" height="5" style="stroke-width:1;stroke:rgb(255,200,0);fill:none" /><rect x="274" y="288" width="5" height="5" style="stroke-width:1;stroke:rgb(255,200,0);fill:none" /><rect x="315" y="297" width="5" height="5" style="stroke-width:1;stroke:rgb(255,200,0);fill:none" /><rect x="359" y="306" width="5" height="5" style="stroke-width:1;stroke:rgb(255,200,0);fill:none" /><rect x="334" y="301" width="5" height="5" style="stroke-width:1;stroke:rgb(255,200,0);fill:none" /><rect x="316" y="297" width="5" height="5" style="stroke-width:1;stroke:rgb(255,200,0);fill:none" /><rect x="282" y="290" width="5" height="5" style="stroke-width:1;stroke:rgb(255,200,0);fill:none" /><rect x="61" y="207" width="5" height="5" style="stroke-width:1;stroke:rgb(255,200,0);fill:none" /><rect x="180" y="187" width="5" height="5" style="stroke-width:1;stroke:rgb(255,200,0);fill:none" /><rect x="166" y="189" width="5" height="5" style="stroke-width:1;stroke:rgb(255,200,0);fill:none" /><rect x="91" y="263" width="5" height="5" style="stroke-width:1;stroke:rgb(255,200,0);fill:none" /><rect x="163" y="409" width="5" height="5" style="stroke-width:1;stroke:rgb(255,200,0);fill:none" /><rect x="220" y="321" width="5" height="5" style="stroke-width:1;stroke:rgb(255,200,0);fill:none" /><rect x="239" y="310" width="5" height="5" style="stroke-width:1;stroke:rgb(255,200,0);fill:none" /><rect x="178" y="347" width="5" height="5" style="stroke-width:1;stroke:rgb(255,200,0);fill:none" /><rect x="300" y="273" width="5" height="5" style="stroke-width:1;stroke:rgb(255,200,0);fill:none" /><rect x="54" y="267" width="5" height="5" style="stroke-width:1;stroke:rgb(255,200,0);fill:none" /><rect x="162" y="255" width="5" height="5" style="stroke-width:1;stroke:rgb(255,200,0);fill:none" /><rect x="323" y="332" width="5" height="5" style="stroke-width:1;stroke:rgb(255,200,0);fill:none" /><rect x="358" y="362" width="5" height="5" style="stroke-width:1;stroke:rgb(255,200,0);fill:none" /><rect x="291" y="308" width="5" height="5" style="stroke-width:1;stroke:rgb(255,200,0);fill:none" /><rect x="274" y="317" width="5" height="5" style="stroke-width:1;stroke:rgb(255,200,0);fill:none" /><rect x="316" y="296" width="5" height="5" style="stroke-width:1;stroke:rgb(255,200,0);fill:none" /><rect x="268" y="320" width="5" height="5" style="stroke-width:1;stroke:rgb(255,200,0);fill:none" /><rect x="377" y="293" width="5" height="5" style="stroke-width:1;stroke:rgb(255,200,0);fill:none" /><rect x="330" y="327" width="5" height="5" style="stroke-width:1;stroke:rgb(255,200,0);fill:none" /><rect x="231" y="400" width="5" height="5" style="stroke-width:1;stroke:rgb(255,200,0);fill:none" /><rect x="334" y="324" width="5" height="5" style="stroke-width:1;stroke:rgb(255,200,0);fill:none" /><rect x="227" y="403" width="5" height="5" style="stroke-width:1;stroke:rgb(255,200,0);fill:none" /><rect x="252" y="422" width="5" height="5" style="stroke-width:1;stroke:rgb(255,200,0);fill:none" /><rect x="360" y="362" width="5" height="5" style="stroke-width:1;stroke:rgb(255,200,0);fill:none" /><rect x="205" y="448" width="5" height="5" style="stroke-width:1;stroke:rgb(255,200,0);fill:none" /><rect x="261" y="314" width="5" height="5" style="stroke-width:1;stroke:rgb(255,200,0);fill:none" /><rect x="320" y="303" width="5" height="5" style="stroke-width:1;stroke:rgb(255,200,0);fill:none" /><rect x="271" y="312" width="5" height="5" style="stroke-width:1;stroke:rgb(255,200,0);fill:none" /><rect x="338" y="329" width="5" height="5" style="stroke-width:1;stroke:rgb(255,200,0);fill:none" /><rect x="270" y="316" width="5" height="5" style="stroke-width:1;stroke:rgb(255,200,0);fill:none" /><rect x="167" y="173" width="5" height="5" style="stroke-width:1;stroke:rgb(255,200,0);fill:none" /><rect x="229" y="399" width="5" height="5" style="stroke-width:1;stroke:rgb(255,200,0);fill:none" /><rect x="203" y="372" width="5" height="5" style="stroke-width:1;stroke:rgb(255,200,0);fill:none" /></svg>