<?xml version="1.0"?><!DOCTYPE svg PUBLIC "-//W3C//DTD util.SVG 1.0//EN" "http://www.w3.org/TR/2001/REC-util.SVG-20010904/DTD/svg10.dtd"><svg xmlns="http://www.w3.org/2000/svg" height="1000" width="1000" text-rendering="auto" shape-rendering="auto"><line x1="172.04388433028944" y1="368.91450930412776" x2="351.0542684189521" y2="241.02673667347534" style="stroke-width:1;stroke:rgb(0,0,0);fill:none"/><line x1="496.65986866907633" y1="8.593426581849473" x2="276.7169786176369" y2="3.580930614725788" style="stroke-width:1;stroke:rgb(0,0,0);fill:none"/><line x1="171.2937848010909" y1="460.6582036353751" x2="378.8444966780527" y2="387.7013533787583" style="stroke-width:1;stroke:rgb(0,0,0);fill:none"/><line x1="241.78260557349796" y1="459.63243846701687" x2="35.77604152639151" y2="382.4230117789147" style="stroke-width:1;stroke:rgb(0,0,0);fill:none"/><line x1="315.35999178057637" y1="51.229962349375214" x2="97.20041136324525" y2="79.62710079912101" style="stroke-width:1;stroke:rgb(0,0,0);fill:none"/><line x1="363.1104131052366" y1="370.52550588341217" x2="157.0504554533563" y2="447.59232009358493" style="stroke-width:1;stroke:rgb(0,0,0);fill:none"/><line x1="177.44253965559997" y1="459.5691441646343" x2="393.4308303144986" y2="417.74739984129087" style="stroke-width:1;stroke:rgb(0,0,0);fill:none"/><line x1="392.13538715844174" y1="434.9499193340425" x2="454.5500990017737" y2="223.98925061706615" style="stroke-width:1;stroke:rgb(0,0,0);fill:none"/><line x1="443.197174983413" y1="23.322567434573006" x2="228.0584421397262" y2="69.31523674624438" style="stroke-width:1;stroke:rgb(0,0,0);fill:none"/><line x1="24.704956601024286" y1="228.34429620338864" x2="94.9849214301513" y2="436.81666018388523" style="stroke-width:1;stroke:rgb(0,0,0);fill:none"/><line x1="114.59344488160217" y1="80.0211862997689" x2="252.65092147504652" y2="251.31080407227302" style="stroke-width:1;stroke:rgb(0,0,0);fill:none"/><line x1="124.55892137472947" y1="230.17615024374243" x2="319.6004113171143" y2="128.39787554302552" style="stroke-width:1;stroke:rgb(0,0,0);fill:none"/><line x1="212.27687873562968" y1="395.0586682730621" x2="93.80467381346105" y2="209.68246521323115" style="stroke-width:1;stroke:rgb(0,0,0);fill:none"/><line x1="37.034762966911494" y1="307.74952450773526" x2="146.68834723737982" y2="117.02435192519621" style="stroke-width:1;stroke:rgb(0,0,0);fill:none"/><line x1="248.73219665055967" y1="203.3597640712661" x2="312.98258466213997" y2="413.76862234572513" style="stroke-width:1;stroke:rgb(0,0,0);fill:none"/><line x1="134.51249896260552" y1="167.7512148481019" x2="354.3945162294276" y2="160.5471546961481" style="stroke-width:1;stroke:rgb(0,0,0);fill:none"/><line x1="208.6884155398283" y1="133.80883280930172" x2="129.18839154676348" y2="338.9423166316707" style="stroke-width:1;stroke:rgb(0,0,0);fill:none"/><line x1="458.27150075363096" y1="97.79898814682619" x2="263.3910198185938" y2="199.8852171423602" style="stroke-width:1;stroke:rgb(0,0,0);fill:none"/><line x1="139.724536227211" y1="98.29280981820548" x2="259.2500074493607" y2="282.99165044565245" style="stroke-width:1;stroke:rgb(0,0,0);fill:none"/><line x1="91.95734264108468" y1="390.13462883138175" x2="74.59206258893798" y2="170.821047289539" style="stroke-width:1;stroke:rgb(0,0,0);fill:none"/><line x1="405.1028933593864" y1="456.16569475162026" x2="189.07844544226984" y2="414.53111895091126" style="stroke-width:1;stroke:rgb(0,0,0);fill:none"/><line x1="168.26127457760987" y1="497.77163850539404" x2="193.39826477038434" y2="279.2124206168585" style="stroke-width:1;stroke:rgb(0,0,0);fill:none"/><line x1="120.46309233655877" y1="279.69082278799584" x2="326.204698582613" y2="201.77810585877054" style="stroke-width:1;stroke:rgb(0,0,0);fill:none"/><line x1="411.47013979599797" y1="280.89673403659253" x2="292.03582708769665" y2="465.6545348134358" style="stroke-width:1;stroke:rgb(0,0,0);fill:none"/><line x1="106.95568902364894" y1="5.255345765311226" x2="232.19301599114738" y2="186.12992091073042" style="stroke-width:1;stroke:rgb(0,0,0);fill:none"/></svg>