<?xml version="1.0"?><!DOCTYPE svg PUBLIC "-//W3C//DTD util.SVG 1.0//EN" "http://www.w3.org/TR/2001/REC-util.SVG-20010904/DTD/svg10.dtd"><svg xmlns="http://www.w3.org/2000/svg" height="1000" width="1000" text-rendering="auto" shape-rendering="auto"><line x1="24.706324805204627" y1="96.00965209829837" x2="166.43610289529204" y2="264.27334397071206" style="stroke-width:1;stroke:rgb(0,0,0);fill:none"/><line x1="196.37133973990234" y1="272.6910306205026" x2="2.0781248146102484" y2="169.49148297617305" style="stroke-width:1;stroke:rgb(0,0,0);fill:none"/><line x1="393.3630881520594" y1="143.29816724511696" x2="230.99657619852948" y2="291.74720158365426" style="stroke-width:1;stroke:rgb(0,0,0);fill:none"/><line x1="349.5763704590354" y1="286.0242100376739" x2="164.32017410555437" y2="167.36443710412885" style="stroke-width:1;stroke:rgb(0,0,0);fill:none"/><line x1="465.6722096940164" y1="41.907331929442684" x2="246.11959089597096" y2="55.93044067608522" style="stroke-width:1;stroke:rgb(0,0,0);fill:none"/><line x1="194.36768609852874" y1="404.3043905744142" x2="413.2968199441423" y2="382.6241148932932" style="stroke-width:1;stroke:rgb(0,0,0);fill:none"/><line x1="360.6536265463227" y1="62.75025745507207" x2="339.9483347165265" y2="281.77375137808247" style="stroke-width:1;stroke:rgb(0,0,0);fill:none"/><line x1="469.4692392574058" y1="358.1633743835227" x2="467.13629247873456" y2="138.17574436917872" style="stroke-width:1;stroke:rgb(0,0,0);fill:none"/><line x1="489.53129495844604" y1="56.49491455980138" x2="374.81516201659167" y2="244.21867129524173" style="stroke-width:1;stroke:rgb(0,0,0);fill:none"/><line x1="286.8288709848461" y1="134.62027354165363" x2="72.70765933461385" y2="185.13865357740343" style="stroke-width:1;stroke:rgb(0,0,0);fill:none"/><line x1="81.64212496947488" y1="378.5064522218209" x2="126.90136852542426" y2="163.21223290150738" style="stroke-width:1;stroke:rgb(0,0,0);fill:none"/><line x1="275.72237998729844" y1="130.81944644779492" x2="470.16316460552747" y2="233.74068466929842" style="stroke-width:1;stroke:rgb(0,0,0);fill:none"/><line x1="373.1832931315894" y1="275.38198330542986" x2="356.2176427733533" y2="56.03712535812787" style="stroke-width:1;stroke:rgb(0,0,0);fill:none"/><line x1="487.9280804510859" y1="123.98138465243063" x2="423.58269268272124" y2="334.3612103794684" style="stroke-width:1;stroke:rgb(0,0,0);fill:none"/><line x1="220.55116314844193" y1="25.73899524408285" x2="419.7520689850545" y2="119.11457617332266" style="stroke-width:1;stroke:rgb(0,0,0);fill:none"/><line x1="386.2536663353276" y1="248.6848906791107" x2="178.26775249093973" y2="320.39165216165765" style="stroke-width:1;stroke:rgb(0,0,0);fill:none"/><line x1="269.6862257291252" y1="415.68534495491554" x2="143.5507435703403" y2="235.4359617643735" style="stroke-width:1;stroke:rgb(0,0,0);fill:none"/><line x1="386.1450957799513" y1="72.74720988523187" x2="174.28881759759048" y2="132.0508134411554" style="stroke-width:1;stroke:rgb(0,0,0);fill:none"/><line x1="260.65546326918803" y1="24.863173130218797" x2="147.5252386500405" y2="213.5469092539802" style="stroke-width:1;stroke:rgb(0,0,0);fill:none"/><line x1="352.00885736365166" y1="274.3783232777625" x2="419.22819311808547" y2="483.85758454420073" style="stroke-width:1;stroke:rgb(0,0,0);fill:none"/><line x1="65.35184954551049" y1="204.9514482471093" x2="135.53900028886963" y2="413.45507860046547" style="stroke-width:1;stroke:rgb(0,0,0);fill:none"/><line x1="147.19241256215955" y1="393.3191691122821" x2="75.90113327268705" y2="185.1904745570372" style="stroke-width:1;stroke:rgb(0,0,0);fill:none"/><line x1="396.15792839317265" y1="272.17726405048273" x2="319.1859405004851" y2="66.08186604303577" style="stroke-width:1;stroke:rgb(0,0,0);fill:none"/><line x1="350.5618555509068" y1="337.5072390333825" x2="137.86804208372587" y2="281.2814290099774" style="stroke-width:1;stroke:rgb(0,0,0);fill:none"/><line x1="418.00911462531064" y1="477.1821544635161" x2="294.4189755980883" y2="295.1780953460561" style="stroke-width:1;stroke:rgb(0,0,0);fill:none"/></svg>