<?xml version="1.0"?><!DOCTYPE svg PUBLIC "-//W3C//DTD util.SVG 1.0//EN" "http://www.w3.org/TR/2001/REC-util.SVG-20010904/DTD/svg10.dtd"><svg xmlns="http://www.w3.org/2000/svg" height="1000" width="1000" text-rendering="auto" shape-rendering="auto"><line x1="363.05049520069895" y1="256.3886020409777" x2="262.08302786055395" y2="60.92614902527251" style="stroke-width:1;stroke:rgb(0,0,0);fill:none"/><line x1="328.5215597731722" y1="490.2600929767384" x2="108.5939615857827" y2="484.6163747408467" style="stroke-width:1;stroke:rgb(0,0,0);fill:none"/><line x1="273.12269133004474" y1="275.7468527015611" x2="484.62179662905396" y2="215.18177648004047" style="stroke-width:1;stroke:rgb(0,0,0);fill:none"/><line x1="314.4010828694313" y1="312.05800634870764" x2="111.31039034141406" y2="227.47567599247805" style="stroke-width:1;stroke:rgb(0,0,0);fill:none"/><line x1="250.1471426216621" y1="92.78872182220348" x2="161.5715820028343" y2="294.1698779939277" style="stroke-width:1;stroke:rgb(0,0,0);fill:none"/><line x1="153.66302060038927" y1="479.88446484457535" x2="363.70347902358253" y2="414.43978725063477" style="stroke-width:1;stroke:rgb(0,0,0);fill:none"/><line x1="303.7308316149594" y1="213.6333075756695" x2="249.9072927883323" y2="426.9476921543438" style="stroke-width:1;stroke:rgb(0,0,0);fill:none"/><line x1="220.78075939642105" y1="338.4585459025795" x2="132.9751805805263" y2="136.74047450389273" style="stroke-width:1;stroke:rgb(0,0,0);fill:none"/><line x1="417.8115992916045" y1="229.57864959959295" x2="199.015637409025" y2="206.59328330108025" style="stroke-width:1;stroke:rgb(0,0,0);fill:none"/><line x1="16.329263307634456" y1="62.62948506293697" x2="57.25626204962191" y2="278.7891038032867" style="stroke-width:1;stroke:rgb(0,0,0);fill:none"/><line x1="213.81240063596175" y1="469.91047142240564" x2="433.19035526970634" y2="486.4426527882962" style="stroke-width:1;stroke:rgb(0,0,0);fill:none"/><line x1="226.0170814793434" y1="98.86567755163556" x2="386.3904267878009" y2="249.4657775335886" style="stroke-width:1;stroke:rgb(0,0,0);fill:none"/><line x1="328.6108481839514" y1="205.7707549804208" x2="118.76908669219699" y2="271.84976173776886" style="stroke-width:1;stroke:rgb(0,0,0);fill:none"/><line x1="59.27840615051655" y1="227.79998838293446" x2="11.06048107032828" y2="442.45094156265213" style="stroke-width:1;stroke:rgb(0,0,0);fill:none"/><line x1="491.8822078717627" y1="391.16816235932646" x2="433.7893200393836" y2="178.97670074200636" style="stroke-width:1;stroke:rgb(0,0,0);fill:none"/><line x1="465.0939254508462" y1="406.88454716428754" x2="322.11235755904875" y2="239.68325756638012" style="stroke-width:1;stroke:rgb(0,0,0);fill:none"/><line x1="340.07990382563503" y1="67.29021686105979" x2="190.9008879702822" y2="228.9862935865895" style="stroke-width:1;stroke:rgb(0,0,0);fill:none"/><line x1="283.5724010085705" y1="358.9875755444182" x2="494.533429120805" y2="421.40107262500976" style="stroke-width:1;stroke:rgb(0,0,0);fill:none"/><line x1="204.51472563973667" y1="124.60770812690292" x2="131.89155014898313" y2="332.2754099527748" style="stroke-width:1;stroke:rgb(0,0,0);fill:none"/><line x1="417.41569389244916" y1="474.2534478072033" x2="204.09584423110022" y2="420.45157292853867" style="stroke-width:1;stroke:rgb(0,0,0);fill:none"/><line x1="310.73331977924994" y1="83.08417557470516" x2="313.3102940249516" y2="303.0690823381852" style="stroke-width:1;stroke:rgb(0,0,0);fill:none"/><line x1="413.04068881600347" y1="8.762681766219805" x2="490.0203747046675" y2="214.855204581781" style="stroke-width:1;stroke:rgb(0,0,0);fill:none"/><line x1="385.5418021751706" y1="266.16764846979015" x2="165.79593461398358" y2="276.7390102449477" style="stroke-width:1;stroke:rgb(0,0,0);fill:none"/><line x1="462.48675909571233" y1="9.804437420573963" x2="386.6936820330654" y2="216.33629808467504" style="stroke-width:1;stroke:rgb(0,0,0);fill:none"/><line x1="79.24612223921996" y1="69.01182981085292" x2="295.9861433185854" y2="106.74461744331175" style="stroke-width:1;stroke:rgb(0,0,0);fill:none"/><rect x="358" y="248" width="5" height="5" style="stroke-width:1;stroke:rgb(255,200,0);fill:none" /><rect x="343" y="219" width="5" height="5" style="stroke-width:1;stroke:rgb(255,200,0);fill:none" /><rect x="332" y="198" width="5" height="5" style="stroke-width:1;stroke:rgb(255,200,0);fill:none" /><rect x="290" y="117" width="5" height="5" style="stroke-width:1;stroke:rgb(255,200,0);fill:none" /><rect x="309" y="154" width="5" height="5" style="stroke-width:1;stroke:rgb(255,200,0);fill:none" /><rect x="282" y="102" width="5" height="5" style="stroke-width:1;stroke:rgb(255,200,0);fill:none" /><rect x="287" y="269" width="5" height="5" style="stroke-width:1;stroke:rgb(255,200,0);fill:none" /><rect x="379" y="242" width="5" height="5" style="stroke-width:1;stroke:rgb(255,200,0);fill:none" /><rect x="444" y="224" width="5" height="5" style="stroke-width:1;stroke:rgb(255,200,0);fill:none" /><rect x="335" y="255" width="5" height="5" style="stroke-width:1;stroke:rgb(255,200,0);fill:none" /><rect x="310" y="262" width="5" height="5" style="stroke-width:1;stroke:rgb(255,200,0);fill:none" /><rect x="288" y="268" width="5" height="5" style="stroke-width:1;stroke:rgb(255,200,0);fill:none" /><rect x="176" y="253" width="5" height="5" style="stroke-width:1;stroke:rgb(255,200,0);fill:none" /><rect x="280" y="296" width="5" height="5" style="stroke-width:1;stroke:rgb(255,200,0);fill:none" /><rect x="184" y="256" width="5" height="5" style="stroke-width:1;stroke:rgb(255,200,0);fill:none" /><rect x="173" y="252" width="5" height="5" style="stroke-width:1;stroke:rgb(255,200,0);fill:none" /><rect x="159" y="246" width="5" height="5" style="stroke-width:1;stroke:rgb(255,200,0);fill:none" /><rect x="220" y="271" width="5" height="5" style="stroke-width:1;stroke:rgb(255,200,0);fill:none" /><rect x="179" y="246" width="5" height="5" style="stroke-width:1;stroke:rgb(255,200,0);fill:none" /><rect x="198" y="204" width="5" height="5" style="stroke-width:1;stroke:rgb(255,200,0);fill:none" /><rect x="239" y="111" width="5" height="5" style="stroke-width:1;stroke:rgb(255,200,0);fill:none" /><rect x="177" y="250" width="5" height="5" style="stroke-width:1;stroke:rgb(255,200,0);fill:none" /><rect x="167" y="274" width="5" height="5" style="stroke-width:1;stroke:rgb(255,200,0);fill:none" /><rect x="245" y="96" width="5" height="5" style="stroke-width:1;stroke:rgb(255,200,0);fill:none" /><rect x="279" y="438" width="5" height="5" style="stroke-width:1;stroke:rgb(255,200,0);fill:none" /><rect x="300" y="215" width="5" height="5" style="stroke-width:1;stroke:rgb(255,200,0);fill:none" /><rect x="287" y="268" width="5" height="5" style="stroke-width:1;stroke:rgb(255,200,0);fill:none" /><rect x="180" y="249" width="5" height="5" style="stroke-width:1;stroke:rgb(255,200,0);fill:none" /><rect x="168" y="220" width="5" height="5" style="stroke-width:1;stroke:rgb(255,200,0);fill:none" /><rect x="191" y="273" width="5" height="5" style="stroke-width:1;stroke:rgb(255,200,0);fill:none" /><rect x="356" y="221" width="5" height="5" style="stroke-width:1;stroke:rgb(255,200,0);fill:none" /><rect x="292" y="214" width="5" height="5" style="stroke-width:1;stroke:rgb(255,200,0);fill:none" /><rect x="208" y="205" width="5" height="5" style="stroke-width:1;stroke:rgb(255,200,0);fill:none" /><rect x="310" y="216" width="5" height="5" style="stroke-width:1;stroke:rgb(255,200,0);fill:none" /><rect x="50" y="254" width="5" height="5" style="stroke-width:1;stroke:rgb(255,200,0);fill:none" /><rect x="269" y="139" width="5" height="5" style="stroke-width:1;stroke:rgb(255,200,0);fill:none" /><rect x="309" y="177" width="5" height="5" style="stroke-width:1;stroke:rgb(255,200,0);fill:none" /><rect x="155" y="257" width="5" height="5" style="stroke-width:1;stroke:rgb(255,200,0);fill:none" /><rect x="310" y="208" width="5" height="5" style="stroke-width:1;stroke:rgb(255,200,0);fill:none" /><rect x="344" y="266" width="5" height="5" style="stroke-width:1;stroke:rgb(255,200,0);fill:none" /><rect x="308" y="96" width="5" height="5" style="stroke-width:1;stroke:rgb(255,200,0);fill:none" /><rect x="310" y="267" width="5" height="5" style="stroke-width:1;stroke:rgb(255,200,0);fill:none" /><rect x="436" y="74" width="5" height="5" style="stroke-width:1;stroke:rgb(255,200,0);fill:none" /></svg>