<?xml version="1.0"?><!DOCTYPE svg PUBLIC "-//W3C//DTD util.SVG 1.0//EN" "http://www.w3.org/TR/2001/REC-util.SVG-20010904/DTD/svg10.dtd"><svg xmlns="http://www.w3.org/2000/svg" height="200" width="650" text-rendering="auto" shape-rendering="auto"><line x1="20.0" y1="70.0" x2="120.0" y2="70.0" style="stroke-width:1;stroke:rgb(0,0,0);fill:none"/><line x1="120.0" y1="70.0" x2="120.0" y2="170.0" style="stroke-width:1;stroke:rgb(0,0,0);fill:none"/><line x1="120.0" y1="170.0" x2="20.0" y2="170.0" style="stroke-width:1;stroke:rgb(0,0,0);fill:none"/><line x1="20.0" y1="170.0" x2="20.0" y2="70.0" style="stroke-width:1;stroke:rgb(0,0,0);fill:none"/><line x1="141.10907266067667" y1="28.0279015129542" x2="229.7417704317754" y2="43.656237502977916" style="stroke-width:1;stroke:rgb(0,0,0);fill:none"/><line x1="229.7417704317754" y1="43.656237502977916" x2="98.89092733932333" y2="111.9720984870458" style="stroke-width:1;stroke:rgb(0,0,0);fill:none"/><line x1="98.89092733932333" y1="111.9720984870458" x2="10.258229568224607" y2="96.34376249702208" style="stroke-width:1;stroke:rgb(0,0,0);fill:none"/><line x1="10.258229568224607" y1="96.34376249702208" x2="141.10907266067667" y2="28.0279015129542" style="stroke-width:1;stroke:rgb(0,0,0);fill:none"/><line x1="303.37215573928836" y1="18.281633848260455" x2="361.47989747685045" y2="42.81008194201769" style="stroke-width:1;stroke:rgb(0,0,0);fill:none"/><line x1="361.47989747685045" y1="42.81008194201769" x2="156.11138512426245" y2="69.0308411576954" style="stroke-width:1;stroke:rgb(0,0,0);fill:none"/><line x1="156.11138512426245" y1="69.0308411576954" x2="98.00364338670033" y2="44.50239306393817" style="stroke-width:1;stroke:rgb(0,0,0);fill:none"/><line x1="98.00364338670033" y1="44.50239306393817" x2="303.37215573928836" y2="18.281633848260455" style="stroke-width:1;stroke:rgb(0,0,0);fill:none"/><line x1="459.94337716771986" y1="36.98240699060989" x2="479.35015515540806" y2="62.82050060685179" style="stroke-width:1;stroke:rgb(0,0,0);fill:none"/><line x1="479.35015515540806" y1="62.82050060685179" x2="263.01641778598105" y2="48.637756893425504" style="stroke-width:1;stroke:rgb(0,0,0);fill:none"/><line x1="263.01641778598105" y1="48.637756893425504" x2="243.60963979829285" y2="22.799663277183612" style="stroke-width:1;stroke:rgb(0,0,0);fill:none"/><line x1="243.60963979829285" y1="22.799663277183612" x2="459.94337716771986" y2="36.98240699060989" style="stroke-width:1;stroke:rgb(0,0,0);fill:none"/><line x1="574.2465553313283" y1="74.22747772200255" x2="557.6379428763945" y2="94.91195030656155" style="stroke-width:1;stroke:rgb(0,0,0);fill:none"/><line x1="557.6379428763945" y1="94.91195030656155" x2="384.4537549794878" y2="51.413523491701056" style="stroke-width:1;stroke:rgb(0,0,0);fill:none"/><line x1="384.4537549794878" y1="51.413523491701056" x2="401.06236743442156" y2="30.72905090714204" style="stroke-width:1;stroke:rgb(0,0,0);fill:none"/><line x1="401.06236743442156" y1="30.72905090714204" x2="574.2465553313283" y2="74.22747772200255" style="stroke-width:1;stroke:rgb(0,0,0);fill:none"/><line x1="626.8210567134324" y1="117.53545319696266" x2="585.0345886661553" y2="129.07057897537965" style="stroke-width:1;stroke:rgb(0,0,0);fill:none"/><line x1="585.0345886661553" y1="129.07057897537965" x2="488.4548290393565" y2="72.28844741616047" style="stroke-width:1;stroke:rgb(0,0,0);fill:none"/><line x1="488.4548290393565" y1="72.28844741616047" x2="530.2412970866335" y2="60.75332163774346" style="stroke-width:1;stroke:rgb(0,0,0);fill:none"/><line x1="530.2412970866335" y1="60.75332163774346" x2="626.8210567134324" y2="117.53545319696266" style="stroke-width:1;stroke:rgb(0,0,0);fill:none"/><line x1="616.7504045928372" y1="155.33818923852556" x2="564.620121326444" y2="156.68798010485386" style="stroke-width:1;stroke:rgb(0,0,0);fill:none"/><line x1="564.620121326444" y1="156.68798010485386" x2="553.3187727394734" y2="102.80296871223376" style="stroke-width:1;stroke:rgb(0,0,0);fill:none"/><line x1="553.3187727394734" y1="102.80296871223376" x2="605.4490560058666" y2="101.4531778459054" style="stroke-width:1;stroke:rgb(0,0,0);fill:none"/><line x1="605.4490560058666" y1="101.4531778459054" x2="616.7504045928372" y2="155.33818923852556" style="stroke-width:1;stroke:rgb(0,0,0);fill:none"/><line x1="558.359315112812" y1="179.5895784910607" x2="510.38862596951645" y2="172.36460392145415" style="stroke-width:1;stroke:rgb(0,0,0);fill:none"/><line x1="510.38862596951645" y1="172.36460392145415" x2="570.8809275400757" y2="133.78638171864708" style="stroke-width:1;stroke:rgb(0,0,0);fill:none"/><line x1="570.8809275400757" y1="133.78638171864708" x2="618.8516166833714" y2="141.01135628825358" style="stroke-width:1;stroke:rgb(0,0,0);fill:none"/><line x1="618.8516166833714" y1="141.01135628825358" x2="558.359315112812" y2="179.5895784910607" style="stroke-width:1;stroke:rgb(0,0,0);fill:none"/><line x1="474.87256995015497" y1="187.03156820735404" x2="441.8087941606099" y2="174.5987441482033" style="stroke-width:1;stroke:rgb(0,0,0);fill:none"/><line x1="441.8087941606099" y1="174.5987441482033" x2="545.9046819888779" y2="157.69763963555425" style="stroke-width:1;stroke:rgb(0,0,0);fill:none"/><line x1="545.9046819888779" y1="157.69763963555425" x2="578.968457778423" y2="170.13046369470496" style="stroke-width:1;stroke:rgb(0,0,0);fill:none"/><line x1="578.968457778423" y1="170.13046369470496" x2="474.87256995015497" y2="187.03156820735404" style="stroke-width:1;stroke:rgb(0,0,0);fill:none"/><line x1="391.13810914458634" y1="179.0680385152307" x2="378.1012477789251" y2="165.4071297432093" style="stroke-width:1;stroke:rgb(0,0,0);fill:none"/><line x1="378.1012477789251" y1="165.4071297432093" x2="492.4794791766336" y2="170.12944978117588" style="stroke-width:1;stroke:rgb(0,0,0);fill:none"/><line x1="492.4794791766336" y1="170.12944978117588" x2="505.51634054229487" y2="183.79035855319728" style="stroke-width:1;stroke:rgb(0,0,0);fill:none"/><line x1="505.51634054229487" y1="183.79035855319728" x2="391.13810914458634" y2="179.0680385152307" style="stroke-width:1;stroke:rgb(0,0,0);fill:none"/><line x1="327.34234331058866" y1="160.54138176720576" x2="333.66283567980577" y2="149.17136982457214" style="stroke-width:1;stroke:rgb(0,0,0);fill:none"/><line x1="333.66283567980577" y1="149.17136982457214" x2="428.86015224726157" y2="170.2728777192129" style="stroke-width:1;stroke:rgb(0,0,0);fill:none"/><line x1="428.86015224726157" y1="170.2728777192129" x2="422.5396598780445" y2="181.64288966184648" style="stroke-width:1;stroke:rgb(0,0,0);fill:none"/><line x1="422.5396598780445" y1="181.64288966184648" x2="327.34234331058866" y2="160.54138176720576" style="stroke-width:1;stroke:rgb(0,0,0);fill:none"/><line x1="295.04072153981895" y1="137.91452006628367" x2="315.5205009257211" y2="131.13478629736727" style="stroke-width:1;stroke:rgb(0,0,0);fill:none"/><line x1="315.5205009257211" y1="131.13478629736727" x2="372.28494981979253" y2="160.42821958286063" style="stroke-width:1;stroke:rgb(0,0,0);fill:none"/><line x1="372.28494981979253" y1="160.42821958286063" x2="351.80517043389045" y2="167.2079533517771" style="stroke-width:1;stroke:rgb(0,0,0);fill:none"/><line x1="351.80517043389045" y1="167.2079533517771" x2="295.04072153981895" y2="137.91452006628367" style="stroke-width:1;stroke:rgb(0,0,0);fill:none"/><line x1="296.0183620415889" y1="117.40857870106191" x2="323.0414818049341" y2="115.97759393684348" style="stroke-width:1;stroke:rgb(0,0,0);fill:none"/><line x1="323.0414818049341" y1="115.97759393684348" x2="335.0226398098532" y2="144.86099389367257" style="stroke-width:1;stroke:rgb(0,0,0);fill:none"/><line x1="335.0226398098532" y1="144.86099389367257" x2="307.999520046508" y2="146.29197865789106" style="stroke-width:1;stroke:rgb(0,0,0);fill:none"/><line x1="307.999520046508" y1="146.29197865789106" x2="296.0183620415889" y2="117.40857870106191" style="stroke-width:1;stroke:rgb(0,0,0);fill:none"/><line x1="323.71706835324704" y1="103.55255724691371" x2="349.5408440499192" y2="106.79823163628913" style="stroke-width:1;stroke:rgb(0,0,0);fill:none"/><line x1="349.5408440499192" y1="106.79823163628913" x2="322.3658952566212" y2="128.4026306267732" style="stroke-width:1;stroke:rgb(0,0,0);fill:none"/><line x1="322.3658952566212" y1="128.4026306267732" x2="296.5421195599489" y2="125.15695623739781" style="stroke-width:1;stroke:rgb(0,0,0);fill:none"/><line x1="296.5421195599489" y1="125.15695623739781" x2="323.71706835324704" y2="103.55255724691371" style="stroke-width:1;stroke:rgb(0,0,0);fill:none"/><line x1="366.39789989678724" y1="98.41554377965105" x2="385.0392166605716" y2="104.66868061467827" style="stroke-width:1;stroke:rgb(0,0,0);fill:none"/><line x1="385.0392166605716" y1="104.66868061467827" x2="332.6837882030512" y2="115.18091949292722" style="stroke-width:1;stroke:rgb(0,0,0);fill:none"/><line x1="332.6837882030512" y1="115.18091949292722" x2="314.0424714392668" y2="108.9277826579" style="stroke-width:1;stroke:rgb(0,0,0);fill:none"/><line x1="314.0424714392668" y1="108.9277826579" x2="366.39789989678724" y2="98.41554377965105" style="stroke-width:1;stroke:rgb(0,0,0);fill:none"/><line x1="410.94889775665104" y1="101.57645255758352" x2="419.2889174360913" y2="108.76166444175311" style="stroke-width:1;stroke:rgb(0,0,0);fill:none"/><line x1="419.2889174360913" y1="108.76166444175311" x2="359.12953556449224" y2="107.76090867177302" style="stroke-width:1;stroke:rgb(0,0,0);fill:none"/><line x1="359.12953556449224" y1="107.76090867177302" x2="350.78951588505186" y2="100.57569678760343" style="stroke-width:1;stroke:rgb(0,0,0);fill:none"/><line x1="350.78951588505186" y1="100.57569678760343" x2="410.94889775665104" y2="101.57645255758352" style="stroke-width:1;stroke:rgb(0,0,0);fill:none"/><line x1="446.29957325848477" y1="110.69843423659688" x2="444.2896473665982" y2="116.91047989593392" style="stroke-width:1;stroke:rgb(0,0,0);fill:none"/><line x1="444.2896473665982" y1="116.91047989593392" x2="392.27826161369796" y2="106.82489464690936" style="stroke-width:1;stroke:rgb(0,0,0);fill:none"/><line x1="392.27826161369796" y1="106.82489464690936" x2="394.2881875055844" y2="100.61284898757229" style="stroke-width:1;stroke:rgb(0,0,0);fill:none"/><line x1="394.2881875055844" y1="100.61284898757229" x2="446.29957325848477" y2="110.69843423659688" style="stroke-width:1;stroke:rgb(0,0,0);fill:none"/><line x1="465.6956407023389" y1="122.45491690159336" x2="455.7856750426294" y2="126.38461140695836" style="stroke-width:1;stroke:rgb(0,0,0);fill:none"/><line x1="455.7856750426294" y1="126.38461140695836" x2="422.8836540308577" y2="111.36604289027451" style="stroke-width:1;stroke:rgb(0,0,0);fill:none"/><line x1="422.8836540308577" y1="111.36604289027451" x2="432.7936196905671" y2="107.43634838490946" style="stroke-width:1;stroke:rgb(0,0,0);fill:none"/><line x1="432.7936196905671" y1="107.43634838490946" x2="465.6956407023389" y2="122.45491690159336" style="stroke-width:1;stroke:rgb(0,0,0);fill:none"/><line x1="467.5034418541627" y1="133.51774184460552" x2="453.57793355054486" y2="134.65358375019386" style="stroke-width:1;stroke:rgb(0,0,0);fill:none"/><line x1="453.57793355054486" y1="134.65358375019386" x2="444.0679082310962" y2="119.25148096931125" style="stroke-width:1;stroke:rgb(0,0,0);fill:none"/><line x1="444.0679082310962" y1="119.25148096931125" x2="457.993416534714" y2="118.11563906372288" style="stroke-width:1;stroke:rgb(0,0,0);fill:none"/><line x1="457.993416534714" y1="118.11563906372288" x2="467.5034418541627" y2="133.51774184460552" style="stroke-width:1;stroke:rgb(0,0,0);fill:none"/><line x1="454.62994507758765" y1="141.35793519162306" x2="440.8011326800931" y2="139.9575701428355" style="stroke-width:1;stroke:rgb(0,0,0);fill:none"/><line x1="440.8011326800931" y1="139.9575701428355" x2="452.5259220235021" y2="127.94923230876475" style="stroke-width:1;stroke:rgb(0,0,0);fill:none"/><line x1="452.5259220235021" y1="127.94923230876475" x2="466.3547344209967" y2="129.34959735755223" style="stroke-width:1;stroke:rgb(0,0,0);fill:none"/><line x1="466.3547344209967" y1="129.34959735755223" x2="454.62994507758765" y2="141.35793519162306" style="stroke-width:1;stroke:rgb(0,0,0);fill:none"/><line x1="432.96085849238295" y1="144.70211744954565" x2="422.5363984674899" y2="141.58423274463598" style="stroke-width:1;stroke:rgb(0,0,0);fill:none"/><line x1="422.5363984674899" y1="141.58423274463598" x2="448.64140686780314" y2="135.21302283612545" style="stroke-width:1;stroke:rgb(0,0,0);fill:none"/><line x1="448.64140686780314" y1="135.21302283612545" x2="459.0658668926963" y2="138.33090754103506" style="stroke-width:1;stroke:rgb(0,0,0);fill:none"/><line x1="459.0658668926963" y1="138.33090754103506" x2="432.96085849238295" y2="144.70211744954565" style="stroke-width:1;stroke:rgb(0,0,0);fill:none"/><line x1="409.37907179052087" y1="143.60020669441698" x2="404.21937006541333" y2="139.84102727593137" style="stroke-width:1;stroke:rgb(0,0,0);fill:none"/><line x1="404.21937006541333" y1="139.84102727593137" x2="435.6937251444588" y2="139.568258794855" style="stroke-width:1;stroke:rgb(0,0,0);fill:none"/><line x1="435.6937251444588" y1="139.568258794855" x2="440.8534268695665" y2="143.3274382133406" style="stroke-width:1;stroke:rgb(0,0,0);fill:none"/><line x1="440.8534268695665" y1="143.3274382133406" x2="409.37907179052087" y2="143.60020669441698" style="stroke-width:1;stroke:rgb(0,0,0);fill:none"/><line x1="389.91975756724656" y1="139.16198601655702" x2="390.26549269378825" y2="135.78749470919985" style="stroke-width:1;stroke:rgb(0,0,0);fill:none"/><line x1="390.26549269378825" y1="135.78749470919985" x2="418.51898256358" y2="140.5200685353057" style="stroke-width:1;stroke:rgb(0,0,0);fill:none"/><line x1="418.51898256358" y1="140.5200685353057" x2="418.17324743703847" y2="143.8945598426629" style="stroke-width:1;stroke:rgb(0,0,0);fill:none"/><line x1="418.17324743703847" y1="143.8945598426629" x2="389.91975756724656" y2="139.16198601655702" style="stroke-width:1;stroke:rgb(0,0,0);fill:none"/><line x1="378.4798915786867" y1="133.0888103399363" x2="383.20187627424133" y2="130.83753019669416" style="stroke-width:1;stroke:rgb(0,0,0);fill:none"/><line x1="383.20187627424133" y1="130.83753019669416" x2="402.0510938088896" y2="138.4861790784634" style="stroke-width:1;stroke:rgb(0,0,0);fill:none"/><line x1="402.0510938088896" y1="138.4861790784634" x2="397.3291091133351" y2="140.73745922170556" style="stroke-width:1;stroke:rgb(0,0,0);fill:none"/><line x1="397.3291091133351" y1="140.73745922170556" x2="378.4798915786867" y2="133.0888103399363" style="stroke-width:1;stroke:rgb(0,0,0);fill:none"/><line x1="376.2872313069717" y1="127.15200739387726" x2="383.4182727787855" y2="126.35199361447683" style="stroke-width:1;stroke:rgb(0,0,0);fill:none"/><line x1="383.4182727787855" y1="126.35199361447683" x2="390.1165212415108" y2="134.52305299951107" style="stroke-width:1;stroke:rgb(0,0,0);fill:none"/><line x1="390.1165212415108" y1="134.52305299951107" x2="382.9854797696971" y2="135.32306677891154" style="stroke-width:1;stroke:rgb(0,0,0);fill:none"/><line x1="382.9854797696971" y1="135.32306677891154" x2="376.2872313069717" y2="127.15200739387726" style="stroke-width:1;stroke:rgb(0,0,0);fill:none"/><line x1="382.1121740628514" y1="122.75355303196613" x2="389.47943327369705" y2="123.32147985138053" style="stroke-width:1;stroke:rgb(0,0,0);fill:none"/><line x1="389.47943327369705" y1="123.32147985138053" x2="384.72437149471943" y2="129.9504341969875" style="stroke-width:1;stroke:rgb(0,0,0);fill:none"/><line x1="384.72437149471943" y1="129.9504341969875" x2="377.3571122838738" y2="129.38250737757312" style="stroke-width:1;stroke:rgb(0,0,0);fill:none"/><line x1="377.3571122838738" y1="129.38250737757312" x2="382.1121740628514" y2="122.75355303196613" style="stroke-width:1;stroke:rgb(0,0,0);fill:none"/></svg>