<?xml version="1.0"?><!DOCTYPE svg PUBLIC "-//W3C//DTD util.SVG 1.0//EN" "http://www.w3.org/TR/2001/REC-util.SVG-20010904/DTD/svg10.dtd"><svg xmlns="http://www.w3.org/2000/svg" height="5000" width="5000" text-rendering="auto" shape-rendering="auto"><line x1="2460.0" y1="2960.0" x2="2540.0" y2="2960.0" style="stroke-width:1;stroke:rgb(0,0,0);fill:none"/><line x1="2540.0" y1="2960.0" x2="2540.0" y2="3040.0" style="stroke-width:1;stroke:rgb(0,0,0);fill:none"/><line x1="2540.0" y1="3040.0" x2="2460.0" y2="3040.0" style="stroke-width:1;stroke:rgb(0,0,0);fill:none"/><line x1="2460.0" y1="3040.0" x2="2460.0" y2="2960.0" style="stroke-width:1;stroke:rgb(0,0,0);fill:none"/><line x1="2453.604638379091" y1="2993.7024109917493" x2="2536.2975890082507" y2="2963.604638379091" style="stroke-width:1;stroke:rgb(0,0,0);fill:none"/><line x1="2536.2975890082507" y1="2963.604638379091" x2="2566.395361620909" y2="3046.2975890082507" style="stroke-width:1;stroke:rgb(0,0,0);fill:none"/><line x1="2566.395361620909" y1="3046.2975890082507" x2="2483.7024109917493" y2="3076.395361620909" style="stroke-width:1;stroke:rgb(0,0,0);fill:none"/><line x1="2483.7024109917493" y1="3076.395361620909" x2="2453.604638379091" y2="2993.7024109917493" style="stroke-width:1;stroke:rgb(0,0,0);fill:none"/><line x1="2459.673590626023" y1="3030.9453853425775" x2="2533.8266927199397" y2="2968.7235447249204" style="stroke-width:1;stroke:rgb(0,0,0);fill:none"/><line x1="2533.8266927199397" y1="2968.7235447249204" x2="2596.048533337597" y2="3042.876646818838" style="stroke-width:1;stroke:rgb(0,0,0);fill:none"/><line x1="2596.048533337597" y1="3042.876646818838" x2="2521.8954312436795" y2="3105.098487436495" style="stroke-width:1;stroke:rgb(0,0,0);fill:none"/><line x1="2521.8954312436795" y1="3105.098487436495" x2="2459.673590626023" y2="3030.9453853425775" style="stroke-width:1;stroke:rgb(0,0,0);fill:none"/><line x1="2479.95846740048" y1="3067.158754024463" x2="2533.1984674004802" y2="2974.944369029496" style="stroke-width:1;stroke:rgb(0,0,0);fill:none"/><line x1="2533.1984674004802" y1="2974.944369029496" x2="2625.4128523954473" y2="3028.1843690294963" style="stroke-width:1;stroke:rgb(0,0,0);fill:none"/><line x1="2625.4128523954473" y1="3028.1843690294963" x2="2572.172852395447" y2="3120.3987540244634" style="stroke-width:1;stroke:rgb(0,0,0);fill:none"/><line x1="2572.172852395447" y1="3120.3987540244634" x2="2479.95846740048" y2="3067.158754024463" style="stroke-width:1;stroke:rgb(0,0,0);fill:none"/><line x1="2514.5504430224123" y1="3096.95951277313" x2="2534.8895067761846" y2="2981.6109502783156" style="stroke-width:1;stroke:rgb(0,0,0);fill:none"/><line x1="2534.8895067761846" y1="2981.6109502783156" x2="2650.2380692709985" y2="3001.950014032088" style="stroke-width:1;stroke:rgb(0,0,0);fill:none"/><line x1="2650.2380692709985" y1="3001.950014032088" x2="2629.899005517226" y2="3117.2985765269023" style="stroke-width:1;stroke:rgb(0,0,0);fill:none"/><line x1="2629.899005517226" y1="3117.2985765269023" x2="2514.5504430224123" y2="3096.95951277313" style="stroke-width:1;stroke:rgb(0,0,0);fill:none"/><line x1="2561.5185554320574" y1="3114.7491534659225" x2="2539.145585302908" y2="2987.865734721627" style="stroke-width:1;stroke:rgb(0,0,0);fill:none"/><line x1="2539.145585302908" y1="2987.865734721627" x2="2666.0290040472037" y2="2965.4927645924777" style="stroke-width:1;stroke:rgb(0,0,0);fill:none"/><line x1="2666.0290040472037" y1="2965.4927645924777" x2="2688.4019741763527" y2="3092.3761833367735" style="stroke-width:1;stroke:rgb(0,0,0);fill:none"/><line x1="2688.4019741763527" y1="3092.3761833367735" x2="2561.5185554320574" y2="3114.7491534659225" style="stroke-width:1;stroke:rgb(0,0,0);fill:none"/><line x1="2616.76055994541" y1="3115.4671823680264" x2="2545.89811994541" y2="2992.7298359397255" style="stroke-width:1;stroke:rgb(0,0,0);fill:none"/><line x1="2545.89811994541" y1="2992.7298359397255" x2="2668.635466373711" y2="2921.867395939725" style="stroke-width:1;stroke:rgb(0,0,0);fill:none"/><line x1="2668.635466373711" y1="2921.867395939725" x2="2739.4979063737114" y2="3044.6047423680266" style="stroke-width:1;stroke:rgb(0,0,0);fill:none"/><line x1="2739.4979063737114" y1="3044.6047423680266" x2="2616.76055994541" y2="3115.4671823680264" style="stroke-width:1;stroke:rgb(0,0,0);fill:none"/><line x1="2674.1322527267016" y1="3095.426115343547" x2="2554.707940273427" y2="2995.217218810404" style="stroke-width:1;stroke:rgb(0,0,0);fill:none"/><line x1="2554.707940273427" y1="2995.217218810404" x2="2654.9168368065702" y2="2875.7929063571296" style="stroke-width:1;stroke:rgb(0,0,0);fill:none"/><line x1="2654.9168368065702" y1="2875.7929063571296" x2="2774.3411492598448" y2="2976.0018028902723" style="stroke-width:1;stroke:rgb(0,0,0);fill:none"/><line x1="2774.3411492598448" y1="2976.0018028902723" x2="2674.1322527267016" y2="3095.426115343547" style="stroke-width:1;stroke:rgb(0,0,0);fill:none"/><line x1="2725.895291232412" y1="3053.125926221727" x2="2564.7501242919125" y2="2994.4738820595267" style="stroke-width:1;stroke:rgb(0,0,0);fill:none"/><line x1="2564.7501242919125" y1="2994.4738820595267" x2="2623.4021684541126" y2="2833.3287151190266" style="stroke-width:1;stroke:rgb(0,0,0);fill:none"/><line x1="2623.4021684541126" y1="2833.3287151190266" x2="2784.547335394612" y2="2891.9807592812267" style="stroke-width:1;stroke:rgb(0,0,0);fill:none"/><line x1="2784.547335394612" y1="2891.9807592812267" x2="2725.895291232412" y2="3053.125926221727" style="stroke-width:1;stroke:rgb(0,0,0);fill:none"/><line x1="2763.48650265625" y1="2989.9274310549768" x2="2574.8506873762494" y2="2989.9274310549768" style="stroke-width:1;stroke:rgb(0,0,0);fill:none"/><line x1="2574.8506873762494" y1="2989.9274310549768" x2="2574.85068737625" y2="2801.2916157749764" style="stroke-width:1;stroke:rgb(0,0,0);fill:none"/><line x1="2574.85068737625" y1="2801.2916157749764" x2="2763.48650265625" y2="2801.2916157749764" style="stroke-width:1;stroke:rgb(0,0,0);fill:none"/><line x1="2763.48650265625" y1="2801.2916157749764" x2="2763.48650265625" y2="2989.9274310549768" style="stroke-width:1;stroke:rgb(0,0,0);fill:none"/><line x1="2778.5664308233836" y1="2910.458908875848" x2="2583.5807788253783" y2="2981.4278823121103" style="stroke-width:1;stroke:rgb(0,0,0);fill:none"/><line x1="2583.5807788253783" y1="2981.4278823121103" x2="2512.6118053891164" y2="2786.442230314105" style="stroke-width:1;stroke:rgb(0,0,0);fill:none"/><line x1="2512.6118053891164" y1="2786.442230314105" x2="2707.5974573871213" y2="2715.473256877843" style="stroke-width:1;stroke:rgb(0,0,0);fill:none"/><line x1="2707.5974573871213" y1="2715.473256877843" x2="2778.5664308233836" y2="2910.458908875848" style="stroke-width:1;stroke:rgb(0,0,0);fill:none"/><line x1="2764.2561588859407" y1="2822.6419234993405" x2="2589.4070230231014" y2="2969.357768913515" style="stroke-width:1;stroke:rgb(0,0,0);fill:none"/><line x1="2589.4070230231014" y1="2969.357768913515" x2="2442.6911776089264" y2="2794.5086330506756" style="stroke-width:1;stroke:rgb(0,0,0);fill:none"/><line x1="2442.6911776089264" y1="2794.5086330506756" x2="2617.5403134717662" y2="2647.792787636501" style="stroke-width:1;stroke:rgb(0,0,0);fill:none"/><line x1="2617.5403134717662" y1="2647.792787636501" x2="2764.2561588859407" y2="2822.6419234993405" style="stroke-width:1;stroke:rgb(0,0,0);fill:none"/><line x1="2716.4254805333894" y1="2737.2526944325564" x2="2590.888345464549" y2="2954.689390608424" style="stroke-width:1;stroke:rgb(0,0,0);fill:none"/><line x1="2590.888345464549" y1="2954.689390608424" x2="2373.451649288681" y2="2829.152255539584" style="stroke-width:1;stroke:rgb(0,0,0);fill:none"/><line x1="2373.451649288681" y1="2829.152255539584" x2="2498.988784357521" y2="2611.715559363716" style="stroke-width:1;stroke:rgb(0,0,0);fill:none"/><line x1="2498.988784357521" y1="2611.715559363716" x2="2716.4254805333894" y2="2737.2526944325564" style="stroke-width:1;stroke:rgb(0,0,0);fill:none"/><line x1="2634.859411488526" y1="2666.98406415109" x2="2586.9009630732166" y2="2938.969940745906" style="stroke-width:1;stroke:rgb(0,0,0);fill:none"/><line x1="2586.9009630732166" y1="2938.969940745906" x2="2314.9150864784" y2="2891.011492330597" style="stroke-width:1;stroke:rgb(0,0,0);fill:none"/><line x1="2314.9150864784" y1="2891.011492330597" x2="2362.8735348937093" y2="2619.025615735781" style="stroke-width:1;stroke:rgb(0,0,0);fill:none"/><line x1="2362.8735348937093" y1="2619.025615735781" x2="2634.859411488526" y2="2666.98406415109" style="stroke-width:1;stroke:rgb(0,0,0);fill:none"/><line x1="2524.1110592815744" y1="2625.0370219557994" x2="2576.8653525384143" y2="2924.2214862100973" style="stroke-width:1;stroke:rgb(0,0,0);fill:none"/><line x1="2576.8653525384143" y1="2924.2214862100973" x2="2277.680888284116" y2="2976.975779466937" style="stroke-width:1;stroke:rgb(0,0,0);fill:none"/><line x1="2277.680888284116" y1="2976.975779466937" x2="2224.9265950272766" y2="2677.7913152126393" style="stroke-width:1;stroke:rgb(0,0,0);fill:none"/><line x1="2224.9265950272766" y1="2677.7913152126393" x2="2524.1110592815744" y2="2625.0370219557994" style="stroke-width:1;stroke:rgb(0,0,0);fill:none"/><line x1="2393.853302293103" y1="2623.343947364012" x2="2560.943229069729" y2="2912.7521899740927" style="stroke-width:1;stroke:rgb(0,0,0);fill:none"/><line x1="2560.943229069729" y1="2912.7521899740927" x2="2271.5349864596483" y2="3079.842116750719" style="stroke-width:1;stroke:rgb(0,0,0);fill:none"/><line x1="2271.5349864596483" y1="3079.842116750719" x2="2104.445059683022" y2="2790.433874140638" style="stroke-width:1;stroke:rgb(0,0,0);fill:none"/><line x1="2104.445059683022" y1="2790.433874140638" x2="2393.853302293103" y2="2623.343947364012" style="stroke-width:1;stroke:rgb(0,0,0);fill:none"/><line x1="2258.5738517706945" y1="2670.5997350795597" x2="2540.170133569156" y2="2906.887071277543" style="stroke-width:1;stroke:rgb(0,0,0);fill:none"/><line x1="2540.170133569156" y1="2906.887071277543" x2="2303.882797371173" y2="3188.4833530760043" style="stroke-width:1;stroke:rgb(0,0,0);fill:none"/><line x1="2303.882797371173" y1="3188.4833530760043" x2="2022.2865155727118" y2="2952.1960168780215" style="stroke-width:1;stroke:rgb(0,0,0);fill:none"/><line x1="2022.2865155727118" y1="2952.1960168780215" x2="2258.5738517706945" y2="2670.5997350795597" style="stroke-width:1;stroke:rgb(0,0,0);fill:none"/><line x1="2136.51931464701" y1="2770.3413683482195" x2="2516.491188950172" y2="2908.6398204529096" style="stroke-width:1;stroke:rgb(0,0,0);fill:none"/><line x1="2516.491188950172" y1="2908.6398204529096" x2="2378.1927368454817" y2="3288.6116947560718" style="stroke-width:1;stroke:rgb(0,0,0);fill:none"/><line x1="2378.1927368454817" y1="3288.6116947560718" x2="1998.2208625423198" y2="3150.313242651381" style="stroke-width:1;stroke:rgb(0,0,0);fill:none"/><line x1="1998.2208625423198" y1="3150.313242651381" x2="2136.51931464701" y2="2770.3413683482195" style="stroke-width:1;stroke:rgb(0,0,0);fill:none"/><line x1="2047.8812044682786" y1="2919.360114101332" x2="2492.674589547659" y2="2919.3601141013323" style="stroke-width:1;stroke:rgb(0,0,0);fill:none"/><line x1="2492.674589547659" y1="2919.3601141013323" x2="2492.6745895476583" y2="3364.1534991807125" style="stroke-width:1;stroke:rgb(0,0,0);fill:none"/><line x1="2492.6745895476583" y1="3364.1534991807125" x2="2047.8812044682784" y2="3364.153499180712" style="stroke-width:1;stroke:rgb(0,0,0);fill:none"/><line x1="2047.8812044682784" y1="3364.153499180712" x2="2047.8812044682786" y2="2919.360114101332" style="stroke-width:1;stroke:rgb(0,0,0);fill:none"/><line x1="2012.3235226661404" y1="3106.7427324807913" x2="2472.089490572967" y2="2939.401605434117" style="stroke-width:1;stroke:rgb(0,0,0);fill:none"/><line x1="2472.089490572967" y1="2939.401605434117" x2="2639.4306176196415" y2="3399.1675733409434" style="stroke-width:1;stroke:rgb(0,0,0);fill:none"/><line x1="2639.4306176196415" y1="3399.1675733409434" x2="2179.664649712815" y2="3566.508700387618" style="stroke-width:1;stroke:rgb(0,0,0);fill:none"/><line x1="2179.664649712815" y1="3566.508700387618" x2="2012.3235226661404" y2="3106.7427324807913" style="stroke-width:1;stroke:rgb(0,0,0);fill:none"/><line x1="2046.0663953386156" y1="3313.8105903799083" x2="2458.3515115197442" y2="2967.862301452442" style="stroke-width:1;stroke:rgb(0,0,0);fill:none"/><line x1="2458.3515115197442" y1="2967.862301452442" x2="2804.2998004472106" y2="3380.1474176335705" style="stroke-width:1;stroke:rgb(0,0,0);fill:none"/><line x1="2804.2998004472106" y1="3380.1474176335705" x2="2392.014684266082" y2="3726.095706561037" style="stroke-width:1;stroke:rgb(0,0,0);fill:none"/><line x1="2392.014684266082" y1="3726.095706561037" x2="2046.0663953386156" y2="3313.8105903799083" style="stroke-width:1;stroke:rgb(0,0,0);fill:none"/><line x1="2158.848632918978" y1="3515.153925894203" x2="2454.858630689306" y2="3002.4495702076456" style="stroke-width:1;stroke:rgb(0,0,0);fill:none"/><line x1="2454.858630689306" y1="3002.4495702076456" x2="2967.5629863758636" y2="3298.459567977974" style="stroke-width:1;stroke:rgb(0,0,0);fill:none"/><line x1="2967.5629863758636" y1="3298.459567977974" x2="2671.552988605535" y2="3811.163923664531" style="stroke-width:1;stroke:rgb(0,0,0);fill:none"/><line x1="2671.552988605535" y1="3811.163923664531" x2="2158.848632918978" y2="3515.153925894203" style="stroke-width:1;stroke:rgb(0,0,0);fill:none"/><line x1="2351.1771570872606" y1="3680.8436804161192" x2="2464.2606697920824" y2="3039.5152107147605" style="stroke-width:1;stroke:rgb(0,0,0);fill:none"/><line x1="2464.2606697920824" y1="3039.5152107147605" x2="3105.5891394934415" y2="3152.598723419582" style="stroke-width:1;stroke:rgb(0,0,0);fill:none"/><line x1="3105.5891394934415" y1="3152.598723419582" x2="2992.50562678862" y2="3793.927193120941" style="stroke-width:1;stroke:rgb(0,0,0);fill:none"/><line x1="2992.50562678862" y1="3793.927193120941" x2="2351.1771570872606" y2="3680.8436804161192" style="stroke-width:1;stroke:rgb(0,0,0);fill:none"/><line x1="2612.315978455697" y1="3779.752611704785" x2="2487.9241144803946" y2="3074.2912950332898" style="stroke-width:1;stroke:rgb(0,0,0);fill:none"/><line x1="2487.9241144803946" y1="3074.2912950332898" x2="3193.3854311518903" y2="2949.8994310579874" style="stroke-width:1;stroke:rgb(0,0,0);fill:none"/><line x1="3193.3854311518903" y1="2949.8994310579874" x2="3317.7772951271922" y2="3655.3607477294827" style="stroke-width:1;stroke:rgb(0,0,0);fill:none"/><line x1="3317.7772951271922" y1="3655.3607477294827" x2="2612.315978455697" y2="3779.752611704785" style="stroke-width:1;stroke:rgb(0,0,0);fill:none"/><line x1="2919.456955781503" y1="3783.744793029181" x2="2525.4676487491975" y2="3101.335295610372" style="stroke-width:1;stroke:rgb(0,0,0);fill:none"/><line x1="2525.4676487491975" y1="3101.335295610372" x2="3207.877146168006" y2="2707.345988578066" style="stroke-width:1;stroke:rgb(0,0,0);fill:none"/><line x1="3207.877146168006" y1="2707.345988578066" x2="3601.8664532003118" y2="3389.755485996875" style="stroke-width:1;stroke:rgb(0,0,0);fill:none"/><line x1="3601.8664532003118" y1="3389.755485996875" x2="2919.456955781503" y2="3783.744793029181" style="stroke-width:1;stroke:rgb(0,0,0);fill:none"/><line x1="3238.438823780565" y1="3672.3181174989186" x2="2574.449521319696" y2="3115.1649386983427" style="stroke-width:1;stroke:rgb(0,0,0);fill:none"/><line x1="2574.449521319696" y1="3115.1649386983427" x2="3131.602700120272" y2="2451.1756362374736" style="stroke-width:1;stroke:rgb(0,0,0);fill:none"/><line x1="3131.602700120272" y1="2451.1756362374736" x2="3795.592002581141" y2="3008.3288150380495" style="stroke-width:1;stroke:rgb(0,0,0);fill:none"/><line x1="3795.592002581141" y1="3008.3288150380495" x2="3238.438823780565" y2="3672.3181174989186" style="stroke-width:1;stroke:rgb(0,0,0);fill:none"/><line x1="3526.2370377674315" y1="3437.132563636514" x2="2630.2832341093467" y2="3111.0320478273848" style="stroke-width:1;stroke:rgb(0,0,0);fill:none"/><line x1="2630.2832341093467" y1="3111.0320478273848" x2="2956.383749918476" y2="2215.0782441692995" style="stroke-width:1;stroke:rgb(0,0,0);fill:none"/><line x1="2956.383749918476" y1="2215.0782441692995" x2="3852.337553576561" y2="2541.1787599784293" style="stroke-width:1;stroke:rgb(0,0,0);fill:none"/><line x1="3852.337553576561" y1="2541.1787599784293" x2="3526.2370377674315" y2="3437.132563636514" style="stroke-width:1;stroke:rgb(0,0,0);fill:none"/><line x1="3735.2410649979747" y1="3085.754156172245" x2="2686.441529677975" y2="3085.754156172244" style="stroke-width:1;stroke:rgb(0,0,0);fill:none"/><line x1="2686.441529677975" y1="3085.754156172244" x2="2686.441529677976" y2="2036.9546208522434" style="stroke-width:1;stroke:rgb(0,0,0);fill:none"/><line x1="2686.441529677976" y1="2036.9546208522434" x2="3735.241064997976" y2="2036.9546208522452" style="stroke-width:1;stroke:rgb(0,0,0);fill:none"/><line x1="3735.241064997976" y1="2036.9546208522452" x2="3735.2410649979747" y2="3085.754156172245" style="stroke-width:1;stroke:rgb(0,0,0);fill:none"/><line x1="3819.0842187006397" y1="2643.9157438308644" x2="2734.980116274356" y2="3038.4973679599084" style="stroke-width:1;stroke:rgb(0,0,0);fill:none"/><line x1="2734.980116274356" y1="3038.4973679599084" x2="2340.3984921453116" y2="1954.3932655336241" style="stroke-width:1;stroke:rgb(0,0,0);fill:none"/><line x1="2340.3984921453116" y1="1954.3932655336241" x2="3424.5025945715956" y2="1559.8116414045805" style="stroke-width:1;stroke:rgb(0,0,0);fill:none"/><line x1="3424.5025945715956" y1="1559.8116414045805" x2="3819.0842187006397" y2="2643.9157438308644" style="stroke-width:1;stroke:rgb(0,0,0);fill:none"/><line x1="3739.52028999487" y1="2155.660566417324" x2="2767.3735522619095" y2="2971.3885354992453" style="stroke-width:1;stroke:rgb(0,0,0);fill:none"/><line x1="2767.3735522619095" y1="2971.3885354992453" x2="1951.6455831799876" y2="1999.241797766284" style="stroke-width:1;stroke:rgb(0,0,0);fill:none"/><line x1="1951.6455831799876" y1="1999.241797766284" x2="2923.792320912949" y2="1183.513828684363" style="stroke-width:1;stroke:rgb(0,0,0);fill:none"/><line x1="2923.792320912949" y1="1183.513828684363" x2="3739.52028999487" y2="2155.660566417324" style="stroke-width:1;stroke:rgb(0,0,0);fill:none"/><line x1="3473.585673306441" y1="1680.9035133431541" x2="2775.609582550979" y2="2889.8335649999162" style="stroke-width:1;stroke:rgb(0,0,0);fill:none"/><line x1="2775.609582550979" y1="2889.8335649999162" x2="1566.679530894216" y2="2191.857474244454" style="stroke-width:1;stroke:rgb(0,0,0);fill:none"/><line x1="1566.679530894216" y1="2191.857474244454" x2="2264.655621649679" y2="982.927422587692" style="stroke-width:1;stroke:rgb(0,0,0);fill:none"/><line x1="2264.655621649679" y1="982.927422587692" x2="3473.585673306441" y2="1680.9035133431541" style="stroke-width:1;stroke:rgb(0,0,0);fill:none"/><line x1="3020.0850738304007" y1="1290.2157392458432" x2="2753.4400661578966" y2="2802.434723550729" style="stroke-width:1;stroke:rgb(0,0,0);fill:none"/><line x1="2753.4400661578966" y1="2802.434723550729" x2="1241.2210818530095" y2="2535.789715878225" style="stroke-width:1;stroke:rgb(0,0,0);fill:none"/><line x1="1241.2210818530095" y1="2535.789715878225" x2="1507.8660895255148" y2="1023.5707315733389" style="stroke-width:1;stroke:rgb(0,0,0);fill:none"/><line x1="1507.8660895255148" y1="1023.5707315733389" x2="3020.0850738304007" y2="1290.2157392458432" style="stroke-width:1;stroke:rgb(0,0,0);fill:none"/><line x1="2404.3333929542337" y1="1056.993653094456" x2="2697.642901393984" y2="2720.4345358298315" style="stroke-width:1;stroke:rgb(0,0,0);fill:none"/><line x1="2697.642901393984" y1="2720.4345358298315" x2="1034.2020186586074" y2="3013.744044269582" style="stroke-width:1;stroke:rgb(0,0,0);fill:none"/><line x1="1034.2020186586074" y1="3013.744044269582" x2="740.8925102188582" y2="1350.3031615342059" style="stroke-width:1;stroke:rgb(0,0,0);fill:none"/><line x1="740.8925102188582" y1="1350.3031615342059" x2="2404.3333929542337" y2="1056.993653094456" style="stroke-width:1;stroke:rgb(0,0,0);fill:none"/><line x1="1680.111034657365" y1="1047.5802983585436" x2="2609.1172114528813" y2="2656.6661971136973" style="stroke-width:1;stroke:rgb(0,0,0);fill:none"/><line x1="2609.1172114528813" y1="2656.6661971136973" x2="1000.0313126977262" y2="3585.672373909214" style="stroke-width:1;stroke:rgb(0,0,0);fill:none"/><line x1="1000.0313126977262" y1="3585.672373909214" x2="71.02513590221088" y2="1976.5864751540591" style="stroke-width:1;stroke:rgb(0,0,0);fill:none"/><line x1="71.02513590221088" y1="1976.5864751540591" x2="1680.111034657365" y2="1047.5802983585436" style="stroke-width:1;stroke:rgb(0,0,0);fill:none"/><line x1="927.9684755381081" y1="1310.3185706409324" x2="2493.620518124417" y2="2624.0566221270624" style="stroke-width:1;stroke:rgb(0,0,0);fill:none"/><line x1="2493.620518124417" y1="2624.0566221270624" x2="1179.8824666382855" y2="4189.708664713372" style="stroke-width:1;stroke:rgb(0,0,0);fill:none"/><line x1="1179.8824666382855" y1="4189.708664713372" x2="-385.7695759480225" y2="2875.9706132272404" style="stroke-width:1;stroke:rgb(0,0,0);fill:none"/><line x1="-385.7695759480225" y1="2875.9706132272404" x2="927.9684755381081" y2="1310.3185706409324" style="stroke-width:1;stroke:rgb(0,0,0);fill:none"/><line x1="249.35534139385118" y1="1864.8738043273459" x2="2361.9675439721027" y2="2633.801762613393" style="stroke-width:1;stroke:rgb(0,0,0);fill:none"/><line x1="2361.9675439721027" y1="2633.801762613393" x2="1593.0395856860548" y2="4746.413965191646" style="stroke-width:1;stroke:rgb(0,0,0);fill:none"/><line x1="1593.0395856860548" y1="4746.413965191646" x2="-519.5726168921965" y2="3977.4860069055967" style="stroke-width:1;stroke:rgb(0,0,0);fill:none"/><line x1="-519.5726168921965" y1="3977.4860069055967" x2="249.35534139385118" y2="1864.8738043273459" style="stroke-width:1;stroke:rgb(0,0,0);fill:none"/></svg>