<?xml version="1.0"?><!DOCTYPE svg PUBLIC "-//W3C//DTD util.SVG 1.0//EN" "http://www.w3.org/TR/2001/REC-util.SVG-20010904/DTD/svg10.dtd"><svg xmlns="http://www.w3.org/2000/svg" height="550" width="900" text-rendering="auto" shape-rendering="auto"><line x1="240.0" y1="60.0" x2="640.0" y2="60.0" style="stroke-width:1;stroke:rgb(0,0,0);fill:none"/><line x1="640.0" y1="60.0" x2="640.0" y2="460.0" style="stroke-width:1;stroke:rgb(0,0,0);fill:none"/><line x1="640.0" y1="460.0" x2="240.0" y2="460.0" style="stroke-width:1;stroke:rgb(0,0,0);fill:none"/><line x1="240.0" y1="460.0" x2="240.0" y2="60.0" style="stroke-width:1;stroke:rgb(0,0,0);fill:none"/><line x1="261.5448934240389" y1="74.64705109133786" x2="694.8603047494105" y2="130.21446794475554" style="stroke-width:1;stroke:rgb(0,0,0);fill:none"/><line x1="694.8603047494105" y1="130.21446794475554" x2="618.455106575961" y2="445.35294890866214" style="stroke-width:1;stroke:rgb(0,0,0);fill:none"/><line x1="618.455106575961" y1="445.35294890866214" x2="185.13969525058957" y2="389.78553205524446" style="stroke-width:1;stroke:rgb(0,0,0);fill:none"/><line x1="185.13969525058957" y1="389.78553205524446" x2="261.5448934240389" y2="74.64705109133786" style="stroke-width:1;stroke:rgb(0,0,0);fill:none"/><line x1="282.0864522108099" y1="89.17965985504028" x2="740.8779676993196" y2="193.15378342604356" style="stroke-width:1;stroke:rgb(0,0,0);fill:none"/><line x1="740.8779676993196" y1="193.15378342604356" x2="597.91354778919" y2="430.8203401449597" style="stroke-width:1;stroke:rgb(0,0,0);fill:none"/><line x1="597.91354778919" y1="430.8203401449597" x2="139.12203230068042" y2="326.84621657395644" style="stroke-width:1;stroke:rgb(0,0,0);fill:none"/><line x1="139.12203230068042" y1="326.84621657395644" x2="282.0864522108099" y2="89.17965985504028" style="stroke-width:1;stroke:rgb(0,0,0);fill:none"/><line x1="301.56297006677516" y1="103.48272388043887" x2="778.7061468921274" y2="249.13299075964073" style="stroke-width:1;stroke:rgb(0,0,0);fill:none"/><line x1="778.7061468921274" y1="249.13299075964073" x2="578.4370299332248" y2="416.51727611956113" style="stroke-width:1;stroke:rgb(0,0,0);fill:none"/><line x1="578.4370299332248" y1="416.51727611956113" x2="101.29385310787262" y2="270.86700924035927" style="stroke-width:1;stroke:rgb(0,0,0);fill:none"/><line x1="101.29385310787262" y1="270.86700924035927" x2="301.56297006677516" y2="103.48272388043887" style="stroke-width:1;stroke:rgb(0,0,0);fill:none"/><line x1="319.92958732826366" y1="117.45698802206152" x2="808.9922233838906" y2="298.49103217635553" style="stroke-width:1;stroke:rgb(0,0,0);fill:none"/><line x1="808.9922233838906" y1="298.49103217635553" x2="560.0704126717363" y2="402.5430119779385" style="stroke-width:1;stroke:rgb(0,0,0);fill:none"/><line x1="560.0704126717363" y1="402.5430119779385" x2="71.00777661610942" y2="221.50896782364447" style="stroke-width:1;stroke:rgb(0,0,0);fill:none"/><line x1="71.00777661610942" y1="221.50896782364447" x2="319.92958732826366" y2="117.45698802206152" style="stroke-width:1;stroke:rgb(0,0,0);fill:none"/><line x1="337.15666705888555" y1="131.01802265140066" x2="832.3727552752971" y2="341.584875258079" style="stroke-width:1;stroke:rgb(0,0,0);fill:none"/><line x1="832.3727552752971" y1="341.584875258079" x2="542.8433329411145" y2="388.98197734859934" style="stroke-width:1;stroke:rgb(0,0,0);fill:none"/><line x1="542.8433329411145" y1="388.98197734859934" x2="47.62724472470285" y2="178.41512474192098" style="stroke-width:1;stroke:rgb(0,0,0);fill:none"/><line x1="47.62724472470285" y1="178.41512474192098" x2="337.15666705888555" y2="131.01802265140066" style="stroke-width:1;stroke:rgb(0,0,0);fill:none"/><line x1="353.2282310616798" y1="144.09519308626915" x2="849.4691332073376" y2="378.7841852819183" style="stroke-width:1;stroke:rgb(0,0,0);fill:none"/><line x1="849.4691332073376" y1="378.7841852819183" x2="526.7717689383202" y2="375.90480691373085" style="stroke-width:1;stroke:rgb(0,0,0);fill:none"/><line x1="526.7717689383202" y1="375.90480691373085" x2="30.53086679266238" y2="141.2158147180817" style="stroke-width:1;stroke:rgb(0,0,0);fill:none"/><line x1="30.53086679266238" y1="141.2158147180817" x2="353.2282310616798" y2="144.09519308626915" style="stroke-width:1;stroke:rgb(0,0,0);fill:none"/><line x1="368.14046248140176" y1="156.6306303927197" x2="860.8838916611104" y2="410.4665243145468" style="stroke-width:1;stroke:rgb(0,0,0);fill:none"/><line x1="860.8838916611104" y1="410.4665243145468" x2="511.85953751859824" y2="363.3693696072803" style="stroke-width:1;stroke:rgb(0,0,0);fill:none"/><line x1="511.85953751859824" y1="363.3693696072803" x2="19.116108338889603" y2="109.5334756854532" style="stroke-width:1;stroke:rgb(0,0,0);fill:none"/><line x1="19.116108338889603" y1="109.5334756854532" x2="368.14046248140176" y2="156.6306303927197" style="stroke-width:1;stroke:rgb(0,0,0);fill:none"/><line x1="381.900280280966" y1="168.5782125189383" x2="867.1976300665851" y2="437.0130564080665" style="stroke-width:1;stroke:rgb(0,0,0);fill:none"/><line x1="867.1976300665851" y1="437.0130564080665" x2="498.099719719034" y2="351.4217874810617" style="stroke-width:1;stroke:rgb(0,0,0);fill:none"/><line x1="498.099719719034" y1="351.4217874810617" x2="12.802369933414809" y2="82.98694359193348" style="stroke-width:1;stroke:rgb(0,0,0);fill:none"/><line x1="12.802369933414809" y1="82.98694359193348" x2="381.900280280966" y2="168.5782125189383" style="stroke-width:1;stroke:rgb(0,0,0);fill:none"/><line x1="394.5239896047987" y1="179.90256355379705" x2="868.9664978384499" y2="458.80473623979617" style="stroke-width:1;stroke:rgb(0,0,0);fill:none"/><line x1="868.9664978384499" y1="458.80473623979617" x2="485.4760103952013" y2="340.09743644620295" style="stroke-width:1;stroke:rgb(0,0,0);fill:none"/><line x1="485.4760103952013" y1="340.09743644620295" x2="11.033502161550075" y2="61.19526376020386" style="stroke-width:1;stroke:rgb(0,0,0);fill:none"/><line x1="11.033502161550075" y1="61.19526376020386" x2="394.5239896047987" y2="179.90256355379705" style="stroke-width:1;stroke:rgb(0,0,0);fill:none"/><line x1="406.0360108875597" y1="190.57807780695015" x2="866.7201979636252" y2="476.2189569714483" style="stroke-width:1;stroke:rgb(0,0,0);fill:none"/><line x1="866.7201979636252" y1="476.2189569714483" x2="473.9639891124403" y2="329.42192219304985" style="stroke-width:1;stroke:rgb(0,0,0);fill:none"/><line x1="473.9639891124403" y1="329.42192219304985" x2="13.279802036374804" y2="43.78104302855172" style="stroke-width:1;stroke:rgb(0,0,0);fill:none"/><line x1="13.279802036374804" y1="43.78104302855172" x2="406.0360108875597" y2="190.57807780695015" style="stroke-width:1;stroke:rgb(0,0,0);fill:none"/><line x1="416.4676895255856" y1="200.5879743836796" x2="860.9604646129804" y2="489.6266319390004" style="stroke-width:1;stroke:rgb(0,0,0);fill:none"/><line x1="860.9604646129804" y1="489.6266319390004" x2="463.5323104744144" y2="319.4120256163204" style="stroke-width:1;stroke:rgb(0,0,0);fill:none"/><line x1="463.5323104744144" y1="319.4120256163204" x2="19.039535387019555" y2="30.37336806099958" style="stroke-width:1;stroke:rgb(0,0,0);fill:none"/><line x1="19.039535387019555" y1="30.37336806099958" x2="416.4676895255856" y2="200.5879743836796" style="stroke-width:1;stroke:rgb(0,0,0);fill:none"/><line x1="425.85618699610944" y1="209.9233869765706" x2="852.1599713907302" y2="499.38968398518136" style="stroke-width:1;stroke:rgb(0,0,0);fill:none"/><line x1="852.1599713907302" y1="499.38968398518136" x2="454.14381300389056" y2="310.0766130234294" style="stroke-width:1;stroke:rgb(0,0,0);fill:none"/><line x1="454.14381300389056" y1="310.0766130234294" x2="27.84002860926978" y2="20.610316014818665" style="stroke-width:1;stroke:rgb(0,0,0);fill:none"/><line x1="27.84002860926978" y1="20.610316014818665" x2="425.85618699610944" y2="209.9233869765706" style="stroke-width:1;stroke:rgb(0,0,0);fill:none"/><line x1="434.2434534810507" y1="218.58249271723778" x2="840.7616282236511" y2="505.8589157752027" style="stroke-width:1;stroke:rgb(0,0,0);fill:none"/><line x1="840.7616282236511" y1="505.8589157752027" x2="445.7565465189493" y2="301.41750728276224" style="stroke-width:1;stroke:rgb(0,0,0);fill:none"/><line x1="445.7565465189493" y1="301.41750728276224" x2="39.23837177634891" y2="14.141084224797254" style="stroke-width:1;stroke:rgb(0,0,0);fill:none"/><line x1="39.23837177634891" y1="14.141084224797254" x2="434.2434534810507" y2="218.58249271723778" style="stroke-width:1;stroke:rgb(0,0,0);fill:none"/><line x1="441.675281322794" y1="226.56968312386059" x2="827.1782264866081" y2="509.3722342579712" style="stroke-width:1;stroke:rgb(0,0,0);fill:none"/><line x1="827.1782264866081" y1="509.3722342579712" x2="438.324718677206" y2="293.43031687613944" style="stroke-width:1;stroke:rgb(0,0,0);fill:none"/><line x1="438.324718677206" y1="293.43031687613944" x2="52.82177351339192" y2="10.627765742028828" style="stroke-width:1;stroke:rgb(0,0,0);fill:none"/><line x1="52.82177351339192" y1="10.627765742028828" x2="441.675281322794" y2="226.56968312386059" style="stroke-width:1;stroke:rgb(0,0,0);fill:none"/><line x1="448.2004380034871" y1="233.89477944280452" x2="811.7923937220908" y2="510.25320251595207" style="stroke-width:1;stroke:rgb(0,0,0);fill:none"/><line x1="811.7923937220908" y1="510.25320251595207" x2="431.7995619965129" y2="286.1052205571955" style="stroke-width:1;stroke:rgb(0,0,0);fill:none"/><line x1="431.7995619965129" y1="286.1052205571955" x2="68.20760627790924" y2="9.746797484047931" style="stroke-width:1;stroke:rgb(0,0,0);fill:none"/><line x1="68.20760627790924" y1="9.746797484047931" x2="448.2004380034871" y2="233.89477944280452" style="stroke-width:1;stroke:rgb(0,0,0);fill:none"/></svg>