<?xml version="1.0"?><!DOCTYPE svg PUBLIC "-//W3C//DTD util.SVG 1.0//EN" "http://www.w3.org/TR/2001/REC-SVG-20010904/DTD/svg10.dtd"><svg xmlns="http://www.w3.org/2000/svg" width="2800" height="2800" text-rendering="auto" shape-rendering="auto"><line x1="0" y1="1400" x2="2800" y2="1400" style="stroke-width:1;stroke:rgb(0,0,0);fill:none"/><line x1="1400" y1="0" x2="1400" y2="2800" style="stroke-width:1;stroke:rgb(0,0,0);fill:none"/><line x1="0" y1="1400" x2="1400" y2="1350" style="stroke-width:1;stroke:rgb(0,0,0);fill:none"/><line x1="0" y1="1400" x2="1400" y2="1450" style="stroke-width:1;stroke:rgb(0,0,0);fill:none"/><line x1="2800" y1="1400" x2="1400" y2="1350" style="stroke-width:1;stroke:rgb(0,0,0);fill:none"/><line x1="2800" y1="1400" x2="1400" y2="1450" style="stroke-width:1;stroke:rgb(0,0,0);fill:none"/><line x1="50" y1="1400" x2="1400" y2="1300" style="stroke-width:1;stroke:rgb(0,0,0);fill:none"/><line x1="50" y1="1400" x2="1400" y2="1500" style="stroke-width:1;stroke:rgb(0,0,0);fill:none"/><line x1="2750" y1="1400" x2="1400" y2="1300" style="stroke-width:1;stroke:rgb(0,0,0);fill:none"/><line x1="2750" y1="1400" x2="1400" y2="1500" style="stroke-width:1;stroke:rgb(0,0,0);fill:none"/><line x1="100" y1="1400" x2="1400" y2="1250" style="stroke-width:1;stroke:rgb(0,0,0);fill:none"/><line x1="100" y1="1400" x2="1400" y2="1550" style="stroke-width:1;stroke:rgb(0,0,0);fill:none"/><line x1="2700" y1="1400" x2="1400" y2="1250" style="stroke-width:1;stroke:rgb(0,0,0);fill:none"/><line x1="2700" y1="1400" x2="1400" y2="1550" style="stroke-width:1;stroke:rgb(0,0,0);fill:none"/><line x1="150" y1="1400" x2="1400" y2="1200" style="stroke-width:1;stroke:rgb(0,0,0);fill:none"/><line x1="150" y1="1400" x2="1400" y2="1600" style="stroke-width:1;stroke:rgb(0,0,0);fill:none"/><line x1="2650" y1="1400" x2="1400" y2="1200" style="stroke-width:1;stroke:rgb(0,0,0);fill:none"/><line x1="2650" y1="1400" x2="1400" y2="1600" style="stroke-width:1;stroke:rgb(0,0,0);fill:none"/><line x1="200" y1="1400" x2="1400" y2="1150" style="stroke-width:1;stroke:rgb(0,0,0);fill:none"/><line x1="200" y1="1400" x2="1400" y2="1650" style="stroke-width:1;stroke:rgb(0,0,0);fill:none"/><line x1="2600" y1="1400" x2="1400" y2="1150" style="stroke-width:1;stroke:rgb(0,0,0);fill:none"/><line x1="2600" y1="1400" x2="1400" y2="1650" style="stroke-width:1;stroke:rgb(0,0,0);fill:none"/><line x1="250" y1="1400" x2="1400" y2="1100" style="stroke-width:1;stroke:rgb(0,0,0);fill:none"/><line x1="250" y1="1400" x2="1400" y2="1700" style="stroke-width:1;stroke:rgb(0,0,0);fill:none"/><line x1="2550" y1="1400" x2="1400" y2="1100" style="stroke-width:1;stroke:rgb(0,0,0);fill:none"/><line x1="2550" y1="1400" x2="1400" y2="1700" style="stroke-width:1;stroke:rgb(0,0,0);fill:none"/><line x1="300" y1="1400" x2="1400" y2="1050" style="stroke-width:1;stroke:rgb(0,0,0);fill:none"/><line x1="300" y1="1400" x2="1400" y2="1750" style="stroke-width:1;stroke:rgb(0,0,0);fill:none"/><line x1="2500" y1="1400" x2="1400" y2="1050" style="stroke-width:1;stroke:rgb(0,0,0);fill:none"/><line x1="2500" y1="1400" x2="1400" y2="1750" style="stroke-width:1;stroke:rgb(0,0,0);fill:none"/><line x1="350" y1="1400" x2="1400" y2="1000" style="stroke-width:1;stroke:rgb(0,0,0);fill:none"/><line x1="350" y1="1400" x2="1400" y2="1800" style="stroke-width:1;stroke:rgb(0,0,0);fill:none"/><line x1="2450" y1="1400" x2="1400" y2="1000" style="stroke-width:1;stroke:rgb(0,0,0);fill:none"/><line x1="2450" y1="1400" x2="1400" y2="1800" style="stroke-width:1;stroke:rgb(0,0,0);fill:none"/><line x1="400" y1="1400" x2="1400" y2="950" style="stroke-width:1;stroke:rgb(0,0,0);fill:none"/><line x1="400" y1="1400" x2="1400" y2="1850" style="stroke-width:1;stroke:rgb(0,0,0);fill:none"/><line x1="2400" y1="1400" x2="1400" y2="950" style="stroke-width:1;stroke:rgb(0,0,0);fill:none"/><line x1="2400" y1="1400" x2="1400" y2="1850" style="stroke-width:1;stroke:rgb(0,0,0);fill:none"/><line x1="450" y1="1400" x2="1400" y2="900" style="stroke-width:1;stroke:rgb(0,0,0);fill:none"/><line x1="450" y1="1400" x2="1400" y2="1900" style="stroke-width:1;stroke:rgb(0,0,0);fill:none"/><line x1="2350" y1="1400" x2="1400" y2="900" style="stroke-width:1;stroke:rgb(0,0,0);fill:none"/><line x1="2350" y1="1400" x2="1400" y2="1900" style="stroke-width:1;stroke:rgb(0,0,0);fill:none"/><line x1="500" y1="1400" x2="1400" y2="850" style="stroke-width:1;stroke:rgb(0,0,0);fill:none"/><line x1="500" y1="1400" x2="1400" y2="1950" style="stroke-width:1;stroke:rgb(0,0,0);fill:none"/><line x1="2300" y1="1400" x2="1400" y2="850" style="stroke-width:1;stroke:rgb(0,0,0);fill:none"/><line x1="2300" y1="1400" x2="1400" y2="1950" style="stroke-width:1;stroke:rgb(0,0,0);fill:none"/><line x1="550" y1="1400" x2="1400" y2="800" style="stroke-width:1;stroke:rgb(0,0,0);fill:none"/><line x1="550" y1="1400" x2="1400" y2="2000" style="stroke-width:1;stroke:rgb(0,0,0);fill:none"/><line x1="2250" y1="1400" x2="1400" y2="800" style="stroke-width:1;stroke:rgb(0,0,0);fill:none"/><line x1="2250" y1="1400" x2="1400" y2="2000" style="stroke-width:1;stroke:rgb(0,0,0);fill:none"/><line x1="600" y1="1400" x2="1400" y2="750" style="stroke-width:1;stroke:rgb(0,0,0);fill:none"/><line x1="600" y1="1400" x2="1400" y2="2050" style="stroke-width:1;stroke:rgb(0,0,0);fill:none"/><line x1="2200" y1="1400" x2="1400" y2="750" style="stroke-width:1;stroke:rgb(0,0,0);fill:none"/><line x1="2200" y1="1400" x2="1400" y2="2050" style="stroke-width:1;stroke:rgb(0,0,0);fill:none"/><line x1="650" y1="1400" x2="1400" y2="700" style="stroke-width:1;stroke:rgb(0,0,0);fill:none"/><line x1="650" y1="1400" x2="1400" y2="2100" style="stroke-width:1;stroke:rgb(0,0,0);fill:none"/><line x1="2150" y1="1400" x2="1400" y2="700" style="stroke-width:1;stroke:rgb(0,0,0);fill:none"/><line x1="2150" y1="1400" x2="1400" y2="2100" style="stroke-width:1;stroke:rgb(0,0,0);fill:none"/><line x1="700" y1="1400" x2="1400" y2="650" style="stroke-width:1;stroke:rgb(0,0,0);fill:none"/><line x1="700" y1="1400" x2="1400" y2="2150" style="stroke-width:1;stroke:rgb(0,0,0);fill:none"/><line x1="2100" y1="1400" x2="1400" y2="650" style="stroke-width:1;stroke:rgb(0,0,0);fill:none"/><line x1="2100" y1="1400" x2="1400" y2="2150" style="stroke-width:1;stroke:rgb(0,0,0);fill:none"/><line x1="750" y1="1400" x2="1400" y2="600" style="stroke-width:1;stroke:rgb(0,0,0);fill:none"/><line x1="750" y1="1400" x2="1400" y2="2200" style="stroke-width:1;stroke:rgb(0,0,0);fill:none"/><line x1="2050" y1="1400" x2="1400" y2="600" style="stroke-width:1;stroke:rgb(0,0,0);fill:none"/><line x1="2050" y1="1400" x2="1400" y2="2200" style="stroke-width:1;stroke:rgb(0,0,0);fill:none"/><line x1="800" y1="1400" x2="1400" y2="550" style="stroke-width:1;stroke:rgb(0,0,0);fill:none"/><line x1="800" y1="1400" x2="1400" y2="2250" style="stroke-width:1;stroke:rgb(0,0,0);fill:none"/><line x1="2000" y1="1400" x2="1400" y2="550" style="stroke-width:1;stroke:rgb(0,0,0);fill:none"/><line x1="2000" y1="1400" x2="1400" y2="2250" style="stroke-width:1;stroke:rgb(0,0,0);fill:none"/><line x1="850" y1="1400" x2="1400" y2="500" style="stroke-width:1;stroke:rgb(0,0,0);fill:none"/><line x1="850" y1="1400" x2="1400" y2="2300" style="stroke-width:1;stroke:rgb(0,0,0);fill:none"/><line x1="1950" y1="1400" x2="1400" y2="500" style="stroke-width:1;stroke:rgb(0,0,0);fill:none"/><line x1="1950" y1="1400" x2="1400" y2="2300" style="stroke-width:1;stroke:rgb(0,0,0);fill:none"/><line x1="900" y1="1400" x2="1400" y2="450" style="stroke-width:1;stroke:rgb(0,0,0);fill:none"/><line x1="900" y1="1400" x2="1400" y2="2350" style="stroke-width:1;stroke:rgb(0,0,0);fill:none"/><line x1="1900" y1="1400" x2="1400" y2="450" style="stroke-width:1;stroke:rgb(0,0,0);fill:none"/><line x1="1900" y1="1400" x2="1400" y2="2350" style="stroke-width:1;stroke:rgb(0,0,0);fill:none"/><line x1="950" y1="1400" x2="1400" y2="400" style="stroke-width:1;stroke:rgb(0,0,0);fill:none"/><line x1="950" y1="1400" x2="1400" y2="2400" style="stroke-width:1;stroke:rgb(0,0,0);fill:none"/><line x1="1850" y1="1400" x2="1400" y2="400" style="stroke-width:1;stroke:rgb(0,0,0);fill:none"/><line x1="1850" y1="1400" x2="1400" y2="2400" style="stroke-width:1;stroke:rgb(0,0,0);fill:none"/><line x1="1000" y1="1400" x2="1400" y2="350" style="stroke-width:1;stroke:rgb(0,0,0);fill:none"/><line x1="1000" y1="1400" x2="1400" y2="2450" style="stroke-width:1;stroke:rgb(0,0,0);fill:none"/><line x1="1800" y1="1400" x2="1400" y2="350" style="stroke-width:1;stroke:rgb(0,0,0);fill:none"/><line x1="1800" y1="1400" x2="1400" y2="2450" style="stroke-width:1;stroke:rgb(0,0,0);fill:none"/><line x1="1050" y1="1400" x2="1400" y2="300" style="stroke-width:1;stroke:rgb(0,0,0);fill:none"/><line x1="1050" y1="1400" x2="1400" y2="2500" style="stroke-width:1;stroke:rgb(0,0,0);fill:none"/><line x1="1750" y1="1400" x2="1400" y2="300" style="stroke-width:1;stroke:rgb(0,0,0);fill:none"/><line x1="1750" y1="1400" x2="1400" y2="2500" style="stroke-width:1;stroke:rgb(0,0,0);fill:none"/><line x1="1100" y1="1400" x2="1400" y2="250" style="stroke-width:1;stroke:rgb(0,0,0);fill:none"/><line x1="1100" y1="1400" x2="1400" y2="2550" style="stroke-width:1;stroke:rgb(0,0,0);fill:none"/><line x1="1700" y1="1400" x2="1400" y2="250" style="stroke-width:1;stroke:rgb(0,0,0);fill:none"/><line x1="1700" y1="1400" x2="1400" y2="2550" style="stroke-width:1;stroke:rgb(0,0,0);fill:none"/><line x1="1150" y1="1400" x2="1400" y2="200" style="stroke-width:1;stroke:rgb(0,0,0);fill:none"/><line x1="1150" y1="1400" x2="1400" y2="2600" style="stroke-width:1;stroke:rgb(0,0,0);fill:none"/><line x1="1650" y1="1400" x2="1400" y2="200" style="stroke-width:1;stroke:rgb(0,0,0);fill:none"/><line x1="1650" y1="1400" x2="1400" y2="2600" style="stroke-width:1;stroke:rgb(0,0,0);fill:none"/><line x1="1200" y1="1400" x2="1400" y2="150" style="stroke-width:1;stroke:rgb(0,0,0);fill:none"/><line x1="1200" y1="1400" x2="1400" y2="2650" style="stroke-width:1;stroke:rgb(0,0,0);fill:none"/><line x1="1600" y1="1400" x2="1400" y2="150" style="stroke-width:1;stroke:rgb(0,0,0);fill:none"/><line x1="1600" y1="1400" x2="1400" y2="2650" style="stroke-width:1;stroke:rgb(0,0,0);fill:none"/><line x1="1250" y1="1400" x2="1400" y2="100" style="stroke-width:1;stroke:rgb(0,0,0);fill:none"/><line x1="1250" y1="1400" x2="1400" y2="2700" style="stroke-width:1;stroke:rgb(0,0,0);fill:none"/><line x1="1550" y1="1400" x2="1400" y2="100" style="stroke-width:1;stroke:rgb(0,0,0);fill:none"/><line x1="1550" y1="1400" x2="1400" y2="2700" style="stroke-width:1;stroke:rgb(0,0,0);fill:none"/><line x1="1300" y1="1400" x2="1400" y2="50" style="stroke-width:1;stroke:rgb(0,0,0);fill:none"/><line x1="1300" y1="1400" x2="1400" y2="2750" style="stroke-width:1;stroke:rgb(0,0,0);fill:none"/><line x1="1500" y1="1400" x2="1400" y2="50" style="stroke-width:1;stroke:rgb(0,0,0);fill:none"/><line x1="1500" y1="1400" x2="1400" y2="2750" style="stroke-width:1;stroke:rgb(0,0,0);fill:none"/><line x1="1350" y1="1400" x2="1400" y2="0" style="stroke-width:1;stroke:rgb(0,0,0);fill:none"/><line x1="1350" y1="1400" x2="1400" y2="2800" style="stroke-width:1;stroke:rgb(0,0,0);fill:none"/><line x1="1450" y1="1400" x2="1400" y2="0" style="stroke-width:1;stroke:rgb(0,0,0);fill:none"/><line x1="1450" y1="1400" x2="1400" y2="2800" style="stroke-width:1;stroke:rgb(0,0,0);fill:none"/><line x1="1400" y1="1400" x2="1400" y2="-50" style="stroke-width:1;stroke:rgb(0,0,0);fill:none"/><line x1="1400" y1="1400" x2="1400" y2="2850" style="stroke-width:1;stroke:rgb(0,0,0);fill:none"/><line x1="1400" y1="1400" x2="1400" y2="-50" style="stroke-width:1;stroke:rgb(0,0,0);fill:none"/><line x1="1400" y1="1400" x2="1400" y2="2850" style="stroke-width:1;stroke:rgb(0,0,0);fill:none"/></svg>