<?xml version="1.0"?><!DOCTYPE svg PUBLIC "-//W3C//DTD util.SVG 1.0//EN" "http://www.w3.org/TR/2001/REC-util.SVG-20010904/DTD/svg10.dtd"><svg xmlns="http://www.w3.org/2000/svg" text-rendering="auto" shape-rendering="auto"><line x1="0.0" y1="0.0" x2="0.0" y2="1400.0" style="stroke-width:1;stroke:rgb(0,0,0);fill:none"/><line x1="1400.0" y1="1400.0" x2="0.0" y2="1400.0" style="stroke-width:1;stroke:rgb(0,0,0);fill:none"/><line x1="0.0" y1="0.0" x2="1400.0" y2="0.0" style="stroke-width:1;stroke:rgb(0,0,0);fill:none"/><line x1="1400.0" y1="1400.0" x2="1400.0" y2="0.0" style="stroke-width:1;stroke:rgb(0,0,0);fill:none"/><line x1="50.0" y1="0.0" x2="0.0" y2="1350.0" style="stroke-width:1;stroke:rgb(0,0,0);fill:none"/><line x1="1350.0" y1="1400.0" x2="0.0" y2="1350.0" style="stroke-width:1;stroke:rgb(0,0,0);fill:none"/><line x1="50.0" y1="0.0" x2="1400.0" y2="50.0" style="stroke-width:1;stroke:rgb(0,0,0);fill:none"/><line x1="1350.0" y1="1400.0" x2="1400.0" y2="50.0" style="stroke-width:1;stroke:rgb(0,0,0);fill:none"/><line x1="100.0" y1="0.0" x2="0.0" y2="1300.0" style="stroke-width:1;stroke:rgb(0,0,0);fill:none"/><line x1="1300.0" y1="1400.0" x2="0.0" y2="1300.0" style="stroke-width:1;stroke:rgb(0,0,0);fill:none"/><line x1="100.0" y1="0.0" x2="1400.0" y2="100.0" style="stroke-width:1;stroke:rgb(0,0,0);fill:none"/><line x1="1300.0" y1="1400.0" x2="1400.0" y2="100.0" style="stroke-width:1;stroke:rgb(0,0,0);fill:none"/><line x1="150.0" y1="0.0" x2="0.0" y2="1250.0" style="stroke-width:1;stroke:rgb(0,0,0);fill:none"/><line x1="1250.0" y1="1400.0" x2="0.0" y2="1250.0" style="stroke-width:1;stroke:rgb(0,0,0);fill:none"/><line x1="150.0" y1="0.0" x2="1400.0" y2="150.0" style="stroke-width:1;stroke:rgb(0,0,0);fill:none"/><line x1="1250.0" y1="1400.0" x2="1400.0" y2="150.0" style="stroke-width:1;stroke:rgb(0,0,0);fill:none"/><line x1="200.0" y1="0.0" x2="0.0" y2="1200.0" style="stroke-width:1;stroke:rgb(0,0,0);fill:none"/><line x1="1200.0" y1="1400.0" x2="0.0" y2="1200.0" style="stroke-width:1;stroke:rgb(0,0,0);fill:none"/><line x1="200.0" y1="0.0" x2="1400.0" y2="200.0" style="stroke-width:1;stroke:rgb(0,0,0);fill:none"/><line x1="1200.0" y1="1400.0" x2="1400.0" y2="200.0" style="stroke-width:1;stroke:rgb(0,0,0);fill:none"/><line x1="250.0" y1="0.0" x2="0.0" y2="1150.0" style="stroke-width:1;stroke:rgb(0,0,0);fill:none"/><line x1="1150.0" y1="1400.0" x2="0.0" y2="1150.0" style="stroke-width:1;stroke:rgb(0,0,0);fill:none"/><line x1="250.0" y1="0.0" x2="1400.0" y2="250.0" style="stroke-width:1;stroke:rgb(0,0,0);fill:none"/><line x1="1150.0" y1="1400.0" x2="1400.0" y2="250.0" style="stroke-width:1;stroke:rgb(0,0,0);fill:none"/><line x1="300.0" y1="0.0" x2="0.0" y2="1100.0" style="stroke-width:1;stroke:rgb(0,0,0);fill:none"/><line x1="1100.0" y1="1400.0" x2="0.0" y2="1100.0" style="stroke-width:1;stroke:rgb(0,0,0);fill:none"/><line x1="300.0" y1="0.0" x2="1400.0" y2="300.0" style="stroke-width:1;stroke:rgb(0,0,0);fill:none"/><line x1="1100.0" y1="1400.0" x2="1400.0" y2="300.0" style="stroke-width:1;stroke:rgb(0,0,0);fill:none"/><line x1="350.0" y1="0.0" x2="0.0" y2="1050.0" style="stroke-width:1;stroke:rgb(0,0,0);fill:none"/><line x1="1050.0" y1="1400.0" x2="0.0" y2="1050.0" style="stroke-width:1;stroke:rgb(0,0,0);fill:none"/><line x1="350.0" y1="0.0" x2="1400.0" y2="350.0" style="stroke-width:1;stroke:rgb(0,0,0);fill:none"/><line x1="1050.0" y1="1400.0" x2="1400.0" y2="350.0" style="stroke-width:1;stroke:rgb(0,0,0);fill:none"/><line x1="400.0" y1="0.0" x2="0.0" y2="1000.0" style="stroke-width:1;stroke:rgb(0,0,0);fill:none"/><line x1="1000.0" y1="1400.0" x2="0.0" y2="1000.0" style="stroke-width:1;stroke:rgb(0,0,0);fill:none"/><line x1="400.0" y1="0.0" x2="1400.0" y2="400.0" style="stroke-width:1;stroke:rgb(0,0,0);fill:none"/><line x1="1000.0" y1="1400.0" x2="1400.0" y2="400.0" style="stroke-width:1;stroke:rgb(0,0,0);fill:none"/><line x1="450.0" y1="0.0" x2="0.0" y2="950.0" style="stroke-width:1;stroke:rgb(0,0,0);fill:none"/><line x1="950.0" y1="1400.0" x2="0.0" y2="950.0" style="stroke-width:1;stroke:rgb(0,0,0);fill:none"/><line x1="450.0" y1="0.0" x2="1400.0" y2="450.0" style="stroke-width:1;stroke:rgb(0,0,0);fill:none"/><line x1="950.0" y1="1400.0" x2="1400.0" y2="450.0" style="stroke-width:1;stroke:rgb(0,0,0);fill:none"/><line x1="500.0" y1="0.0" x2="0.0" y2="900.0" style="stroke-width:1;stroke:rgb(0,0,0);fill:none"/><line x1="900.0" y1="1400.0" x2="0.0" y2="900.0" style="stroke-width:1;stroke:rgb(0,0,0);fill:none"/><line x1="500.0" y1="0.0" x2="1400.0" y2="500.0" style="stroke-width:1;stroke:rgb(0,0,0);fill:none"/><line x1="900.0" y1="1400.0" x2="1400.0" y2="500.0" style="stroke-width:1;stroke:rgb(0,0,0);fill:none"/><line x1="550.0" y1="0.0" x2="0.0" y2="850.0" style="stroke-width:1;stroke:rgb(0,0,0);fill:none"/><line x1="850.0" y1="1400.0" x2="0.0" y2="850.0" style="stroke-width:1;stroke:rgb(0,0,0);fill:none"/><line x1="550.0" y1="0.0" x2="1400.0" y2="550.0" style="stroke-width:1;stroke:rgb(0,0,0);fill:none"/><line x1="850.0" y1="1400.0" x2="1400.0" y2="550.0" style="stroke-width:1;stroke:rgb(0,0,0);fill:none"/><line x1="600.0" y1="0.0" x2="0.0" y2="800.0" style="stroke-width:1;stroke:rgb(0,0,0);fill:none"/><line x1="800.0" y1="1400.0" x2="0.0" y2="800.0" style="stroke-width:1;stroke:rgb(0,0,0);fill:none"/><line x1="600.0" y1="0.0" x2="1400.0" y2="600.0" style="stroke-width:1;stroke:rgb(0,0,0);fill:none"/><line x1="800.0" y1="1400.0" x2="1400.0" y2="600.0" style="stroke-width:1;stroke:rgb(0,0,0);fill:none"/><line x1="650.0" y1="0.0" x2="0.0" y2="750.0" style="stroke-width:1;stroke:rgb(0,0,0);fill:none"/><line x1="750.0" y1="1400.0" x2="0.0" y2="750.0" style="stroke-width:1;stroke:rgb(0,0,0);fill:none"/><line x1="650.0" y1="0.0" x2="1400.0" y2="650.0" style="stroke-width:1;stroke:rgb(0,0,0);fill:none"/><line x1="750.0" y1="1400.0" x2="1400.0" y2="650.0" style="stroke-width:1;stroke:rgb(0,0,0);fill:none"/><line x1="700.0" y1="0.0" x2="0.0" y2="700.0" style="stroke-width:1;stroke:rgb(0,0,0);fill:none"/><line x1="700.0" y1="1400.0" x2="0.0" y2="700.0" style="stroke-width:1;stroke:rgb(0,0,0);fill:none"/><line x1="700.0" y1="0.0" x2="1400.0" y2="700.0" style="stroke-width:1;stroke:rgb(0,0,0);fill:none"/><line x1="700.0" y1="1400.0" x2="1400.0" y2="700.0" style="stroke-width:1;stroke:rgb(0,0,0);fill:none"/><line x1="750.0" y1="0.0" x2="0.0" y2="650.0" style="stroke-width:1;stroke:rgb(0,0,0);fill:none"/><line x1="650.0" y1="1400.0" x2="0.0" y2="650.0" style="stroke-width:1;stroke:rgb(0,0,0);fill:none"/><line x1="750.0" y1="0.0" x2="1400.0" y2="750.0" style="stroke-width:1;stroke:rgb(0,0,0);fill:none"/><line x1="650.0" y1="1400.0" x2="1400.0" y2="750.0" style="stroke-width:1;stroke:rgb(0,0,0);fill:none"/><line x1="800.0" y1="0.0" x2="0.0" y2="600.0" style="stroke-width:1;stroke:rgb(0,0,0);fill:none"/><line x1="600.0" y1="1400.0" x2="0.0" y2="600.0" style="stroke-width:1;stroke:rgb(0,0,0);fill:none"/><line x1="800.0" y1="0.0" x2="1400.0" y2="800.0" style="stroke-width:1;stroke:rgb(0,0,0);fill:none"/><line x1="600.0" y1="1400.0" x2="1400.0" y2="800.0" style="stroke-width:1;stroke:rgb(0,0,0);fill:none"/><line x1="850.0" y1="0.0" x2="0.0" y2="550.0" style="stroke-width:1;stroke:rgb(0,0,0);fill:none"/><line x1="550.0" y1="1400.0" x2="0.0" y2="550.0" style="stroke-width:1;stroke:rgb(0,0,0);fill:none"/><line x1="850.0" y1="0.0" x2="1400.0" y2="850.0" style="stroke-width:1;stroke:rgb(0,0,0);fill:none"/><line x1="550.0" y1="1400.0" x2="1400.0" y2="850.0" style="stroke-width:1;stroke:rgb(0,0,0);fill:none"/><line x1="900.0" y1="0.0" x2="0.0" y2="500.0" style="stroke-width:1;stroke:rgb(0,0,0);fill:none"/><line x1="500.0" y1="1400.0" x2="0.0" y2="500.0" style="stroke-width:1;stroke:rgb(0,0,0);fill:none"/><line x1="900.0" y1="0.0" x2="1400.0" y2="900.0" style="stroke-width:1;stroke:rgb(0,0,0);fill:none"/><line x1="500.0" y1="1400.0" x2="1400.0" y2="900.0" style="stroke-width:1;stroke:rgb(0,0,0);fill:none"/><line x1="950.0" y1="0.0" x2="0.0" y2="450.0" style="stroke-width:1;stroke:rgb(0,0,0);fill:none"/><line x1="450.0" y1="1400.0" x2="0.0" y2="450.0" style="stroke-width:1;stroke:rgb(0,0,0);fill:none"/><line x1="950.0" y1="0.0" x2="1400.0" y2="950.0" style="stroke-width:1;stroke:rgb(0,0,0);fill:none"/><line x1="450.0" y1="1400.0" x2="1400.0" y2="950.0" style="stroke-width:1;stroke:rgb(0,0,0);fill:none"/><line x1="1000.0" y1="0.0" x2="0.0" y2="400.0" style="stroke-width:1;stroke:rgb(0,0,0);fill:none"/><line x1="400.0" y1="1400.0" x2="0.0" y2="400.0" style="stroke-width:1;stroke:rgb(0,0,0);fill:none"/><line x1="1000.0" y1="0.0" x2="1400.0" y2="1000.0" style="stroke-width:1;stroke:rgb(0,0,0);fill:none"/><line x1="400.0" y1="1400.0" x2="1400.0" y2="1000.0" style="stroke-width:1;stroke:rgb(0,0,0);fill:none"/><line x1="1050.0" y1="0.0" x2="0.0" y2="350.0" style="stroke-width:1;stroke:rgb(0,0,0);fill:none"/><line x1="350.0" y1="1400.0" x2="0.0" y2="350.0" style="stroke-width:1;stroke:rgb(0,0,0);fill:none"/><line x1="1050.0" y1="0.0" x2="1400.0" y2="1050.0" style="stroke-width:1;stroke:rgb(0,0,0);fill:none"/><line x1="350.0" y1="1400.0" x2="1400.0" y2="1050.0" style="stroke-width:1;stroke:rgb(0,0,0);fill:none"/><line x1="1100.0" y1="0.0" x2="0.0" y2="300.0" style="stroke-width:1;stroke:rgb(0,0,0);fill:none"/><line x1="300.0" y1="1400.0" x2="0.0" y2="300.0" style="stroke-width:1;stroke:rgb(0,0,0);fill:none"/><line x1="1100.0" y1="0.0" x2="1400.0" y2="1100.0" style="stroke-width:1;stroke:rgb(0,0,0);fill:none"/><line x1="300.0" y1="1400.0" x2="1400.0" y2="1100.0" style="stroke-width:1;stroke:rgb(0,0,0);fill:none"/><line x1="1150.0" y1="0.0" x2="0.0" y2="250.0" style="stroke-width:1;stroke:rgb(0,0,0);fill:none"/><line x1="250.0" y1="1400.0" x2="0.0" y2="250.0" style="stroke-width:1;stroke:rgb(0,0,0);fill:none"/><line x1="1150.0" y1="0.0" x2="1400.0" y2="1150.0" style="stroke-width:1;stroke:rgb(0,0,0);fill:none"/><line x1="250.0" y1="1400.0" x2="1400.0" y2="1150.0" style="stroke-width:1;stroke:rgb(0,0,0);fill:none"/><line x1="1200.0" y1="0.0" x2="0.0" y2="200.0" style="stroke-width:1;stroke:rgb(0,0,0);fill:none"/><line x1="200.0" y1="1400.0" x2="0.0" y2="200.0" style="stroke-width:1;stroke:rgb(0,0,0);fill:none"/><line x1="1200.0" y1="0.0" x2="1400.0" y2="1200.0" style="stroke-width:1;stroke:rgb(0,0,0);fill:none"/><line x1="200.0" y1="1400.0" x2="1400.0" y2="1200.0" style="stroke-width:1;stroke:rgb(0,0,0);fill:none"/><line x1="1250.0" y1="0.0" x2="0.0" y2="150.0" style="stroke-width:1;stroke:rgb(0,0,0);fill:none"/><line x1="150.0" y1="1400.0" x2="0.0" y2="150.0" style="stroke-width:1;stroke:rgb(0,0,0);fill:none"/><line x1="1250.0" y1="0.0" x2="1400.0" y2="1250.0" style="stroke-width:1;stroke:rgb(0,0,0);fill:none"/><line x1="150.0" y1="1400.0" x2="1400.0" y2="1250.0" style="stroke-width:1;stroke:rgb(0,0,0);fill:none"/><line x1="1300.0" y1="0.0" x2="0.0" y2="100.0" style="stroke-width:1;stroke:rgb(0,0,0);fill:none"/><line x1="100.0" y1="1400.0" x2="0.0" y2="100.0" style="stroke-width:1;stroke:rgb(0,0,0);fill:none"/><line x1="1300.0" y1="0.0" x2="1400.0" y2="1300.0" style="stroke-width:1;stroke:rgb(0,0,0);fill:none"/><line x1="100.0" y1="1400.0" x2="1400.0" y2="1300.0" style="stroke-width:1;stroke:rgb(0,0,0);fill:none"/><line x1="1350.0" y1="0.0" x2="0.0" y2="50.0" style="stroke-width:1;stroke:rgb(0,0,0);fill:none"/><line x1="50.0" y1="1400.0" x2="0.0" y2="50.0" style="stroke-width:1;stroke:rgb(0,0,0);fill:none"/><line x1="1350.0" y1="0.0" x2="1400.0" y2="1350.0" style="stroke-width:1;stroke:rgb(0,0,0);fill:none"/><line x1="50.0" y1="1400.0" x2="1400.0" y2="1350.0" style="stroke-width:1;stroke:rgb(0,0,0);fill:none"/><line x1="1400.0" y1="0.0" x2="0.0" y2="0.0" style="stroke-width:1;stroke:rgb(0,0,0);fill:none"/><line x1="0.0" y1="1400.0" x2="0.0" y2="0.0" style="stroke-width:1;stroke:rgb(0,0,0);fill:none"/><line x1="1400.0" y1="0.0" x2="1400.0" y2="1400.0" style="stroke-width:1;stroke:rgb(0,0,0);fill:none"/><line x1="0.0" y1="1400.0" x2="1400.0" y2="1400.0" style="stroke-width:1;stroke:rgb(0,0,0);fill:none"/></svg>